<svg width="40" height="40" viewBox="0 0 40 40" fill="none" xmlns="http://www.w3.org/2000/svg">
<path d="M25.8478 39.1271C34.0317 36.62 40 28.9944 40 20C40 11.4962 34.6647 4.21625 27.1662 1.32852C27.123 1.3057 27.0767 1.28828 27.0284 1.27602C24.8406 0.452109 22.4723 0 20 0C8.97187 0 0 8.97187 0 20C0 28.9944 5.96828 36.62 14.1522 39.1271C14.1836 39.1391 14.216 39.1493 14.2496 39.1562C15.458 39.5195 16.7136 39.7723 18.0055 39.9009C18.0442 39.9084 18.0841 39.9126 18.125 39.9126C18.1276 39.9126 18.1301 39.9122 18.1327 39.9122C18.7477 39.9693 19.3703 40 20 40C20.6297 40 21.2523 39.9693 21.8673 39.9121C21.8698 39.9121 21.8723 39.9125 21.875 39.9125C21.9159 39.9125 21.9558 39.9083 21.9945 39.9008C23.2863 39.7723 24.542 39.5195 25.7504 39.1561C25.784 39.1493 25.8163 39.1391 25.8478 39.1271ZM1.25 20C1.25 19.3673 1.28195 18.7418 1.34352 18.125H15C16.3787 18.125 17.5 19.2463 17.5 20.625V38.5829C16.6473 38.4688 15.8127 38.2971 15 38.072V30.625C15 28.5569 13.3181 26.875 11.25 26.875H9.92094C9.64281 25.7978 8.66305 25 7.5 25C6.12125 25 5 26.1213 5 27.5C5 28.8787 6.12125 30 7.5 30C8.66297 30 9.64273 29.2022 9.92094 28.125H11.25C12.6287 28.125 13.75 29.2463 13.75 30.625V37.6775C6.475 35.0977 1.25 28.1481 1.25 20ZM8.75 27.5C8.75 28.1894 8.18937 28.75 7.5 28.75C6.81063 28.75 6.25 28.1894 6.25 27.5C6.25 26.8106 6.81063 26.25 7.5 26.25C8.18937 26.25 8.75 26.8106 8.75 27.5ZM18.75 38.7073V20.625C18.75 18.5569 17.0681 16.875 15 16.875H1.51187C3.00406 8.01859 10.7259 1.25 20 1.25C22.1906 1.25 24.2941 1.62891 26.25 2.3225V11.25C26.25 13.3181 27.9319 15 30 15H31.3291C31.6072 16.0772 32.587 16.875 33.75 16.875C35.1287 16.875 36.25 15.7537 36.25 14.375C36.25 12.9963 35.1287 11.875 33.75 11.875C32.587 11.875 31.6073 12.6728 31.3291 13.75H30C28.6213 13.75 27.5 12.6287 27.5 11.25V2.81727C34.1159 5.71625 38.75 12.3266 38.75 20C38.75 28.1481 33.525 35.0977 26.25 37.6775V26.25C26.25 24.8713 27.3713 23.75 28.75 23.75H30.0791C30.3572 24.8272 31.337 25.625 32.5 25.625C33.8787 25.625 35 24.5037 35 23.125C35 21.7463 33.8787 20.625 32.5 20.625C31.337 20.625 30.3573 21.4228 30.0791 22.5H28.75C26.6819 22.5 25 24.1819 25 26.25V38.072C24.1873 38.2971 23.3527 38.4688 22.5 38.5829V38.05C22.5 37.705 22.22 37.425 21.875 37.425C21.53 37.425 21.25 37.705 21.25 38.05V38.7073C20.8366 38.7347 20.4202 38.75 20 38.75C19.5798 38.75 19.1634 38.7347 18.75 38.7073ZM32.5 14.375C32.5 13.6856 33.0606 13.125 33.75 13.125C34.4394 13.125 35 13.6856 35 14.375C35 15.0644 34.4394 15.625 33.75 15.625C33.0606 15.625 32.5 15.0644 32.5 14.375ZM31.25 23.125C31.25 22.4356 31.8106 21.875 32.5 21.875C33.1894 21.875 33.75 22.4356 33.75 23.125C33.75 23.8144 33.1894 24.375 32.5 24.375C31.8106 24.375 31.25 23.8144 31.25 23.125Z" fill="white"/>
<path d="M21.25 13.75V30.5375C21.25 30.8825 21.53 31.1625 21.875 31.1625C22.22 31.1625 22.5 30.8825 22.5 30.5375V13.75C22.5 11.6819 20.8181 10 18.75 10H17.4209C17.1428 8.92281 16.163 8.125 15 8.125C13.6212 8.125 12.5 9.24625 12.5 10.625C12.5 12.0038 13.6212 13.125 15 13.125C16.163 13.125 17.1427 12.3272 17.4209 11.25H18.75C20.1287 11.25 21.25 12.3713 21.25 13.75ZM15 11.875C14.3106 11.875 13.75 11.3144 13.75 10.625C13.75 9.93563 14.3106 9.375 15 9.375C15.6894 9.375 16.25 9.93563 16.25 10.625C16.25 11.3144 15.6894 11.875 15 11.875Z" fill="white"/>
<path d="M21.4313 32.6815C21.3188 32.8002 21.25 32.9627 21.25 33.1252C21.25 33.2877 21.3188 33.4502 21.4313 33.569C21.55 33.6815 21.7125 33.7502 21.875 33.7502C22.0375 33.7502 22.2 33.6815 22.3187 33.569C22.4312 33.4502 22.5 33.294 22.5 33.1252C22.5 32.9627 22.4312 32.8002 22.3187 32.6815C22.0812 32.4502 21.6688 32.4502 21.4313 32.6815Z" fill="white"/>
<path d="M21.4313 35.1815C21.3188 35.3002 21.25 35.4627 21.25 35.6252C21.25 35.7877 21.3188 35.9502 21.4313 36.069C21.55 36.1815 21.7125 36.2502 21.875 36.2502C22.0375 36.2502 22.2 36.1815 22.3187 36.069C22.4312 35.9502 22.5 35.7877 22.5 35.6252C22.5 35.4627 22.4312 35.3002 22.3187 35.1815C22.0875 34.9502 21.6688 34.9502 21.4313 35.1815Z" fill="white"/>
</svg>
