<svg width="36" height="36" viewBox="0 0 36 36" fill="none" xmlns="http://www.w3.org/2000/svg">
<path d="M35.024 34.2788H30.5403C31.2887 33.594 32.0385 33.5354 32.0816 33.5326L32.0731 33.5331L32.0135 32.0439C31.925 32.0474 29.9466 32.1529 28.6298 34.2788H26.4896C28.0778 31.6699 32.1689 30.5456 32.2342 30.528C32.6319 30.4226 32.869 30.0149 32.7636 29.6171C32.6584 29.2191 32.2501 28.9817 31.8526 29.0873C31.6208 29.1486 26.3906 30.5724 24.8179 34.2788H19.8265L25.8351 28.8712C25.9921 28.7299 26.0818 28.5286 26.0818 28.3173V10.4327H26.827C27.2385 10.4327 27.5722 10.0991 27.5722 9.6875V5.96154H29.0626C29.4741 5.96154 29.8078 5.62792 29.8078 5.21635V0.745192C29.8078 0.333623 29.4741 0 29.0626 0C28.6511 0 28.3174 0.333623 28.3174 0.745192V4.47115H7.45192V0.745192C7.45192 0.333623 7.1183 0 6.70673 0C6.29516 0 5.96154 0.333623 5.96154 0.745192V5.21635C5.96154 5.62792 6.29516 5.96154 6.70673 5.96154H8.19712V9.6875C8.19712 10.0991 8.53074 10.4327 8.94231 10.4327H9.6875C9.68884 28.4896 9.67826 27.5983 9.70211 27.7188C9.73199 27.8678 9.80815 28.0025 9.90577 28.0991L16.0855 34.2788H10.9514C9.37862 30.5724 4.14841 29.1486 3.91658 29.0873C3.51887 28.9817 3.1117 29.2191 3.00611 29.6166C2.90051 30.014 3.13733 30.422 3.53475 30.5279C3.58087 30.5402 7.6877 31.6637 9.27973 34.2788H7.13954C5.82278 32.1529 3.8443 32.0474 3.75584 32.0439L3.69623 33.5331L3.68766 33.5326C3.73073 33.5354 4.48054 33.5939 5.22894 34.2788H0.745192C0.333623 34.2788 0 34.6125 0 35.024C0 35.4355 0.333623 35.7692 0.745192 35.7692H35.024C35.4355 35.7692 35.7692 35.4355 35.7692 35.024C35.7692 34.6125 35.4355 34.2788 35.024 34.2788ZM26.0817 5.96154V8.94231H9.6875V5.96154H26.0817ZM13.4135 10.4327V22.3558C13.4135 22.7673 13.7471 23.101 14.1587 23.101C14.5702 23.101 14.9038 22.7673 14.9038 22.3558V10.4327H24.5913V27.9854L17.9116 33.9972L12.2318 28.3173H21.6106C22.0221 28.3173 22.3558 27.9836 22.3558 27.5721C22.3558 27.1606 22.0221 26.8269 21.6106 26.8269H11.1779V10.4327H13.4135Z" fill="white"/>
<path d="M32.0442 19.3755C33.2769 19.3755 34.2797 18.3726 34.2797 17.1399C34.2797 15.9072 33.2769 14.9043 32.0442 14.9043C30.8115 14.9043 29.8086 15.9072 29.8086 17.1399C29.8086 18.3726 30.8115 19.3755 32.0442 19.3755ZM32.0442 16.3947C32.4551 16.3947 32.7894 16.729 32.7894 17.1399C32.7894 17.5508 32.4551 17.8851 32.0442 17.8851C31.6333 17.8851 31.299 17.5508 31.299 17.1399C31.299 16.729 31.6333 16.3947 32.0442 16.3947Z" fill="white"/>
<path d="M4.46995 24.5913C5.70265 24.5913 6.70553 23.5884 6.70553 22.3557C6.70553 21.123 5.70265 20.1201 4.46995 20.1201C3.23725 20.1201 2.23438 21.123 2.23438 22.3557C2.23438 23.5884 3.23725 24.5913 4.46995 24.5913ZM4.46995 21.6105C4.88085 21.6105 5.21514 21.9448 5.21514 22.3557C5.21514 22.7666 4.88085 23.1009 4.46995 23.1009C4.05905 23.1009 3.72476 22.7666 3.72476 22.3557C3.72476 21.9448 4.05905 21.6105 4.46995 21.6105Z" fill="white"/>
<path d="M4.46995 12.6684C5.70265 12.6684 6.70553 11.6655 6.70553 10.4328C6.70553 9.20015 5.70265 8.19727 4.46995 8.19727C3.23725 8.19727 2.23438 9.20015 2.23438 10.4328C2.23438 11.6655 3.23725 12.6684 4.46995 12.6684ZM4.46995 9.68765C4.88085 9.68765 5.21514 10.0219 5.21514 10.4328C5.21514 10.8437 4.88085 11.178 4.46995 11.178C4.05905 11.178 3.72476 10.8437 3.72476 10.4328C3.72476 10.0219 4.05905 9.68765 4.46995 9.68765Z" fill="white"/>
</svg>
