<svg width="46" height="40" viewBox="0 0 46 40" fill="none" xmlns="http://www.w3.org/2000/svg">
<path d="M31.7851 21.6118H13.4799C13.3343 20.8845 12.9208 20.2349 12.3179 19.7862C11.715 19.3375 10.9646 19.121 10.2093 19.1779C9.45399 19.2347 8.74632 19.5609 8.22067 20.0946C7.69502 20.6282 7.388 21.3321 7.35791 22.0726C7.32782 22.8131 7.57676 23.5387 8.05745 24.1114C8.53814 24.6842 9.21711 25.0644 9.96543 25.1797C10.7138 25.295 11.4793 25.1375 12.1167 24.737C12.7542 24.3366 13.2191 23.7211 13.4232 23.0074H31.8418C32.0459 23.7211 32.5108 24.3366 33.1482 24.737C33.7856 25.1375 34.5512 25.295 35.2995 25.1797C36.0478 25.0644 36.7268 24.6842 37.2075 24.1114C37.6882 23.5387 37.9371 22.8131 37.907 22.0726C37.8769 21.3321 37.5699 20.6282 37.0442 20.0946C36.5186 19.5609 35.8109 19.2347 35.0556 19.1779C34.3003 19.121 33.5499 19.3375 32.947 19.7862C32.3441 20.2349 31.9306 20.8845 31.7851 21.6118ZM10.4469 23.8215C10.1177 23.8215 9.79592 23.726 9.52221 23.5471C9.24851 23.3682 9.03518 23.1139 8.90921 22.8164C8.78323 22.5189 8.75027 22.1915 8.81449 21.8757C8.87871 21.5598 9.03723 21.2697 9.27 21.042C9.50276 20.8143 9.79933 20.6592 10.1222 20.5964C10.445 20.5336 10.7797 20.5658 11.0838 20.689C11.3879 20.8123 11.6479 21.021 11.8308 21.2887C12.0137 21.5565 12.1113 21.8713 12.1113 22.1933C12.1108 22.625 11.9353 23.0389 11.6233 23.3441C11.3112 23.6493 10.8882 23.821 10.4469 23.8215ZM36.4825 22.1933C36.4825 22.5153 36.3849 22.8301 36.202 23.0979C36.0191 23.3656 35.7592 23.5743 35.4551 23.6976C35.151 23.8208 34.8163 23.853 34.4934 23.7902C34.1706 23.7274 33.874 23.5723 33.6413 23.3446C33.4085 23.1169 33.25 22.8268 33.1857 22.5109C33.1215 22.1951 33.1545 21.8677 33.2805 21.5702C33.4064 21.2727 33.6198 21.0184 33.8935 20.8395C34.1672 20.6606 34.489 20.5651 34.8181 20.5651C35.2594 20.5656 35.6825 20.7373 35.9945 21.0425C36.3065 21.3478 36.482 21.7616 36.4825 22.1933Z" fill="white"/>
<path d="M40.8808 12.5409C41.4615 12.541 42.0306 12.3811 42.5227 12.0794C43.0148 11.7778 43.4101 11.3466 43.6632 10.8353C43.9164 10.324 44.0172 9.75324 43.9541 9.18848C43.891 8.62373 43.6665 8.08779 43.3064 7.64208C42.9463 7.19637 42.4651 6.85893 41.918 6.66841C41.3708 6.4779 40.7799 6.44202 40.2129 6.56489C39.6459 6.68776 39.1258 6.96441 38.7121 7.36313C38.2984 7.76186 38.0079 8.26653 37.8739 8.81932H34.4611C34.2719 8.81932 34.0904 8.89284 33.9567 9.0237C33.8229 9.15456 33.7477 9.33205 33.7477 9.51712V13.0061H31.662V10.1371C31.662 10.0106 31.6269 9.88646 31.5603 9.77798C31.4937 9.66951 31.3983 9.58079 31.2841 9.5213L16.0394 1.57443C15.9349 1.51995 15.8182 1.49177 15.6997 1.49244C15.5813 1.49311 15.465 1.52261 15.3611 1.57827L0.53853 9.52514C0.426346 9.58527 0.332755 9.67381 0.267561 9.78147C0.202366 9.88914 0.167968 10.012 0.167969 10.1371V19.3064C0.172331 23.4735 1.41746 27.549 3.75119 31.0351C6.08492 34.5211 9.40618 37.2665 13.3091 38.9359L15.3658 39.8132C15.4553 39.8514 15.5519 39.8712 15.6496 39.8714C15.7473 39.8716 15.844 39.8521 15.9337 39.8142L18.2495 38.8358C22.0518 37.269 25.3255 34.6852 27.6949 31.381H33.7473V34.87C33.7473 35.0551 33.8224 35.2325 33.9562 35.3634C34.09 35.4943 34.2714 35.5678 34.4606 35.5678H37.8734C38.0482 36.2889 38.4877 36.9221 39.1083 37.3471C39.729 37.7722 40.4876 37.9594 41.24 37.8733C41.9925 37.7872 42.6864 37.4338 43.1901 36.8801C43.6937 36.3264 43.9719 35.6111 43.9719 34.87C43.9719 34.1289 43.6937 33.4135 43.1901 32.8599C42.6864 32.3062 41.9925 31.9528 41.24 31.8667C40.4876 31.7806 39.729 31.9678 39.1083 32.3928C38.4877 32.8179 38.0482 33.4511 37.8734 34.1722H35.1744V30.6837C35.1744 30.4986 35.0992 30.3211 34.9654 30.1902C34.8317 30.0594 34.6502 29.9859 34.4611 29.9859H20.8241C20.6493 29.2647 20.2098 28.6315 19.5892 28.2065C18.9685 27.7815 18.2099 27.5942 17.4574 27.6803C16.705 27.7664 16.011 28.1199 15.5074 28.6735C15.0038 29.2272 14.7255 29.9425 14.7255 30.6837C14.7255 31.4248 15.0038 32.1401 15.5074 32.6938C16.011 33.2474 16.705 33.6009 17.4574 33.687C18.2099 33.7731 18.9685 33.5858 19.5892 33.1608C20.2098 32.7358 20.6493 32.1026 20.8241 31.3815H25.9254C23.765 34.0939 20.9292 36.2187 17.6894 37.5524L15.6526 38.4131L13.8804 37.6571C10.2318 36.0964 7.1268 33.5299 4.94497 30.271C2.76314 27.0121 1.59892 23.202 1.59458 19.3064V10.5504L15.7087 2.9834L30.2354 10.556V13.0061H20.8241C20.6493 12.285 20.2098 11.6518 19.5892 11.2268C18.9685 10.8017 18.2099 10.6145 17.4574 10.7006C16.705 10.7867 16.011 11.1401 15.5074 11.6938C15.0038 12.2475 14.7255 12.9628 14.7255 13.7039C14.7255 14.445 15.0038 15.1604 15.5074 15.714C16.011 16.2677 16.705 16.6211 17.4574 16.7072C18.2099 16.7933 18.9685 16.6061 19.5892 16.1811C20.2098 15.756 20.6493 15.1228 20.8241 14.4017H34.4611C34.6502 14.4017 34.8317 14.3282 34.9654 14.1973C35.0992 14.0665 35.1744 13.889 35.1744 13.7039V10.2149H37.8739C38.0351 10.8767 38.4195 11.4661 38.965 11.888C39.5105 12.31 40.1854 12.54 40.8808 12.5409ZM40.8808 7.88892C41.21 7.88892 41.5318 7.98441 41.8055 8.16332C42.0792 8.34223 42.2925 8.59652 42.4185 8.89403C42.5445 9.19155 42.5774 9.51892 42.5132 9.83476C42.449 10.1506 42.2905 10.4407 42.0577 10.6684C41.8249 10.8961 41.5284 11.0512 41.2055 11.114C40.8826 11.1769 40.548 11.1446 40.2439 11.0214C39.9397 10.8981 39.6798 10.6895 39.4969 10.4217C39.314 10.1539 39.2164 9.83914 39.2164 9.51712C39.2169 9.08544 39.3924 8.67159 39.7045 8.36635C40.0165 8.06111 40.4395 7.88941 40.8808 7.88892ZM40.8808 33.2423C41.21 33.2423 41.5318 33.3378 41.8055 33.5167C42.0792 33.6956 42.2925 33.9499 42.4185 34.2474C42.5445 34.5449 42.5774 34.8723 42.5132 35.1881C42.449 35.5039 42.2905 35.7941 42.0577 36.0218C41.8249 36.2495 41.5284 36.4045 41.2055 36.4674C40.8826 36.5302 40.548 36.498 40.2439 36.3747C39.9397 36.2515 39.6798 36.0428 39.4969 35.775C39.314 35.5073 39.2164 35.1925 39.2164 34.8705C39.2169 34.4388 39.3924 34.0249 39.7045 33.7197C40.0165 33.4145 40.4395 33.2428 40.8808 33.2423ZM17.8173 32.3119C17.5148 32.3121 17.2179 32.2317 16.9586 32.0793C16.6993 31.9269 16.4874 31.7082 16.3456 31.4468C16.2038 31.1854 16.1375 30.8911 16.1539 30.5956C16.1703 30.3001 16.2686 30.0146 16.4384 29.7697C16.6082 29.5248 16.8431 29.3298 17.1177 29.2057C17.3923 29.0815 17.6963 29.0329 17.997 29.0651C18.2977 29.0973 18.5837 29.2091 18.8244 29.3884C19.065 29.5677 19.2511 29.8078 19.3628 30.0829V31.2845C19.2397 31.5872 19.0266 31.8469 18.7511 32.0301C18.4756 32.2132 18.1503 32.3114 17.8173 32.3119ZM17.8173 15.3321C17.5148 15.3324 17.2179 15.252 16.9586 15.0995C16.6993 14.9471 16.4874 14.7285 16.3456 14.4671C16.2038 14.2056 16.1375 13.9114 16.1539 13.6159C16.1703 13.3204 16.2686 13.0348 16.4384 12.7899C16.6082 12.545 16.8431 12.35 17.1177 12.2259C17.3923 12.1018 17.6963 12.0532 17.997 12.0854C18.2977 12.1176 18.5837 12.2293 18.8244 12.4087C19.065 12.588 19.2511 12.8281 19.3628 13.1031V14.3047C19.2397 14.6075 19.0266 14.8672 18.7511 15.0503C18.4756 15.2335 18.1503 15.3316 17.8173 15.3321Z" fill="white"/>
</svg>
