<svg width="44" height="44" viewBox="0 0 44 44" fill="none" xmlns="http://www.w3.org/2000/svg">
<path d="M40.2449 24.9789C38.6021 24.9789 37.2656 23.6424 37.2656 21.9997C37.2656 20.357 38.6021 19.0205 40.2449 19.0205C41.8876 19.0205 43.2241 20.357 43.2241 21.9997C43.2241 23.6425 41.8876 24.9789 40.2449 24.9789ZM40.2449 20.2236C39.2656 20.2236 38.4688 21.0204 38.4688 21.9997C38.4688 22.979 39.2655 23.7758 40.2449 23.7758C41.2243 23.7758 42.021 22.979 42.021 21.9997C42.021 21.0204 41.2243 20.2236 40.2449 20.2236Z" fill="white"/>
<path d="M40.2448 6.73183C38.6021 6.73183 37.2656 5.39533 37.2656 3.75263C37.2656 2.10994 38.6021 0.773438 40.2448 0.773438C41.8876 0.773438 43.2241 2.10994 43.2241 3.75263C43.2241 5.39541 41.8876 6.73183 40.2448 6.73183ZM40.2448 1.97656C39.2655 1.97656 38.4688 2.77329 38.4688 3.75263C38.4688 4.73198 39.2655 5.5287 40.2448 5.5287C41.2242 5.5287 42.021 4.73198 42.021 3.75263C42.021 2.77329 41.2242 1.97656 40.2448 1.97656Z" fill="white"/>
<path d="M38.1429 38.9917L33.2318 34.0805H28.3556V32.8774H33.481C33.6405 32.8774 33.7936 32.9407 33.9064 33.0535L38.9938 38.1409L38.1429 38.9917ZM37.8312 22.6017H33.2361V21.3986H37.8312V22.6017ZM33.481 11.123H28.3555V9.91986H33.2317L38.1428 5.00879L38.9936 5.85948L33.9062 10.9467C33.7935 11.0596 33.6405 11.123 33.481 11.123Z" fill="white"/>
<path d="M40.2448 43.2269C38.6021 43.2269 37.2656 41.8904 37.2656 40.2478C37.2656 38.605 38.6021 37.2686 40.2448 37.2686C41.8876 37.2686 43.2241 38.6051 43.2241 40.2478C43.2241 41.8904 41.8876 43.2269 40.2448 43.2269ZM40.2448 38.4717C39.2655 38.4717 38.4688 39.2684 38.4688 40.2478C38.4688 41.2271 39.2656 42.0238 40.2448 42.0238C41.2242 42.0238 42.021 41.2271 42.021 40.2478C42.021 39.2684 41.2242 38.4717 40.2448 38.4717Z" fill="white"/>
<path d="M17.304 30.3863C12.6799 30.3863 8.91797 26.6244 8.91797 22.0003C8.91797 17.3763 12.6799 13.6143 17.304 13.6143C21.9281 13.6143 25.69 17.3762 25.69 22.0003C25.69 26.6244 21.9281 30.3863 17.304 30.3863ZM17.304 14.8175C13.3433 14.8175 10.1211 18.0397 10.1211 22.0004C10.1211 25.9611 13.3433 29.1833 17.304 29.1833C21.2647 29.1833 24.4869 25.9611 24.4869 22.0004C24.4869 18.0397 21.2647 14.8175 17.304 14.8175Z" fill="white"/>
<path d="M17.304 27.9801C14.0068 27.9801 11.3242 25.2975 11.3242 22.0003C11.3242 18.703 14.0068 16.0205 17.304 16.0205C20.6013 16.0205 23.2839 18.703 23.2839 22.0003C23.2839 25.2976 20.6013 27.9801 17.304 27.9801ZM17.304 17.2237C14.6702 17.2237 12.5273 19.3665 12.5273 22.0004C12.5273 24.6343 14.6702 26.777 17.304 26.777C19.9379 26.777 22.0808 24.6342 22.0808 22.0004C22.0808 19.3666 19.938 17.2237 17.304 17.2237Z" fill="white"/>
<path d="M18.8973 38.531H15.7116C14.803 38.531 14.0638 37.7918 14.0638 36.8831C14.0638 35.4449 13.1308 34.5461 12.2577 34.1844C11.3847 33.8228 10.0892 33.7985 9.07216 34.8156C8.76107 35.1269 8.34711 35.2982 7.90694 35.2982C7.46668 35.2982 7.0528 35.1268 6.74154 34.8155L4.48877 32.5629C4.17759 32.2517 4.00615 31.8378 4.00615 31.3975C4.00615 30.9573 4.17759 30.5434 4.48886 30.2321C5.50576 29.2152 5.4817 27.9199 5.12007 27.0468C4.75845 26.1737 3.85954 25.2408 2.42138 25.2408C1.51276 25.2408 0.773438 24.5016 0.773438 23.593V20.4072C0.773438 19.4985 1.51276 18.7593 2.42138 18.7593C3.85954 18.7593 4.75845 17.8264 5.12007 16.9533C5.4817 16.0801 5.50576 14.7848 4.48877 13.7678C4.17759 13.4566 4.00615 13.0428 4.00615 12.6025C4.00615 12.1622 4.17759 11.7484 4.48886 11.4372L6.74154 9.18442C7.05272 8.87315 7.46668 8.70179 7.90694 8.70179C8.34711 8.70179 8.76099 8.87324 9.07225 9.18442C10.0891 10.2014 11.3845 10.1773 12.2577 9.81571C13.1307 9.45409 14.0638 8.55518 14.0638 7.11693C14.0638 6.20823 14.803 5.46899 15.7116 5.46899H18.8973C19.8059 5.46899 20.5453 6.20823 20.5453 7.11693C20.5453 8.55518 21.4782 9.45409 22.3513 9.81571C23.2244 10.1773 24.5197 10.2015 25.5367 9.18442C25.8479 8.87315 26.2618 8.70179 26.7021 8.70179C27.1423 8.70179 27.5561 8.87324 27.8674 9.18442L30.1202 11.4372C30.4313 11.7484 30.6028 12.1622 30.6028 12.6025C30.6028 13.0428 30.4313 13.4565 30.1201 13.7678C29.1032 14.7847 29.1272 16.08 29.4889 16.9532C29.8505 17.8263 30.7494 18.7592 32.1876 18.7592C33.0963 18.7592 33.8356 19.4985 33.8356 20.4071V23.5929C33.8356 24.5016 33.0963 25.2408 32.1876 25.2408C30.7494 25.2408 29.8505 26.1737 29.4889 27.0469C29.1272 27.92 29.1032 29.2152 30.1202 30.2322C30.4313 30.5434 30.6028 30.9573 30.6028 31.3975C30.6028 31.8379 30.4313 32.2517 30.1201 32.5629L27.8673 34.8156C27.5562 35.1269 27.1423 35.2982 26.7021 35.2982C26.2618 35.2982 25.848 35.1269 25.5367 34.8156C24.5181 33.797 23.2227 33.8204 22.3503 34.1818C21.4777 34.5433 20.5453 35.4427 20.5453 36.8831C20.5452 37.7918 19.8059 38.531 18.8973 38.531ZM11.1103 32.7477C11.6463 32.7477 12.1906 32.8544 12.7181 33.0729C14.2902 33.724 15.2668 35.184 15.2668 36.8831C15.2668 37.1284 15.4663 37.3279 15.7115 37.3279H18.8972C19.1425 37.3279 19.342 37.1284 19.342 36.8831C19.342 35.1822 20.3182 33.7213 21.8897 33.0703C23.4609 32.4193 25.1846 32.7621 26.3874 33.9649C26.4714 34.049 26.583 34.0952 26.7019 34.0952C26.8208 34.0952 26.9324 34.049 27.0163 33.965L29.2692 31.7122C29.3532 31.6282 29.3995 31.5166 29.3995 31.3976C29.3995 31.2787 29.3532 31.1671 29.2692 31.0831C28.0678 29.8817 27.7259 28.1586 28.3771 26.5865C29.0283 25.0144 30.4883 24.0378 32.1875 24.0378C32.4327 24.0378 32.6323 23.8382 32.6323 23.593V20.4072C32.6323 20.1619 32.4327 19.9624 32.1875 19.9624C30.4884 19.9624 29.0283 18.9858 28.3771 17.4136C27.7259 15.8415 28.0677 14.1185 29.2692 12.9171C29.3532 12.8331 29.3995 12.7214 29.3995 12.6026C29.3995 12.4837 29.3532 12.372 29.2692 12.288L27.0163 10.0352C26.9324 9.95115 26.8208 9.90492 26.7019 9.90492C26.583 9.90492 26.4712 9.95124 26.3873 10.0352C25.1859 11.2366 23.4628 11.5785 21.8908 10.9272C20.3186 10.2761 19.342 8.816 19.342 7.11693C19.342 6.87167 19.1425 6.67212 18.8972 6.67212H15.7115C15.4663 6.67212 15.2668 6.87167 15.2668 7.11693C15.2668 8.816 14.2902 10.2761 12.7181 10.9272C11.1458 11.5785 9.42288 11.2366 8.22138 10.0352C8.13742 9.95115 8.02579 9.90492 7.90694 9.90492C7.788 9.90492 7.67628 9.95115 7.59241 10.0352L5.33964 12.288C5.25551 12.372 5.20927 12.4836 5.20927 12.6025C5.20927 12.7213 5.25551 12.8331 5.33956 12.917C6.54096 14.1184 6.88282 15.8415 6.23167 17.4136C5.58044 18.9858 4.12045 19.9624 2.42138 19.9624C2.17611 19.9624 1.97656 20.1619 1.97656 20.4071V23.5929C1.97656 23.8381 2.17611 24.0377 2.42138 24.0377C4.12045 24.0377 5.58044 25.0143 6.23167 26.5864C6.88282 28.1586 6.54105 29.8815 5.33964 31.083C5.25551 31.1671 5.20927 31.2787 5.20927 31.3976C5.20927 31.5166 5.25551 31.6282 5.33956 31.7122L7.59241 33.9649C7.67645 34.049 7.788 34.0952 7.90694 34.0952C8.02579 34.0952 8.13742 34.049 8.22138 33.965C9.01974 33.1666 10.0487 32.7477 11.1103 32.7477Z" fill="white"/>
</svg>
