<svg width="40" height="40" viewBox="0 0 40 40" fill="none" xmlns="http://www.w3.org/2000/svg">
<path d="M39.2516 24.2743C39.7132 23.8222 40 23.1945 40 22.5016C40 21.1273 38.8733 20.0094 37.4884 20.0094C37.2595 20.0094 37.0377 20.0405 36.8268 20.0977L31.1637 16.8605C31.047 16.4243 30.8138 16.0347 30.4991 15.7266V9.26813C30.9609 8.81594 31.2477 8.18836 31.2477 7.49531C31.2477 6.12109 30.1209 5.00313 28.736 5.00313C28.5073 5.00313 28.2857 5.03422 28.0749 5.09133L22.4116 1.85445C22.127 0.788281 21.1466 0 19.9838 0C18.8209 0 17.8405 0.788203 17.5559 1.8543L16.0682 2.70469C15.7873 2.86531 15.6897 3.22328 15.8503 3.50414C16.0126 3.78805 16.3732 3.88047 16.6498 3.72211L17.5741 3.19375C17.6883 3.57891 17.8937 3.92539 18.1656 4.20883L13.6414 6.79492C13.5275 6.40969 13.3223 6.06312 13.0505 5.77953L14.2682 5.08344C14.5491 4.92281 14.6467 4.56484 14.4861 4.28398C14.3255 4.00289 13.9675 3.90547 13.6866 4.06602L11.8928 5.09141C11.682 5.03422 11.4603 5.00313 11.2315 5.00313C9.84656 5.00313 8.71992 6.12117 8.71992 7.49531C8.71992 8.18859 9.00688 8.81633 9.46883 9.26852V15.7263C9.15406 16.0344 8.92078 16.424 8.80398 16.8603L3.15109 20.0915C2.94687 20.038 2.73266 20.0094 2.51172 20.0094C1.12672 20.0094 0 21.1274 0 22.5016C0 23.1784 0.273594 23.7926 0.716406 24.2422V30.7653C0.273594 31.2148 0 31.829 0 32.5057C0 33.8799 1.12672 34.9979 2.51164 34.9979C2.73266 34.9979 2.94703 34.9691 3.15133 34.9157L8.80383 38.1467C9.08891 39.2123 10.0691 40 11.2314 40C12.3939 40 13.3741 39.2122 13.6591 38.1465L19.3217 34.9095C19.5327 34.9667 19.7545 34.998 19.9837 34.998C20.2127 34.998 20.4345 34.9668 20.6454 34.9095L26.3083 38.1466C26.5934 39.2123 27.5735 40 28.7359 40C29.8984 40 30.8786 39.2122 31.1636 38.1465L36.8263 34.9095C37.0373 34.9667 37.2591 34.998 37.4882 34.998C38.8731 34.998 39.9998 33.8799 39.9998 32.5058C39.9998 31.8128 39.713 31.1852 39.2513 30.733V24.2743H39.2516ZM31.1459 18.2003L35.6692 20.7859C35.3976 21.0694 35.1924 21.4158 35.0785 21.8007L30.5551 19.2152C30.8268 18.9318 31.032 18.5854 31.1459 18.2003ZM28.736 6.175C29.4748 6.175 30.0758 6.76727 30.0758 7.49531C30.0758 8.22328 29.4748 8.81555 28.736 8.81555C27.9973 8.81555 27.3963 8.22328 27.3963 7.49531C27.3963 6.76727 27.9973 6.175 28.736 6.175ZM29.3273 9.91711V15.0777C29.1376 15.0321 28.9398 15.0073 28.7361 15.0073C28.5326 15.0073 28.3349 15.0321 28.1453 15.0777V9.91719C28.3349 9.96273 28.5326 9.9875 28.7361 9.9875C28.9397 9.9875 29.1376 9.96266 29.3273 9.91711ZM28.736 16.1792C29.4748 16.1792 30.0758 16.7715 30.0758 17.4995C30.0758 18.0451 29.7381 18.5145 29.258 18.7154C29.2552 18.7165 29.2522 18.7176 29.2493 18.7187C29.0911 18.7836 28.9178 18.8198 28.736 18.8198C28.5546 18.8198 28.3816 18.7837 28.2237 18.719C28.2202 18.7177 28.2168 18.7163 28.2134 18.7151C27.7336 18.514 27.3963 18.0448 27.3963 17.4995C27.3963 16.7715 27.9973 16.1792 28.736 16.1792ZM22.3933 3.19383L26.9171 5.77945C26.6454 6.06297 26.4402 6.40945 26.3262 6.79453L21.8018 4.20891C22.0737 3.92547 22.2792 3.57898 22.3933 3.19383ZM19.9838 1.17188C20.7225 1.17188 21.3234 1.76414 21.3234 2.49211C21.3234 3.22016 20.7225 3.81242 19.9838 3.81242C19.245 3.81242 18.644 3.22016 18.644 2.49211C18.644 1.76414 19.245 1.17188 19.9838 1.17188ZM12.9945 9.26813C13.309 8.96016 13.5421 8.57086 13.6588 8.13484L19.3241 4.89648C19.5345 4.95336 19.7555 4.9843 19.9838 4.9843C20.212 4.9843 20.4329 4.95336 20.6432 4.89648L26.3084 8.13406C26.4252 8.57055 26.6586 8.96031 26.9734 9.26852V15.7262C26.6587 16.0343 26.4253 16.424 26.3085 16.8604L20.6448 20.0976C20.434 20.0405 20.2126 20.0094 19.9838 20.0094C19.7549 20.0094 19.5334 20.0405 19.3227 20.0976L13.7359 16.9045L13.6591 16.8605C13.5423 16.4243 13.3091 16.0347 12.9945 15.7266V9.26813ZM26.917 19.2152L22.3935 21.8006C22.2796 21.4156 22.0745 21.0693 21.8028 20.7859L26.3263 18.2007C26.4403 18.5855 26.6454 18.9318 26.917 19.2152ZM21.3234 22.5016C21.3234 23.2296 20.7225 23.8219 19.9838 23.8219C19.245 23.8219 18.644 23.2296 18.644 22.5016C18.644 21.7736 19.245 21.1813 19.9838 21.1813C20.7225 21.1813 21.3234 21.7735 21.3234 22.5016ZM18.1646 20.7859C17.893 21.0694 17.6879 21.4157 17.574 21.8007L13.0507 19.2151C13.3223 18.9316 13.5274 18.5853 13.6413 18.2003L18.1646 20.7859ZM11.2314 6.175C11.9702 6.175 12.5712 6.76727 12.5712 7.49531C12.5712 8.22328 11.9702 8.81555 11.2314 8.81555C10.4927 8.81555 9.89172 8.22328 9.89172 7.49531C9.89172 6.76727 10.4927 6.175 11.2314 6.175ZM11.8227 9.91711V15.0777C11.6329 15.0321 11.4351 15.0073 11.2314 15.0073C11.0279 15.0073 10.8302 15.0321 10.6406 15.0777V9.91719C10.8302 9.96273 11.0279 9.9875 11.2314 9.9875C11.4351 9.9875 11.6329 9.96273 11.8227 9.91711ZM11.2314 16.1792C11.9702 16.1792 12.5712 16.7715 12.5712 17.4995C12.5712 18.0451 12.2336 18.5144 11.7535 18.7153C11.7505 18.7164 11.7474 18.7176 11.7445 18.7188C11.5863 18.7836 11.4131 18.8198 11.2314 18.8198C11.0495 18.8198 10.8759 18.7835 10.7177 18.7184C10.7149 18.7173 10.7121 18.7163 10.7094 18.7153C10.2293 18.5144 9.89172 18.0451 9.89172 17.4995C9.89172 16.7715 10.4927 16.1792 11.2314 16.1792ZM8.82156 18.2001C8.93547 18.5852 9.1407 18.9317 9.41242 19.2152L4.91695 21.7851C4.80047 21.4008 4.59273 21.0555 4.31898 20.7737L8.82156 18.2001ZM2.51164 33.8261C1.77289 33.8261 1.17188 33.2338 1.17188 32.5058C1.17188 31.7778 1.77289 31.1855 2.51164 31.1855C3.25039 31.1855 3.85141 31.7778 3.85141 32.5058C3.85141 33.2338 3.25039 33.8261 2.51164 33.8261ZM1.88828 30.0913V24.9159C2.08766 24.9666 2.29656 24.9937 2.51164 24.9937C2.70367 24.9937 2.89047 24.9715 3.07031 24.9308V30.0764C2.89047 30.0357 2.70367 30.0135 2.51164 30.0135C2.29656 30.0136 2.08766 30.0406 1.88828 30.0913ZM2.51164 23.8219C1.77289 23.8219 1.17188 23.2296 1.17188 22.5016C1.17188 21.7736 1.77289 21.1813 2.51164 21.1813C3.25039 21.1813 3.85141 21.7736 3.85141 22.5016C3.85141 23.2296 3.25039 23.8219 2.51164 23.8219ZM8.82164 36.807L4.31922 34.2334C4.59281 33.9517 4.80039 33.6067 4.91687 33.2227L9.4125 35.792C9.14078 36.0755 8.93555 36.422 8.82164 36.807ZM11.2314 38.8281C10.4927 38.8281 9.89172 38.2359 9.89172 37.5079C9.89172 36.7798 10.4927 36.1876 11.2314 36.1876C11.9702 36.1876 12.5712 36.7798 12.5712 37.5079C12.5712 38.2359 11.9702 38.8281 11.2314 38.8281ZM13.6412 36.8068C13.5272 36.4217 13.322 36.0753 13.0502 35.7919L17.574 33.2069C17.6879 33.5916 17.893 33.9378 18.1644 34.2211L13.6412 36.8068ZM18.2211 30.7325C17.9061 31.0408 17.6727 31.4308 17.5559 31.8676L11.8923 35.1039C11.6816 35.0468 11.4602 35.0157 11.2314 35.0157C11.0026 35.0157 10.7811 35.0468 10.5703 35.104L4.94531 31.8891C4.82687 31.429 4.57859 31.0201 4.24211 30.7021V24.3052C4.57844 23.9874 4.82664 23.5787 4.94516 23.1187L10.5698 19.9033C10.7808 19.9605 11.0024 19.9916 11.2313 19.9916C11.4602 19.9916 11.6817 19.9605 11.8926 19.9034L17.479 23.0963L17.556 23.1404C17.6728 23.5769 17.9062 23.9666 18.221 24.2748L18.2211 30.7325ZM20.5037 33.7225C20.5028 33.7228 20.5019 33.7232 20.5009 33.7235C20.3416 33.7895 20.167 33.826 19.9838 33.826C19.245 33.826 18.644 33.2337 18.644 32.5057C18.644 31.7777 19.245 31.1855 19.9838 31.1855C20.7225 31.1855 21.3234 31.7777 21.3234 32.5057C21.3234 33.0521 20.9849 33.522 20.5037 33.7225ZM26.3263 36.807L21.803 34.2213C22.0745 33.9379 22.2797 33.5915 22.3936 33.2065L26.9172 35.792C26.6455 36.0754 26.4402 36.4219 26.3263 36.807ZM28.736 38.8281C27.9973 38.8281 27.3963 38.2359 27.3963 37.5079C27.3963 36.7798 27.9973 36.1876 28.736 36.1876C29.4748 36.1876 30.0758 36.7798 30.0758 37.5079C30.0759 38.2359 29.4748 38.8281 28.736 38.8281ZM31.1459 36.8069C31.0319 36.4218 30.8266 36.0753 30.5549 35.7919L35.0786 33.207C35.1925 33.5917 35.3976 33.9379 35.669 34.2213L31.1459 36.8069ZM35.7258 30.7324C35.4107 31.0408 35.1773 31.4308 35.0605 31.8676L29.397 35.1038C29.1863 35.0467 28.9648 35.0156 28.736 35.0156C28.5073 35.0156 28.2857 35.0467 28.0749 35.1038L22.4113 31.8668C22.2945 31.4305 22.0614 31.041 21.7468 30.733V28.6703C21.7468 28.3466 21.4845 28.0844 21.1609 28.0844C20.8372 28.0844 20.5749 28.3466 20.5749 28.6703V30.0839C20.3852 30.0383 20.1873 30.0135 19.9837 30.0135C19.7802 30.0135 19.5825 30.0383 19.3929 30.0838V24.9234C19.5825 24.969 19.7802 24.9938 19.9837 24.9938C20.1873 24.9938 20.3852 24.969 20.5749 24.9234V25.936C20.5749 26.2597 20.8372 26.522 21.1609 26.522C21.4845 26.522 21.7468 26.2597 21.7468 25.936V24.2744C22.0613 23.9665 22.2943 23.5771 22.411 23.1411L28.0395 19.9234L28.0745 19.9034C28.2853 19.9605 28.507 19.9917 28.7359 19.9917C28.9647 19.9917 29.1863 19.9606 29.3971 19.9034L35.0605 23.1405C35.1773 23.577 35.4107 23.9668 35.7256 24.275V30.7324H35.7258ZM37.4884 33.8261C37.3048 33.8261 37.1299 33.7894 36.9705 33.7233L36.9694 33.7229C36.4877 33.5227 36.1487 33.0525 36.1487 32.5058C36.1487 31.7778 36.7497 31.1855 37.4884 31.1855C38.2272 31.1855 38.8281 31.7777 38.8281 32.5057C38.8281 33.2338 38.2272 33.8261 37.4884 33.8261ZM36.8977 30.0838V24.9234C37.0873 24.969 37.2849 24.9937 37.4884 24.9937C37.6921 24.9937 37.89 24.9689 38.0797 24.9233V30.0839C37.8899 30.0383 37.6921 30.0135 37.4884 30.0135C37.2849 30.0136 37.0873 30.0383 36.8977 30.0838ZM37.4884 23.8219C36.7497 23.8219 36.1487 23.2296 36.1487 22.5016C36.1487 21.7736 36.7497 21.1813 37.4884 21.1813C38.2272 21.1813 38.8281 21.7735 38.8281 22.5016C38.8281 23.2296 38.2272 23.8219 37.4884 23.8219Z" fill="white"/>
</svg>
