<svg width="299" height="741" viewBox="0 0 299 741" fill="none" xmlns="http://www.w3.org/2000/svg">
<path d="M123.542 139.689L131.765 142.16L121.421 151.576L125.386 155.932M123.542 139.689C131.209 134.628 145.275 126.176 157.208 115.428M123.542 139.689L32.2748 218.785C25.8393 222.652 19.1603 218.797 27.5137 209.18C35.7776 199.666 52.0976 184.421 59.7321 177.861M123.542 139.689L107.682 122.265M105.993 113.847L102.726 116.821L107.682 122.265M105.993 113.847L69.3161 73.5557M105.993 113.847L110.076 110.13M162.872 78.9971L169.405 73.0502L175.848 80.1285M162.872 78.9971C159.231 85.497 147.53 94.9533 142.135 98.869L133.214 89.0684M162.872 78.9971L123.221 35.4388M162.872 78.9971L176.859 94.363M175.848 80.1285L179.114 77.155L186.053 84.7777L178.976 91.2202M175.848 80.1285C171.725 86.5361 160.599 100.78 149.074 106.492L157.208 115.428M178.976 91.2202L182.941 95.576L188.385 90.6203L192.35 94.9761M178.976 91.2202C178.323 92.2578 177.616 93.3064 176.859 94.363M192.35 94.9761L199.972 88.038L209.389 98.3831M192.35 94.9761C190.686 97.8648 187.931 101.889 184.078 106.668M209.389 98.3831C185.564 135.204 147.56 160.97 131.537 169.25M209.389 98.3831L219.188 89.4628M209.389 98.3831L225.744 116.351M296.093 149.887L342.068 103.058L310.844 68.7562L261.301 113.853M296.093 149.887L334.402 188.692L353.164 177.587L363.801 161.931L373.308 159.251L384.196 149.339L389.648 155.328M296.093 149.887L268.327 175.161M296.093 149.887L261.301 113.853M397.594 185.93L406.5 173.841L389.648 155.328M397.594 185.93L405.524 194.642M397.594 185.93L395.014 188.565M405.524 194.642L409.335 191.173L437.585 222.208L425.965 247.72M405.524 194.642C404.786 195.656 404.046 196.666 403.304 197.672M425.965 247.72L432.408 254.798M425.965 247.72C403.192 279.094 343.346 348.228 277.799 386.8M432.408 254.798L435.675 251.825L513.488 337.308M432.408 254.798C423.127 268.884 412.844 282.22 402.039 294.71M524.392 349.287L534.425 390.931M524.392 349.287L513.488 337.308M524.392 349.287C517.071 367.192 507.444 383.556 496.41 398.383M534.425 390.931C520.906 416.18 474.65 476.407 397.775 515.32M534.425 390.931C570.139 358.421 570.965 330.456 566.913 320.537M397.775 515.32L356.71 501.924M397.775 515.32C373.173 529.414 340.223 537.036 326.824 539.085M356.71 501.924L345.807 489.945M356.71 501.924C361.443 500.26 366.843 498.112 372.746 495.48M270.715 401.984L267.993 404.462L345.807 489.945M270.715 401.984L265.905 393.419M270.715 401.984C278.805 397.699 289.614 391.24 302.055 382.824M265.905 393.419L241.049 401.11L212.799 370.075L215.521 367.597M265.905 393.419C269.886 391.333 273.853 389.122 277.799 386.8M215.521 367.597L207.591 358.885M215.521 367.597C222.436 363.945 231.407 358.632 241.884 351.719M207.591 358.885L194.671 367.659L177.324 348.602L191.731 341.462M207.591 358.885L231.256 340.043M191.731 341.462L143.655 288.648M191.731 341.462L207.637 329.407M143.655 288.648L127.566 298.315L97.8286 265.646L92.9288 270.106L90.9463 267.928M143.655 288.648L111.063 250.612M125.386 155.932L123.753 157.418M125.386 155.932L151.654 184.789L161.998 175.373L137.802 148.792L137.647 148.622M513.488 337.308C522.594 328.355 546.028 312.467 566.913 320.537M566.913 320.537L580.295 335.238L574.712 354.259L585.673 376.142M585.673 376.142L747.247 553.642C741.72 580.389 733.063 603.538 722.25 623.517M585.673 376.142C578.049 390.883 565.478 410.978 548.545 432.69M376.363 560.698L367.442 550.897L342.188 555.964L326.824 539.085M376.363 560.698L535.264 739.636C543.495 739.481 553.044 738.571 563.458 736.705M376.363 560.698C383.272 558.576 390.051 556.167 396.695 553.505M326.824 539.085C323.533 531.46 322.723 510.957 345.807 489.945M263.602 286.991C274.856 280.398 300.193 262.445 311.511 243.381M263.602 286.991L263.399 280.207L261.417 278.029M263.602 286.991L253.587 294.582M311.511 243.381L296.691 226.006C293.932 230.377 289.883 235.062 285.256 239.693M311.511 243.381L326.591 228.231M389.648 155.328L385.349 169.198L359.988 194.678M263.514 258.46C258.865 262.024 254.646 265.029 251.504 267.139L261.417 278.029M263.514 258.46C270.52 253.089 278.504 246.45 285.256 239.693M263.514 258.46L224.089 215.149M285.256 239.693L245.462 195.975M207.637 329.407L204.362 325.7M207.637 329.407L221.186 319.138M159.031 274.37L126.023 236.994M159.031 274.37L179.446 255.786M159.031 274.37L201.088 321.992M224.089 215.149L192.013 179.912M224.089 215.149L201.768 235.467M192.013 179.912L126.023 236.994M192.013 179.912L187.553 175.011M126.023 236.994L123.098 233.683M123.098 233.683L110.425 219.333C102.78 222.309 97.44 229.493 95.7254 232.713L102.436 240.544M123.098 233.683L187.553 175.011M187.553 175.011L174.666 160.855C180.59 156.79 193.129 147.234 195.899 141.527L245.462 195.975M179.446 255.786L195.902 272.949M179.446 255.786L201.768 235.467M218.839 296.874L212.996 299.205L214.491 311.783L207.958 317.73L201.088 321.992M218.839 296.874L229.183 287.458M218.839 296.874L195.902 272.949M201.088 321.992L204.362 325.7M131.537 169.25L134.51 172.517L131.244 175.491L128.27 172.224L126.092 174.206L134.518 183.462L130.707 186.931L137.646 194.554L135.468 196.536L120.104 179.657L84.7163 211.87M131.537 169.25L122.12 158.905L123.753 157.418M123.753 157.418C128.641 154.548 133.272 151.602 137.647 148.622M133.214 89.0684L125.592 96.0064M133.214 89.0684L90.094 41.6987C84.3117 35.3465 67.6994 28.0333 47.5085 49.5986M157.208 115.428C161.101 111.922 164.871 108.288 168.293 104.639M54.9429 57.7658C58.8677 51.87 70.2648 42.2256 84.4546 50.8147L125.592 96.0064M54.9429 57.7658L49.491 51.7765M54.9429 57.7658L62.873 66.4775M125.592 96.0064L114.159 106.413M47.5085 49.5986L44.0391 45.7873L48.1223 42.0705M47.5085 49.5986L49.491 51.7765M84.7163 211.87L60.2174 234.171L68.643 243.427L30.5336 278.117L39.9505 288.462L74.249 257.241L77.7184 261.052L84.5031 260.85L90.9463 267.928M84.7163 211.87L92.6464 220.581L85.0245 227.519M85.0245 227.519L73.0472 238.422L87.916 254.756L99.8933 243.854L98.902 242.765M85.0245 227.519L90.4764 233.509M102.436 240.544L99.3977 243.309L98.902 242.765M102.436 240.544L111.063 250.612M111.063 250.612L90.9463 267.928M98.902 242.765L95.4326 238.953M90.4764 233.509L82.8545 240.447L87.8107 245.891L95.4326 238.953M90.4764 233.509L95.4326 238.953M100.423 10.3928L92.4926 1.68114L82.693 10.6015M100.423 10.3928L106.411 4.94148L115.333 14.7421L109.344 20.1934M100.423 10.3928L109.344 20.1934M109.344 20.1934L117.77 29.4495M117.77 29.4495L122.669 24.9894L128.121 30.9786L123.221 35.4388M117.77 29.4495L123.221 35.4388M49.491 51.7765L12.4704 85.4756L15.9398 89.287M62.873 66.4775L25.8523 100.177L23.3742 97.4541M62.873 66.4775L69.3161 73.5557M15.9398 89.287L2.8249 102.221C1.35684 103.889 0.204958 106.998 3.47459 110.59C6.44836 113.857 9.68235 111.577 10.2593 110.388C24.0367 124.065 42.5239 144.739 45.1073 156.326C47.7857 162.185 47.6383 177.918 25.6211 193.977C20.0442 198.058 10.4261 206.813 16.5688 209.186C22.7115 211.56 42.6548 190.087 51.8586 179.054C54.8572 170.683 58.7727 151.653 50.4462 142.506C42.1197 133.358 23.8476 113.285 15.7523 104.392L23.3742 97.4541M15.9398 89.287L23.3742 97.4541M74.768 79.545C64.7681 85.3288 44.7632 103.672 53.4534 122.842C55.3383 127.101 58.1657 133.488 68.1758 142.297C71.8022 145.488 76.4078 157.902 72.2538 166.463M72.2538 166.463L59.7321 177.861M72.2538 166.463L81.0621 156.453L78.0884 153.187L102.587 130.886L100.605 128.708L107.682 122.265M59.7321 177.861C63.1587 167.772 64.6367 151.602 58.7178 143.937C42.0129 122.305 44.3232 121.197 42.5496 110.864C43.0375 100.463 44.2924 98.2872 50.2614 90.9008C56.3476 83.3694 65.5377 76.3313 69.3161 73.5557M229.183 287.458L206.88 262.956L195.902 272.949M229.183 287.458L231.36 285.475L234.83 289.287L239.185 285.322L246.668 292.449L243.946 294.927L247.696 299.046M247.696 299.046L231.79 311.101M247.696 299.046L253.587 294.582M231.79 311.101L227.264 306.13L204.362 325.7M231.79 311.101L221.186 319.138M201.768 235.467L226.194 262.301L239.519 267.097L238.982 278.537L247.408 287.793M247.408 287.793L261.417 278.029M247.408 287.793L253.587 294.582M245.462 195.975L268.327 175.161M268.327 175.161L292.613 201.841L297.228 214.566L305.101 213.372L316.005 225.351L321.847 223.02L326.591 228.231M326.591 228.231L330.231 224.574M330.231 224.574L325.163 219.006L321.352 222.475L314.909 215.397L323.075 207.964L303.745 186.729L299.439 189.653L292.5 182.031L306.655 169.146L330.941 195.825L334.256 191.812L340.748 197.85L342.926 195.868L336.978 189.334L340.74 186.905L348.223 194.032L353.668 189.076L359.988 194.678M330.231 224.574L359.988 194.678M221.186 319.138L236.45 335.907M236.45 335.907L239.913 333.149M236.45 335.907L231.256 340.043M239.913 333.149L251.909 344.925M239.913 333.149L262.424 315.226M251.909 344.925C248.437 347.338 245.09 349.603 241.884 351.719M251.909 344.925C258.95 340.031 266.506 334.528 274.445 328.432M231.256 340.043L241.884 351.719M277.799 386.8L282.448 396.282M282.448 396.282L302.055 382.824M282.448 396.282L372.746 495.48M302.055 382.824L396.65 483.488M302.055 382.824C331.081 363.191 368.997 332.905 402.039 294.71M396.65 483.488C388.115 488.228 380.045 492.225 372.746 495.48M396.65 483.488C428.753 465.661 467.433 437.322 496.41 398.383M402.039 294.71L496.41 398.383M235.521 74.5956L279.619 34.454L307.87 65.4893L263.772 105.631M235.521 74.5956L263.772 105.631M235.521 74.5956L219.188 89.4628M263.772 105.631L208.785 155.684L211.759 158.951L261.301 113.853M184.078 106.668L207.779 132.705L225.744 116.351M184.078 106.668C174.886 118.07 159.443 133.773 137.647 148.622M184.078 106.668L168.293 104.639M184.078 106.668L176.859 94.363M225.744 116.351L239.509 111.786L219.188 89.4628M476.698 488.282L458.188 505.132L447.284 493.153L465.795 476.304M476.698 488.282L485.895 498.385M476.698 488.282L465.795 476.304M485.895 498.385L500.725 498.272L502.336 483.637M485.895 498.385C491.572 493.562 497.055 488.631 502.336 483.637M485.895 498.385C466.718 514.676 445.317 529.737 421.956 541.884M502.336 483.637C520.113 466.823 535.603 449.285 548.545 432.69M502.336 483.637L493.031 473.415M493.031 473.415L510.997 457.061L500.093 445.082L482.127 461.436M493.031 473.415L482.127 461.436M465.795 476.304L482.127 461.436M396.695 553.505L563.458 736.705M396.695 553.505C405.348 550.037 413.773 546.14 421.956 541.884M563.458 736.705C572.627 735.063 582.467 732.681 592.668 729.423M421.956 541.884L592.668 729.423M592.668 729.423C637.675 715.049 689.718 683.63 722.25 623.517M548.545 432.69L722.25 623.517M262.424 315.226L277.431 303.277C289.345 297.409 315.717 280.373 325.884 259.171L342.909 241.783M262.424 315.226L274.445 328.432M274.445 328.432C298.996 309.578 327.209 285.045 355.187 255.271M342.909 241.783L355.187 255.271M342.909 241.783L370.251 213.856M355.187 255.271C363.918 245.979 372.626 236.176 381.193 225.877M370.251 213.856L381.193 225.877M370.251 213.856L388.308 195.414M381.193 225.877C386.683 219.277 392.115 212.472 397.458 205.467M388.308 195.414L397.458 205.467M388.308 195.414L395.014 188.565M397.458 205.467C399.42 202.896 401.369 200.297 403.304 197.672M395.014 188.565L403.304 197.672M52.2055 38.3537L114.159 106.413M52.2055 38.3537L48.1223 42.0705M52.2055 38.3537L82.693 10.6015M114.159 106.413L110.076 110.13M48.1223 42.0705L110.076 110.13M82.693 10.6015L168.293 104.639M168.293 104.639C171.523 101.195 174.442 97.738 176.859 94.363" stroke="#BA77FD"/>
</svg>
