<svg width="439" height="741" viewBox="0 0 439 741" fill="none" xmlns="http://www.w3.org/2000/svg">
<path d="M-185.458 139.689L-177.235 142.16L-187.579 151.576L-183.614 155.932M-185.458 139.689C-177.791 134.628 -163.725 126.176 -151.792 115.428M-185.458 139.689L-276.725 218.785C-283.161 222.652 -289.84 218.797 -281.486 209.18C-273.222 199.666 -256.902 184.421 -249.268 177.861M-185.458 139.689L-201.318 122.265M-203.007 113.847L-206.274 116.821L-201.318 122.265M-203.007 113.847L-239.684 73.5557M-203.007 113.847L-198.924 110.13M-146.128 78.9971L-139.595 73.0502L-133.152 80.1285M-146.128 78.9971C-149.769 85.497 -161.47 94.9533 -166.865 98.869L-175.786 89.0684M-146.128 78.9971L-185.779 35.4388M-146.128 78.9971L-132.141 94.363M-133.152 80.1285L-129.886 77.155L-122.947 84.7777L-130.024 91.2202M-133.152 80.1285C-137.275 86.5361 -148.401 100.78 -159.926 106.492L-151.792 115.428M-130.024 91.2202L-126.059 95.576L-120.615 90.6203L-116.65 94.9761M-130.024 91.2202C-130.677 92.2578 -131.384 93.3064 -132.141 94.363M-116.65 94.9761L-109.028 88.038L-99.6113 98.3831M-116.65 94.9761C-118.314 97.8648 -121.069 101.889 -124.922 106.668M-99.6113 98.3831C-123.436 135.204 -161.44 160.97 -177.463 169.25M-99.6113 98.3831L-89.8117 89.4628M-99.6113 98.3831L-83.2556 116.351M-12.9073 149.887L33.068 103.058L1.84352 68.7562L-47.6988 113.853M-12.9073 149.887L25.4024 188.692L44.1643 177.587L54.8011 161.931L64.3079 159.251L75.1963 149.339L80.6482 155.328M-12.9073 149.887L-40.6728 175.161M-12.9073 149.887L-47.6988 113.853M88.5936 185.93L97.4995 173.841L80.6482 155.328M88.5936 185.93L96.5237 194.642M88.5936 185.93L86.0142 188.565M96.5237 194.642L100.335 191.173L128.585 222.208L116.965 247.72M96.5237 194.642C95.7859 195.656 95.0461 196.666 94.3043 197.672M116.965 247.72L123.408 254.798M116.965 247.72C94.1915 279.094 34.3465 348.228 -31.2007 386.8M123.408 254.798L126.675 251.825L204.488 337.308M123.408 254.798C114.127 268.884 103.844 282.22 93.0386 294.71M215.392 349.287L225.425 390.931M215.392 349.287L204.488 337.308M215.392 349.287C208.071 367.192 198.444 383.556 187.41 398.383M225.425 390.931C211.906 416.18 165.65 476.407 88.7755 515.32M225.425 390.931C261.139 358.421 261.965 330.456 257.913 320.537M88.7755 515.32L47.7103 501.924M88.7755 515.32C64.1727 529.414 31.2231 537.036 17.8236 539.085M47.7103 501.924L36.8065 489.945M47.7103 501.924C52.4435 500.26 57.8427 498.112 63.7462 495.48M-38.2848 401.984L-41.0069 404.462L36.8065 489.945M-38.2848 401.984L-43.0947 393.419M-38.2848 401.984C-30.1945 397.699 -19.3863 391.24 -6.94452 382.824M-43.0947 393.419L-67.9506 401.11L-96.2013 370.075L-93.4792 367.597M-43.0947 393.419C-39.1139 391.333 -35.147 389.122 -31.2007 386.8M-93.4792 367.597L-101.409 358.885M-93.4792 367.597C-86.5643 363.945 -77.5928 358.632 -67.1161 351.719M-101.409 358.885L-114.329 367.659L-131.676 348.602L-117.269 341.462M-101.409 358.885L-77.7445 340.043M-117.269 341.462L-165.345 288.648M-117.269 341.462L-101.363 329.407M-165.345 288.648L-181.434 298.315L-211.171 265.646L-216.071 270.106L-218.054 267.928M-165.345 288.648L-197.937 250.612M-183.614 155.932L-185.247 157.418M-183.614 155.932L-157.346 184.789L-147.002 175.373L-171.198 148.792L-171.353 148.622M204.488 337.308C213.594 328.355 237.028 312.467 257.913 320.537M257.913 320.537L271.295 335.238L265.712 354.259L276.673 376.142M276.673 376.142L438.247 553.642C432.72 580.389 424.063 603.538 413.25 623.517M276.673 376.142C269.049 390.883 256.478 410.978 239.545 432.69M67.3633 560.698L58.442 550.897L33.1881 555.964L17.8236 539.085M67.3633 560.698L226.264 739.636C234.495 739.481 244.044 738.571 254.458 736.705M67.3633 560.698C74.2722 558.576 81.0511 556.167 87.6949 553.505M17.8236 539.085C14.5331 531.46 13.7231 510.957 36.8065 489.945M-45.3981 286.991C-34.1442 280.398 -8.80686 262.445 2.51095 243.381M-45.3981 286.991L-45.601 280.207L-47.5835 278.029M-45.3981 286.991L-55.4129 294.582M2.51095 243.381L-12.309 226.006C-15.0683 230.377 -19.1168 235.062 -23.7435 239.693M2.51095 243.381L17.5906 228.231M80.6482 155.328L76.3493 169.198L50.9879 194.678M-45.4859 258.46C-50.1353 262.024 -54.3539 265.029 -57.496 267.139L-47.5835 278.029M-45.4859 258.46C-38.4799 253.089 -30.4959 246.45 -23.7435 239.693M-45.4859 258.46L-84.911 215.149M-23.7435 239.693L-63.5384 195.975M-101.363 329.407L-104.638 325.7M-101.363 329.407L-87.8139 319.138M-149.969 274.37L-182.977 236.994M-149.969 274.37L-129.554 255.786M-149.969 274.37L-107.912 321.992M-84.911 215.149L-116.987 179.912M-84.911 215.149L-107.232 235.467M-116.987 179.912L-182.977 236.994M-116.987 179.912L-121.447 175.011M-182.977 236.994L-185.902 233.683M-185.902 233.683L-198.575 219.333C-206.22 222.309 -211.56 229.493 -213.275 232.713L-206.564 240.544M-185.902 233.683L-121.447 175.011M-121.447 175.011L-134.334 160.855C-128.41 156.79 -115.871 147.234 -113.101 141.527L-63.5384 195.975M-129.554 255.786L-113.098 272.949M-129.554 255.786L-107.232 235.467M-90.1612 296.874L-96.0035 299.205L-94.5089 311.783L-101.042 317.73L-107.912 321.992M-90.1612 296.874L-79.8173 287.458M-90.1612 296.874L-113.098 272.949M-107.912 321.992L-104.638 325.7M-177.463 169.25L-174.49 172.517L-177.756 175.491L-180.73 172.224L-182.908 174.206L-174.482 183.462L-178.293 186.931L-171.354 194.554L-173.532 196.536L-188.896 179.657L-224.284 211.87M-177.463 169.25L-186.88 158.905L-185.247 157.418M-185.247 157.418C-180.359 154.548 -175.728 151.602 -171.353 148.622M-175.786 89.0684L-183.408 96.0064M-175.786 89.0684L-218.906 41.6987C-224.688 35.3465 -241.301 28.0333 -261.491 49.5986M-151.792 115.428C-147.899 111.922 -144.129 108.288 -140.707 104.639M-254.057 57.7658C-250.132 51.87 -238.735 42.2256 -224.545 50.8147L-183.408 96.0064M-254.057 57.7658L-259.509 51.7765M-254.057 57.7658L-246.127 66.4775M-183.408 96.0064L-194.841 106.413M-261.491 49.5986L-264.961 45.7873L-260.878 42.0705M-261.491 49.5986L-259.509 51.7765M-224.284 211.87L-248.783 234.171L-240.357 243.427L-278.466 278.117L-269.05 288.462L-234.751 257.241L-231.282 261.052L-224.497 260.85L-218.054 267.928M-224.284 211.87L-216.354 220.581L-223.976 227.519M-223.976 227.519L-235.953 238.422L-221.084 254.756L-209.107 243.854L-210.098 242.765M-223.976 227.519L-218.524 233.509M-206.564 240.544L-209.602 243.309L-210.098 242.765M-206.564 240.544L-197.937 250.612M-197.937 250.612L-218.054 267.928M-210.098 242.765L-213.567 238.953M-218.524 233.509L-226.146 240.447L-221.189 245.891L-213.567 238.953M-218.524 233.509L-213.567 238.953M-208.577 10.3928L-216.507 1.68114L-226.307 10.6015M-208.577 10.3928L-202.589 4.94148L-193.667 14.7421L-199.656 20.1934M-208.577 10.3928L-199.656 20.1934M-199.656 20.1934L-191.23 29.4495M-191.23 29.4495L-186.331 24.9894L-180.879 30.9786L-185.779 35.4388M-191.23 29.4495L-185.779 35.4388M-259.509 51.7765L-296.53 85.4756L-293.06 89.287M-246.127 66.4775L-283.148 100.177L-285.626 97.4541M-246.127 66.4775L-239.684 73.5557M-293.06 89.287L-306.175 102.221C-307.643 103.889 -308.795 106.998 -305.525 110.59C-302.552 113.857 -299.318 111.577 -298.741 110.388C-284.963 124.065 -266.476 144.739 -263.893 156.326C-261.214 162.185 -261.362 177.918 -283.379 193.977C-288.956 198.058 -298.574 206.813 -292.431 209.186C-286.289 211.56 -266.345 190.087 -257.141 179.054C-254.143 170.683 -250.227 151.653 -258.554 142.506C-266.88 133.358 -285.152 113.285 -293.248 104.392L-285.626 97.4541M-293.06 89.287L-285.626 97.4541M-234.232 79.545C-244.232 85.3288 -264.237 103.672 -255.547 122.842C-253.662 127.101 -250.834 133.488 -240.824 142.297C-237.198 145.488 -232.592 157.902 -236.746 166.463M-236.746 166.463L-249.268 177.861M-236.746 166.463L-227.938 156.453L-230.912 153.187L-206.413 130.886L-208.395 128.708L-201.318 122.265M-249.268 177.861C-245.841 167.772 -244.363 151.602 -250.282 143.937C-266.987 122.305 -264.677 121.197 -266.45 110.864C-265.962 100.463 -264.708 98.2872 -258.739 90.9008C-252.652 83.3694 -243.462 76.3313 -239.684 73.5557M-79.8173 287.458L-102.12 262.956L-113.098 272.949M-79.8173 287.458L-77.6396 285.475L-74.1702 289.287L-69.8148 285.322L-62.3316 292.449L-65.0537 294.927L-61.304 299.046M-61.304 299.046L-77.2099 311.101M-61.304 299.046L-55.4129 294.582M-77.2099 311.101L-81.7356 306.13L-104.638 325.7M-77.2099 311.101L-87.8139 319.138M-107.232 235.467L-82.8064 262.301L-69.4809 267.097L-70.0177 278.537L-61.592 287.793M-61.592 287.793L-47.5835 278.029M-61.592 287.793L-55.4129 294.582M-63.5384 195.975L-40.6728 175.161M-40.6728 175.161L-16.387 201.841L-11.7723 214.566L-3.89878 213.372L7.00501 225.351L12.8473 223.02L17.5906 228.231M17.5906 228.231L21.2306 224.574M21.2306 224.574L16.1626 219.006L12.3516 222.475L5.9085 215.397L14.0748 207.964L-5.25465 186.729L-9.56122 189.653L-16.5 182.031L-2.34507 169.146L21.9407 195.825L25.256 191.812L31.7479 197.85L33.9256 195.868L27.9781 189.334L31.7403 186.905L39.2234 194.032L44.6677 189.076L50.9879 194.678M21.2306 224.574L50.9879 194.678M-87.8139 319.138L-72.5498 335.907M-72.5498 335.907L-69.0866 333.149M-72.5498 335.907L-77.7445 340.043M-69.0866 333.149L-57.0911 344.925M-69.0866 333.149L-46.5762 315.226M-57.0911 344.925C-60.5632 347.338 -63.9101 349.603 -67.1161 351.719M-57.0911 344.925C-50.0499 340.031 -42.494 334.528 -34.5552 328.432M-77.7445 340.043L-67.1161 351.719M-31.2007 386.8L-26.5515 396.282M-26.5515 396.282L-6.94452 382.824M-26.5515 396.282L63.7462 495.48M-6.94452 382.824L87.6504 483.488M-6.94452 382.824C22.0809 363.191 59.9971 332.905 93.0386 294.71M87.6504 483.488C79.1154 488.228 71.0454 492.225 63.7462 495.48M87.6504 483.488C119.753 465.661 158.433 437.322 187.41 398.383M93.0386 294.71L187.41 398.383M-73.4791 74.5956L-29.381 34.454L-1.13024 65.4893L-45.2283 105.631M-73.4791 74.5956L-45.2283 105.631M-73.4791 74.5956L-89.8117 89.4628M-45.2283 105.631L-100.215 155.684L-97.2411 158.951L-47.6988 113.853M-124.922 106.668L-101.221 132.705L-83.2556 116.351M-124.922 106.668C-134.114 118.07 -149.557 133.773 -171.353 148.622M-124.922 106.668L-140.707 104.639M-124.922 106.668L-132.141 94.363M-83.2556 116.351L-69.491 111.786L-89.8117 89.4628M167.698 488.282L149.188 505.132L138.284 493.153L156.795 476.304M167.698 488.282L176.895 498.385M167.698 488.282L156.795 476.304M176.895 498.385L191.725 498.272L193.336 483.637M176.895 498.385C182.572 493.562 188.055 488.631 193.336 483.637M176.895 498.385C157.718 514.676 136.317 529.737 112.956 541.884M193.336 483.637C211.113 466.823 226.603 449.285 239.545 432.69M193.336 483.637L184.031 473.415M184.031 473.415L201.997 457.061L191.093 445.082L173.127 461.436M184.031 473.415L173.127 461.436M156.795 476.304L173.127 461.436M87.6949 553.505L254.458 736.705M87.6949 553.505C96.3483 550.037 104.773 546.14 112.956 541.884M254.458 736.705C263.627 735.063 273.467 732.681 283.668 729.423M112.956 541.884L283.668 729.423M283.668 729.423C328.675 715.049 380.718 683.63 413.25 623.517M239.545 432.69L413.25 623.517M-46.5762 315.226L-31.5693 303.277C-19.6546 297.409 6.7168 280.373 16.8841 259.171L33.9087 241.783M-46.5762 315.226L-34.5552 328.432M-34.5552 328.432C-10.0041 309.578 18.209 285.045 46.1867 255.271M33.9087 241.783L46.1867 255.271M33.9087 241.783L61.2512 213.856M46.1867 255.271C54.918 245.979 63.6264 236.176 72.1934 225.877M61.2512 213.856L72.1934 225.877M61.2512 213.856L79.3075 195.414M72.1934 225.877C77.6834 219.277 83.1155 212.472 88.4583 205.467M79.3075 195.414L88.4583 205.467M79.3075 195.414L86.0142 188.565M88.4583 205.467C90.4195 202.896 92.3687 200.297 94.3043 197.672M86.0142 188.565L94.3043 197.672M-256.795 38.3537L-194.841 106.413M-256.795 38.3537L-260.878 42.0705M-256.795 38.3537L-226.307 10.6015M-194.841 106.413L-198.924 110.13M-260.878 42.0705L-198.924 110.13M-226.307 10.6015L-140.707 104.639M-140.707 104.639C-137.477 101.195 -134.558 97.738 -132.141 94.363" stroke="#BA77FD"/>
</svg>
