
<svg  width="759" height="487" viewBox="0 0 759 487" fill="none" xmlns="http://www.w3.org/2000/svg">
  <mask id="path-1-inside-1_1_1984" fill="white">
          <path
            fill-rule="evenodd"
            clip-rule="evenodd"
            d="M0 434.362V59.6544L90.7196 0H661.453L759 61.0309V423.743L662.802 487H84.1326L0 434.362Z"
          />
        </mask>
        <path
          d="M0 59.6544L-0.549426 58.8189L-1 59.1151V59.6544H0ZM0 434.362H-1V434.916L-0.530401 435.209L0 434.362ZM90.7196 0V-1H90.4203L90.1702 -0.835542L90.7196 0ZM661.453 0L661.984 -0.847747L661.74 -1H661.453V0ZM759 61.0309H760V60.477L759.53 60.1832L759 61.0309ZM759 423.743L759.549 424.578L760 424.282V423.743H759ZM662.802 487V488H663.101L663.351 487.836L662.802 487ZM84.1326 487L83.6022 487.848L83.8456 488H84.1326V487ZM-1 59.6544V434.362H1V59.6544H-1ZM90.1702 -0.835542L-0.549426 58.8189L0.549426 60.4899L91.269 0.835542L90.1702 -0.835542ZM661.453 -1H90.7196V1H661.453V-1ZM759.53 60.1832L661.984 -0.847747L660.923 0.847747L758.47 61.8787L759.53 60.1832ZM760 423.743V61.0309H758V423.743H760ZM663.351 487.836L759.549 424.578L758.451 422.907L662.252 486.164L663.351 487.836ZM84.1326 488H662.802V486H84.1326V488ZM-0.530401 435.209L83.6022 487.848L84.663 486.152L0.530401 433.514L-0.530401 435.209Z"
          fill="url(#paint0_linear_1_1984)"
          mask="url(#path-1-inside-1_1_1984)"
        />
        <defs>
          <linearGradient
            id="paint0_linear_1_1984"
            x1="36.9493"
            y1="2.85209e-06"
            x2="383.663"
            y2="663.175"
            gradientUnits="userSpaceOnUse"
          >
            <stop stop-color="#C7FF51" />
            <stop offset="1" stop-color="#BA77FD" />
          </linearGradient>
        </defs>
</svg>