<svg width="316" height="449" viewBox="0 0 316 449" fill="none" xmlns="http://www.w3.org/2000/svg">
<mask id="path-1-inside-1_10_568" fill="white">
<path fill-rule="evenodd" clip-rule="evenodd" d="M21.6999 0L0 23.1855V421.143L24.7581 449H292.381L316 420.969V23.6306L292.046 0H21.6999Z"/>
</mask>
<path d="M0 23.1855L-0.730112 22.5022L-1 22.7906V23.1855H0ZM21.6999 0V-1H21.2661L20.9697 -0.683328L21.6999 0ZM0 421.143H-1V421.523L-0.747458 421.807L0 421.143ZM24.7581 449L24.0106 449.664L24.3089 450H24.7581V449ZM292.381 449V450H292.846L293.146 449.644L292.381 449ZM316 420.969L316.765 421.613L317 421.334V420.969H316ZM316 23.6306H317V23.2123L316.702 22.9187L316 23.6306ZM292.046 0L292.748 -0.711901L292.456 -1H292.046V0ZM0.730112 23.8689L22.43 0.683328L20.9697 -0.683328L-0.730112 22.5022L0.730112 23.8689ZM1 421.143V23.1855H-1V421.143H1ZM25.5055 448.336L0.747458 420.479L-0.747458 421.807L24.0106 449.664L25.5055 448.336ZM292.381 448H24.7581V450H292.381V448ZM315.235 420.324L291.617 448.356L293.146 449.644L316.765 421.613L315.235 420.324ZM315 23.6306V420.969H317V23.6306H315ZM291.343 0.711901L315.298 24.3425L316.702 22.9187L292.748 -0.711901L291.343 0.711901ZM21.6999 1H292.046V-1H21.6999V1Z" fill="url(#paint0_linear_10_568)" mask="url(#path-1-inside-1_10_568)"/>
<defs>
<linearGradient id="paint0_linear_10_568" x1="2.08394e-07" y1="58.135" x2="290.578" y2="257.657" gradientUnits="userSpaceOnUse">
<stop stop-color="#C7FF51"/>
<stop offset="1" stop-color="#BA77FD"/>
</linearGradient>
</defs>
</svg>
