<svg width="14" height="14" viewBox="0 0 14 14" fill="none" xmlns="http://www.w3.org/2000/svg">
<path d="M12.9998 1.00006C12.8123 0.812591 12.558 0.707275 12.2928 0.707275C12.0277 0.707275 11.7733 0.812591 11.5858 1.00006L6.99982 5.58606L2.41382 1.00006C2.22629 0.812591 1.97198 0.707275 1.70682 0.707275C1.44165 0.707275 1.18735 0.812591 0.999818 1.00006C0.812347 1.18759 0.707031 1.4419 0.707031 1.70706C0.707031 1.97223 0.812347 2.22653 0.999818 2.41406L5.58582 7.00006L0.999818 11.5861C0.812347 11.7736 0.707031 12.0279 0.707031 12.2931C0.707031 12.5582 0.812347 12.8125 0.999818 13.0001C1.18735 13.1875 1.44165 13.2928 1.70682 13.2928C1.97198 13.2928 2.22629 13.1875 2.41382 13.0001L6.99982 8.41406L11.5858 13.0001C11.7733 13.1875 12.0277 13.2928 12.2928 13.2928C12.558 13.2928 12.8123 13.1875 12.9998 13.0001C13.1873 12.8125 13.2926 12.5582 13.2926 12.2931C13.2926 12.0279 13.1873 11.7736 12.9998 11.5861L8.41382 7.00006L12.9998 2.41406C13.1873 2.22653 13.2926 1.97223 13.2926 1.70706C13.2926 1.4419 13.1873 1.18759 12.9998 1.00006Z" fill="white"/>
</svg>
