<svg width="871" height="237" viewBox="0 0 871 237" fill="none" xmlns="http://www.w3.org/2000/svg">
<mask id="path-1-inside-1_684_4766" fill="white">
<path fill-rule="evenodd" clip-rule="evenodd" d="M45.6076 0H832.685L871 42.497V198.279L836.09 237H41.5817L0.2255 198.208L0 198.419V42.357L0.2255 42.5685L45.6076 0ZM870.936 0L871 0.0705695V0H870.936ZM0 0H0.377031L0 0.353656V0Z"/>
</mask>
<path d="M832.685 0L833.428 -0.669614L833.13 -1H832.685V0ZM45.6076 0V-1H45.212L44.9235 -0.729354L45.6076 0ZM871 42.497H872V42.1127L871.743 41.8274L871 42.497ZM871 198.279L871.743 198.949L872 198.664V198.279H871ZM836.09 237V238H836.535L836.833 237.67L836.09 237ZM41.5817 237L40.8975 237.729L41.1861 238H41.5817V237ZM0.2255 198.208L0.909636 197.478L0.225505 196.837L-0.458631 197.478L0.2255 198.208ZM0 198.419H-1V200.728L0.684132 199.149L0 198.419ZM0 42.357L0.684138 41.6277L-1 40.0479V42.357H0ZM0.2255 42.5685L-0.458638 43.2979L0.225498 43.9396L0.909637 43.2979L0.2255 42.5685ZM871 0.0705695L870.257 0.740035L872 2.67391V0.0705695H871ZM870.936 0V-1H868.689L870.194 0.669465L870.936 0ZM871 0H872V-1H871V0ZM0.377031 0L1.06117 0.729354L2.90482 -1H0.377031V0ZM0 0V-1H-1V0H0ZM0 0.353656H-1V2.66273L0.684136 1.08301L0 0.353656ZM832.685 -1H45.6076V1H832.685V-1ZM871.743 41.8274L833.428 -0.669614L831.943 0.669614L870.257 43.1666L871.743 41.8274ZM872 198.279V42.497H870V198.279H872ZM836.833 237.67L871.743 198.949L870.257 197.61L835.347 236.33L836.833 237.67ZM41.5817 238H836.09V236H41.5817V238ZM42.2658 236.271L0.909636 197.478L-0.458636 198.937L40.8975 237.729L42.2658 236.271ZM-0.458631 197.478L-0.684132 197.69L0.684132 199.149L0.909632 198.937L-0.458631 197.478ZM-1 42.357V198.419H1V42.357H-1ZM0.909639 41.8392L0.684138 41.6277L-0.684138 43.0864L-0.458638 43.2979L0.909639 41.8392ZM44.9235 -0.729354L-0.458636 41.8392L0.909637 43.2979L46.2918 0.729354L44.9235 -0.729354ZM871.743 -0.598896L871.679 -0.669465L870.194 0.669465L870.257 0.740035L871.743 -0.598896ZM870 0V0.0705695H872V0H870ZM870.936 1H871V-1H870.936V1ZM0.377031 -1H0V1H0.377031V-1ZM0.684136 1.08301L1.06117 0.729354L-0.307105 -0.729354L-0.684136 -0.375698L0.684136 1.08301ZM-1 0V0.353656H1V0H-1Z" fill="url(#paint0_linear_684_4766)" mask="url(#path-1-inside-1_684_4766)"/>
<defs>
<linearGradient id="paint0_linear_684_4766" x1="4.83081e-06" y1="41.5" x2="146.785" y2="430.661" gradientUnits="userSpaceOnUse">
<stop stop-color="#C7FF51"/>
<stop offset="1" stop-color="#BA77FD"/>
</linearGradient>
</defs>
</svg>
