<svg width="32" height="32" viewBox="0 0 32 32" fill="none" xmlns="http://www.w3.org/2000/svg">
<path d="M19.3095 16.0861C24.6624 16.0861 29.0018 14.1588 29.0018 11.7813C29.0018 9.40388 24.6624 7.47656 19.3095 7.47656C13.9566 7.47656 9.61719 9.40388 9.61719 11.7813C9.61719 14.1588 13.9566 16.0861 19.3095 16.0861Z" stroke="url(#paint0_linear_1707_17207)" stroke-width="1.5" stroke-linecap="round" stroke-linejoin="round"/>
<path d="M9.61719 11.7814V24.6957C9.61719 27.0634 13.9249 29.0005 19.3095 29.0005C24.6941 29.0005 29.0018 27.0634 29.0018 24.6957V11.7814" stroke="url(#paint1_linear_1707_17207)" stroke-width="1.5" stroke-linecap="round" stroke-linejoin="round"/>
<path d="M29.0018 18.2383C29.0018 20.6059 24.6941 22.5431 19.3095 22.5431C13.9249 22.5431 9.61719 20.6059 9.61719 18.2383" stroke="url(#paint2_linear_1707_17207)" stroke-width="1.5" stroke-linecap="round" stroke-linejoin="round"/>
<path d="M21.0923 4.17128C18.5755 2.61914 15.6459 1.86847 12.6923 2.01889C7.32923 2.01889 3 3.95604 3 6.32368C3 7.59359 4.24923 8.73436 6.23077 9.55227" stroke="url(#paint3_linear_1707_17207)" stroke-width="1.5" stroke-linecap="square" stroke-linejoin="round"/>
<path d="M6.23077 22.4672C4.24923 21.6493 3 20.5085 3 19.2386V6.32422" stroke="url(#paint4_linear_1707_17207)" stroke-width="1.5" stroke-linecap="square" stroke-linejoin="round"/>
<path d="M6.23077 16.0098C4.24923 15.1919 3 14.0512 3 12.7812" stroke="url(#paint5_linear_1707_17207)" stroke-width="1.5" stroke-linecap="square" stroke-linejoin="round"/>
<defs>
<linearGradient id="paint0_linear_1707_17207" x1="10.5609" y1="7.47656" x2="15.3378" y2="20.6765" gradientUnits="userSpaceOnUse">
<stop stop-color="#C7FF51"/>
<stop offset="1" stop-color="#BA77FD"/>
</linearGradient>
<linearGradient id="paint1_linear_1707_17207" x1="10.5609" y1="11.7814" x2="24.7421" y2="31.3745" gradientUnits="userSpaceOnUse">
<stop stop-color="#C7FF51"/>
<stop offset="1" stop-color="#BA77FD"/>
</linearGradient>
<linearGradient id="paint2_linear_1707_17207" x1="10.5609" y1="18.2383" x2="11.8687" y2="25.466" gradientUnits="userSpaceOnUse">
<stop stop-color="#C7FF51"/>
<stop offset="1" stop-color="#BA77FD"/>
</linearGradient>
<linearGradient id="paint3_linear_1707_17207" x1="3.88076" y1="2" x2="7.87298" y2="13.7375" gradientUnits="userSpaceOnUse">
<stop stop-color="#C7FF51"/>
<stop offset="1" stop-color="#BA77FD"/>
</linearGradient>
<linearGradient id="paint4_linear_1707_17207" x1="3.15728" y1="6.32422" x2="9.64136" y2="7.91685" gradientUnits="userSpaceOnUse">
<stop stop-color="#C7FF51"/>
<stop offset="1" stop-color="#BA77FD"/>
</linearGradient>
<linearGradient id="paint5_linear_1707_17207" x1="3.15728" y1="12.7813" x2="5.89834" y2="16.1476" gradientUnits="userSpaceOnUse">
<stop stop-color="#C7FF51"/>
<stop offset="1" stop-color="#BA77FD"/>
</linearGradient>
</defs>
</svg>
