<svg width="756" height="565" viewBox="0 0 756 565" fill="none" xmlns="http://www.w3.org/2000/svg">
<mask id="path-1-inside-1_3105_8150" fill="white">
<path fill-rule="evenodd" clip-rule="evenodd" d="M61.1473 565L-5.68653e-05 515.779L-5.08695e-05 445.003L756 188.647L756 514.677L686.438 565L61.1473 565ZM756 170.443L-4.93273e-05 426.799L-1.78731e-05 55.5091L76.413 -2.74395e-07L681.525 5.43163e-05L756 61.5055L756 170.443Z"/>
</mask>
<path d="M-5.68653e-05 515.779L-1.00006 515.779L-1.00006 516.257L-0.627106 516.558L-5.68653e-05 515.779ZM61.1473 565L60.5202 565.779L60.7948 566L61.1473 566L61.1473 565ZM-5.08695e-05 445.003L-0.321186 444.056L-1.00005 444.286L-1.00005 445.003L-5.08695e-05 445.003ZM756 188.647L757 188.647L757 187.252L755.679 187.7L756 188.647ZM756 514.677L756.586 515.487L757 515.187L757 514.677L756 514.677ZM686.438 565L686.438 566L686.761 566L687.024 565.81L686.438 565ZM-4.93273e-05 426.799L-1.00005 426.799L-1.00005 428.194L0.321086 427.746L-4.93273e-05 426.799ZM756 170.443L756.321 171.39L757 171.16L757 170.443L756 170.443ZM-1.78731e-05 55.5091L-0.587747 54.7001L-1.00002 54.9996L-1.00002 55.5091L-1.78731e-05 55.5091ZM76.413 -2.74395e-07L76.413 -1L76.0881 -1L75.8252 -0.809058L76.413 -2.74395e-07ZM681.525 5.43163e-05L682.162 -0.770995L681.885 -0.999946L681.525 -0.999946L681.525 5.43163e-05ZM756 61.5055L757 61.5055L757 61.0344L756.637 60.7345L756 61.5055ZM-0.627106 516.558L60.5202 565.779L61.7743 564.221L0.626992 515L-0.627106 516.558ZM-1.00005 445.003L-1.00006 515.779L0.999943 515.779L0.999949 445.003L-1.00005 445.003ZM755.679 187.7L-0.321186 444.056L0.321084 445.95L756.321 189.594L755.679 187.7ZM757 514.677L757 188.647L755 188.647L755 514.677L757 514.677ZM687.024 565.81L756.586 515.487L755.414 513.866L685.851 564.19L687.024 565.81ZM61.1473 566L686.438 566L686.438 564L61.1473 564L61.1473 566ZM0.321086 427.746L756.321 171.39L755.679 169.496L-0.321184 425.852L0.321086 427.746ZM-1.00002 55.5091L-1.00005 426.799L0.999951 426.799L0.999982 55.5091L-1.00002 55.5091ZM75.8252 -0.809058L-0.587747 54.7001L0.587711 56.3182L77.0007 0.809058L75.8252 -0.809058ZM681.525 -0.999946L76.413 -1L76.413 1L681.525 1.00005L681.525 -0.999946ZM756.637 60.7345L682.162 -0.770995L680.888 0.771104L755.363 62.2766L756.637 60.7345ZM757 170.443L757 61.5055L755 61.5055L755 170.443L757 170.443Z" fill="url(#paint0_linear_3105_8150)" mask="url(#path-1-inside-1_3105_8150)"/>
<defs>
<linearGradient id="paint0_linear_3105_8150" x1="719.197" y1="565" x2="283.996" y2="-149.673" gradientUnits="userSpaceOnUse">
<stop stop-color="#C7FF51"/>
<stop offset="1" stop-color="#BA77FD"/>
</linearGradient>
</defs>
</svg>
