<svg
                        width="44"
                        height="32"
                        viewBox="0 0 44 32"
                        fill="none"
                        xmlns="http://www.w3.org/2000/svg"
                      >
                        <path
                          fill-rule="evenodd"
                          clip-rule="evenodd"
                          d="M1.355 6.23L4.23 3.355C4.9736 2.60809 5.95182 2.14017 7 2.03V2H18C18.7956 2 19.5587 2.31607 20.1213 2.87868C20.6839 3.44129 21 4.20435 21 5V9.5C21 9.76522 20.8946 10.0196 20.7071 10.2071C20.5196 10.3946 20.2652 10.5 20 10.5C19.7348 10.5 19.4804 10.3946 19.2929 10.2071C19.1054 10.0196 19 9.76522 19 9.5V5C19 4.73478 18.8946 4.48043 18.7071 4.29289C18.5196 4.10536 18.2652 4 18 4H8V7C8 7.79565 7.68393 8.55871 7.12132 9.12132C6.55871 9.68393 5.79565 10 5 10H2V27C2 27.2652 2.10535 27.5196 2.29289 27.7071C2.48043 27.8946 2.73478 28 3 28H18C18.2652 28 18.5196 27.8946 18.7071 27.7071C18.8946 27.5196 19 27.2652 19 27V25.5H7C6.20435 25.5 5.44129 25.1839 4.87868 24.6213C4.31607 24.0587 4 23.2956 4 22.5V15.5C4 14.7044 4.31607 13.9413 4.87868 13.3787C5.44129 12.8161 6.20435 12.5 7 12.5H41C41.7957 12.5 42.5587 12.8161 43.1213 13.3787C43.6839 13.9413 44 14.7044 44 15.5V22.5C44 23.2956 43.6839 24.0587 43.1213 24.6213C42.5587 25.1839 41.7957 25.5 41 25.5H21V27C21 27.7956 20.6839 28.5587 20.1213 29.1213C19.5587 29.6839 18.7956 30 18 30H3C2.20435 30 1.44129 29.6839 0.878678 29.1213C0.316067 28.5587 1.9241e-07 27.7956 1.9241e-07 27V9.5C-0.000175091 8.89263 0.119412 8.29119 0.351918 7.73009C0.584423 7.16898 0.925286 6.65923 1.355 6.23ZM5 8C5.26522 8 5.51957 7.89464 5.70711 7.70711C5.89464 7.51957 6 7.26522 6 7V4.5C5.87348 4.58619 5.7547 4.68322 5.645 4.79L2.765 7.67C2.66798 7.77273 2.57936 7.88309 2.5 8H5Z"
                          fill="url(#paint0_linear_53_2250)"
                        />
                        <path
                          d="M6.044 24V15.48H8.66C9.924 15.48 10.984 15.888 11.84 16.704C12.696 17.52 13.124 18.532 13.124 19.74C13.124 20.948 12.696 21.96 11.84 22.776C10.984 23.592 9.924 24 8.66 24H6.044ZM7.448 22.692H8.66C9.556 22.692 10.284 22.412 10.844 21.852C11.412 21.292 11.696 20.588 11.696 19.74C11.696 18.892 11.412 18.188 10.844 17.628C10.284 17.068 9.556 16.788 8.66 16.788H7.448V22.692ZM19.133 22.788C19.965 22.788 20.669 22.492 21.245 21.9C21.821 21.308 22.109 20.588 22.109 19.74C22.109 18.892 21.821 18.172 21.245 17.58C20.669 16.988 19.965 16.692 19.133 16.692C18.293 16.692 17.585 16.988 17.009 17.58C16.433 18.172 16.145 18.892 16.145 19.74C16.145 20.588 16.433 21.308 17.009 21.9C17.585 22.492 18.293 22.788 19.133 22.788ZM22.253 22.86C21.397 23.716 20.357 24.144 19.133 24.144C17.909 24.144 16.869 23.72 16.013 22.872C15.157 22.016 14.729 20.972 14.729 19.74C14.729 18.508 15.157 17.468 16.013 16.62C16.869 15.764 17.909 15.336 19.133 15.336C20.357 15.336 21.397 15.764 22.253 16.62C23.109 17.476 23.537 18.516 23.537 19.74C23.537 20.964 23.109 22.004 22.253 22.86ZM29.5776 24.144C28.3056 24.144 27.2456 23.724 26.3976 22.884C25.5576 22.036 25.1376 20.988 25.1376 19.74C25.1376 18.492 25.5576 17.448 26.3976 16.608C27.2456 15.76 28.3056 15.336 29.5776 15.336C30.5856 15.336 31.4656 15.624 32.2176 16.2C32.9776 16.768 33.4656 17.48 33.6816 18.336H32.1696C31.9856 17.848 31.6576 17.452 31.1856 17.148C30.7136 16.844 30.1776 16.692 29.5776 16.692C28.6976 16.692 27.9736 16.984 27.4056 17.568C26.8376 18.152 26.5536 18.876 26.5536 19.74C26.5536 20.604 26.8376 21.328 27.4056 21.912C27.9736 22.496 28.6976 22.788 29.5776 22.788C30.1776 22.788 30.7136 22.636 31.1856 22.332C31.6576 22.028 31.9856 21.632 32.1696 21.144H33.6816C33.4656 22 32.9776 22.716 32.2176 23.292C31.4656 23.86 30.5856 24.144 29.5776 24.144ZM36.0308 24H34.3388L37.5908 19.68L34.4948 15.48H36.1508L38.4428 18.588L40.7468 15.48H42.4028L39.3068 19.692L42.5588 24H40.8788L38.4548 20.808L36.0308 24Z"
                          fill="#272727"
                        />
                        <defs>
                          <linearGradient
                            id="paint0_linear_53_2250"
                            x1="2.14199"
                            y1="2"
                            x2="21.9822"
                            y2="40.2635"
                            gradientUnits="userSpaceOnUse"
                          >
                            <stop stop-color="#C7FF51" />
                            <stop offset="1" stop-color="#BA77FD" />
                          </linearGradient>
                        </defs>
                      </svg>