<svg width="72" height="72" viewBox="0 0 72 72" fill="none" xmlns="http://www.w3.org/2000/svg">
<path d="M10.125 54C9.82663 54 9.54048 53.8815 9.32951 53.6705C9.11853 53.4595 9 53.1734 9 52.875V31.5C9 31.2016 9.11853 30.9155 9.32951 30.7045C9.54048 30.4935 9.82663 30.375 10.125 30.375C10.4234 30.375 10.7095 30.4935 10.9205 30.7045C11.1315 30.9155 11.25 31.2016 11.25 31.5V52.875C11.25 53.1734 11.1315 53.4595 10.9205 53.6705C10.7095 53.8815 10.4234 54 10.125 54Z" fill="url(#paint0_linear_1707_11274)"/>
<path d="M61.875 41.625C61.5766 41.625 61.2905 41.5065 61.0795 41.2955C60.8685 41.0845 60.75 40.7984 60.75 40.5V19.125C60.75 18.8266 60.8685 18.5405 61.0795 18.3295C61.2905 18.1185 61.5766 18 61.875 18C62.1734 18 62.4595 18.1185 62.6705 18.3295C62.8815 18.5405 63 18.8266 63 19.125V40.5C63 40.7984 62.8815 41.0845 62.6705 41.2955C62.4595 41.5065 62.1734 41.625 61.875 41.625Z" fill="url(#paint1_linear_1707_11274)"/>
<path d="M48.2094 37.1252H36.0031V24.9189C36.0031 24.6206 35.8846 24.3344 35.6736 24.1235C35.4626 23.9125 35.1765 23.7939 34.8781 23.7939C32.019 23.7939 29.224 24.6418 26.8467 26.2303C24.4694 27.8187 22.6165 30.0765 21.5223 32.718C20.4281 35.3596 20.1419 38.2662 20.6997 41.0705C21.2575 43.8747 22.6343 46.4506 24.656 48.4723C26.6778 50.4941 29.2536 51.8709 32.0579 52.4287C34.8621 52.9865 37.7688 52.7002 40.4103 51.606C43.0518 50.5119 45.3096 48.659 46.8981 46.2817C48.4865 43.9043 49.3344 41.1094 49.3344 38.2502C49.3344 37.9518 49.2159 37.6657 49.0049 37.4547C48.7939 37.2437 48.5077 37.1252 48.2094 37.1252ZM33.7531 26.1002V37.1252H22.7281C22.9978 34.2925 24.246 31.6422 26.2581 29.6301C28.2702 27.618 30.9204 26.3699 33.7531 26.1002ZM22.7281 39.3752H33.7531V50.4002C30.9204 50.1305 28.2702 48.8824 26.2581 46.8703C24.246 44.8582 22.9978 42.2079 22.7281 39.3752ZM36.0031 50.4002V39.3752H47.0281C46.7585 42.2079 45.5103 44.8582 43.4982 46.8703C41.4861 48.8824 38.8358 50.1305 36.0031 50.4002Z" fill="url(#paint2_linear_1707_11274)"/>
<path d="M39.375 19.2937C39.0766 19.2937 38.7905 19.4122 38.5795 19.6232C38.3685 19.8342 38.25 20.1203 38.25 20.4187V33.75C38.25 34.0483 38.3685 34.3345 38.5795 34.5454C38.7905 34.7564 39.0766 34.875 39.375 34.875H52.7062C53.0046 34.875 53.2908 34.7564 53.5017 34.5454C53.7127 34.3345 53.8312 34.0483 53.8312 33.75C53.8253 29.9177 52.3003 26.2442 49.5905 23.5344C46.8808 20.8246 43.2072 19.2997 39.375 19.2937ZM40.5 32.625V21.6C43.3327 21.8696 45.983 23.1178 47.9951 25.1299C50.0072 27.142 51.2553 29.7922 51.525 32.625H40.5Z" fill="url(#paint3_linear_1707_11274)"/>
<path d="M64.125 15.75H7.875C6.97989 15.75 6.12145 15.3944 5.48851 14.7615C4.85558 14.1286 4.5 13.2701 4.5 12.375C4.5 11.4799 4.85558 10.6214 5.48851 9.98851C6.12145 9.35558 6.97989 9 7.875 9H64.125C65.0201 9 65.8785 9.35558 66.5115 9.98851C67.1444 10.6214 67.5 11.4799 67.5 12.375C67.5 13.2701 67.1444 14.1286 66.5115 14.7615C65.8785 15.3944 65.0201 15.75 64.125 15.75ZM7.875 11.25C7.57663 11.25 7.29048 11.3685 7.0795 11.5795C6.86853 11.7905 6.75 12.0766 6.75 12.375C6.75 12.6734 6.86853 12.9595 7.0795 13.1705C7.29048 13.3815 7.57663 13.5 7.875 13.5H64.125C64.4234 13.5 64.7095 13.3815 64.9205 13.1705C65.1315 12.9595 65.25 12.6734 65.25 12.375C65.25 12.0766 65.1315 11.7905 64.9205 11.5795C64.7095 11.3685 64.4234 11.25 64.125 11.25H7.875Z" fill="url(#paint4_linear_1707_11274)"/>
<path d="M64.125 63H7.875C6.97989 63 6.12145 62.6444 5.48851 62.0115C4.85558 61.3785 4.5 60.5201 4.5 59.625C4.5 58.7299 4.85558 57.8715 5.48851 57.2385C6.12145 56.6056 6.97989 56.25 7.875 56.25H64.125C65.0201 56.25 65.8785 56.6056 66.5115 57.2385C67.1444 57.8715 67.5 58.7299 67.5 59.625C67.5 60.5201 67.1444 61.3785 66.5115 62.0115C65.8785 62.6444 65.0201 63 64.125 63ZM7.875 58.5C7.57663 58.5 7.29048 58.6185 7.0795 58.8295C6.86853 59.0405 6.75 59.3266 6.75 59.625C6.75 59.9234 6.86853 60.2095 7.0795 60.4205C7.29048 60.6315 7.57663 60.75 7.875 60.75H64.125C64.4234 60.75 64.7095 60.6315 64.9205 60.4205C65.1315 60.2095 65.25 59.9234 65.25 59.625C65.25 59.3266 65.1315 59.0405 64.9205 58.8295C64.7095 58.6185 64.4234 58.5 64.125 58.5H7.875Z" fill="url(#paint5_linear_1707_11274)"/>
<path d="M64.125 54H52.875C51.9799 54 51.1215 53.6444 50.4885 53.0115C49.8556 52.3785 49.5 51.5201 49.5 50.625V47.25C49.5 46.3549 49.8556 45.4965 50.4885 44.8635C51.1215 44.2306 51.9799 43.875 52.875 43.875H64.125C65.0201 43.875 65.8785 44.2306 66.5115 44.8635C67.1444 45.4965 67.5 46.3549 67.5 47.25V50.625C67.5 51.5201 67.1444 52.3785 66.5115 53.0115C65.8785 53.6444 65.0201 54 64.125 54ZM52.875 46.125C52.5766 46.125 52.2905 46.2435 52.0795 46.4545C51.8685 46.6655 51.75 46.9516 51.75 47.25V50.625C51.75 50.9234 51.8685 51.2095 52.0795 51.4205C52.2905 51.6315 52.5766 51.75 52.875 51.75H64.125C64.4234 51.75 64.7095 51.6315 64.9205 51.4205C65.1315 51.2095 65.25 50.9234 65.25 50.625V47.25C65.25 46.9516 65.1315 46.6655 64.9205 46.4545C64.7095 46.2435 64.4234 46.125 64.125 46.125H52.875Z" fill="url(#paint6_linear_1707_11274)"/>
<path d="M19.125 28.125H7.875C6.97989 28.125 6.12145 27.7694 5.48851 27.1365C4.85558 26.5036 4.5 25.6451 4.5 24.75V21.375C4.5 20.4799 4.85558 19.6214 5.48851 18.9885C6.12145 18.3556 6.97989 18 7.875 18H19.125C20.0201 18 20.8786 18.3556 21.5115 18.9885C22.1444 19.6214 22.5 20.4799 22.5 21.375V24.75C22.5 25.6451 22.1444 26.5036 21.5115 27.1365C20.8786 27.7694 20.0201 28.125 19.125 28.125ZM7.875 20.25C7.57663 20.25 7.29048 20.3685 7.0795 20.5795C6.86853 20.7905 6.75 21.0766 6.75 21.375V24.75C6.75 25.0484 6.86853 25.3345 7.0795 25.5455C7.29048 25.7565 7.57663 25.875 7.875 25.875H19.125C19.4234 25.875 19.7095 25.7565 19.9205 25.5455C20.1315 25.3345 20.25 25.0484 20.25 24.75V21.375C20.25 21.0766 20.1315 20.7905 19.9205 20.5795C19.7095 20.3685 19.4234 20.25 19.125 20.25H7.875Z" fill="url(#paint7_linear_1707_11274)"/>
<defs>
<linearGradient id="paint0_linear_1707_11274" x1="9.10953" y1="30.375" x2="13.8331" y2="30.9271" gradientUnits="userSpaceOnUse">
<stop stop-color="#C7FF51"/>
<stop offset="1" stop-color="#BA77FD"/>
</linearGradient>
<linearGradient id="paint1_linear_1707_11274" x1="60.8595" y1="18" x2="65.5831" y2="18.5521" gradientUnits="userSpaceOnUse">
<stop stop-color="#C7FF51"/>
<stop offset="1" stop-color="#BA77FD"/>
</linearGradient>
<linearGradient id="paint2_linear_1707_11274" x1="21.8294" y1="23.7939" x2="46.3793" y2="53.9236" gradientUnits="userSpaceOnUse">
<stop stop-color="#C7FF51"/>
<stop offset="1" stop-color="#BA77FD"/>
</linearGradient>
<linearGradient id="paint3_linear_1707_11274" x1="39.0085" y1="19.2937" x2="52.2387" y2="35.5309" gradientUnits="userSpaceOnUse">
<stop stop-color="#C7FF51"/>
<stop offset="1" stop-color="#BA77FD"/>
</linearGradient>
<linearGradient id="paint4_linear_1707_11274" x1="7.56694" y1="9" x2="8.581" y2="20.6157" gradientUnits="userSpaceOnUse">
<stop stop-color="#C7FF51"/>
<stop offset="1" stop-color="#BA77FD"/>
</linearGradient>
<linearGradient id="paint5_linear_1707_11274" x1="7.56694" y1="56.25" x2="8.581" y2="67.8657" gradientUnits="userSpaceOnUse">
<stop stop-color="#C7FF51"/>
<stop offset="1" stop-color="#BA77FD"/>
</linearGradient>
<linearGradient id="paint6_linear_1707_11274" x1="50.3763" y1="43.875" x2="57.026" y2="58.3836" gradientUnits="userSpaceOnUse">
<stop stop-color="#C7FF51"/>
<stop offset="1" stop-color="#BA77FD"/>
</linearGradient>
<linearGradient id="paint7_linear_1707_11274" x1="5.37627" y1="18" x2="12.026" y2="32.5086" gradientUnits="userSpaceOnUse">
<stop stop-color="#C7FF51"/>
<stop offset="1" stop-color="#BA77FD"/>
</linearGradient>
</defs>
</svg>
