<svg width="72" height="72" viewBox="0 0 72 72" fill="none" xmlns="http://www.w3.org/2000/svg">
<path d="M41.625 56.25H37.125C36.8266 56.25 36.5405 56.1315 36.3295 55.9205C36.1185 55.7095 36 55.4234 36 55.125C36 54.8266 36.1185 54.5405 36.3295 54.3295C36.5405 54.1185 36.8266 54 37.125 54H41.625C41.9234 54 42.2095 54.1185 42.4205 54.3295C42.6315 54.5405 42.75 54.8266 42.75 55.125C42.75 55.4234 42.6315 55.7095 42.4205 55.9205C42.2095 56.1315 41.9234 56.25 41.625 56.25Z" fill="url(#paint0_linear_1707_11248)"/>
<path d="M64.125 4.5H7.875C6.97989 4.5 6.12145 4.85558 5.48851 5.48851C4.85558 6.12145 4.5 6.97989 4.5 7.875C4.5 8.77011 4.85558 9.62855 5.48851 10.2615C6.12145 10.8944 6.97989 11.25 7.875 11.25H9V38.25C9 38.5484 9.11853 38.8345 9.3295 39.0455C9.54048 39.2565 9.82663 39.375 10.125 39.375C10.4234 39.375 10.7095 39.2565 10.9205 39.0455C11.1315 38.8345 11.25 38.5484 11.25 38.25V11.25H60.75V29.25C60.75 29.5484 60.8685 29.8345 61.0795 30.0455C61.2905 30.2565 61.5766 30.375 61.875 30.375C62.1734 30.375 62.4595 30.2565 62.6705 30.0455C62.8815 29.8345 63 29.5484 63 29.25V11.25H64.125C65.0201 11.25 65.8785 10.8944 66.5115 10.2615C67.1444 9.62855 67.5 8.77011 67.5 7.875C67.5 6.97989 67.1444 6.12145 66.5115 5.48851C65.8785 4.85558 65.0201 4.5 64.125 4.5ZM64.125 9H7.875C7.57663 9 7.29048 8.88147 7.0795 8.6705C6.86853 8.45952 6.75 8.17337 6.75 7.875C6.75 7.57663 6.86853 7.29048 7.0795 7.0795C7.29048 6.86853 7.57663 6.75 7.875 6.75H64.125C64.4234 6.75 64.7095 6.86853 64.9205 7.0795C65.1315 7.29048 65.25 7.57663 65.25 7.875C65.25 8.17337 65.1315 8.45952 64.9205 8.6705C64.7095 8.88147 64.4234 9 64.125 9Z" fill="url(#paint1_linear_1707_11248)"/>
<path d="M56.25 45C54.915 45 53.6099 44.6041 52.4999 43.8624C51.3899 43.1207 50.5247 42.0665 50.0138 40.8331C49.5029 39.5997 49.3693 38.2425 49.6297 36.9331C49.8902 35.6238 50.533 34.421 51.477 33.477C52.421 32.533 53.6238 31.8902 54.9331 31.6297C56.2425 31.3693 57.5997 31.5029 58.8331 32.0138C60.0665 32.5247 61.1207 33.3899 61.8624 34.4999C62.6041 35.6099 63 36.915 63 38.25C63 40.0402 62.2888 41.7571 61.023 43.023C59.7571 44.2888 58.0402 45 56.25 45ZM56.25 33.75C55.36 33.75 54.49 34.0139 53.7499 34.5084C53.0099 35.0029 52.4331 35.7057 52.0925 36.5279C51.752 37.3502 51.6628 38.255 51.8365 39.1279C52.0101 40.0008 52.4387 40.8026 53.068 41.432C53.6974 42.0613 54.4992 42.4899 55.3721 42.6635C56.245 42.8372 57.1498 42.7481 57.9721 42.4075C58.7943 42.0669 59.4971 41.4901 59.9916 40.7501C60.4861 40.01 60.75 39.14 60.75 38.25C60.75 37.0565 60.2759 35.9119 59.432 35.068C58.5881 34.2241 57.4435 33.75 56.25 33.75Z" fill="url(#paint2_linear_1707_11248)"/>
<path d="M64.125 67.5H48.375C47.4799 67.5 46.6215 67.1444 45.9885 66.5115C45.3556 65.8785 45 65.0201 45 64.125V50.625C45 49.7299 45.3556 48.8715 45.9885 48.2385C46.6215 47.6056 47.4799 47.25 48.375 47.25H64.125C65.0201 47.25 65.8785 47.6056 66.5115 48.2385C67.1444 48.8715 67.5 49.7299 67.5 50.625V64.125C67.5 65.0201 67.1444 65.8785 66.5115 66.5115C65.8785 67.1444 65.0201 67.5 64.125 67.5ZM48.375 49.5C48.0766 49.5 47.7905 49.6185 47.5795 49.8295C47.3685 50.0405 47.25 50.3266 47.25 50.625V64.125C47.25 64.4234 47.3685 64.7095 47.5795 64.9205C47.7905 65.1315 48.0766 65.25 48.375 65.25H64.125C64.4234 65.25 64.7095 65.1315 64.9205 64.9205C65.1315 64.7095 65.25 64.4234 65.25 64.125V50.625C65.25 50.3266 65.1315 50.0405 64.9205 49.8295C64.7095 49.6185 64.4234 49.5 64.125 49.5H48.375Z" fill="url(#paint3_linear_1707_11248)"/>
<path d="M30.375 45H27V43.875C27 42.9799 26.6444 42.1215 26.0115 41.4885C25.3786 40.8556 24.5201 40.5 23.625 40.5H14.625C13.7299 40.5 12.8714 40.8556 12.2385 41.4885C11.6056 42.1215 11.25 42.9799 11.25 43.875V45H7.875C6.97989 45 6.12145 45.3556 5.48851 45.9885C4.85558 46.6215 4.5 47.4799 4.5 48.375V64.125C4.5 65.0201 4.85558 65.8785 5.48851 66.5115C6.12145 67.1444 6.97989 67.5 7.875 67.5H30.375C31.2701 67.5 32.1286 67.1444 32.7615 66.5115C33.3944 65.8785 33.75 65.0201 33.75 64.125V48.375C33.75 47.4799 33.3944 46.6215 32.7615 45.9885C32.1286 45.3556 31.2701 45 30.375 45ZM13.5 43.875C13.5 43.5766 13.6185 43.2905 13.8295 43.0795C14.0405 42.8685 14.3266 42.75 14.625 42.75H23.625C23.9234 42.75 24.2095 42.8685 24.4205 43.0795C24.6315 43.2905 24.75 43.5766 24.75 43.875V45H13.5V43.875ZM6.75 48.375C6.75 48.0766 6.86853 47.7905 7.0795 47.5795C7.29048 47.3685 7.57663 47.25 7.875 47.25H30.375C30.6734 47.25 30.9595 47.3685 31.1705 47.5795C31.3815 47.7905 31.5 48.0766 31.5 48.375V52.875H24.5475C24.3154 52.2185 23.8859 51.6499 23.3179 51.2471C22.75 50.8442 22.0713 50.627 21.375 50.625H16.875C16.1787 50.627 15.5 50.8442 14.9321 51.2471C14.3641 51.6499 13.9346 52.2185 13.7025 52.875H6.75V48.375ZM22.5 54C22.5 54.2984 22.3815 54.5845 22.1705 54.7955C21.9595 55.0065 21.6734 55.125 21.375 55.125H16.875C16.5766 55.125 16.2905 55.0065 16.0795 54.7955C15.8685 54.5845 15.75 54.2984 15.75 54C15.75 53.7016 15.8685 53.4155 16.0795 53.2045C16.2905 52.9935 16.5766 52.875 16.875 52.875H21.375C21.6734 52.875 21.9595 52.9935 22.1705 53.2045C22.3815 53.4155 22.5 53.7016 22.5 54ZM30.375 65.25H7.875C7.57663 65.25 7.29048 65.1315 7.0795 64.9205C6.86853 64.7095 6.75 64.4234 6.75 64.125V55.125H13.7025C13.9346 55.7815 14.3641 56.3501 14.9321 56.7529C15.5 57.1558 16.1787 57.373 16.875 57.375H21.375C22.0713 57.373 22.75 57.1558 23.3179 56.7529C23.8859 56.3501 24.3154 55.7815 24.5475 55.125H31.5V64.125C31.5 64.4234 31.3815 64.7095 31.1705 64.9205C30.9595 65.1315 30.6734 65.25 30.375 65.25Z" fill="url(#paint4_linear_1707_11248)"/>
<path d="M51.7485 16.875C51.7562 16.7283 51.7293 16.5818 51.6697 16.4475C51.5846 16.2403 51.4396 16.0632 51.2532 15.9389C51.0668 15.8147 50.8475 15.7489 50.6235 15.75H44.9985C44.7001 15.75 44.414 15.8685 44.203 16.0795C43.992 16.2905 43.8735 16.5766 43.8735 16.875C43.8735 17.1734 43.992 17.4595 44.203 17.6705C44.414 17.8815 44.7001 18 44.9985 18H47.9122L35.9197 29.9925L31.071 26.1225C30.8456 25.9436 30.5602 25.8579 30.2735 25.883C29.9868 25.9081 29.7206 26.0421 29.5297 26.2575L20.5297 36.3825C20.3331 36.6064 20.2333 36.8992 20.2523 37.1966C20.2713 37.494 20.4075 37.7717 20.631 37.9688C20.8549 38.1654 21.1477 38.2652 21.4451 38.2462C21.7425 38.2272 22.0202 38.091 22.2172 37.8675L30.5085 28.5413L35.301 32.3775C35.5165 32.5504 35.7882 32.638 36.0641 32.6235C36.3401 32.6089 36.601 32.4934 36.7972 32.2988L49.4985 19.5863V22.5C49.4985 22.7984 49.617 23.0845 49.828 23.2955C50.039 23.5065 50.3251 23.625 50.6235 23.625C50.9219 23.625 51.208 23.5065 51.419 23.2955C51.63 23.0845 51.7485 22.7984 51.7485 22.5V16.875Z" fill="url(#paint5_linear_1707_11248)"/>
<defs>
<linearGradient id="paint0_linear_1707_11248" x1="36.3286" y1="54" x2="37.3154" y2="57.6334" gradientUnits="userSpaceOnUse">
<stop stop-color="#C7FF51"/>
<stop offset="1" stop-color="#BA77FD"/>
</linearGradient>
<linearGradient id="paint1_linear_1707_11248" x1="7.56694" y1="4.5" x2="30.2319" y2="54.7488" gradientUnits="userSpaceOnUse">
<stop stop-color="#C7FF51"/>
<stop offset="1" stop-color="#BA77FD"/>
</linearGradient>
<linearGradient id="paint2_linear_1707_11248" x1="50.1572" y1="31.5" x2="61.6202" y2="45.5683" gradientUnits="userSpaceOnUse">
<stop stop-color="#C7FF51"/>
<stop offset="1" stop-color="#BA77FD"/>
</linearGradient>
<linearGradient id="paint3_linear_1707_11248" x1="46.0953" y1="47.25" x2="62.8398" y2="70.0835" gradientUnits="userSpaceOnUse">
<stop stop-color="#C7FF51"/>
<stop offset="1" stop-color="#BA77FD"/>
</linearGradient>
<linearGradient id="paint4_linear_1707_11248" x1="5.92393" y1="40.5" x2="28.4139" y2="70.4016" gradientUnits="userSpaceOnUse">
<stop stop-color="#C7FF51"/>
<stop offset="1" stop-color="#BA77FD"/>
</linearGradient>
<linearGradient id="paint5_linear_1707_11248" x1="21.7835" y1="15.75" x2="38.743" y2="44.8916" gradientUnits="userSpaceOnUse">
<stop stop-color="#C7FF51"/>
<stop offset="1" stop-color="#BA77FD"/>
</linearGradient>
</defs>
</svg>
