<svg width="72" height="72" viewBox="0 0 72 72" fill="none" xmlns="http://www.w3.org/2000/svg">
<path d="M64.125 9H60.75C60.4516 9 60.1655 9.11853 59.9545 9.32951C59.7435 9.54048 59.625 9.82663 59.625 10.125C59.625 10.4234 59.7435 10.7095 59.9545 10.9205C60.1655 11.1315 60.4516 11.25 60.75 11.25H64.125C64.4234 11.25 64.7095 11.3685 64.9205 11.5795C65.1315 11.7905 65.25 12.0766 65.25 12.375V47.25H6.75V12.375C6.75 12.0766 6.86853 11.7905 7.0795 11.5795C7.29048 11.3685 7.57663 11.25 7.875 11.25H42.75C43.0484 11.25 43.3345 11.1315 43.5455 10.9205C43.7565 10.7095 43.875 10.4234 43.875 10.125C43.875 9.82663 43.7565 9.54048 43.5455 9.32951C43.3345 9.11853 43.0484 9 42.75 9H7.875C6.97989 9 6.12145 9.35558 5.48851 9.98851C4.85558 10.6214 4.5 11.4799 4.5 12.375V52.875C4.5 53.7701 4.85558 54.6285 5.48851 55.2615C6.12145 55.8944 6.97989 56.25 7.875 56.25H27.8212L26.325 60.75H19.125C18.2299 60.75 17.3714 61.1056 16.7385 61.7385C16.1056 62.3715 15.75 63.2299 15.75 64.125C15.75 65.0201 16.1056 65.8785 16.7385 66.5115C17.3714 67.1444 18.2299 67.5 19.125 67.5H52.875C53.7701 67.5 54.6285 67.1444 55.2615 66.5115C55.8944 65.8785 56.25 65.0201 56.25 64.125C56.25 63.2299 55.8944 62.3715 55.2615 61.7385C54.6285 61.1056 53.7701 60.75 52.875 60.75H45.945L44.4487 56.25H64.125C65.0201 56.25 65.8785 55.8944 66.5115 55.2615C67.1444 54.6285 67.5 53.7701 67.5 52.875V12.375C67.5 11.4799 67.1444 10.6214 66.5115 9.98851C65.8785 9.35558 65.0201 9 64.125 9ZM52.875 63C53.1734 63 53.4595 63.1185 53.6705 63.3295C53.8815 63.5405 54 63.8266 54 64.125C54 64.4234 53.8815 64.7095 53.6705 64.9205C53.4595 65.1315 53.1734 65.25 52.875 65.25H19.125C18.8266 65.25 18.5405 65.1315 18.3295 64.9205C18.1185 64.7095 18 64.4234 18 64.125C18 63.8266 18.1185 63.5405 18.3295 63.3295C18.5405 63.1185 18.8266 63 19.125 63H52.875ZM43.5375 60.75H28.6987L30.195 56.25H42.075L43.5375 60.75ZM65.25 52.875C65.25 53.1734 65.1315 53.4595 64.9205 53.6705C64.7095 53.8815 64.4234 54 64.125 54H7.875C7.57663 54 7.29048 53.8815 7.0795 53.6705C6.86853 53.4595 6.75 53.1734 6.75 52.875V49.5H65.25V52.875Z" fill="url(#paint0_linear_1707_11257)"/>
<path d="M22.5 39.375C22.7984 39.375 23.0845 39.2565 23.2955 39.0455C23.5065 38.8345 23.625 38.5484 23.625 38.25V29.25C23.625 28.3549 23.2694 27.4964 22.6365 26.8635C22.0036 26.2306 21.1451 25.875 20.25 25.875H15.75C14.8549 25.875 13.9964 26.2306 13.3635 26.8635C12.7306 27.4964 12.375 28.3549 12.375 29.25V38.25C12.375 38.5484 12.4935 38.8345 12.7045 39.0455C12.9155 39.2565 13.2016 39.375 13.5 39.375C13.7984 39.375 14.0845 39.2565 14.2955 39.0455C14.5065 38.8345 14.625 38.5484 14.625 38.25V29.25C14.625 28.9516 14.7435 28.6655 14.9545 28.4545C15.1655 28.2435 15.4516 28.125 15.75 28.125H20.25C20.5484 28.125 20.8345 28.2435 21.0455 28.4545C21.2565 28.6655 21.375 28.9516 21.375 29.25V38.25C21.375 38.5484 21.4935 38.8345 21.7045 39.0455C21.9155 39.2565 22.2016 39.375 22.5 39.375Z" fill="url(#paint1_linear_1707_11257)"/>
<path d="M39.375 39.375C39.6734 39.375 39.9595 39.2565 40.1705 39.0455C40.3815 38.8345 40.5 38.5484 40.5 38.25V23.625C40.5 22.7299 40.1444 21.8714 39.5115 21.2385C38.8785 20.6056 38.0201 20.25 37.125 20.25H32.625C31.7299 20.25 30.8714 20.6056 30.2385 21.2385C29.6056 21.8714 29.25 22.7299 29.25 23.625V38.25C29.25 38.5484 29.3685 38.8345 29.5795 39.0455C29.7905 39.2565 30.0766 39.375 30.375 39.375C30.6734 39.375 30.9595 39.2565 31.1705 39.0455C31.3815 38.8345 31.5 38.5484 31.5 38.25V23.625C31.5 23.3266 31.6185 23.0405 31.8295 22.8295C32.0405 22.6185 32.3266 22.5 32.625 22.5H37.125C37.4234 22.5 37.7095 22.6185 37.9205 22.8295C38.1315 23.0405 38.25 23.3266 38.25 23.625V38.25C38.25 38.5484 38.3685 38.8345 38.5795 39.0455C38.7905 39.2565 39.0766 39.375 39.375 39.375Z" fill="url(#paint2_linear_1707_11257)"/>
<path d="M41.0136 19.6421C41.1086 19.8255 41.2523 19.9793 41.4289 20.0864C41.6055 20.1936 41.8082 20.25 42.0148 20.2496H46.1323V38.2496C46.1323 38.548 46.2508 38.8341 46.4618 39.0451C46.6728 39.2561 46.959 39.3746 47.2573 39.3746C47.5557 39.3746 47.8418 39.2561 48.0528 39.0451C48.2638 38.8341 48.3823 38.548 48.3823 38.2496V19.1246C48.3823 18.8262 48.2638 18.5401 48.0528 18.3291C47.8418 18.1181 47.5557 17.9996 47.2573 17.9996H44.2086L51.7573 7.54835L59.3061 17.9996H56.2573C55.959 17.9996 55.6728 18.1181 55.4618 18.3291C55.2508 18.5401 55.1323 18.8262 55.1323 19.1246V38.2496C55.1323 38.548 55.2508 38.8341 55.4618 39.0451C55.6728 39.2561 55.959 39.3746 56.2573 39.3746C56.5557 39.3746 56.8418 39.2561 57.0528 39.0451C57.2638 38.8341 57.3823 38.548 57.3823 38.2496V20.2496H61.4998C61.7059 20.2487 61.9078 20.1911 62.0835 20.0832C62.2591 19.9753 62.4017 19.8213 62.4957 19.6378C62.5898 19.4544 62.6316 19.2487 62.6167 19.0431C62.6017 18.8375 62.5306 18.64 62.4111 18.4721L52.6686 4.9721C52.5643 4.82804 52.4273 4.71076 52.2689 4.62988C52.1105 4.549 51.9352 4.50684 51.7573 4.50684C51.5795 4.50684 51.4041 4.549 51.2457 4.62988C51.0873 4.71076 50.9504 4.82804 50.8461 4.9721L41.1036 18.4721C40.9824 18.64 40.9098 18.838 40.8939 19.0444C40.8781 19.2509 40.9195 19.4577 41.0136 19.6421Z" fill="url(#paint3_linear_1707_11257)"/>
<path d="M10.125 42.75C10.125 43.0484 10.2435 43.3345 10.4545 43.5455C10.6655 43.7565 10.9516 43.875 11.25 43.875H60.75C61.0484 43.875 61.3345 43.7565 61.5455 43.5455C61.7565 43.3345 61.875 43.0484 61.875 42.75C61.875 42.4516 61.7565 42.1655 61.5455 41.9545C61.3345 41.7435 61.0484 41.625 60.75 41.625H11.25C10.9516 41.625 10.6655 41.7435 10.4545 41.9545C10.2435 42.1655 10.125 42.4516 10.125 42.75Z" fill="url(#paint4_linear_1707_11257)"/>
<defs>
<linearGradient id="paint0_linear_1707_11257" x1="7.56694" y1="9" x2="56.3746" y2="73.5085" gradientUnits="userSpaceOnUse">
<stop stop-color="#C7FF51"/>
<stop offset="1" stop-color="#BA77FD"/>
</linearGradient>
<linearGradient id="paint1_linear_1707_11257" x1="12.9227" y1="25.875" x2="24.624" y2="37.8423" gradientUnits="userSpaceOnUse">
<stop stop-color="#C7FF51"/>
<stop offset="1" stop-color="#BA77FD"/>
</linearGradient>
<linearGradient id="paint2_linear_1707_11257" x1="29.7977" y1="20.25" x2="45.5359" y2="31.6119" gradientUnits="userSpaceOnUse">
<stop stop-color="#C7FF51"/>
<stop offset="1" stop-color="#BA77FD"/>
</linearGradient>
<linearGradient id="paint3_linear_1707_11257" x1="41.9484" y1="4.50684" x2="71.1232" y2="26.8203" gradientUnits="userSpaceOnUse">
<stop stop-color="#C7FF51"/>
<stop offset="1" stop-color="#BA77FD"/>
</linearGradient>
<linearGradient id="paint4_linear_1707_11257" x1="12.6443" y1="41.625" x2="12.7823" y2="45.5215" gradientUnits="userSpaceOnUse">
<stop stop-color="#C7FF51"/>
<stop offset="1" stop-color="#BA77FD"/>
</linearGradient>
</defs>
</svg>
