<svg width="72" height="72" viewBox="0 0 72 72" fill="none" xmlns="http://www.w3.org/2000/svg">
<path d="M5.625 63C5.32663 63 5.04048 62.8815 4.82951 62.6705C4.61853 62.4595 4.5 62.1734 4.5 61.875V15.75C4.5 14.8549 4.85558 13.9964 5.48851 13.3635C6.12145 12.7306 6.97989 12.375 7.875 12.375C8.17337 12.375 8.45952 12.4935 8.6705 12.7045C8.88147 12.9155 9 13.2016 9 13.5C9 13.7984 8.88147 14.0845 8.6705 14.2955C8.45952 14.5065 8.17337 14.625 7.875 14.625C7.57663 14.625 7.29048 14.7435 7.0795 14.9545C6.86853 15.1655 6.75 15.4516 6.75 15.75V61.875C6.75 62.1734 6.63147 62.4595 6.42049 62.6705C6.20952 62.8815 5.92337 63 5.625 63Z" fill="url(#paint0_linear_1707_11266)"/>
<path d="M64.125 12.375H34.875C34.5766 12.375 34.2905 12.4935 34.0795 12.7045C33.8685 12.9155 33.75 13.2016 33.75 13.5C33.75 13.7984 33.8685 14.0845 34.0795 14.2955C34.2905 14.5065 34.5766 14.625 34.875 14.625H64.125C64.4234 14.625 64.7095 14.7435 64.9205 14.9545C65.1315 15.1655 65.25 15.4516 65.25 15.75V54H34.875C34.5766 54 34.2905 54.1185 34.0795 54.3295C33.8685 54.5405 33.75 54.8266 33.75 55.125C33.75 55.4234 33.8685 55.7095 34.0795 55.9205C34.2905 56.1315 34.5766 56.25 34.875 56.25H65.25V59.625C65.25 59.9234 65.1315 60.2095 64.9205 60.4205C64.7095 60.6315 64.4234 60.75 64.125 60.75H34.875C34.5766 60.75 34.2905 60.8685 34.0795 61.0795C33.8685 61.2905 33.75 61.5766 33.75 61.875C33.75 62.1734 33.8685 62.4595 34.0795 62.6705C34.2905 62.8815 34.5766 63 34.875 63H64.125C65.0201 63 65.8785 62.6444 66.5115 62.0115C67.1444 61.3785 67.5 60.5201 67.5 59.625V15.75C67.5 14.8549 67.1444 13.9964 66.5115 13.3635C65.8785 12.7306 65.0201 12.375 64.125 12.375Z" fill="url(#paint1_linear_1707_11266)"/>
<path d="M61.8735 19.125C61.8812 18.9783 61.8543 18.8318 61.7947 18.6975C61.7096 18.4903 61.5646 18.3132 61.3782 18.1889C61.1918 18.0647 60.9725 17.9989 60.7485 18H55.1235C54.8251 18 54.539 18.1185 54.328 18.3295C54.117 18.5405 53.9985 18.8266 53.9985 19.125C53.9985 19.4234 54.117 19.7095 54.328 19.9205C54.539 20.1315 54.8251 20.25 55.1235 20.25H58.0372L47.1697 31.1175L42.321 27.2475C42.0956 27.0686 41.8102 26.9829 41.5235 27.008C41.2368 27.0331 40.9706 27.1671 40.7797 27.3825L31.7797 37.5075C31.5831 37.7314 31.4833 38.0242 31.5023 38.3216C31.5213 38.619 31.6575 38.8967 31.881 39.0938C32.1049 39.2904 32.3977 39.3902 32.6951 39.3712C32.9925 39.3522 33.2702 39.216 33.4672 38.9925L41.7585 29.6663L46.551 33.5025C46.7665 33.6754 47.0382 33.763 47.3141 33.7485C47.5901 33.7339 47.851 33.6184 48.0472 33.4238L59.6235 21.8363V24.75C59.6235 25.0484 59.742 25.3345 59.953 25.5455C60.164 25.7565 60.4501 25.875 60.7485 25.875C61.0469 25.875 61.333 25.7565 61.544 25.5455C61.755 25.3345 61.8735 25.0484 61.8735 24.75V19.125Z" fill="url(#paint2_linear_1707_11266)"/>
<path d="M20.25 40.5C18.915 40.5 17.6099 40.1041 16.4999 39.3624C15.3899 38.6207 14.5247 37.5665 14.0138 36.3331C13.5029 35.0997 13.3693 33.7425 13.6297 32.4331C13.8902 31.1238 14.533 29.921 15.477 28.977C16.421 28.033 17.6238 27.3902 18.9331 27.1297C20.2425 26.8693 21.5997 27.0029 22.8331 27.5138C24.0665 28.0247 25.1207 28.8899 25.8624 29.9999C26.6041 31.1099 27 32.415 27 33.75C27 35.5402 26.2888 37.2571 25.023 38.523C23.7571 39.7888 22.0402 40.5 20.25 40.5ZM20.25 29.25C19.36 29.25 18.49 29.5139 17.7499 30.0084C17.0099 30.5029 16.4331 31.2057 16.0925 32.0279C15.752 32.8502 15.6628 33.755 15.8365 34.6279C16.0101 35.5008 16.4387 36.3026 17.068 36.932C17.6974 37.5613 18.4992 37.9899 19.3721 38.1635C20.245 38.3372 21.1498 38.2481 21.9721 37.9075C22.7943 37.5669 23.4971 36.9901 23.9916 36.2501C24.4861 35.51 24.75 34.64 24.75 33.75C24.75 32.5565 24.2759 31.4119 23.432 30.568C22.5881 29.7241 21.4435 29.25 20.25 29.25Z" fill="url(#paint3_linear_1707_11266)"/>
<path d="M28.125 63H12.375C11.4799 63 10.6214 62.6444 9.98851 62.0115C9.35558 61.3785 9 60.5201 9 59.625V46.125C9 45.2299 9.35558 44.3715 9.98851 43.7385C10.6214 43.1056 11.4799 42.75 12.375 42.75H28.125C29.0201 42.75 29.8786 43.1056 30.5115 43.7385C31.1444 44.3715 31.5 45.2299 31.5 46.125V59.625C31.5 60.5201 31.1444 61.3785 30.5115 62.0115C29.8786 62.6444 29.0201 63 28.125 63ZM12.375 45C12.0766 45 11.7905 45.1185 11.5795 45.3295C11.3685 45.5405 11.25 45.8266 11.25 46.125V59.625C11.25 59.9234 11.3685 60.2095 11.5795 60.4205C11.7905 60.6315 12.0766 60.75 12.375 60.75H28.125C28.4234 60.75 28.7095 60.6315 28.9205 60.4205C29.1315 60.2095 29.25 59.9234 29.25 59.625V46.125C29.25 45.8266 29.1315 45.5405 28.9205 45.3295C28.7095 45.1185 28.4234 45 28.125 45H12.375Z" fill="url(#paint4_linear_1707_11266)"/>
<path d="M28.125 18H14.625C13.7299 18 12.8714 17.6444 12.2385 17.0115C11.6056 16.3786 11.25 15.5201 11.25 14.625V12.375C11.25 11.4799 11.6056 10.6214 12.2385 9.98851C12.8714 9.35558 13.7299 9 14.625 9H28.125C29.0201 9 29.8786 9.35558 30.5115 9.98851C31.1444 10.6214 31.5 11.4799 31.5 12.375V14.625C31.5 15.5201 31.1444 16.3786 30.5115 17.0115C29.8786 17.6444 29.0201 18 28.125 18ZM14.625 11.25C14.3266 11.25 14.0405 11.3685 13.8295 11.5795C13.6185 11.7905 13.5 12.0766 13.5 12.375V14.625C13.5 14.9234 13.6185 15.2095 13.8295 15.4205C14.0405 15.6315 14.3266 15.75 14.625 15.75H28.125C28.4234 15.75 28.7095 15.6315 28.9205 15.4205C29.1315 15.2095 29.25 14.9234 29.25 14.625V12.375C29.25 12.0766 29.1315 11.7905 28.9205 11.5795C28.7095 11.3685 28.4234 11.25 28.125 11.25H14.625Z" fill="url(#paint5_linear_1707_11266)"/>
<defs>
<linearGradient id="paint0_linear_1707_11266" x1="4.71907" y1="12.375" x2="14.1827" y2="13.4074" gradientUnits="userSpaceOnUse">
<stop stop-color="#C7FF51"/>
<stop offset="1" stop-color="#BA77FD"/>
</linearGradient>
<linearGradient id="paint1_linear_1707_11266" x1="35.393" y1="12.375" x2="78.4149" y2="47.5749" gradientUnits="userSpaceOnUse">
<stop stop-color="#C7FF51"/>
<stop offset="1" stop-color="#BA77FD"/>
</linearGradient>
<linearGradient id="paint2_linear_1707_11266" x1="32.9787" y1="18" x2="48.9705" y2="45.892" gradientUnits="userSpaceOnUse">
<stop stop-color="#C7FF51"/>
<stop offset="1" stop-color="#BA77FD"/>
</linearGradient>
<linearGradient id="paint3_linear_1707_11266" x1="14.1572" y1="27" x2="25.6202" y2="41.0683" gradientUnits="userSpaceOnUse">
<stop stop-color="#C7FF51"/>
<stop offset="1" stop-color="#BA77FD"/>
</linearGradient>
<linearGradient id="paint4_linear_1707_11266" x1="10.0953" y1="42.75" x2="26.8398" y2="65.5835" gradientUnits="userSpaceOnUse">
<stop stop-color="#C7FF51"/>
<stop offset="1" stop-color="#BA77FD"/>
</linearGradient>
<linearGradient id="paint5_linear_1707_11266" x1="12.2358" y1="9" x2="17.232" y2="22.7964" gradientUnits="userSpaceOnUse">
<stop stop-color="#C7FF51"/>
<stop offset="1" stop-color="#BA77FD"/>
</linearGradient>
</defs>
</svg>
