<svg width="24" height="24" viewBox="0 0 24 24" fill="none" xmlns="http://www.w3.org/2000/svg">
<path d="M3.1354 7.74916L9.92308 13.1388H14.0769L20.8646 7.74916M3.1354 7.74916C3.22337 7.6311 3.34723 7.54411 3.48877 7.50096L11.3894 5.09131C11.7873 4.97002 12.2127 4.96933 12.6106 5.09062L20.5112 7.50096C20.6528 7.54411 20.7766 7.6311 20.8646 7.74916M3.1354 7.74916C3.04743 7.86722 2.99997 8.01013 3 8.15689V18.6278C3 18.9917 3.14588 19.3407 3.40554 19.5981C3.66521 19.8554 4.01739 20 4.38462 20H19.6154C19.9826 20 20.3348 19.8554 20.5945 19.5981C20.8541 19.3407 21 18.9917 21 18.6278V8.15689C21 8.01013 20.9526 7.86722 20.8646 7.74916" stroke="url(#paint0_linear_1902_3531)" stroke-width="0.8" stroke-linecap="round" stroke-linejoin="round"/>
<defs>
<linearGradient id="paint0_linear_1902_3531" x1="3.87627" y1="5" x2="15.9639" y2="22.8019" gradientUnits="userSpaceOnUse">
<stop stop-color="#C7FF51"/>
<stop offset="1" stop-color="#BA77FD"/>
</linearGradient>
</defs>
</svg>
