<svg width="40" height="40" viewBox="0 0 40 40" fill="none" xmlns="http://www.w3.org/2000/svg">
<g clip-path="url(#clip0_2304_17667)">
<path d="M18.2812 0H21.7969L23.9844 0.3125L25.8594 0.78125L26.4844 1.01562V0.859375L27.2656 0.390625L27.5781 0.3125H38.3594L39.0625 0.625L39.6094 1.09375L40 1.875V7.65625L39.6094 8.4375L38.9062 9.0625L38.0469 9.29688L37.0312 9.375L37.8125 10.7031L38.5156 12.1875L39.2188 14.1406L39.6875 16.0156L39.9219 17.5L40 18.2031V21.7969L39.6875 23.9844L39.2188 25.8594L38.6719 27.4219L37.9688 28.9844L37.1875 30.3906L38.3594 30.4688L39.0625 30.7812L39.6094 31.25L40 32.0312V37.8125L39.6094 38.5938L38.9844 39.1406L38.4375 39.375H27.4219L26.5625 38.9844L24.6875 39.5312L23.0469 39.8438L21.7969 40H18.2031L16.4062 39.7656L14.375 39.2969L12.3438 38.5938L10.2344 37.5781L8.75 36.6406L7.5 35.7031L6.48438 34.8438L4.84375 33.2031L3.98438 32.1094L3.20312 31.0156L2.57812 30L1.64062 28.2031L1.01562 26.5625L0.546875 25L0.15625 23.125L0 21.7969V18.2031L0.3125 16.0156L0.78125 14.1406L1.32812 12.5781L2.03125 11.0156L2.34375 10.5469L2.65625 10.3906H3.20312L3.67188 10.7812L3.75 11.4062L2.89062 13.3594L2.5 14.5312L3.51562 17.2656L4.0625 17.8125L4.6875 18.3594L5.39062 18.9844L5.54688 19.2969L5.70312 22.2656V24.5312L3.98438 28.8281L4.14062 29.2188L4.76562 30.2344L5.39062 31.0938L6.01562 31.875L6.875 32.8125L7.8125 33.75L8.90625 34.6094L10 35.3906L11.1719 36.0938L12.1094 36.5625L11.7969 35.2344L10.9375 32.1875L11.0156 31.5625L12.3438 28.2031H10.3906L8.28125 28.9062H7.57812L7.1875 28.5938L7.10938 28.4375V27.8125L8.04688 25.7031L8.125 20.9375L8.4375 20.1562L8.90625 19.6094L9.6875 19.2188L12.0312 19.1406L12.4219 17.4219V17.0312L10.3906 15L10.3125 14.8438V14.2188L13.0469 8.75L12.9688 8.4375L12.2656 7.57812L11.4062 6.5625L10.7031 5.70312L9.92188 4.76562L9.53125 4.92188L8.51562 5.70312L7.5 6.48438H6.95312L6.5625 6.25L6.40625 6.01562V5.3125L6.79688 4.84375L7.89062 3.98438L8.98438 3.20312L10.1562 2.5L11.4844 1.79688L13.4375 1.01562L15.3125 0.46875L16.9531 0.15625L18.2812 0ZM18.3594 1.64062L16.25 1.95312L14.4531 2.42188L12.5781 3.125L11.3281 3.75L11.7969 4.375L12.6562 5.39062L13.3594 6.25L14.2188 7.26562L14.8438 8.04688L14.9219 8.67188L14.0625 10.4688L12.1875 14.2188L12.2656 14.5312L14.0625 16.3281L14.1406 16.4844V17.2656L13.75 19.2188L20.7031 19.2969L21.4844 19.6875L21.9531 20.2344L22.1875 20.7812L22.2656 21.1719L22.5781 21.0156L22.8125 20.8594H26.4062L29.6875 20.9375L30.7031 21.0156L31.0938 21.3281L32.1094 22.6562L33.125 23.9062L33.9062 24.9219L34.8438 26.0938L35.0781 26.5625L35.7031 29.2188L35.8594 29.375L36.875 27.4219L37.5781 25.5469L38.0469 23.75L38.3594 21.6406V18.3594L37.6562 17.8906L35.1562 16.5625L33.5938 15.7031H32.1094L26.7969 16.0156L26.0156 16.0938L24.9219 17.0312L23.8281 17.8906L23.4375 18.2031L23.2812 18.2812H22.6562L20.7031 17.1094L19.6094 16.4062L19.4531 16.1719L19.375 15.1562V12.5L19.6875 12.1094L21.875 11.3281L21.6406 8.59375V8.04688L21.875 7.65625L23.2031 6.71875L24.6094 5.70312L25.8594 4.76562V2.57812L25.3125 2.34375L23.3594 1.875L21.6406 1.64062H18.3594ZM27.8125 1.95312L27.5 2.26562L27.4219 7.1875L27.1875 7.8125L27.6562 7.73438L37.8906 7.65625L38.2812 7.42188L38.3594 7.34375V2.26562L38.0469 1.95312H27.8125ZM25.7031 6.875L24.4531 7.8125L23.3594 8.59375L23.2812 8.67188V9.375L23.4375 11.0938V12.1875L23.0469 12.5781L20.9375 13.3594V15L21.0938 15.4688L22.8906 16.5625L23.5156 16.0938L24.6094 15.1562L25.3125 14.6094L25.5469 14.5312L33.3594 14.0625L34.0625 14.1406L36.5625 15.4688L37.8125 16.1719H37.9688L37.8906 15.5469L37.2656 13.5156L36.6406 12.1094L35.7812 10.4688L35 9.29688H28.0469L25.8594 10H25.3906L25.0781 9.84375L24.9219 9.60938V8.90625L25.7812 7.03125L25.7031 6.875ZM1.71875 17.6562L1.64062 18.3594V21.6406L1.95312 23.75L2.42188 25.5469L2.89062 26.875L3.04688 26.7188L4.0625 24.1406V22.4219L3.98438 20.625L3.90625 19.9219L3.20312 19.2188L2.57812 18.6719L2.34375 18.4375H2.1875L2.03125 18.0469L1.875 17.6562H1.71875ZM10.3125 20.7812L9.84375 21.0156L9.76562 21.1719L9.6875 26.0938L9.45312 26.7188L10.1562 26.5625L20.3125 26.4844L20.625 26.25L20.7031 25.9375V21.3281L20.4688 20.9375L20.0781 20.7812H10.3125ZM23.4375 22.4219L22.5781 23.125L22.3438 23.3594L22.2656 26.0938L22.1094 26.7969L21.6406 27.5L21.0938 27.8906L20.625 28.0469L20.0781 28.125V29.4531L22.8906 30.7812L23.5156 31.0938L23.8281 31.5625L25.3906 35.3906L25.7812 36.3281H25.8594V32.8906L24.9219 30.7812V30.1562L25.2344 29.7656H26.0156L28.125 30.4688H34.2969L34.2188 29.7656L33.5938 27.1094L32.5781 25.8594L31.5625 24.5312L30.5469 23.2812L30 22.5781L29.6094 22.5L26.4062 22.4219H23.4375ZM14.2188 28.125L13.9062 28.75L12.9688 31.1719L12.6562 31.9531L12.8125 32.7344L14.0625 37.1875L14.2188 37.5L15.8594 37.9688L17.6562 38.2812L18.3594 38.3594H21.6406L23.75 38.0469L24.6094 37.8125L24.375 37.1094L22.8125 33.2812L22.4219 32.3438L21.1719 31.7188L18.6719 30.5469L18.4375 30.1562V28.125H14.2188ZM27.1875 31.875L27.4219 32.5L27.5 37.4219L27.8125 37.7344H38.125L38.3594 37.5V32.4219L38.0469 32.1094L27.8906 32.0312L27.1875 31.875Z" fill="#C7FF51" stroke="#2F2A33" stroke-width="0.3"/>
<path d="M18.0469 22.8125H18.75L19.1406 23.125L19.2188 23.2812V23.9062L18.8281 24.375L18.2031 24.4531L17.8125 24.2188L17.5781 23.8281V23.3594L17.8125 22.9688L18.0469 22.8125Z" fill="#C7FF51"/>
<path d="M14.9219 22.8125H15.625L16.0156 23.125L16.0938 23.3594V23.9062L15.7031 24.375L15.0781 24.4531L14.6875 24.2188L14.4531 23.8281V23.3594L14.7656 22.8906L14.9219 22.8125Z" fill="#C7FF51"/>
<path d="M11.7969 22.8125H12.5L12.8906 23.2031L12.9688 23.3594V23.9062L12.5781 24.375L11.9531 24.4531L11.5625 24.2188L11.3281 23.9062V23.3594L11.6406 22.8906L11.7969 22.8125Z" fill="#C7FF51"/>
<path d="M29.5312 3.90625H30.0781L30.5469 4.29688L30.625 4.92188L30.3906 5.3125L30.0781 5.54688H29.5312L29.0625 5.23438L28.9844 5.07812V4.375L29.375 3.98438L29.5312 3.90625Z" fill="#C7FF51"/>
<path d="M35.9375 34.2969L36.4062 34.375L36.7969 34.6875L36.875 35.3906L36.5625 35.8594L36.4062 35.9375H35.7031L35.3125 35.625L35.2344 35.4688V34.8438L35.625 34.375L35.9375 34.2969Z" fill="#C7FF51"/>
<path d="M4.60938 7.42188L5.15625 7.5L5.54688 7.8125L5.625 8.51562L5.39062 8.90625L5.15625 9.0625H4.45312L4.0625 8.75L3.98438 8.59375V7.96875L4.375 7.5L4.60938 7.42188Z" fill="#C7FF51"/>
<path d="M35.7812 3.90625H36.3281L36.7969 4.29688L36.875 4.45312V5L36.4844 5.46875L36.3281 5.54688H35.7812L35.3906 5.3125L35.2344 5V4.45312L35.4688 4.0625L35.7812 3.90625Z" fill="#C7FF51"/>
<path d="M32.8125 34.2969L33.2812 34.375L33.6719 34.7656L33.75 34.9219V35.3906L33.4375 35.8594L33.2812 35.9375H32.5781L32.1875 35.625L32.1094 35.4688V34.8438L32.5 34.375L32.8125 34.2969Z" fill="#C7FF51"/>
<path d="M29.6875 34.2969L30.1562 34.375L30.5469 34.7656L30.625 34.9219V35.3906L30.3125 35.8594L30.1562 35.9375H29.4531L29.0625 35.625L28.9844 35.4688V34.8438L29.375 34.375L29.6875 34.2969Z" fill="#C7FF51"/>
<path d="M32.6562 3.90625H33.2031L33.6719 4.29688L33.75 4.92188L33.5156 5.3125L33.2031 5.54688H32.6562L32.2656 5.3125L32.1094 5V4.45312L32.3438 4.0625L32.6562 3.90625Z" fill="#C7FF51"/>
</g>
<defs>
<clipPath id="clip0_2304_17667">
<rect width="40" height="40" fill="white"/>
</clipPath>
</defs>
</svg>
