<svg width="24" height="24" viewBox="0 0 24 24" fill="none" xmlns="http://www.w3.org/2000/svg">
<g clip-path="url(#clip0_2003_3821)">
<path d="M8.28832 10.0919C8.90851 9.46988 8.90851 8.46327 8.28832 7.8412L4.91719 4.46605C4.29321 3.84595 3.28565 3.84595 2.66167 4.46605L0.353316 6.77923C0.132071 6.99968 0.0055118 7.2977 0.000543172 7.61002C-0.0158627 8.99997 0.308927 13.9199 5.19441 18.8057C9.97428 23.5852 14.785 23.9996 16.2973 23.9996H16.3933C16.7041 23.9942 17.0006 23.8681 17.2201 23.648L19.5336 21.3389C20.1532 20.715 20.1532 19.708 19.5336 19.0841L16.1601 15.7118C15.5381 15.0914 14.5314 15.0914 13.9094 15.7118L12.1118 17.5081C11.9763 17.6461 11.7602 17.6643 11.6034 17.5509C10.6197 16.8298 9.69969 16.0255 8.85348 15.147C7.97459 14.3003 7.16991 13.3797 6.44833 12.3955C6.33696 12.2385 6.35594 12.024 6.49314 11.8891L8.28832 10.0919ZM3.79166 4.80007C4.0017 4.79937 4.20326 4.88262 4.35166 5.03125L7.72278 8.40636C8.03135 8.71592 8.03135 9.21676 7.72278 9.52632L7.16278 10.0863L2.66846 5.59243L3.22847 5.03243C3.37818 4.88374 3.58058 4.80021 3.79166 4.80007ZM15.5934 16.2798L18.9685 19.6501C19.2768 19.9618 19.2768 20.4636 18.9685 20.7753L18.4085 21.3353L13.9134 16.8398L14.4734 16.2798C14.7826 15.9705 15.2841 15.9705 15.5934 16.2798ZM5.79359 12.8595C6.54151 13.8807 7.37564 14.8359 8.28672 15.7146C9.16491 16.6255 10.1197 17.4592 11.1406 18.2066C11.6154 18.5454 12.2658 18.4902 12.6766 18.0762L13.3478 17.405L17.8401 21.8969L16.6529 23.082C16.5801 23.1549 16.4819 23.1969 16.3789 23.1992H16.2902C14.8674 23.1992 10.3231 22.804 5.75839 18.2393C1.0957 13.5755 0.784884 8.93196 0.800493 7.62319C0.801477 7.51796 0.843851 7.41737 0.918475 7.34321L2.10326 6.16002L6.59673 10.6523L5.92597 11.3231C5.51221 11.7332 5.45615 12.3825 5.79355 12.8575L5.79359 12.8595Z" fill="white"/>
<path d="M22.4 0.000244141H11.2003C10.3167 0.000244141 9.60034 0.716571 9.60034 1.60019V9.60002C9.60034 10.4836 10.3167 11.2 11.2003 11.2H22.4C23.2836 11.2 24 10.4836 24 9.60002V1.60019C24 0.716571 23.2837 0.000244141 22.4 0.000244141ZM23.2 1.60019V9.60002C23.1996 9.66039 23.1922 9.72053 23.178 9.77922L19.1893 5.60013L23.178 1.42141C23.1923 1.47996 23.1996 1.53996 23.2 1.60019ZM22.4 0.800194C22.4778 0.801413 22.5551 0.814069 22.6292 0.837787L17.6749 6.02729C17.1904 6.5069 16.4099 6.5069 15.9254 6.02729L10.9711 0.837834C11.0452 0.814116 11.1224 0.80146 11.2003 0.800241L22.4 0.800194ZM10.4223 9.77922C10.4081 9.72053 10.4007 9.66039 10.4003 9.60002V1.60019C10.4007 1.53996 10.4081 1.47996 10.4223 1.42141L14.411 5.60013L10.4223 9.77922ZM11.2003 10.4C11.1225 10.3988 11.0452 10.3861 10.9711 10.3624L14.9642 6.17968L15.3469 6.57965C15.727 6.97517 16.2518 7.19872 16.8003 7.19872C17.3488 7.19872 17.8736 6.97517 18.2537 6.57965L18.6361 6.17968L22.6292 10.3624C22.555 10.3861 22.4778 10.3988 22.4 10.4H11.2003Z" fill="white"/>
</g>
<defs>
<clipPath id="clip0_2003_3821">
<rect width="24" height="24" fill="white"/>
</clipPath>
</defs>
</svg>
