<svg width="1611" height="422" viewBox="0 0 1611 422" fill="none" xmlns="http://www.w3.org/2000/svg">
<mask id="path-1-inside-1_3114_26551" fill="white">
<path fill-rule="evenodd" clip-rule="evenodd" d="M51.2622 0H1562.11L1602.16 36.2786L0 341.716V46.6137L51.2622 0ZM0 361.643V382.884L42.7476 422H1574.66L1611 390.71V54.5212L0 361.643Z"/>
</mask>
<path d="M1562.11 0L1562.78 -0.741187L1562.49 -1H1562.11V0ZM51.2622 0V-1H50.8755L50.5894 -0.739856L51.2622 0ZM1602.16 36.2786L1602.35 37.2609L1604.32 36.885L1602.84 35.5374L1602.16 36.2786ZM0 341.716H-1V342.924L0.187268 342.698L0 341.716ZM0 46.6137L-0.672766 45.8739L-1 46.1714V46.6137H0ZM0 361.643L-0.187268 360.66L-1 360.815V361.643H0ZM0 382.884H-1V383.324L-0.675074 383.622L0 382.884ZM42.7476 422L42.0725 422.738L42.3591 423H42.7476V422ZM1574.66 422V423H1575.03L1575.31 422.758L1574.66 422ZM1611 390.71L1611.65 391.468L1612 391.169V390.71H1611ZM1611 54.5212H1612V53.3126L1610.81 53.5389L1611 54.5212ZM1562.11 -1H51.2622V1H1562.11V-1ZM1602.84 35.5374L1562.78 -0.741187L1561.44 0.741187L1601.49 37.0198L1602.84 35.5374ZM0.187268 342.698L1602.35 37.2609L1601.98 35.2963L-0.187268 340.733L0.187268 342.698ZM-1 46.6137V341.716H1V46.6137H-1ZM50.5894 -0.739856L-0.672766 45.8739L0.672766 47.3536L51.935 0.739856L50.5894 -0.739856ZM-1 361.643V382.884H1V361.643H-1ZM-0.675074 383.622L42.0725 422.738L43.4226 421.262L0.675074 382.146L-0.675074 383.622ZM42.7476 423H1574.66V421H42.7476V423ZM1575.31 422.758L1611.65 391.468L1610.35 389.952L1574 421.242L1575.31 422.758ZM1612 390.71V54.5212H1610V390.71H1612ZM1610.81 53.5389L-0.187268 360.66L0.187268 362.625L1611.19 55.5035L1610.81 53.5389Z" fill="url(#paint0_linear_3114_26551)" mask="url(#path-1-inside-1_3114_26551)"/>
<defs>
<linearGradient id="paint0_linear_3114_26551" x1="78.4259" y1="2.47142e-06" x2="227.801" y2="699.85" gradientUnits="userSpaceOnUse">
<stop stop-color="#C7FF51"/>
<stop offset="1" stop-color="#BA77FD"/>
</linearGradient>
</defs>
</svg>
