<svg width="759" height="557" viewBox="0 0 759 557" fill="none" xmlns="http://www.w3.org/2000/svg">
<mask id="path-1-inside-1_3107_10244" fill="white">
<path fill-rule="evenodd" clip-rule="evenodd" d="M59.6821 557L26.0687 527.75L758.57 118.611L758.57 512.193L696.055 557L59.6821 557ZM758.57 89.3738L5.60468 509.942L0.000736863 505.066L0.000774768 61.76L0.413067 61.9786L83.0166 -6.03823e-05L695.485 -5.63866e-06L758.57 56.9302L758.57 89.3738Z"/>
</mask>
<path d="M26.0687 527.75L25.581 526.877L24.3392 527.571L25.4122 528.504L26.0687 527.75ZM59.6821 557L59.0257 557.754L59.308 558L59.6821 558L59.6821 557ZM758.57 118.611L759.57 118.611L759.57 116.908L758.083 117.738L758.57 118.611ZM758.57 512.193L759.153 513.006L759.57 512.707L759.57 512.193L758.57 512.193ZM696.055 557L696.055 558L696.377 558L696.638 557.813L696.055 557ZM5.60468 509.942L4.94823 510.697L5.47856 511.158L6.09232 510.815L5.60468 509.942ZM758.57 89.3738L759.058 90.2469L759.57 89.9607L759.57 89.3738L758.57 89.3738ZM0.000736863 505.066L-0.999263 505.066L-0.999263 505.521L-0.65571 505.82L0.000736863 505.066ZM0.000774768 61.76L0.469155 60.8765L-0.999225 60.0981L-0.999225 61.76L0.000774768 61.76ZM0.413067 61.9786L-0.0553133 62.8621L0.505505 63.1594L1.01323 62.7785L0.413067 61.9786ZM83.0166 -6.03823e-05L83.0166 -1.00006L82.6831 -1.00006L82.4164 -0.799939L83.0166 -6.03823e-05ZM695.485 -5.63866e-06L696.155 -0.742399L695.87 -1.00001L695.485 -1.00001L695.485 -5.63866e-06ZM758.57 56.9302L759.57 56.9302L759.57 56.4857L759.24 56.1878L758.57 56.9302ZM25.4122 528.504L59.0257 557.754L60.3386 556.246L26.7251 526.996L25.4122 528.504ZM758.083 117.738L25.581 526.877L26.5563 528.623L759.058 119.485L758.083 117.738ZM759.57 512.193L759.57 118.611L757.57 118.611L757.57 512.193L759.57 512.193ZM696.638 557.813L759.153 513.006L757.988 511.38L695.473 556.187L696.638 557.813ZM59.6821 558L696.055 558L696.055 556L59.6821 556L59.6821 558ZM6.09232 510.815L759.058 90.2469L758.083 88.5008L5.11704 509.069L6.09232 510.815ZM-0.65571 505.82L4.94823 510.697L6.26113 509.188L0.657184 504.312L-0.65571 505.82ZM-0.999225 61.76L-0.999263 505.066L1.00074 505.066L1.00077 61.76L-0.999225 61.76ZM0.881448 61.0951L0.469155 60.8765L-0.467606 62.6436L-0.0553133 62.8621L0.881448 61.0951ZM82.4164 -0.799939L-0.187094 61.1787L1.01323 62.7785L83.6167 0.799819L82.4164 -0.799939ZM695.485 -1.00001L83.0166 -1.00006L83.0166 0.99994L695.485 0.999994L695.485 -1.00001ZM759.24 56.1878L696.155 -0.742399L694.815 0.742388L757.9 57.6726L759.24 56.1878ZM759.57 89.3738L759.57 56.9302L757.57 56.9302L757.57 89.3738L759.57 89.3738Z" fill="url(#paint0_linear_3107_10244)" mask="url(#path-1-inside-1_3107_10244)"/>
<defs>
<linearGradient id="paint0_linear_3107_10244" x1="721.642" y1="557" x2="296.117" y2="-154.228" gradientUnits="userSpaceOnUse">
<stop stop-color="#C7FF51"/>
<stop offset="1" stop-color="#BA77FD"/>
</linearGradient>
</defs>
</svg>
