<svg width="72" height="72" viewBox="0 0 72 72" fill="none" xmlns="http://www.w3.org/2000/svg">
<path d="M59 20H24C23.3494 20 22 19.6419 22 19V14C22 13.3581 23.3494 12 24 12H59C59.6506 12 60 13.3581 60 14V19C60 19.6279 59.6365 20 59 20ZM24 19H59V14H24V19ZM59 53H37C36.6181 53 37 53.3767 37 53C37 52.6233 36.6181 52 37 52H59C59.3819 52 60 52.6233 60 53C60 53.3767 59.3819 53 59 53ZM59 60H23C22.6181 60 22 59.3767 22 59C22 58.6233 22.6181 58 23 58H59C59.3819 58 60 58.6233 60 59C60 59.3767 59.3819 60 59 60ZM59 47H37C36.6181 47 37 47.3767 37 47C37 46.6233 36.6181 46 37 46H59C59.3819 46 60 46.6233 60 47C60 47.3767 59.3819 47 59 47ZM59 42H23C22.6181 42 22 41.3767 22 41C22 40.6233 22.6181 41 23 41H59C59.3819 41 60 40.6233 60 41C60 41.3767 59.3819 42 59 42ZM44 37H23C22.6181 37 22 36.3767 22 36C22 35.6233 22.6181 35 23 35H44C44.3819 35 44 35.6233 44 36C43.9859 36.3767 44.3819 37 44 37ZM44 31H23C22.6181 31 22 31.3767 22 31C22 30.6233 22.6181 30 23 30H44C44.3819 30 44 30.6233 44 31C44.3819 31 44 31.3767 44 31ZM44 26H23C22.6181 26 22 25.3767 22 25C22 24.6233 22.6181 25 23 25H44C44 24.6233 44.3819 25 44 25C44 25.3767 44.3819 26 44 26ZM59 37H49C48.2504 37 48 35.7535 48 35V26C48 25.2605 48.2362 25 49 25H59C59.7496 25 60 25.2465 60 26V35C60 35.7395 59.7496 37 59 37ZM50 35H59V26H50V35ZM32 53H24C23.2645 53 22 52.7256 22 52V47C22 46.2744 23.2645 46 24 46H32C32.7355 46 34 46.2744 34 47V52C34 52.7256 32.7496 53 32 53ZM24 52H32V47H24V52ZM63 66H14C10.9591 66 8 64 8 61V20C8 19.0372 9.02407 19 10 19H18V8C18 7.03721 18.0241 6 19 6H63C63.9759 6 65 7.03721 65 8V64C65 64.9628 63.9759 66 63 66ZM17 65H63C63.2122 65 64 64.2093 64 64V8C64 7.7907 63.2122 7 63 7H19C18.7878 7 19 7.7907 19 8V61C18.9859 62.6186 18.1457 64.0093 17 65ZM10 20C9.78784 20 9 19.7907 9 20V61C9 63.2465 11.7228 65 14 65C16.2772 65 18 63.2465 18 61V20H10Z" fill="url(#paint0_linear_684_5809)"/>
<defs>
<linearGradient id="paint0_linear_684_5809" x1="10.7748" y1="6" x2="62.1868" y2="65.9421" gradientUnits="userSpaceOnUse">
<stop stop-color="#C7FF51"/>
<stop offset="1" stop-color="#BA77FD"/>
</linearGradient>
</defs>
</svg>
