<svg width="759" height="564" viewBox="0 0 759 564" fill="none" xmlns="http://www.w3.org/2000/svg">
<mask id="path-1-inside-1_3103_4494" fill="white">
<path fill-rule="evenodd" clip-rule="evenodd" d="M759 55.9992L759 122.534L51.6577 557.059L-5.64514e-05 511.568L-1.70741e-05 61.1441L83.9485 -5.90149e-05L691.371 -5.91234e-06L759 55.9992ZM706.38 564L72.2361 564L759 142.117L759 528.228L706.38 564Z"/>
</mask>
<path d="M759 122.534L759.523 123.386L760 123.093L760 122.534L759 122.534ZM759 55.9992L760 55.9992L760 55.5289L759.638 55.229L759 55.9992ZM51.6577 557.059L50.9968 557.809L51.5514 558.297L52.1811 557.911L51.6577 557.059ZM-5.64514e-05 511.568L-1.00006 511.568L-1.00006 512.019L-0.660948 512.318L-5.64514e-05 511.568ZM-1.70741e-05 61.1441L-0.588759 60.3357L-1.00002 60.6353L-1.00002 61.1441L-1.70741e-05 61.1441ZM83.9485 -5.90149e-05L83.9485 -1.00006L83.623 -1.00006L83.3598 -0.80838L83.9485 -5.90149e-05ZM691.371 -5.91234e-06L692.009 -0.770231L691.731 -1.00001L691.371 -1.00001L691.371 -5.91234e-06ZM72.2361 564L71.7127 563.148L68.6978 565L72.2361 565L72.2361 564ZM706.38 564L706.38 565L706.687 565L706.942 564.827L706.38 564ZM759 142.117L760 142.117L760 140.329L758.477 141.265L759 142.117ZM759 528.228L759.562 529.055L760 528.757L760 528.228L759 528.228ZM760 122.534L760 55.9992L758 55.9992L758 122.534L760 122.534ZM52.1811 557.911L759.523 123.386L758.477 121.682L51.1342 556.206L52.1811 557.911ZM-0.660948 512.318L50.9968 557.809L52.3185 556.308L0.660835 510.817L-0.660948 512.318ZM-1.00002 61.1441L-1.00006 511.568L0.999944 511.568L0.999983 61.1441L-1.00002 61.1441ZM83.3598 -0.80838L-0.588759 60.3357L0.588725 61.9524L84.5373 0.808262L83.3598 -0.80838ZM691.371 -1.00001L83.9485 -1.00006L83.9485 0.999941L691.371 0.999994L691.371 -1.00001ZM759.638 55.229L692.009 -0.770231L690.733 0.770219L758.362 56.7695L759.638 55.229ZM72.2361 565L706.38 565L706.38 563L72.2361 563L72.2361 565ZM758.477 141.265L71.7127 563.148L72.7596 564.852L759.523 142.969L758.477 141.265ZM760 528.228L760 142.117L758 142.117L758 528.228L760 528.228ZM706.942 564.827L759.562 529.055L758.438 527.401L705.817 563.173L706.942 564.827Z" fill="url(#paint0_linear_3103_4494)" mask="url(#path-1-inside-1_3103_4494)"/>
<path d="M618.743 332.616L618.543 331.584" stroke="#BA77FD" stroke-linecap="round" stroke-linejoin="round"/>
<defs>
<linearGradient id="paint0_linear_3103_4494" x1="722.051" y1="564" x2="288.767" y2="-151.614" gradientUnits="userSpaceOnUse">
<stop stop-color="#C7FF51"/>
<stop offset="1" stop-color="#BA77FD"/>
</linearGradient>
</defs>
</svg>
