<svg
                        width="44"
                        height="32"
                        viewBox="0 0 44 32"
                        fill="none"
                        xmlns="http://www.w3.org/2000/svg"
                      >
                        <path
                          fill-rule="evenodd"
                          clip-rule="evenodd"
                          d="M1.355 6.23L4.23 3.355C4.9736 2.60809 5.95182 2.14017 7 2.03V2H18C18.7956 2 19.5587 2.31607 20.1213 2.87868C20.6839 3.44129 21 4.20435 21 5V9.5C21 9.76522 20.8946 10.0196 20.7071 10.2071C20.5196 10.3946 20.2652 10.5 20 10.5C19.7348 10.5 19.4804 10.3946 19.2929 10.2071C19.1054 10.0196 19 9.76522 19 9.5V5C19 4.73478 18.8946 4.48043 18.7071 4.29289C18.5196 4.10536 18.2652 4 18 4H8V7C8 7.79565 7.68393 8.55871 7.12132 9.12132C6.55871 9.68393 5.79565 10 5 10H2V27C2 27.2652 2.10535 27.5196 2.29289 27.7071C2.48043 27.8946 2.73478 28 3 28H18C18.2652 28 18.5196 27.8946 18.7071 27.7071C18.8946 27.5196 19 27.2652 19 27V25.5H7C6.20435 25.5 5.44129 25.1839 4.87868 24.6213C4.31607 24.0587 4 23.2956 4 22.5V15.5C4 14.7044 4.31607 13.9413 4.87868 13.3787C5.44129 12.8161 6.20435 12.5 7 12.5H41C41.7957 12.5 42.5587 12.8161 43.1213 13.3787C43.6839 13.9413 44 14.7044 44 15.5V22.5C44 23.2956 43.6839 24.0587 43.1213 24.6213C42.5587 25.1839 41.7957 25.5 41 25.5H21V27C21 27.7956 20.6839 28.5587 20.1213 29.1213C19.5587 29.6839 18.7956 30 18 30H3C2.20435 30 1.44129 29.6839 0.878678 29.1213C0.316067 28.5587 1.9241e-07 27.7956 1.9241e-07 27V9.5C-0.000175091 8.89263 0.119412 8.29119 0.351918 7.73009C0.584423 7.16898 0.925286 6.65923 1.355 6.23ZM5 8C5.26522 8 5.51957 7.89464 5.70711 7.70711C5.89464 7.51957 6 7.26522 6 7V4.5C5.87348 4.58619 5.7547 4.68322 5.645 4.79L2.765 7.67C2.66798 7.77273 2.57936 7.88309 2.5 8H5Z"
                          fill="url(#paint0_linear_53_2244)"
                        />
                        <path
                          d="M17.88 16.284C18.432 16.812 18.708 17.472 18.708 18.264C18.708 19.056 18.432 19.72 17.88 20.256C17.328 20.784 16.62 21.048 15.756 21.048H14.448V24H13.044V15.48H15.756C16.62 15.48 17.328 15.748 17.88 16.284ZM16.896 19.32C17.184 19.04 17.328 18.688 17.328 18.264C17.328 17.84 17.184 17.492 16.896 17.22C16.616 16.94 16.232 16.8 15.744 16.8H14.448V19.728H15.744C16.232 19.728 16.616 19.592 16.896 19.32ZM20.6987 24V15.48H23.3147C24.5787 15.48 25.6387 15.888 26.4947 16.704C27.3507 17.52 27.7787 18.532 27.7787 19.74C27.7787 20.948 27.3507 21.96 26.4947 22.776C25.6387 23.592 24.5787 24 23.3147 24H20.6987ZM22.1027 22.692H23.3147C24.2107 22.692 24.9387 22.412 25.4987 21.852C26.0667 21.292 26.3507 20.588 26.3507 19.74C26.3507 18.892 26.0667 18.188 25.4987 17.628C24.9387 17.068 24.2107 16.788 23.3147 16.788H22.1027V22.692ZM29.9237 24V15.48H34.9877V16.824H31.3277V19.02H34.2077V20.352H31.3277V24H29.9237Z"
                          fill="#272727"
                        />
                        <defs>
                          <linearGradient
                            id="paint0_linear_53_2244"
                            x1="2.14199"
                            y1="2"
                            x2="21.9822"
                            y2="40.2635"
                            gradientUnits="userSpaceOnUse"
                          >
                            <stop stop-color="#C7FF51" />
                            <stop offset="1" stop-color="#BA77FD" />
                          </linearGradient>
                        </defs>
                      </svg>