<svg width="625" height="791" viewBox="0 0 625 791" fill="none" xmlns="http://www.w3.org/2000/svg">
<mask id="path-1-inside-1_3116_31387" fill="white">
<path fill-rule="evenodd" clip-rule="evenodd" d="M68.6038 791L557.038 791L625 733.262L625 297.549L6.60909e-05 733.763L6.60901e-05 733.771L68.6038 791ZM625 66.4961L625 270.63L6.84685e-05 706.844L0.000125207 64.4833L80.6424 -4.71012e-05L551.047 -6.39889e-06L625 66.4961ZM6.1103e-05 790.232L0.920837 791L6.10352e-05 791L6.1103e-05 790.232Z"/>
</mask>
<path d="M557.038 791L557.038 792L557.405 792L557.685 791.762L557.038 791ZM68.6038 791L67.9632 791.768L68.2414 792L68.6038 792L68.6038 791ZM625 733.262L625.647 734.024L626 733.724L626 733.262L625 733.262ZM625 297.549L626 297.549L626 295.631L624.428 296.729L625 297.549ZM6.60909e-05 733.763L-0.572263 732.942L-0.999934 733.241L-0.999934 733.763L6.60909e-05 733.763ZM6.60901e-05 733.771L-0.999934 733.771L-0.999934 734.239L-0.640507 734.539L6.60901e-05 733.771ZM625 270.63L625.572 271.45L626 271.152L626 270.63L625 270.63ZM625 66.4961L626 66.4961L626 66.0505L625.669 65.7525L625 66.4961ZM6.84685e-05 706.844L-0.999932 706.844L-0.999932 708.762L0.572398 707.664L6.84685e-05 706.844ZM0.000125207 64.4833L-0.62439 63.7023L-0.999875 64.0025L-0.999875 64.4833L0.000125207 64.4833ZM80.6424 -4.71012e-05L80.6424 -1.00005L80.2918 -1.00005L80.0179 -0.78106L80.6424 -4.71012e-05ZM551.047 -6.39889e-06L551.716 -0.743609L551.43 -1.00001L551.047 -1.00001L551.047 -6.39889e-06ZM0.920837 791L0.920837 792L3.68072 792L1.56141 790.232L0.920837 791ZM6.1103e-05 790.232L0.640632 789.464L-0.999939 788.095L-0.999939 790.232L6.1103e-05 790.232ZM6.10352e-05 791L-0.999939 791L-0.999939 792L6.09468e-05 792L6.10352e-05 791ZM557.038 790L68.6038 790L68.6038 792L557.038 792L557.038 790ZM624.353 732.499L556.39 790.238L557.685 791.762L625.647 734.024L624.353 732.499ZM624 297.549L624 733.262L626 733.262L626 297.549L624 297.549ZM0.572395 734.583L625.572 298.369L624.428 296.729L-0.572263 732.942L0.572395 734.583ZM1.00007 733.771L1.00007 733.763L-0.999934 733.763L-0.999934 733.771L1.00007 733.771ZM69.2443 790.232L0.64064 733.003L-0.640507 734.539L67.9632 791.768L69.2443 790.232ZM626 270.63L626 66.4961L624 66.4961L624 270.63L626 270.63ZM0.572398 707.664L625.572 271.45L624.428 269.81L-0.572261 706.024L0.572398 707.664ZM-0.999875 64.4833L-0.999932 706.844L1.00007 706.844L1.00013 64.4833L-0.999875 64.4833ZM80.0179 -0.78106L-0.62439 63.7023L0.62464 65.2643L81.2669 0.780966L80.0179 -0.78106ZM551.047 -1.00001L80.6424 -1.00005L80.6424 0.999953L551.047 0.999994L551.047 -1.00001ZM625.669 65.7525L551.716 -0.743609L550.378 0.743596L624.331 67.2397L625.669 65.7525ZM1.56141 790.232L0.640632 789.464L-0.64051 791L0.280267 791.768L1.56141 790.232ZM6.09468e-05 792L0.920837 792L0.920837 790L6.11235e-05 790L6.09468e-05 792ZM-0.999939 790.232L-0.999939 791L1.00006 791L1.00006 790.232L-0.999939 790.232Z" fill="url(#paint0_linear_3116_31387)" mask="url(#path-1-inside-1_3116_31387)"/>
<defs>
<linearGradient id="paint0_linear_3116_31387" x1="594.574" y1="791" x2="-90.8842" y2="126.295" gradientUnits="userSpaceOnUse">
<stop stop-color="#C7FF51"/>
<stop offset="1" stop-color="#BA77FD"/>
</linearGradient>
</defs>
</svg>
