 <svg
                        width="44"
                        height="32"
                        viewBox="0 0 44 32"
                        fill="none"
                        xmlns="http://www.w3.org/2000/svg"
                      >
                        <path
                          fill-rule="evenodd"
                          clip-rule="evenodd"
                          d="M1.355 6.23L4.23 3.355C4.9736 2.60809 5.95182 2.14017 7 2.03V2H18C18.7956 2 19.5587 2.31607 20.1213 2.87868C20.6839 3.44129 21 4.20435 21 5V9.5C21 9.76522 20.8946 10.0196 20.7071 10.2071C20.5196 10.3946 20.2652 10.5 20 10.5C19.7348 10.5 19.4804 10.3946 19.2929 10.2071C19.1054 10.0196 19 9.76522 19 9.5V5C19 4.73478 18.8946 4.48043 18.7071 4.29289C18.5196 4.10536 18.2652 4 18 4H8V7C8 7.79565 7.68393 8.55871 7.12132 9.12132C6.55871 9.68393 5.79565 10 5 10H2V27C2 27.2652 2.10535 27.5196 2.29289 27.7071C2.48043 27.8946 2.73478 28 3 28H18C18.2652 28 18.5196 27.8946 18.7071 27.7071C18.8946 27.5196 19 27.2652 19 27V25.5H7C6.20435 25.5 5.44129 25.1839 4.87868 24.6213C4.31607 24.0587 4 23.2956 4 22.5V15.5C4 14.7044 4.31607 13.9413 4.87868 13.3787C5.44129 12.8161 6.20435 12.5 7 12.5H41C41.7957 12.5 42.5587 12.8161 43.1213 13.3787C43.6839 13.9413 44 14.7044 44 15.5V22.5C44 23.2956 43.6839 24.0587 43.1213 24.6213C42.5587 25.1839 41.7957 25.5 41 25.5H21V27C21 27.7956 20.6839 28.5587 20.1213 29.1213C19.5587 29.6839 18.7956 30 18 30H3C2.20435 30 1.44129 29.6839 0.878678 29.1213C0.316067 28.5587 1.9241e-07 27.7956 1.9241e-07 27V9.5C-0.000175091 8.89263 0.119412 8.29119 0.351918 7.73009C0.584423 7.16898 0.925286 6.65923 1.355 6.23ZM5 8C5.26522 8 5.51957 7.89464 5.70711 7.70711C5.89464 7.51957 6 7.26522 6 7V4.5C5.87348 4.58619 5.7547 4.68322 5.645 4.79L2.765 7.67C2.66798 7.77273 2.57936 7.88309 2.5 8H5Z"
                          fill="url(#paint0_linear_53_2262)"
                        />
                        <path
                          d="M13.88 16.284C14.432 16.812 14.708 17.472 14.708 18.264C14.708 19.056 14.432 19.72 13.88 20.256C13.328 20.784 12.62 21.048 11.756 21.048H10.448V24H9.044V15.48H11.756C12.62 15.48 13.328 15.748 13.88 16.284ZM12.896 19.32C13.184 19.04 13.328 18.688 13.328 18.264C13.328 17.84 13.184 17.492 12.896 17.22C12.616 16.94 12.232 16.8 11.744 16.8H10.448V19.728H11.744C12.232 19.728 12.616 19.592 12.896 19.32ZM21.5347 16.284C22.0867 16.812 22.3627 17.472 22.3627 18.264C22.3627 19.056 22.0867 19.72 21.5347 20.256C20.9827 20.784 20.2747 21.048 19.4107 21.048H18.1027V24H16.6987V15.48H19.4107C20.2747 15.48 20.9827 15.748 21.5347 16.284ZM20.5507 19.32C20.8387 19.04 20.9827 18.688 20.9827 18.264C20.9827 17.84 20.8387 17.492 20.5507 17.22C20.2707 16.94 19.8867 16.8 19.3987 16.8H18.1027V19.728H19.3987C19.8867 19.728 20.2707 19.592 20.5507 19.32ZM26.0094 24V16.824H23.5374V15.48H29.8974V16.824H27.4134V24H26.0094ZM32.398 24H30.706L33.958 19.68L30.862 15.48H32.518L34.81 18.588L37.114 15.48H38.77L35.674 19.692L38.926 24H37.246L34.822 20.808L32.398 24Z"
                          fill="#272727"
                        />
                        <defs>
                          <linearGradient
                            id="paint0_linear_53_2262"
                            x1="2.14199"
                            y1="2"
                            x2="21.9822"
                            y2="40.2635"
                            gradientUnits="userSpaceOnUse"
                          >
                            <stop stop-color="#C7FF51" />
                            <stop offset="1" stop-color="#BA77FD" />
                          </linearGradient>
                        </defs>
                      </svg>