<svg width="40" height="40" viewBox="0 0 40 40" fill="none" xmlns="http://www.w3.org/2000/svg">
<path d="M18.3594 1.875H21.6406L23.75 2.1875L25.5469 2.65625L27.1875 3.28125L28.8281 4.0625L30.0781 4.84375L31.1719 5.625L32.3438 6.64062L33.6719 7.96875L34.5312 9.0625L35.1562 9.92188L36.0938 11.4844L36.7969 12.9688L37.4219 14.6875L37.8906 16.6406L38.125 18.3594V21.6406L37.8125 23.75L37.3438 25.5469L36.6406 27.4219L35.625 29.375L35 30.3125L34.2969 31.25L33.5938 32.1094L31.875 33.8281L30.5469 34.8438L29.2188 35.7031L27.4219 36.6406L25.5469 37.3438L23.75 37.8125L22.4219 38.0469L21.6406 38.125H18.3594L16.25 37.8125L14.4531 37.3438L12.5781 36.6406L10.625 35.625L9.6875 35L8.4375 34.0625L7.5 33.2031L7.10938 32.8906L6.5625 32.2656L5.78125 31.4062L4.76562 30L3.82812 28.3594L3.20312 27.0312L2.57812 25.3125L2.10938 23.3594L1.875 21.7188V18.2812L2.1875 16.25L2.65625 14.4531L3.35938 12.5781L4.375 10.625L5.15625 9.45312L5.9375 8.4375L6.79688 7.5L7.26562 6.95312L7.89062 6.40625L8.90625 5.54688L10.2344 4.60938L11.6406 3.82812L13.125 3.125L15.2344 2.42188L17.1094 2.03125L18.3594 1.875ZM19.6875 3.125L17.7344 3.28125L15.7812 3.67188L14.4531 4.0625L12.5781 4.84375L11.1719 5.625L9.92188 6.48438L9.0625 7.1875L8.125 8.04688L7.42188 8.75L6.71875 9.60938L5.9375 10.7031L5.23438 11.875L4.60938 13.125L3.98438 14.6875L3.51562 16.4062L3.20312 18.4375V21.6406L3.51562 23.5938L3.98438 25.3125L4.60938 26.875L5.23438 28.125L5.9375 29.2969L6.71875 30.3906L7.73438 31.5625L8.75 32.5781L9.60938 33.2812L10.7031 34.0625L11.875 34.7656L13.125 35.3906L14.6875 36.0156L16.4062 36.4844L18.4375 36.7969L20.0781 36.875L22.2656 36.7188L24.2188 36.3281L25.4688 35.9375L26.875 35.3906L28.8281 34.375L30.1562 33.4375L31.0156 32.7344L32.0312 31.7969L32.9688 30.7812L33.9062 29.5312L34.5312 28.5156L35.4688 26.7188L36.1719 24.7656L36.5625 23.2031L36.7969 21.5625V18.4375L36.4844 16.4062L35.9375 14.4531L35.3125 12.9688L34.6875 11.7188L33.9062 10.4688L33.2031 9.53125L32.2656 8.4375L31.25 7.42188L30.3906 6.71875L29.2969 5.9375L28.125 5.23438L26.875 4.60938L25.3125 3.98438L23.5938 3.51562L21.6406 3.20312L19.6875 3.125Z" fill="url(#paint0_linear_2304_17679)"/>
<path d="M19.2188 7.89062H20.7812L22.1094 8.20312L23.2031 8.75L24.0625 9.45312L24.6094 10.0781L25.2344 11.0938L25.7031 12.5L25.7812 13.0469V14.5312L25.4688 15.7812L24.8438 17.0312L23.9844 17.9688L23.2031 18.5938L23.0469 18.6719L23.8281 18.9844L27.3438 20.1562L28.2812 20.625L29.0625 21.25L29.6875 21.9531L30.3125 23.2031L30.5469 24.2188V27.5L30.2344 28.2031L29.8438 28.5938L29.375 28.9062L29.0625 28.9844H10.9375L10.3125 28.75L9.92188 28.4375L9.60938 27.9688L9.45312 27.5V24.2188L9.76562 22.9688L10.3125 21.9531L11.1719 21.0156L12.2656 20.3125L15.9375 19.0625L16.875 18.75L16.9531 18.6719L16.0938 18.0469L15.3906 17.3438L14.8438 16.4844L14.4531 15.5469L14.2188 14.5312V13.0469L14.4531 11.9531L14.9219 10.7812L15.4688 10L16.1719 9.21875L16.9531 8.67188L17.8906 8.20312L19.2188 7.89062ZM19.375 9.21875L18.4375 9.45312L17.5 9.92188L16.5625 10.7812L16.0156 11.5625L15.625 12.5781L15.5469 12.9688V14.4531L15.8594 15.4688L16.4062 16.4062L16.875 16.9531L17.7344 17.5781L18.5938 17.9688L19.1406 18.125L20.1562 18.2031L21.4062 17.9688L22.1875 17.6562L23.0469 17.0312L23.6719 16.3281L24.2188 15.2344L24.4531 14.2188V13.2031L24.1406 11.9531L23.75 11.1719L23.125 10.3906L22.1094 9.6875L21.0156 9.29688L20.5469 9.21875H19.375ZM19.0625 19.5312L17.5781 19.9219L13.125 21.4062L12.2656 21.875L11.4844 22.6562L10.9375 23.6719L10.7812 24.375V27.2656L11.1719 27.6562H28.8281L29.2188 27.2656V24.375L28.9844 23.5156L28.5156 22.6562L27.7344 21.875L26.6406 21.3281L21.9531 19.7656L20.9375 19.5312H19.0625Z" fill="url(#paint1_linear_2304_17679)"/>
<defs>
<linearGradient id="paint0_linear_2304_17679" x1="3.63971" y1="1.875" x2="34.42" y2="39.6511" gradientUnits="userSpaceOnUse">
<stop stop-color="#C7FF51"/>
<stop offset="1" stop-color="#BA77FD"/>
</linearGradient>
<linearGradient id="paint1_linear_2304_17679" x1="10.48" y1="7.89063" x2="28.391" y2="29.8724" gradientUnits="userSpaceOnUse">
<stop stop-color="#C7FF51"/>
<stop offset="1" stop-color="#BA77FD"/>
</linearGradient>
</defs>
</svg>
