<svg width="32" height="32" viewBox="0 0 32 32" fill="none" xmlns="http://www.w3.org/2000/svg">
<path d="M16.3285 4.94378L16.337 4.96146L19.5185 11.4016C19.6442 11.6781 19.8389 11.9179 20.084 12.0977C20.3298 12.2781 20.6179 12.3919 20.9205 12.4282L27.9453 13.4717L27.9596 13.4737C28.0218 13.4817 28.0806 13.5073 28.1292 13.5478L28.6093 12.9716L28.1292 13.5478C28.1778 13.5883 28.2142 13.642 28.2338 13.7029C28.2533 13.7638 28.2553 13.829 28.2393 13.891C28.2233 13.9529 28.1901 14.0088 28.1439 14.0521C28.1385 14.0571 28.1332 14.0623 28.1279 14.0675L23.0629 19.1058C22.8468 19.3111 22.6846 19.5665 22.5906 19.8494C22.4954 20.1357 22.473 20.4412 22.5253 20.7383C22.5254 20.7389 22.5256 20.7395 22.5257 20.7402L23.7479 27.8322L23.7481 27.8331C23.7596 27.8991 23.7523 27.9669 23.7272 28.0288C23.7022 28.0907 23.6604 28.144 23.607 28.1829C23.5536 28.2217 23.4905 28.2446 23.4251 28.2492C23.3597 28.2537 23.2942 28.2398 23.236 28.2088L23.2344 28.2079L16.8995 24.8511C16.8929 24.8476 16.8863 24.8442 16.8796 24.8409C16.6143 24.7104 16.3227 24.6425 16.0271 24.6425C15.7315 24.6425 15.4399 24.7104 15.1747 24.8409C15.1723 24.8421 15.17 24.8432 15.1677 24.8444C15.1634 24.8466 15.159 24.8489 15.1547 24.8511L8.81978 28.2079L8.81819 28.2088C8.76005 28.2398 8.69456 28.2537 8.62912 28.2492C8.56368 28.2446 8.50066 28.2217 8.44722 28.1829L8.00623 28.7895L8.44722 28.1829C8.39378 28.144 8.35202 28.0907 8.32697 28.0288C8.30191 27.9669 8.29466 27.8991 8.30611 27.8331L8.30651 27.8308L9.52854 20.6598C9.52871 20.6588 9.52887 20.6579 9.52903 20.657C9.58116 20.3602 9.5587 20.055 9.46361 19.769C9.36895 19.4843 9.20524 19.2274 8.98701 19.0214L3.85867 14.0602L3.85869 14.0601L3.85431 14.056C3.80754 14.0114 3.77442 13.9541 3.75926 13.8906C3.7441 13.8272 3.74762 13.7607 3.76936 13.6993C3.79109 13.6378 3.83 13.5844 3.8811 13.5451C3.93217 13.5059 3.99327 13.4825 4.05697 13.4776C4.07436 13.4762 4.0917 13.4743 4.10896 13.4717L11.1337 12.4282C11.4363 12.3919 11.7244 12.2781 11.9702 12.0977C12.2153 11.9179 12.41 11.678 12.5357 11.4015L15.7172 4.96146L15.7257 4.94378C15.7526 4.88552 15.7954 4.8365 15.8488 4.80228C15.9022 4.76807 15.9641 4.75 16.0271 4.75C16.0901 4.75 16.152 4.76807 16.2054 4.80228C16.2588 4.8365 16.3016 4.88552 16.3285 4.94378Z" stroke="url(#paint0_linear_1707_13173)" stroke-width="1.5" stroke-linecap="round" stroke-linejoin="round"/>
<defs>
<linearGradient id="paint0_linear_1707_13173" x1="4.26572" y1="4" x2="25.3106" y2="30.8611" gradientUnits="userSpaceOnUse">
<stop stop-color="#C7FF51"/>
<stop offset="1" stop-color="#BA77FD"/>
</linearGradient>
</defs>
</svg>
