<svg width="32" height="32" viewBox="0 0 32 32" fill="none" xmlns="http://www.w3.org/2000/svg">
<path d="M5.80469 6H6.56641L8.32422 6.77557L8.79297 7.07386L9.08594 7.43182L9.20312 7.73011V8.50568L8.85156 9.34091L9.20312 9.46023L10.2578 9.9375L10.5508 9.99716H11.0195L12.8945 9.6392L13.4219 9.57955H14.2422L15.0625 9.75852L15.7656 10.1165L16.0586 9.99716L16.7031 9.69886L17.5234 9.46023H18.9297L20.043 9.75852L21.3906 10.2955L22.0938 10.4148L22.6211 10.2358L23.3828 9.81818V9.57955L23.1484 8.9233V8.3267L23.4414 7.73011L23.8516 7.37216L25.8438 6.59659H26.6055L27.0742 6.83523L27.4258 7.25284L28.5391 10.1761L29.6523 13.0994L30.7656 16.0227L31 16.6193V17.4545L30.7656 17.9318L30.3555 18.2898L28.4219 19.0653L27.7773 19.125L27.25 18.946L26.8984 18.6477L26.6055 18.0511V17.8722L25.3164 18.4091H25.1992V19.125L25.0234 19.6619L24.4961 20.2585L24.0273 20.4972H23.8516L23.9102 20.6165V21.571L23.6758 22.108L23.2656 22.5852L22.6797 22.8835L22.5039 22.9432H21.918L21.8594 23.5398L21.5078 24.2557L21.0977 24.6136L20.5703 24.8523L19.9844 24.9119L19.6914 24.8523V25.2699L19.5156 25.8068L18.9883 26.4034L18.4023 26.7017L17.6992 26.7614L17.1719 26.642L16.6445 26.3438L16.4102 26.4034L15.9414 26.821L15.4727 27H14.5938L14.0078 26.7614L13.5391 26.3438L13.2461 25.8665L12.7773 25.9858L12.0742 25.9261L11.5469 25.6875L11.0781 25.2699L10.9023 24.9716L10.4336 25.0909H9.61328L9.02734 24.8523L8.55859 24.4347L8.26562 23.9574L8.14844 23.5398V22.9432L7.5625 22.8835L7.09375 22.6449L6.68359 22.2869L6.39062 21.75L6.27344 21.3324V20.7955L6.44922 20.1989L6.91797 19.2443L6.625 17.9915L6.44922 17.6932L5.39453 17.2159L5.27734 17.5739L5.04297 17.9318L4.63281 18.2898L4.28125 18.4091H3.69531L2.69922 17.9915L1.52734 17.4545L1.11719 16.9773L1 16.679V15.8438L2.17188 13.1591L3.28516 10.5938L4.39844 8.02841L4.98438 6.65625L5.33594 6.23864L5.80469 6ZM6.03906 7.0142L5.80469 7.3125L4.69141 9.87784L3.57812 12.4432L2.46484 15.0085L1.99609 16.0824V16.4403L2.17188 16.6193L3.87109 17.3949L4.22266 17.3352L4.39844 17.0369L5.21875 15.1875L6.27344 12.7415L7.44531 10.0568L8.20703 8.26705L8.14844 7.84943L7.44531 7.49148L6.33203 7.0142H6.03906ZM26.0195 7.6108L24.2617 8.3267L24.1445 8.50568L24.2031 8.9233L25.2578 11.6676L26.3711 14.5909L27.4844 17.5142L27.7188 17.9915L28.0117 18.1108L29.8281 17.3949L30.0039 17.2159L29.9453 16.679L28.8906 13.9347L27.7773 11.0114L26.6641 8.08807L26.4883 7.73011L26.3711 7.6108H26.0195ZM18.1094 10.4148L17.4062 10.5341L16.7031 10.8324L16 11.25L15.3555 11.7869L14.7109 12.4432L14.2422 12.8608L13.3047 13.6364L12.0742 14.4716L11.8984 14.5909L12.0156 14.8295L12.6016 15.2472L13.3633 15.4858H13.832L14.7109 15.3068L16.1172 14.7699L17.2305 14.3523L18.0508 14.1733H18.8125L19.5742 14.4119L21.1562 15.3068L22.5625 16.142L24.1445 17.0369L24.6133 17.3949L24.8477 17.5142L26.1953 16.9176L26.0195 16.3807L25.082 13.875L24.1445 11.429L23.9102 10.8324L23.793 10.7727L22.9141 11.25L22.5625 11.3693H21.4492L20.3945 11.0114L19.3398 10.5938L18.4023 10.4148H18.1094ZM8.38281 10.2955L7.21094 12.9801L6.09766 15.5455L5.80469 16.2614L6.97656 16.7983L7.26953 17.0369L7.5625 17.6335L7.67969 18.0511L8.5 17.6335H9.4375L10.0234 17.8722L10.375 18.1705L10.668 18.7074L10.8438 19.1847H11.3125L11.8398 19.304L12.4258 19.6619L12.7773 20.1392L12.9531 20.4972H13.8906L14.4766 20.7358L14.9453 21.1534L15.2383 21.75H16.1758L16.8203 21.9886L17.4648 22.5256L18.9297 23.3608L19.75 23.8381L20.1602 23.8977L20.5703 23.7188L20.8633 23.3608L20.9219 23.0028L20.7461 22.5256L20.3945 22.2273L18.8125 21.3324L17.582 20.6165L16.9961 20.2585L16.8789 20.0795V19.7216L17.0547 19.483H17.582L19.0469 20.3182L20.5117 21.1534L21.8594 21.929H22.3281L22.7383 21.6903L22.9141 21.392V20.8551L22.7383 20.5568L22.3867 20.2585L20.6875 19.304L19.457 18.5881L19.1641 18.2898V17.9318L19.3398 17.6932L19.6914 17.6335L20.5117 18.0511L21.7422 18.767L23.0898 19.5426L23.4414 19.6023L23.9102 19.4233L24.2031 19.0057V18.4688L23.9102 18.0511L22.2695 17.0966L20.6289 16.142L19.1055 15.2472L18.6953 15.1278H18.1094L17.2305 15.3665L15.2383 16.142L14.3594 16.3807L13.3047 16.4403L12.4844 16.2614L11.7812 15.9034L11.1953 15.3665L10.7852 14.8892L10.7266 14.3523L10.9023 14.054L12.1328 13.2784L13.1289 12.5028L13.8906 11.8466L14.5938 11.1307L14.8867 10.8324L14.4766 10.6534L14.1836 10.5938H13.4805L12.1328 10.8324L11.0195 11.0114H10.4922L9.84766 10.892L8.55859 10.2955H8.38281ZM8.73438 18.5881L8.44141 18.767L8.14844 19.125L7.44531 20.4972L7.26953 20.9148L7.32812 21.392L7.67969 21.8097L7.97266 21.929L8.5 21.8693L8.79297 21.571L9.67188 20.0199L9.84766 19.6619V19.2443L9.67188 18.8864L9.37891 18.6477L9.26172 18.5881H8.73438ZM11.0781 20.1392L10.6094 20.3182L9.73047 21.929L9.20312 22.8835L9.14453 23.0028L9.20312 23.5398L9.4375 23.8977L9.73047 24.0767H10.2578L10.5508 23.8977L10.8438 23.5398L12.0156 21.2131L11.957 20.6761L11.6055 20.2585L11.0781 20.1392ZM13.2461 21.4517L12.9531 21.6307L12.6602 22.108L11.8398 23.7188L11.7227 23.9574L11.7812 24.4943L12.0742 24.7926L12.4844 24.9716L13.0117 24.8523L13.3633 24.4347L14.3594 22.4659L14.3008 21.929L14.0078 21.571L13.7734 21.4517H13.2461ZM15.6484 22.7045L15.2969 22.8835L15.0039 23.3608L14.1836 24.9716V25.4489L14.5938 25.9261L14.7695 25.9858H15.2969L15.6484 25.7472L15.9414 25.2699L16.6445 23.9574L16.7031 23.4205L16.5273 23.0625L16.1758 22.7642L15.6484 22.7045ZM17.6992 23.8381L17.4062 24.554L17.0547 25.2102V25.3892L17.7578 25.7472L18.168 25.6875L18.5195 25.4489L18.6953 25.1506V24.6733L18.4609 24.2557L17.875 23.8977L17.6992 23.8381Z" fill="url(#paint0_linear_1707_13149)" stroke="url(#paint1_linear_1707_13149)" stroke-width="0.2"/>
<defs>
<linearGradient id="paint0_linear_1707_13149" x1="2.46045" y1="6" x2="18.1313" y2="33.4751" gradientUnits="userSpaceOnUse">
<stop stop-color="#C7FF51"/>
<stop offset="1" stop-color="#BA77FD"/>
</linearGradient>
<linearGradient id="paint1_linear_1707_13149" x1="2.46045" y1="6" x2="18.1313" y2="33.4751" gradientUnits="userSpaceOnUse">
<stop stop-color="#C7FF51"/>
<stop offset="1" stop-color="#BA77FD"/>
</linearGradient>
</defs>
</svg>
