<svg width="24" height="24" viewBox="0 0 24 24" fill="none" xmlns="http://www.w3.org/2000/svg">
<path d="M5.90072 5.64404L5.90064 5.64404C5.21783 5.68211 4.67312 6.25001 4.66285 6.93059C4.66285 6.93071 4.66285 6.93083 4.66284 6.93095L3.91293 6.91985C3.91013 7.12187 3.90429 7.32384 3.89541 7.52568L5.90072 5.64404ZM5.90072 5.64404C8.30534 5.50969 10.2151 4.71462 11.8374 3.13469L11.8407 3.13156C12.0361 2.9561 12.3198 2.95621 12.5149 3.1315L12.5183 3.13468C14.1407 4.71461 16.0504 5.50969 18.455 5.64392C19.1382 5.68208 19.6828 6.25019 19.6929 6.93084C19.6958 7.1394 19.7019 7.3479 19.711 7.55627C19.711 7.55704 19.711 7.55781 19.7111 7.55858L19.7112 7.56206C19.755 9.87304 19.7972 12.5784 18.8993 15.0127L18.8993 15.0128C18.4124 16.3332 17.6794 17.4722 16.7231 18.4061L17.2471 18.9426L16.7231 18.4061C15.6325 19.4712 14.1837 20.3372 12.3943 20.963C12.3652 20.9731 12.3354 20.9812 12.3052 20.9873C12.2625 20.9958 12.22 21 12.1779 21C12.1359 21 12.0935 20.9959 12.0504 20.9873C12.0203 20.9813 11.9906 20.9732 11.9615 20.9631C10.17 20.3385 8.7197 19.4728 7.62822 18.4077C6.67163 17.4741 5.93876 16.3356 5.4523 15.0156L5.45229 15.0156C4.55737 12.5875 4.60029 9.88558 4.64431 7.57779L4.64498 7.55184L5.90072 5.64404Z" stroke="url(#paint0_linear_2043_3474)" stroke-width="1.5"/>
<path d="M9.95305 12.563L11.1564 13.8054L14.3132 10.5626" stroke="url(#paint1_linear_2043_3474)" stroke-width="1.5" stroke-linecap="round" stroke-linejoin="round"/>
<defs>
<linearGradient id="paint0_linear_2043_3474" x1="4.68337" y1="2.25" x2="21.5731" y2="19.9013" gradientUnits="userSpaceOnUse">
<stop stop-color="#C7FF51"/>
<stop offset="1" stop-color="#BA77FD"/>
</linearGradient>
<linearGradient id="paint1_linear_2043_3474" x1="10.7451" y1="9.78956" x2="13.083" y2="14.3881" gradientUnits="userSpaceOnUse">
<stop stop-color="#C7FF51"/>
<stop offset="1" stop-color="#BA77FD"/>
</linearGradient>
</defs>
</svg>
