<svg width="548" height="586" viewBox="0 0 548 586" fill="none" xmlns="http://www.w3.org/2000/svg">
<path d="M442.805 95.5137L441.218 101.861L433.681 94.3241L430.508 97.4977M442.805 95.5137C446.931 101.168 453.867 111.572 462.474 120.27M442.805 95.5137L379.34 28.8749C376.167 24.115 378.862 18.8936 386.48 24.9078C394.017 30.8576 406.204 42.7341 411.47 48.3105M442.805 95.5137L455.499 82.8193M461.846 81.2322L459.466 78.8523L455.499 82.8193M461.846 81.2322L491.202 51.8764M461.846 81.2322L464.821 84.2071M490.405 123.279L495.165 128.039L490.008 133.196M490.405 123.279C485.328 120.74 477.712 112.172 474.539 108.206L481.679 101.065M490.405 123.279L522.141 91.5427M490.405 123.279L479.21 134.474M490.008 133.196L492.388 135.576L486.834 141.129L481.677 135.973M490.008 133.196C484.983 130.287 473.744 122.328 468.985 113.759L462.474 120.27M481.677 135.973L478.504 139.146L482.47 143.113L479.297 146.287M481.677 135.973C480.864 135.513 480.041 135.012 479.21 134.474M479.297 146.287L484.85 151.84L477.313 159.377M479.297 146.287C477.039 145.123 473.877 143.17 470.102 140.409M477.313 159.377C448.435 142.559 427.466 114.555 420.591 102.655M477.313 159.377L484.452 166.517M477.313 159.377L464.221 172.468M441.211 227.211L478.497 260.53L503.489 235.538L467.393 199.442M441.211 227.211L413.045 257.757L422.168 271.64L434.465 279.176L436.845 286.317L444.778 294.25L440.414 298.613M441.211 227.211L420.982 206.982M441.211 227.211L467.393 199.442M417.406 305.755L426.926 312.101L440.414 298.613M417.406 305.755L411.059 312.102M417.406 305.755L415.309 303.886M411.059 312.102L413.836 314.879L391.224 337.491L371.39 329.558M411.059 312.102C410.261 311.577 409.466 311.05 408.673 310.521M371.39 329.558L366.233 334.715M371.39 329.558C346.697 313.346 291.938 270.268 260.236 221.757M366.233 334.715L368.613 337.095L306.331 399.377M366.233 334.715C355.18 328.155 344.662 320.804 334.769 313.027M297.604 408.104L266.266 417.23M297.604 408.104L306.331 399.377M297.604 408.104C283.714 403.172 270.914 396.43 259.235 388.562M266.266 417.23C246.564 407.843 199.071 374.789 166.705 317.669M266.266 417.23C292.286 443.25 313.601 442.879 321.006 439.441M166.705 317.669L175.433 285.934M166.705 317.669C155.098 299.447 148.119 274.64 146.08 264.515M175.433 285.934L184.161 277.206M175.433 285.934C176.869 289.477 178.696 293.51 180.911 297.909M248.426 216.908L246.442 214.924L184.161 277.206M248.426 216.908L254.773 212.941M248.426 216.908C251.977 222.912 257.279 230.908 264.129 240.077M254.773 212.941L248.03 194.297L270.642 171.685L272.625 173.668M254.773 212.941C256.503 215.896 258.328 218.836 260.236 221.757M272.625 173.668L278.973 167.321M272.625 173.668C275.652 178.801 280.017 185.44 285.653 193.166M278.973 167.321L271.833 157.801L285.717 143.917L291.667 154.627M278.973 167.321L294.16 184.66M291.667 154.627L330.147 116.147M291.667 154.627L301.411 166.302M330.147 116.147L322.214 104.247L346.016 80.445L342.446 76.8751L344.033 75.2883M330.147 116.147L357.932 89.9805M430.508 97.4977L429.318 96.3077M430.508 97.4977L409.483 118.523L417.019 126.059L436.386 106.693L436.51 106.568M306.331 399.377C313.471 405.988 326.402 423.256 321.006 439.441M321.006 439.441L310.295 450.152L295.618 446.582L279.354 455.707M279.354 455.707L150.03 585.031C129.475 581.78 111.546 576.019 95.9525 568.503M279.354 455.707C267.862 450.432 252.117 441.582 234.986 429.469M131.401 302.993L138.541 295.853L133.782 276.812L146.08 264.515M131.401 302.993L0.886746 430.334C1.29869 436.593 2.33317 443.829 4.12519 451.689M131.401 302.993C133.263 308.176 135.339 313.249 137.603 318.211M146.08 264.515C151.766 261.738 167.342 260.388 184.161 277.206M335.696 207.383C341.116 215.713 355.687 234.356 370.602 242.289M335.696 207.383L340.852 206.986L342.439 205.399M335.696 207.383L329.561 200.032M370.602 242.289L383.296 230.388C379.871 228.444 376.16 225.53 372.47 222.174M370.602 242.289L382.672 253.225M440.414 298.613L429.704 295.837L409.404 277.445M357.409 206.296C354.53 202.885 352.092 199.781 350.373 197.465L342.439 205.399M357.409 206.296C361.747 211.436 367.086 217.276 372.47 222.174M357.409 206.296L388.965 174.74M372.47 222.174L404.322 190.322M301.411 166.302L304.116 163.678M301.411 166.302L309.712 176.248M341.564 127.34L368.831 100.88M341.564 127.34L356.439 142.214M341.564 127.34L306.821 161.053M388.965 174.74L414.638 149.067M388.965 174.74L372.702 158.477M414.638 149.067L368.831 100.88M414.638 149.067L418.208 145.497M368.831 100.88L371.247 98.5357M371.247 98.5357L381.717 88.3767C379.178 82.6646 373.519 78.8568 371.007 77.6669L365.287 83.0541M371.247 98.5357L418.208 145.497M418.208 145.497L428.522 135.182C431.828 139.546 439.549 148.748 443.992 150.652L404.322 190.322M356.439 142.214L343.963 155.352M356.439 142.214L372.702 158.477M326.574 173.666L324.591 169.302L315.07 170.889L310.31 166.13L306.821 161.053M326.574 173.666L334.11 181.202M326.574 173.666L343.963 155.352M306.821 161.053L304.116 163.678M420.591 102.655L418.21 105.035L415.83 102.655L418.211 100.275L416.624 98.6885L409.88 105.432L407.103 102.656L401.55 108.21L399.963 106.623L412.261 94.3252L386.478 68.5425M420.591 102.655L428.128 95.1177L429.318 96.3077M429.318 96.3077C431.677 99.9254 434.085 103.345 436.51 106.568M481.679 101.065L476.126 95.5119M481.679 101.065L516.192 66.5522C520.82 61.924 525.793 49.0185 508.657 34.4216M462.474 120.27C465.281 123.108 468.182 125.848 471.082 128.322M502.706 40.3721C507.334 43.1486 515.082 51.4785 509.052 62.5858L476.126 95.5119M502.706 40.3721L507.07 36.0084M502.706 40.3721L496.359 46.7193M476.126 95.5119L467.796 87.1821M508.657 34.4216L511.434 31.6447L514.409 34.6196M508.657 34.4216L507.07 36.0084M386.478 68.5425L368.628 50.6929L361.884 57.4368L334.118 29.6707L326.581 37.208L351.571 62.1975L348.794 64.9744L349.19 70.1312L344.033 75.2883M386.478 68.5425L380.131 74.8897L374.578 69.3365M374.578 69.3365L365.851 60.61L353.95 72.511L362.677 81.2375L363.47 80.4441M374.578 69.3365L370.214 73.7002M365.287 83.0541L363.073 80.8408L363.47 80.4441M365.287 83.0541L357.932 89.9805M357.932 89.9805L344.033 75.2883M363.47 80.4441L366.247 77.6672M370.214 73.7002L364.661 68.1469L360.694 72.1139L366.247 77.6672M370.214 73.7002L366.247 77.6672M540.389 73.2945L546.736 66.9473L539.596 59.8074M540.389 73.2945L544.752 77.6577L537.612 84.7983L533.249 80.4351M540.389 73.2945L533.249 80.4351M533.249 80.4351L526.505 87.179M526.505 87.179L530.075 90.7489L525.711 95.1126L522.141 91.5427M526.505 87.179L522.141 91.5427M507.07 36.0084L480.097 9.03566L477.32 11.8126M496.359 46.7193L469.386 19.7466L471.37 17.7631M496.359 46.7193L491.202 51.8764M477.32 11.8126L467.007 2.2928C465.685 1.23506 463.277 0.469481 460.66 3.0865C458.28 5.4667 460.131 7.84668 461.057 8.2433C451.139 19.2186 436.065 34.0288 427.338 36.4093C422.974 38.6574 410.994 39.1076 397.984 22.9238C394.679 18.8249 387.671 11.8173 386.084 16.5775C384.497 21.3378 401.553 35.7495 410.28 42.3604C416.759 44.3434 431.383 46.6434 438.048 39.9788C444.712 33.3143 459.337 18.6893 465.817 12.2098L471.37 17.7631M477.32 11.8126L471.37 17.7631M486.838 56.2401C482.079 48.8357 467.402 34.2651 453.121 41.5648C449.948 43.1516 445.188 45.532 438.84 53.4659C436.541 56.3401 427.257 60.2894 420.593 57.4337M420.593 57.4337L411.47 48.3105M420.593 57.4337L428.526 63.7801L430.906 61.3999L448.756 79.2495L450.343 77.6627L455.499 82.8193M411.47 48.3105C419.271 50.558 431.632 51.1048 437.254 46.3258C453.122 32.8378 454.047 34.5567 461.849 32.8374C469.782 32.8369 471.484 33.7143 477.319 37.9934C483.269 42.3565 488.954 49.0998 491.202 51.8764M334.11 181.202L351.962 163.351L343.963 155.352M334.11 181.202L335.697 182.789L332.92 185.566L336.093 188.739L330.936 194.689L328.953 192.706L325.952 195.707M325.952 195.707L316.208 184.032M325.952 195.707L329.561 200.032M316.208 184.032L319.83 180.409L304.116 163.678M316.208 184.032L309.712 176.248M372.702 158.477L353.151 178.028L349.977 188.341L341.25 188.342L334.506 195.086M334.506 195.086L342.439 205.399M334.506 195.086L329.561 200.032M404.322 190.322L420.982 206.982M420.982 206.982L401.543 226.42L392.023 230.387L393.213 236.337L384.485 245.065L386.468 249.428L382.672 253.225M382.672 253.225L385.585 255.864M385.585 255.864L389.642 251.808L386.865 249.031L392.022 243.874L397.972 249.824L413.443 234.353L411.063 231.18L416.617 225.626L426.93 235.939L407.492 255.377L410.665 257.757L406.302 262.914L407.888 264.501L412.649 259.74L414.632 262.517L409.475 268.467L413.441 272.434L409.404 277.445M385.585 255.864L409.404 277.445M309.712 176.248L297.494 188.466M297.494 188.466L299.717 191.003M297.494 188.466L294.16 184.66M299.717 191.003L291.183 200.554M299.717 191.003L314.164 207.495M291.183 200.554C289.222 197.998 287.378 195.531 285.653 193.166M291.183 200.554C295.159 205.738 299.618 211.293 304.542 217.117M294.16 184.66L285.653 193.166M260.236 221.757L253.185 225.634M253.185 225.634L264.129 240.077M253.185 225.634L180.911 297.909M264.129 240.077L190.892 315.674M264.129 240.077C280.11 261.467 304.517 289.243 334.769 313.027M190.892 315.674C186.98 309.347 183.65 303.348 180.911 297.909M190.892 315.674C205.609 339.471 228.561 367.898 259.235 388.562M334.769 313.027L259.235 388.562M496.352 178.417L528.481 210.546L505.87 233.158L473.74 201.029M496.352 178.417L473.74 201.029M496.352 178.417L484.452 166.517M473.74 201.029L433.678 160.966L431.298 163.346L467.393 199.442M470.102 140.409L451.132 159.379L464.221 172.468M470.102 140.409C461.095 133.82 448.591 122.627 436.51 106.568M470.102 140.409L471.082 128.322M470.102 140.409L479.21 134.474M464.221 172.468L468.188 182.782L484.452 166.517M190.105 376.772L176.619 363.286L185.347 354.559L198.833 368.045M190.105 376.772L182.745 384.133M190.105 376.772L198.833 368.045M182.745 384.133L183.361 395.417L194.558 396.12M182.745 384.133C186.619 388.282 190.567 392.279 194.558 396.12M182.745 384.133C169.66 370.12 157.431 354.369 147.35 337.023M194.558 396.12C207.991 409.049 221.893 420.212 234.986 429.469M194.558 396.12L202.005 388.672M202.005 388.672L215.095 401.762L223.822 393.035L210.733 379.945M202.005 388.672L210.733 379.945M198.833 368.045L210.733 379.945M137.603 318.211L4.12519 451.689M137.603 318.211C140.551 324.674 143.819 330.946 147.35 337.023M4.12519 451.689C5.70296 458.609 7.86799 466.013 10.7124 473.661M147.35 337.023L10.7124 473.661M10.7124 473.661C23.2618 507.403 49.0362 545.891 95.9525 568.503M234.986 429.469L95.9525 568.503M314.164 207.495L323.795 218.49C328.687 227.349 342.596 246.812 359.097 253.793L372.94 266.129M314.164 207.495L304.542 217.117M304.542 217.117C319.77 235.13 339.451 255.726 363.113 275.957M372.94 266.129L363.113 275.957M372.94 266.129L395.173 285.942M363.113 275.957C370.498 282.27 378.27 288.548 386.415 294.7M395.173 285.942L386.415 294.7M395.173 285.942L409.855 299.026M386.415 294.7C391.635 298.643 397.008 302.534 402.531 306.35M409.855 299.026L402.531 306.35M409.855 299.026L415.309 303.886M402.531 306.35C404.559 307.751 406.606 309.142 408.673 310.521M415.309 303.886L408.673 310.521M517.384 37.5946L467.796 87.1821M517.384 37.5946L514.409 34.6196M517.384 37.5946L539.596 59.8074M467.796 87.1821L464.821 84.2071M514.409 34.6196L464.821 84.2071M539.596 59.8074L471.082 128.322M471.082 128.322C473.819 130.657 476.554 132.755 479.21 134.474" stroke="#BA77FD"/>
</svg>
