<svg width="765" height="634" viewBox="0 0 765 634" fill="none" xmlns="http://www.w3.org/2000/svg">
<mask id="path-1-inside-1_3111_24526" fill="white">
<path fill-rule="evenodd" clip-rule="evenodd" d="M63.9704 633.486L-5.62753e-05 571.564L-4.58968e-05 436.545L765 208.428L765 579.932L697.831 633.486L63.9704 633.486ZM765 184.441L-4.4053e-05 412.558L-1.66421e-05 55.9593L81.1015 0.000176142L698.553 0.000237534L765 64.4691L765 184.441Z"/>
</mask>
<path d="M-5.62753e-05 571.564L-1.00006 571.564L-1.00006 571.988L-0.695568 572.282L-5.62753e-05 571.564ZM63.9704 633.486L63.2749 634.205L63.5657 634.486L63.9704 634.486L63.9704 633.486ZM-4.58968e-05 436.545L-0.285804 435.587L-1.00005 435.8L-1.00005 436.545L-4.58968e-05 436.545ZM765 208.428L766 208.428L766 207.086L764.714 207.469L765 208.428ZM765 579.932L765.623 580.714L766 580.414L766 579.932L765 579.932ZM697.831 633.486L697.831 634.486L698.18 634.486L698.454 634.268L697.831 633.486ZM-4.4053e-05 412.558L-1.00004 412.558L-1.00004 413.9L0.285714 413.517L-4.4053e-05 412.558ZM765 184.441L765.286 185.399L766 185.186L766 184.441L765 184.441ZM-1.66421e-05 55.9593L-0.567935 55.1362L-1.00002 55.4343L-1.00002 55.9593L-1.66421e-05 55.9593ZM81.1015 0.000176142L81.1015 -0.999824L80.79 -0.999824L80.5336 -0.822908L81.1015 0.000176142ZM698.553 0.000237534L699.249 -0.717473L698.958 -0.999762L698.553 -0.999762L698.553 0.000237534ZM765 64.4691L766 64.4691L766 64.046L765.696 63.7513L765 64.4691ZM-0.695568 572.282L63.2749 634.205L64.6659 632.768L0.695456 570.845L-0.695568 572.282ZM-1.00005 436.545L-1.00006 571.564L0.999944 571.564L0.999954 436.545L-1.00005 436.545ZM764.714 207.469L-0.285804 435.587L0.285713 437.503L765.286 209.386L764.714 207.469ZM766 579.932L766 208.428L764 208.428L764 579.932L766 579.932ZM698.454 634.268L765.623 580.714L764.377 579.151L697.207 632.704L698.454 634.268ZM63.9704 634.486L697.831 634.486L697.831 632.486L63.9704 632.486L63.9704 634.486ZM0.285714 413.517L765.286 185.399L764.714 183.483L-0.285803 411.6L0.285714 413.517ZM-1.00002 55.9593L-1.00004 412.558L0.999956 412.558L0.999983 55.9593L-1.00002 55.9593ZM80.5336 -0.822908L-0.567935 55.1362L0.567902 56.7824L81.6694 0.823261L80.5336 -0.822908ZM698.553 -0.999762L81.1015 -0.999824L81.1015 1.00018L698.553 1.00024L698.553 -0.999762ZM765.696 63.7513L699.249 -0.717473L697.856 0.717948L764.304 65.1868L765.696 63.7513ZM766 184.441L766 64.4691L764 64.4691L764 184.441L766 184.441Z" fill="url(#paint0_linear_3111_24526)" mask="url(#path-1-inside-1_3111_24526)"/>
<defs>
<linearGradient id="paint0_linear_3111_24526" x1="727.759" y1="633.486" x2="218.467" y2="-121.319" gradientUnits="userSpaceOnUse">
<stop stop-color="#C7FF51"/>
<stop offset="1" stop-color="#BA77FD"/>
</linearGradient>
</defs>
</svg>
