 <svg
                        width="44"
                        height="32"
                        viewBox="0 0 44 32"
                        fill="none"
                        xmlns="http://www.w3.org/2000/svg"
                      >
                        <path
                          fill-rule="evenodd"
                          clip-rule="evenodd"
                          d="M1.355 6.23L4.23 3.355C4.9736 2.60809 5.95182 2.14017 7 2.03V2H18C18.7956 2 19.5587 2.31607 20.1213 2.87868C20.6839 3.44129 21 4.20435 21 5V9.5C21 9.76522 20.8946 10.0196 20.7071 10.2071C20.5196 10.3946 20.2652 10.5 20 10.5C19.7348 10.5 19.4804 10.3946 19.2929 10.2071C19.1054 10.0196 19 9.76522 19 9.5V5C19 4.73478 18.8946 4.48043 18.7071 4.29289C18.5196 4.10536 18.2652 4 18 4H8V7C8 7.79565 7.68393 8.55871 7.12132 9.12132C6.55871 9.68393 5.79565 10 5 10H2V27C2 27.2652 2.10535 27.5196 2.29289 27.7071C2.48043 27.8946 2.73478 28 3 28H18C18.2652 28 18.5196 27.8946 18.7071 27.7071C18.8946 27.5196 19 27.2652 19 27V25.5H7C6.20435 25.5 5.44129 25.1839 4.87868 24.6213C4.31607 24.0587 4 23.2956 4 22.5V15.5C4 14.7044 4.31607 13.9413 4.87868 13.3787C5.44129 12.8161 6.20435 12.5 7 12.5H41C41.7957 12.5 42.5587 12.8161 43.1213 13.3787C43.6839 13.9413 44 14.7044 44 15.5V22.5C44 23.2956 43.6839 24.0587 43.1213 24.6213C42.5587 25.1839 41.7957 25.5 41 25.5H21V27C21 27.7956 20.6839 28.5587 20.1213 29.1213C19.5587 29.6839 18.7956 30 18 30H3C2.20435 30 1.44129 29.6839 0.878678 29.1213C0.316067 28.5587 1.9241e-07 27.7956 1.9241e-07 27V9.5C-0.000175091 8.89263 0.119412 8.29119 0.351918 7.73009C0.584423 7.16898 0.925286 6.65923 1.355 6.23ZM5 8C5.26522 8 5.51957 7.89464 5.70711 7.70711C5.89464 7.51957 6 7.26522 6 7V4.5C5.87348 4.58619 5.7547 4.68322 5.645 4.79L2.765 7.67C2.66798 7.77273 2.57936 7.88309 2.5 8H5Z"
                          fill="url(#paint0_linear_53_2256)"
                        />
                        <path
                          d="M14.68 24H12.988L16.24 19.68L13.144 15.48H14.8L17.092 18.588L19.396 15.48H21.052L17.956 19.692L21.208 24H19.528L17.104 20.808L14.68 24ZM22.8354 24V15.48H24.2394V22.656H28.1394V24H22.8354ZM32.4244 24.144C31.5124 24.144 30.7724 23.892 30.2044 23.388C29.6444 22.876 29.3484 22.264 29.3164 21.552H30.7204C30.7684 21.96 30.9564 22.276 31.2844 22.5C31.6204 22.724 31.9964 22.836 32.4124 22.836C32.8284 22.836 33.1684 22.74 33.4324 22.548C33.7044 22.348 33.8404 22.084 33.8404 21.756C33.8404 21.18 33.4484 20.764 32.6644 20.508L31.6204 20.16C30.2284 19.72 29.5324 18.9 29.5324 17.7C29.5324 16.972 29.7804 16.396 30.2764 15.972C30.7804 15.548 31.4364 15.336 32.2444 15.336C33.0844 15.336 33.7524 15.58 34.2484 16.068C34.7444 16.548 35.0204 17.116 35.0764 17.772H33.6724C33.5844 17.396 33.4044 17.116 33.1324 16.932C32.8604 16.74 32.5564 16.644 32.2204 16.644C31.8524 16.644 31.5484 16.736 31.3084 16.92C31.0684 17.096 30.9444 17.332 30.9364 17.628C30.9364 17.932 31.0284 18.18 31.2124 18.372C31.3964 18.556 31.6884 18.712 32.0884 18.84L33.1444 19.176C34.5524 19.632 35.2564 20.476 35.2564 21.708C35.2564 22.428 34.9924 23.016 34.4644 23.472C33.9444 23.92 33.2644 24.144 32.4244 24.144Z"
                          fill="#272727"
                        />
                        <defs>
                          <linearGradient
                            id="paint0_linear_53_2256"
                            x1="2.14199"
                            y1="2"
                            x2="21.9822"
                            y2="40.2635"
                            gradientUnits="userSpaceOnUse"
                          >
                            <stop stop-color="#C7FF51" />
                            <stop offset="1" stop-color="#BA77FD" />
                          </linearGradient>
                        </defs>
                      </svg>