<svg width="72" height="72" fill="none" xmlns="http://www.w3.org/2000/svg"><path clip-rule="evenodd" d="m36 64.996 2.314-2.57c2.625-2.965 4.986-5.778 7.087-8.454l1.735-2.256C54.377 42.094 58 34.458 58 28.814 58 16.766 48.151 7 36 7s-22 9.766-22 21.814c0 5.644 3.623 13.28 10.864 22.902l1.735 2.256A198.89 198.89 0 0 0 36 64.996Z" stroke="url(#a)" stroke-width="1.5" stroke-linecap="round" stroke-linejoin="round"/><path d="M36 38c4.97 0 9-4.253 9-9.5S40.97 19 36 19s-9 4.253-9 9.5 4.03 9.5 9 9.5Z" stroke="url(#b)" stroke-width="1.5" stroke-linecap="round" stroke-linejoin="round"/><defs><linearGradient id="a" x1="16.142" y1="7" x2="66.299" y2="53.698" gradientUnits="userSpaceOnUse"><stop stop-color="#C7FF51"/><stop offset="1" stop-color="#BA77FD"/></linearGradient><linearGradient id="b" x1="27.876" y1="19" x2="44.163" y2="37.937" gradientUnits="userSpaceOnUse"><stop stop-color="#C7FF51"/><stop offset="1" stop-color="#BA77FD"/></linearGradient></defs></svg>