<svg width="46" height="40" fill="none" xmlns="http://www.w3.org/2000/svg"><path d="M31.785 21.612H13.48a3.016 3.016 0 0 0-1.162-1.826 3.14 3.14 0 0 0-4.097.309 2.992 2.992 0 0 0-.863 1.978c-.03.74.219 1.466.7 2.038a3.11 3.11 0 0 0 1.907 1.069 3.147 3.147 0 0 0 2.152-.443 3.03 3.03 0 0 0 1.306-1.73h18.419a3.03 3.03 0 0 0 1.306 1.73c.638.4 1.403.558 2.151.443a3.107 3.107 0 0 0 1.909-1.069c.48-.572.73-1.298.699-2.038a2.991 2.991 0 0 0-.863-1.978 3.14 3.14 0 0 0-4.097-.308 3.015 3.015 0 0 0-1.162 1.825Zm-21.338 2.21a1.69 1.69 0 0 1-.925-.275 1.636 1.636 0 0 1-.613-.73 1.595 1.595 0 0 1-.095-.941c.065-.316.223-.606.456-.834a1.68 1.68 0 0 1 .852-.446 1.7 1.7 0 0 1 .962.093c.304.123.564.332.747.6a1.603 1.603 0 0 1-.208 2.055 1.686 1.686 0 0 1-1.176.477Zm26.036-1.629c0 .322-.098.637-.281.905a1.658 1.658 0 0 1-.747.6 1.7 1.7 0 0 1-.962.092 1.676 1.676 0 0 1-.852-.445 1.595 1.595 0 0 1-.36-1.774c.125-.298.339-.553.613-.731a1.69 1.69 0 0 1 2.1.203c.313.305.488.719.489 1.15Z" fill="#fff"/><path d="M40.88 12.54a3.144 3.144 0 0 0 1.643-.46 3.047 3.047 0 0 0 1.14-1.245 2.966 2.966 0 0 0-.357-3.193 3.09 3.09 0 0 0-1.388-.974 3.157 3.157 0 0 0-1.705-.103c-.567.123-1.087.4-1.5.798a3.007 3.007 0 0 0-.84 1.456h-3.412a.72.72 0 0 0-.504.205.69.69 0 0 0-.21.493v3.49h-2.085v-2.87a.686.686 0 0 0-.102-.359.707.707 0 0 0-.276-.257L16.04 1.574a.726.726 0 0 0-.678.004L.54 9.525a.707.707 0 0 0-.271.256.686.686 0 0 0-.1.356v9.17a21.114 21.114 0 0 0 3.583 11.728 21.808 21.808 0 0 0 9.558 7.9l2.057.878a.727.727 0 0 0 .568.001l2.316-.978a21.858 21.858 0 0 0 9.445-7.455h6.052v3.489a.69.69 0 0 0 .21.493.718.718 0 0 0 .504.205h3.412a3.023 3.023 0 0 0 1.235 1.78 3.143 3.143 0 0 0 4.082-.468 2.987 2.987 0 0 0 .782-2.01c0-.741-.278-1.456-.782-2.01a3.144 3.144 0 0 0-4.082-.467 3.023 3.023 0 0 0-1.235 1.78h-2.699v-3.49a.69.69 0 0 0-.209-.493.721.721 0 0 0-.504-.204H20.824a3.023 3.023 0 0 0-1.235-1.78 3.144 3.144 0 0 0-4.082.468 2.987 2.987 0 0 0-.781 2.01c0 .74.278 1.456.781 2.01a3.144 3.144 0 0 0 4.082.467 3.023 3.023 0 0 0 1.235-1.78h5.101a20.495 20.495 0 0 1-8.236 6.171l-2.036.861-1.773-.756a20.39 20.39 0 0 1-8.935-7.386 19.74 19.74 0 0 1-3.35-10.965V10.55l14.114-7.567 14.526 7.573v2.45h-9.41a3.023 3.023 0 0 0-1.236-1.78 3.143 3.143 0 0 0-4.082.468 2.987 2.987 0 0 0-.781 2.01c0 .741.278 1.456.781 2.01a3.144 3.144 0 0 0 4.082.467 3.023 3.023 0 0 0 1.235-1.78h13.637c.19 0 .37-.073.504-.204a.69.69 0 0 0 .21-.493v-3.49h2.699a3.021 3.021 0 0 0 1.091 1.674c.545.422 1.22.652 1.916.653Zm0-4.651c.33 0 .652.095.925.274.274.18.487.434.614.731.126.298.158.625.094.94a1.617 1.617 0 0 1-.455.834 1.68 1.68 0 0 1-.852.446 1.7 1.7 0 0 1-.962-.093 1.657 1.657 0 0 1-.747-.6 1.603 1.603 0 0 1 .208-2.055 1.685 1.685 0 0 1 1.176-.477Zm0 25.353c.33 0 .652.096.925.275.274.179.487.433.614.73.126.298.158.625.094.941a1.617 1.617 0 0 1-.455.834 1.698 1.698 0 0 1-1.814.353 1.656 1.656 0 0 1-.747-.6 1.603 1.603 0 0 1 .208-2.055 1.685 1.685 0 0 1 1.176-.478Zm-23.063-.93c-.302 0-.6-.08-.858-.233a1.644 1.644 0 0 1-.613-.632 1.598 1.598 0 0 1 .092-1.677c.17-.245.405-.44.68-.564a1.697 1.697 0 0 1 1.706.182c.241.18.427.42.539.695v1.202a1.638 1.638 0 0 1-.612.745c-.275.183-.6.281-.934.282Zm0-16.98c-.302 0-.6-.08-.858-.232a1.644 1.644 0 0 1-.613-.633 1.599 1.599 0 0 1 .092-1.677c.17-.245.405-.44.68-.564a1.698 1.698 0 0 1 1.706.183c.241.179.427.42.539.694v1.202a1.637 1.637 0 0 1-.612.745c-.275.183-.6.282-.934.282Z" fill="#fff"/></svg>