<svg width="40" height="40" fill="none" xmlns="http://www.w3.org/2000/svg"><path d="M39.252 24.274c.461-.452.748-1.08.748-1.772a2.505 2.505 0 0 0-3.173-2.404l-5.663-3.238a2.488 2.488 0 0 0-.665-1.133V9.268c.462-.452.749-1.08.749-1.773a2.505 2.505 0 0 0-3.173-2.404l-5.663-3.237A2.512 2.512 0 0 0 19.984 0a2.512 2.512 0 0 0-2.428 1.854l-1.488.85a.586.586 0 0 0 .582 1.018l.924-.528c.114.385.32.731.592 1.015L13.64 6.795a2.488 2.488 0 0 0-.59-1.015l1.217-.697a.586.586 0 0 0-.581-1.017l-1.794 1.025A2.505 2.505 0 0 0 8.72 7.495c0 .694.287 1.321.749 1.774v6.457a2.489 2.489 0 0 0-.665 1.134l-5.653 3.232a2.52 2.52 0 0 0-.64-.083A2.505 2.505 0 0 0 0 22.502c0 .676.274 1.29.716 1.74v6.523A2.473 2.473 0 0 0 0 32.505a2.505 2.505 0 0 0 2.512 2.493c.22 0 .435-.029.64-.082l5.652 3.23A2.513 2.513 0 0 0 11.23 40a2.513 2.513 0 0 0 2.428-1.853l5.663-3.237a2.526 2.526 0 0 0 1.323 0l5.663 3.237A2.513 2.513 0 0 0 28.736 40a2.513 2.513 0 0 0 2.428-1.853l5.662-3.237c.211.057.433.088.662.088A2.505 2.505 0 0 0 40 32.506c0-.693-.287-1.32-.749-1.773v-6.459ZM31.146 18.2l4.523 2.586a2.48 2.48 0 0 0-.59 1.015l-4.524-2.586a2.47 2.47 0 0 0 .59-1.015Zm-2.41-12.025c.739 0 1.34.592 1.34 1.32 0 .728-.601 1.32-1.34 1.32-.739 0-1.34-.592-1.34-1.32 0-.728.601-1.32 1.34-1.32Zm.591 3.742v5.16a2.526 2.526 0 0 0-1.182 0v-5.16a2.526 2.526 0 0 0 1.182 0Zm-.591 6.262c.739 0 1.34.593 1.34 1.32 0 .546-.338 1.016-.818 1.216l-.009.004a1.35 1.35 0 0 1-1.025 0l-.01-.004a1.322 1.322 0 0 1-.818-1.215c0-.729.601-1.32 1.34-1.32ZM22.393 3.194l4.524 2.585a2.49 2.49 0 0 0-.59 1.016l-4.525-2.586a2.49 2.49 0 0 0 .591-1.015Zm-2.41-2.022c.74 0 1.34.592 1.34 1.32 0 .728-.6 1.32-1.34 1.32a1.331 1.331 0 0 1-1.339-1.32c0-.728.601-1.32 1.34-1.32Zm-6.989 8.096c.315-.308.548-.697.665-1.133l5.665-3.239a2.524 2.524 0 0 0 1.32 0l5.664 3.238c.117.437.35.826.665 1.135v6.457a2.49 2.49 0 0 0-.665 1.134l-5.663 3.238a2.524 2.524 0 0 0-1.322 0l-5.587-3.194-.077-.044a2.49 2.49 0 0 0-.665-1.133V9.268Zm13.923 9.947-4.524 2.586a2.486 2.486 0 0 0-.59-1.015l4.523-2.585c.114.384.32.73.591 1.014Zm-5.594 3.287c0 .728-.6 1.32-1.34 1.32a1.331 1.331 0 0 1-1.339-1.32c0-.728.601-1.32 1.34-1.32.738 0 1.34.591 1.34 1.32Zm-3.158-1.716c-.272.283-.477.63-.591 1.015l-4.523-2.586c.271-.283.476-.63.59-1.015l4.524 2.586ZM11.23 6.175c.74 0 1.34.592 1.34 1.32 0 .728-.6 1.32-1.34 1.32-.738 0-1.34-.592-1.34-1.32 0-.728.602-1.32 1.34-1.32Zm.592 3.742v5.16a2.527 2.527 0 0 0-1.182 0v-5.16a2.526 2.526 0 0 0 1.182 0Zm-.592 6.262c.74 0 1.34.593 1.34 1.32a1.322 1.322 0 0 1-.826 1.22 1.35 1.35 0 0 1-1.027 0l-.009-.004a1.32 1.32 0 0 1-.817-1.215c0-.729.6-1.32 1.34-1.32ZM8.821 18.2c.114.385.32.732.591 1.015l-4.495 2.57a2.489 2.489 0 0 0-.598-1.011L8.822 18.2Zm-6.31 15.626c-.738 0-1.34-.592-1.34-1.32 0-.728.602-1.32 1.34-1.32.74 0 1.34.592 1.34 1.32 0 .728-.6 1.32-1.34 1.32Zm-.623-3.735v-5.175a2.527 2.527 0 0 0 1.182.015v5.145a2.528 2.528 0 0 0-1.182.015Zm.624-6.27a1.33 1.33 0 0 1-1.34-1.32c0-.727.6-1.32 1.34-1.32.738 0 1.34.593 1.34 1.32 0 .729-.602 1.32-1.34 1.32Zm6.31 12.986-4.503-2.574c.274-.281.481-.626.598-1.01l4.495 2.569c-.271.283-.476.63-.59 1.015Zm2.41 2.021a1.33 1.33 0 0 1-1.34-1.32c0-.728.6-1.32 1.34-1.32.738 0 1.34.592 1.34 1.32 0 .728-.602 1.32-1.34 1.32Zm2.41-2.021a2.487 2.487 0 0 0-.592-1.015l4.524-2.585c.114.385.319.73.59 1.014l-4.523 2.586Zm4.58-6.075a2.49 2.49 0 0 0-.666 1.136l-5.664 3.236a2.523 2.523 0 0 0-1.322 0l-5.625-3.215a2.489 2.489 0 0 0-.703-1.187v-6.397c.336-.318.585-.726.703-1.186l5.625-3.216a2.524 2.524 0 0 0 1.323 0l5.586 3.193.077.044c.117.437.35.827.665 1.135v6.458Zm2.282 2.99-.003.002a1.35 1.35 0 0 1-.517.102c-.739 0-1.34-.592-1.34-1.32 0-.728.601-1.32 1.34-1.32.738 0 1.34.592 1.34 1.32 0 .546-.34 1.016-.82 1.216Zm5.822 3.085-4.523-2.586c.271-.283.477-.63.59-1.014l4.524 2.585a2.47 2.47 0 0 0-.59 1.015Zm2.41 2.021c-.739 0-1.34-.592-1.34-1.32 0-.728.601-1.32 1.34-1.32.739 0 1.34.592 1.34 1.32 0 .728-.601 1.32-1.34 1.32Zm2.41-2.021a2.488 2.488 0 0 0-.591-1.015l4.524-2.585c.114.385.319.73.59 1.014l-4.523 2.586Zm4.58-6.075a2.49 2.49 0 0 0-.666 1.136l-5.663 3.236a2.523 2.523 0 0 0-1.322 0l-5.664-3.237a2.488 2.488 0 0 0-.664-1.134V28.67a.586.586 0 1 0-1.172 0v1.414a2.527 2.527 0 0 0-1.182 0v-5.16a2.523 2.523 0 0 0 1.182 0v1.012a.586.586 0 1 0 1.172 0v-1.662c.314-.308.547-.697.664-1.133l5.628-3.218.035-.02a2.527 2.527 0 0 0 1.323 0l5.663 3.238c.117.436.35.826.666 1.134v6.457Zm1.762 3.094c-.183 0-.358-.037-.517-.103h-.002c-.481-.2-.82-.67-.82-1.217 0-.728.6-1.32 1.34-1.32.738 0 1.34.592 1.34 1.32 0 .728-.602 1.32-1.34 1.32Zm-.59-3.742v-5.16a2.522 2.522 0 0 0 1.182 0v5.16a2.527 2.527 0 0 0-1.182 0Zm.59-6.262c-.738 0-1.34-.592-1.34-1.32 0-.728.602-1.32 1.34-1.32.74 0 1.34.591 1.34 1.32 0 .728-.6 1.32-1.34 1.32Z" fill="#fff"/></svg>