<svg width="40" height="40" fill="none" xmlns="http://www.w3.org/2000/svg"><path d="M25.848 39.127C34.032 36.62 40 28.994 40 20c0-8.504-5.335-15.784-12.834-18.671a.623.623 0 0 0-.138-.053A19.902 19.902 0 0 0 20 0C8.972 0 0 8.972 0 20c0 8.994 5.968 16.62 14.152 19.127a.627.627 0 0 0 3.973.785h.008a19.868 19.868 0 0 0 3.734 0h.008a19.86 19.86 0 0 0 3.973-.785ZM1.25 20c0-.633.032-1.258.094-1.875H15c1.379 0 2.5 1.121 2.5 2.5v17.958a18.61 18.61 0 0 1-2.5-.511v-7.447a3.754 3.754 0 0 0-3.75-3.75H9.92A2.504 2.504 0 0 0 7.5 25 2.503 2.503 0 0 0 5 27.5C5 28.879 6.121 30 7.5 30a2.504 2.504 0 0 0 2.42-1.875h1.33c1.379 0 2.5 1.121 2.5 2.5v7.053C6.475 35.098 1.25 28.148 1.25 20Zm7.5 7.5a1.251 1.251 0 0 1-2.5 0 1.251 1.251 0 0 1 2.5 0Zm10 11.207V20.625a3.754 3.754 0 0 0-3.75-3.75H1.512C3.004 8.019 10.726 1.25 20 1.25c2.19 0 4.294.379 6.25 1.072v8.928A3.754 3.754 0 0 0 30 15h1.33a2.504 2.504 0 0 0 2.42 1.875c1.379 0 2.5-1.121 2.5-2.5s-1.121-2.5-2.5-2.5a2.504 2.504 0 0 0-2.42 1.875H30a2.503 2.503 0 0 1-2.5-2.5V2.817c6.616 2.9 11.25 9.51 11.25 17.183 0 8.148-5.225 15.098-12.5 17.678V26.25c0-1.379 1.121-2.5 2.5-2.5h1.33a2.504 2.504 0 0 0 2.42 1.875c1.379 0 2.5-1.121 2.5-2.5s-1.121-2.5-2.5-2.5a2.504 2.504 0 0 0-2.42 1.875h-1.33A3.754 3.754 0 0 0 25 26.25v11.822a18.61 18.61 0 0 1-2.5.51v-.532a.625.625 0 0 0-1.25 0v.657a18.48 18.48 0 0 1-2.5 0ZM32.5 14.375a1.251 1.251 0 0 1 2.5 0 1.251 1.251 0 0 1-2.5 0Zm-1.25 8.75a1.251 1.251 0 0 1 2.5 0 1.251 1.251 0 0 1-2.5 0Z" fill="#fff"/><path d="M21.25 13.75v16.788a.625.625 0 0 0 1.25 0V13.75A3.754 3.754 0 0 0 18.75 10h-1.33A2.504 2.504 0 0 0 15 8.125a2.502 2.502 0 0 0-2.5 2.5c0 1.379 1.121 2.5 2.5 2.5a2.504 2.504 0 0 0 2.42-1.875h1.33c1.379 0 2.5 1.121 2.5 2.5ZM15 11.875a1.251 1.251 0 0 1 0-2.5 1.251 1.251 0 0 1 0 2.5Zm6.431 20.806a.657.657 0 0 0-.181.444.66.66 0 0 0 .181.444.657.657 0 0 0 .444.181.657.657 0 0 0 .444-.181.646.646 0 0 0 .181-.444.657.657 0 0 0-.181-.444.654.654 0 0 0-.888 0Zm0 2.5a.657.657 0 0 0-.181.444.66.66 0 0 0 .181.444.657.657 0 0 0 .444.181.657.657 0 0 0 .444-.181.657.657 0 0 0 .181-.444.657.657 0 0 0-.181-.444.654.654 0 0 0-.888 0Z" fill="#fff"/></svg>