<svg width="44" height="44" fill="none" xmlns="http://www.w3.org/2000/svg"><path d="M40.245 24.979a2.983 2.983 0 0 1-2.98-2.98 2.983 2.983 0 0 1 2.98-2.979 2.983 2.983 0 0 1 2.98 2.98 2.983 2.983 0 0 1-2.98 2.979Zm0-4.755a1.777 1.777 0 0 0 0 3.552c.98 0 1.776-.797 1.776-1.776 0-.98-.797-1.776-1.776-1.776Zm0-13.492a2.983 2.983 0 0 1-2.98-2.98 2.983 2.983 0 0 1 2.98-2.979 2.983 2.983 0 0 1 2.98 2.98 2.983 2.983 0 0 1-2.98 2.979Zm0-4.755a1.777 1.777 0 0 0 0 3.552c.98 0 1.776-.797 1.776-1.776 0-.98-.797-1.776-1.776-1.776Z" fill="#fff"/><path d="m38.143 38.992-4.911-4.911h-4.876v-1.204h5.125c.16 0 .313.064.425.176l5.088 5.088-.851.85Zm-.312-16.39h-4.595v-1.203h4.595v1.203Zm-4.35-11.479h-5.126V9.92h4.877l4.91-4.911.852.85-5.088 5.088a.6.6 0 0 1-.425.176Z" fill="#fff"/><path d="M40.245 43.227a2.983 2.983 0 0 1-2.98-2.98 2.983 2.983 0 0 1 2.98-2.978 2.983 2.983 0 0 1 2.98 2.979 2.983 2.983 0 0 1-2.98 2.979Zm0-4.755a1.777 1.777 0 0 0 0 3.552c.98 0 1.776-.797 1.776-1.776 0-.98-.797-1.776-1.776-1.776Zm-22.941-8.086c-4.624 0-8.386-3.762-8.386-8.386 0-4.624 3.762-8.386 8.386-8.386 4.624 0 8.386 3.762 8.386 8.386 0 4.624-3.762 8.386-8.386 8.386Zm0-15.568c-3.96 0-7.183 3.222-7.183 7.182a7.19 7.19 0 0 0 7.183 7.183c3.96 0 7.183-3.222 7.183-7.183 0-3.96-3.222-7.182-7.183-7.182Z" fill="#fff"/><path d="M17.304 27.98a5.987 5.987 0 0 1-5.98-5.98 5.987 5.987 0 0 1 5.98-5.98 5.987 5.987 0 0 1 5.98 5.98 5.987 5.987 0 0 1-5.98 5.98Zm0-10.756A4.782 4.782 0 0 0 12.527 22a4.782 4.782 0 0 0 4.777 4.777A4.782 4.782 0 0 0 22.081 22a4.782 4.782 0 0 0-4.777-4.776Z" fill="#fff"/><path d="M18.897 38.531h-3.185a1.65 1.65 0 0 1-1.648-1.648c0-1.438-.933-2.337-1.806-2.699-.873-.361-2.169-.386-3.186.632a1.637 1.637 0 0 1-1.165.482c-.44 0-.854-.171-1.165-.483l-2.253-2.252a1.637 1.637 0 0 1-.483-1.166c0-.44.172-.854.483-1.165 1.017-1.017.993-2.312.631-3.185-.362-.873-1.26-1.806-2.699-1.806a1.65 1.65 0 0 1-1.648-1.648v-3.186c0-.909.74-1.648 1.648-1.648 1.439 0 2.337-.933 2.7-1.806.36-.873.385-2.168-.632-3.185a1.637 1.637 0 0 1-.483-1.166c0-.44.172-.854.483-1.165l2.253-2.253a1.637 1.637 0 0 1 1.165-.482c.44 0 .854.171 1.165.482 1.017 1.017 2.313.993 3.186.632.873-.362 1.806-1.26 1.806-2.7a1.65 1.65 0 0 1 1.648-1.647h3.185c.909 0 1.648.74 1.648 1.648 0 1.438.933 2.337 1.806 2.699.873.361 2.169.385 3.186-.632a1.637 1.637 0 0 1 1.165-.482c.44 0 .854.171 1.165.482l2.253 2.253c.311.311.483.725.483 1.165 0 .44-.172.854-.483 1.166-1.017 1.017-.993 2.312-.631 3.185.361.873 1.26 1.806 2.699 1.806.908 0 1.648.74 1.648 1.648v3.186a1.65 1.65 0 0 1-1.648 1.648c-1.439 0-2.338.933-2.7 1.806-.36.873-.385 2.168.632 3.185.311.311.483.725.483 1.166 0 .44-.172.854-.483 1.165l-2.253 2.253a1.636 1.636 0 0 1-1.165.482c-.44 0-.854-.171-1.165-.482-1.019-1.019-2.314-.996-3.187-.634-.872.361-1.805 1.26-1.805 2.701a1.65 1.65 0 0 1-1.648 1.648Zm-7.787-5.783c.536 0 1.08.106 1.608.325 1.572.651 2.549 2.111 2.549 3.81 0 .245.2.445.444.445h3.186c.245 0 .445-.2.445-.445 0-1.7.976-3.162 2.548-3.813a4.063 4.063 0 0 1 4.497.895.441.441 0 0 0 .63 0l2.252-2.253a.442.442 0 0 0 0-.629c-1.201-1.201-1.543-2.924-.892-4.496.651-1.573 2.111-2.55 3.81-2.55a.444.444 0 0 0 .445-.444v-3.186c0-.245-.2-.445-.444-.445-1.7 0-3.16-.976-3.81-2.548-.652-1.573-.31-3.296.891-4.497a.442.442 0 0 0 0-.629l-2.253-2.253a.441.441 0 0 0-.629 0c-1.201 1.202-2.924 1.543-4.496.892a4.06 4.06 0 0 1-2.549-3.81c0-.245-.2-.445-.445-.445h-3.185c-.246 0-.445.2-.445.445a4.06 4.06 0 0 1-2.549 3.81c-1.572.652-3.295.31-4.497-.892a.441.441 0 0 0-.629 0L5.34 12.288a.441.441 0 0 0 0 .629c1.201 1.201 1.543 2.925.892 4.497-.652 1.572-2.112 2.548-3.81 2.548-.246 0-.445.2-.445.445v3.186c0 .245.2.445.444.445 1.7 0 3.16.976 3.81 2.548.652 1.573.31 3.296-.891 4.497a.442.442 0 0 0 0 .63l2.252 2.252a.441.441 0 0 0 .63 0 4.066 4.066 0 0 1 2.888-1.217Z" fill="#fff"/></svg>