<svg width="36" height="36" fill="none" xmlns="http://www.w3.org/2000/svg"><path d="M35.024 34.279H30.54c.749-.685 1.498-.744 1.542-.746h-.009l-.06-1.49c-.088.004-2.066.11-3.383 2.236h-2.14c1.588-2.61 5.679-3.733 5.744-3.751a.745.745 0 1 0-.381-1.44c-.232.06-5.462 1.484-7.035 5.19h-4.992l6.01-5.407a.745.745 0 0 0 .246-.554V10.433h.745a.745.745 0 0 0 .745-.745V5.962h1.49a.745.745 0 0 0 .746-.746V.746a.745.745 0 0 0-1.49 0V4.47H7.451V.745a.745.745 0 1 0-1.49 0v4.471c0 .412.333.746.745.746h1.49v3.726c0 .411.334.745.745.745h.745c.002 18.057-.009 17.165.015 17.286a.75.75 0 0 0 .204.38l6.18 6.18H10.95c-1.572-3.707-6.803-5.13-7.034-5.192a.745.745 0 0 0-.382 1.44c.046.013 4.153 1.137 5.745 3.752H7.14c-1.317-2.126-3.296-2.232-3.384-2.235l-.06 1.49-.008-.001c.043.002.793.06 1.54.746H.746a.745.745 0 0 0 0 1.49h34.279a.745.745 0 0 0 0-1.49ZM26.082 5.962v2.98H9.687v-2.98h16.395Zm-12.668 4.47v11.924a.745.745 0 0 0 1.49 0V10.433h9.687v17.552l-6.68 6.012-5.68-5.68h9.38a.745.745 0 0 0 0-1.49H11.178V10.433h2.236Z" fill="#fff"/><path d="M32.044 19.375a2.238 2.238 0 0 0 2.236-2.235 2.238 2.238 0 0 0-2.236-2.236 2.238 2.238 0 0 0-2.235 2.236 2.238 2.238 0 0 0 2.235 2.235Zm0-2.98a.746.746 0 1 1-.001 1.492.746.746 0 0 1 .001-1.492ZM4.47 24.591a2.238 2.238 0 0 0 2.236-2.235A2.238 2.238 0 0 0 4.47 20.12a2.238 2.238 0 0 0-2.236 2.236A2.238 2.238 0 0 0 4.47 24.59Zm0-2.98a.746.746 0 1 1-.002 1.492.746.746 0 0 1 .002-1.493Zm0-8.943a2.238 2.238 0 0 0 2.236-2.235A2.238 2.238 0 0 0 4.47 8.197a2.238 2.238 0 0 0-2.236 2.236 2.238 2.238 0 0 0 2.236 2.235Zm0-2.98a.746.746 0 1 1-.002 1.492.746.746 0 0 1 .002-1.492Z" fill="#fff"/></svg>