<svg width="299" height="741" fill="none" xmlns="http://www.w3.org/2000/svg"><path d="m123.542 139.689 8.223 2.471-10.344 9.416 3.965 4.356m-1.844-16.243c7.667-5.061 21.733-13.513 33.666-24.261m-33.666 24.261-91.267 79.096c-6.436 3.867-13.115.012-4.761-9.605 8.264-9.514 24.584-24.759 32.218-31.319m63.81-38.172-15.86-17.424m-1.689-8.418-3.267 2.974 4.956 5.444m-1.689-8.418L69.316 73.556m36.677 40.291 4.083-3.717m52.796-31.133 6.533-5.947 6.443 7.079m-12.976-1.132c-3.641 6.5-15.342 15.956-20.737 19.872l-8.921-9.8m29.658-10.072L123.221 35.44m39.651 43.558 13.987 15.366m-1.011-14.234 3.266-2.974 6.939 7.623-7.077 6.442m-3.128-11.091c-4.123 6.407-15.249 20.651-26.774 26.363l8.134 8.936m21.768-24.208 3.965 4.356 5.444-4.956 3.965 4.356m-13.374-3.756a63.277 63.277 0 0 1-2.117 3.143m15.491.613 7.622-6.938 9.417 10.345m-17.039-3.407c-1.664 2.889-4.419 6.913-8.272 11.692m25.311-8.285c-23.825 36.821-61.829 62.587-77.852 70.867m77.852-70.867 9.799-8.92m-9.799 8.92 16.355 17.968m70.349 33.536 45.975-46.829-31.224-34.302-49.543 45.097m34.792 36.034 38.309 38.805 18.762-11.105 10.637-15.656 9.507-2.68 10.888-9.912 5.452 5.989m-93.555-5.441-27.766 25.274m27.766-25.274-34.792-36.034m136.293 72.077 8.906-12.089-16.852-18.513m7.946 30.602 7.93 8.712m-7.93-8.712-2.58 2.635m10.51 6.077 3.811-3.469 28.25 31.035-11.62 25.512m-20.441-53.078a591.23 591.23 0 0 1-2.22 3.03m22.661 50.048 6.443 7.078m-6.443-7.078c-22.773 31.374-82.619 100.508-148.166 139.08m154.609-132.002 3.267-2.973 77.813 85.483m-81.08-82.51c-9.281 14.086-19.564 27.422-30.369 39.912m122.353 54.577 10.033 41.644m-10.033-41.644-10.904-11.979m10.904 11.979c-7.321 17.905-16.948 34.269-27.982 49.096m38.015-7.452c-13.519 25.249-59.775 85.476-136.65 124.389m136.65-124.389c35.714-32.51 36.54-60.475 32.488-70.394M397.775 515.32l-41.065-13.396m41.065 13.396c-24.602 14.094-57.552 21.716-70.951 23.765m29.886-37.161-10.903-11.979m10.903 11.979c4.733-1.664 10.133-3.812 16.036-6.444m-102.031-93.496-2.722 2.478 77.814 85.483m-75.092-87.961-4.81-8.565m4.81 8.565c8.09-4.285 18.899-10.744 31.34-19.16m-36.15 10.595-24.856 7.691-28.25-31.035 2.722-2.478m50.384 25.822a276.689 276.689 0 0 0 11.894-6.619m-62.278-19.203-7.93-8.712m7.93 8.712c6.915-3.652 15.886-8.965 26.363-15.878m-34.293 7.166-12.92 8.774-17.347-19.057 14.407-7.14m15.86 17.423 23.665-18.842m-39.525 1.419-48.076-52.814m48.076 52.814 15.906-12.055m-63.982-40.759-16.089 9.667-29.737-32.669-4.9 4.46-1.983-2.178m52.709 20.72-32.592-38.036m14.323-94.68-1.633 1.486m1.633-1.486 26.268 28.857 10.344-9.416-24.196-26.581-.155-.17m375.841 188.686c9.106-8.953 32.54-24.841 53.425-16.771m0 0 13.382 14.701-5.583 19.021 10.961 21.883m0 0 161.574 177.5c-5.527 26.747-14.184 49.896-24.997 69.875M585.673 376.142c-7.624 14.741-20.195 34.836-37.128 56.548M376.363 560.698l-8.921-9.801-25.254 5.067-15.364-16.879m49.539 21.613 158.901 178.938c8.231-.155 17.78-1.065 28.194-2.931M376.363 560.698a259.613 259.613 0 0 0 20.332-7.193m-69.871-14.42c-3.291-7.625-4.101-28.128 18.983-49.14m-82.205-202.954c11.254-6.593 36.591-24.546 47.909-43.61m-47.909 43.61-.203-6.784-1.982-2.178m2.185 8.962-10.015 7.591m57.924-51.201-14.82-17.375c-2.759 4.371-6.808 9.056-11.435 13.687m26.255 3.688 15.08-15.15m63.057-72.903-4.299 13.87-25.361 25.48m-96.474 63.782c-4.649 3.564-8.868 6.569-12.01 8.679l9.913 10.89m2.097-19.569c7.006-5.371 14.99-12.01 21.742-18.767m-21.742 18.767-39.425-43.311m61.167 24.544-39.794-43.718m-37.825 133.432-3.275-3.707m3.275 3.707 13.549-10.269m-62.155-44.768-33.008-37.376m33.008 37.376 20.415-18.584m-20.415 18.584 42.057 47.622m23.001-106.843-32.076-35.237m32.076 35.237-22.321 20.318m-9.755-55.555-65.99 57.082m65.99-57.082-4.46-4.901m-61.53 61.983-2.925-3.311m0 0-12.673-14.35c-7.645 2.976-12.985 10.16-14.7 13.38l6.711 7.831m20.662-6.861 64.455-58.672m0 0-12.887-14.156c5.924-4.065 18.463-13.621 21.233-19.328l49.563 54.448m-66.016 59.811 16.456 17.163m-16.456-17.163 22.322-20.319m17.071 61.407-5.843 2.331 1.495 12.578-6.533 5.947-6.87 4.262m17.751-25.118 10.344-9.416m-10.344 9.416-22.937-23.925m5.186 49.043 3.274 3.708m-72.825-156.45 2.973 3.267-3.266 2.974-2.974-3.267-2.178 1.982 8.426 9.256-3.811 3.469 6.939 7.623-2.178 1.982-15.364-16.879-35.388 32.213m46.821-42.62-9.417-10.345 1.633-1.487m0 0a245.374 245.374 0 0 0 13.894-8.796m-4.433-59.554-7.622 6.938m7.622-6.938-43.12-47.37c-5.782-6.352-22.395-13.665-42.585 7.9m109.699 65.83c3.893-3.506 7.663-7.14 11.085-10.789M54.943 57.766c3.925-5.896 15.322-15.54 29.512-6.951l41.137 45.191m-70.65-38.24-5.451-5.99m5.452 5.99 7.93 8.712m62.719 29.528-11.433 10.407m-66.65-56.814-3.47-3.812 4.083-3.716m-.614 7.528 1.983 2.178M84.716 211.87l-24.499 22.301 8.426 9.256-38.11 34.69 9.417 10.345 34.299-31.221 3.47 3.811 6.784-.202 6.443 7.078m-6.23-56.058 7.93 8.711-7.621 6.938m0 0-11.978 10.903 14.869 16.334 11.977-10.902-.991-1.089m-13.877-15.246 5.451 5.99m11.96 7.035-3.038 2.765-.496-.544m3.534-2.221 8.627 10.068m0 0-20.117 17.316m7.956-25.163-3.47-3.812m-4.956-5.444-7.621 6.938 4.956 5.444 7.622-6.938m-4.957-5.444 4.957 5.444m4.99-228.56-7.93-8.712-9.8 8.92m17.73-.208 5.988-5.452 8.922 9.801-5.989 5.451m-8.921-9.8 8.921 9.8m0 0 8.426 9.256m0 0 4.899-4.46 5.452 5.99-4.9 4.46m-5.451-5.99 5.451 5.99m-73.73 16.337-37.02 33.7 3.469 3.811m46.933-22.81-37.02 33.7-2.479-2.723m39.499-30.976 6.443 7.078M15.94 89.287 2.825 102.221c-1.468 1.668-2.62 4.777.65 8.369 2.973 3.267 6.207.987 6.784-.202 13.778 13.677 32.265 34.351 34.848 45.938 2.679 5.859 2.531 21.592-19.486 37.651-5.577 4.081-15.195 12.836-9.052 15.209 6.143 2.374 26.086-19.099 35.29-30.132 2.998-8.371 6.914-27.401-1.413-36.548l-34.694-38.114 7.622-6.938m-7.434-8.167 7.434 8.167m51.394-17.909c-10 5.784-30.005 24.127-21.315 43.297 1.885 4.259 4.713 10.646 14.723 19.455 3.626 3.191 8.232 15.605 4.078 24.166m0 0-12.522 11.398m12.522-11.398 8.808-10.01-2.974-3.266 24.499-22.301-1.982-2.178 7.077-6.443m-47.95 55.596c3.427-10.089 4.905-26.259-1.014-33.924-16.705-21.632-14.395-22.74-16.168-33.073.488-10.401 1.742-12.577 7.711-19.963 6.087-7.532 15.277-14.57 19.055-17.345m159.867 213.902-22.303-24.502-10.978 9.993m33.281 14.509 2.177-1.983 3.47 3.812 4.355-3.965 7.483 7.127-2.722 2.478 3.75 4.119m0 0-15.906 12.055m15.906-12.055 5.891-4.464m-21.797 16.519-4.526-4.971-22.902 19.57m27.428-14.599-10.604 8.037m-19.418-83.671 24.426 26.834 13.325 4.796-.537 11.44 8.426 9.256m0 0 14.009-9.764m-14.009 9.764 6.179 6.789m-8.125-98.607 22.865-20.814m0 0 24.286 26.68 4.615 12.725 7.873-1.194 10.904 11.979 5.842-2.331 4.744 5.211m0 0 3.64-3.657m0 0-5.068-5.568-3.811 3.469-6.443-7.078 8.166-7.433-19.33-21.235-4.306 2.924-6.939-7.622 14.155-12.885 24.286 26.679 3.315-4.013 6.492 6.038 2.178-1.982-5.948-6.534 3.762-2.429 7.483 7.127 5.445-4.956 6.32 5.602m-29.757 29.896 29.757-29.896m-138.802 124.46 15.264 16.769m0 0 3.463-2.758m-3.463 2.758-5.194 4.136m8.657-6.894 11.996 11.776m-11.996-11.776 22.511-17.923m-10.515 29.699a505.639 505.639 0 0 1-10.025 6.794m10.025-6.794a590.518 590.518 0 0 0 22.536-16.493m-43.189 11.611 10.628 11.676m35.915 35.081 4.649 9.482m0 0 19.607-13.458m-19.607 13.458 90.298 99.198m-70.691-112.656 94.595 100.664m-94.595-100.664c29.026-19.633 66.942-49.919 99.984-88.114m-5.389 188.778c-8.535 4.74-16.605 8.737-23.904 11.992m23.904-11.992c32.103-17.827 70.783-46.166 99.76-85.105M402.039 294.71l94.371 103.673M235.521 74.596l44.098-40.142 28.251 31.035-44.098 40.142m-28.251-31.035 28.251 31.035m-28.251-31.035-16.333 14.867m44.584 16.168-54.987 50.053 2.974 3.267 49.542-45.098m-77.223-7.185 23.701 26.037 17.965-16.354m-41.666-9.683c-9.192 11.402-24.635 27.105-46.431 41.954m46.431-41.954-15.785-2.029m15.785 2.029-7.219-12.305m48.885 21.988 13.765-4.565-20.321-22.323m257.51 398.819-18.51 16.85-10.904-11.979 18.511-16.849m10.903 11.978 9.197 10.103m-9.197-10.103-10.903-11.978m20.1 22.081 14.83-.113 1.611-14.635m-16.441 14.748a415.162 415.162 0 0 0 16.441-14.748m-16.441 14.748c-19.177 16.291-40.578 31.352-63.939 43.499m80.38-58.247c17.777-16.814 33.267-34.352 46.209-50.947m-46.209 50.947-9.305-10.222m0 0 17.966-16.354-10.904-11.979-17.966 16.354m10.904 11.979-10.904-11.979m-16.332 14.868 16.332-14.868m-85.432 92.069 166.763 183.2m-166.763-183.2a282.663 282.663 0 0 0 25.261-11.621m141.502 194.821c9.169-1.642 19.009-4.024 29.21-7.282M421.956 541.884l170.712 187.539m0 0c45.007-14.374 97.05-45.793 129.582-105.906M548.545 432.69 722.25 623.517M262.424 315.226l15.007-11.949c11.914-5.868 38.286-22.904 48.453-44.106l17.025-17.388m-80.485 73.443 12.021 13.206m0 0c24.551-18.854 52.764-43.387 80.742-73.161m-12.278-13.488 12.278 13.488m-12.278-13.488 27.342-27.927m-15.064 41.415a649.897 649.897 0 0 0 26.006-29.394m-10.942-12.021 10.942 12.021m-10.942-12.021 18.057-18.442m-7.115 30.463a618.064 618.064 0 0 0 16.265-20.41m-9.15-10.053 9.15 10.053m-9.15-10.053 6.706-6.849m2.444 16.902a586.049 586.049 0 0 0 5.846-7.795m-8.29-9.107 8.29 9.107M52.206 38.354l61.953 68.059m-61.954-68.06-4.083 3.718m4.084-3.717 30.487-27.752m31.466 95.811-4.083 3.717M48.122 42.07l61.954 68.06M82.693 10.602l85.6 94.037m0 0c3.23-3.444 6.149-6.901 8.566-10.276" stroke="#BA77FD"/></svg>