<svg width="316" height="449" fill="none" xmlns="http://www.w3.org/2000/svg"><mask id="b" fill="#fff"><path fill-rule="evenodd" clip-rule="evenodd" d="M21.7 0 0 23.186v397.957L24.758 449h267.623L316 420.969V23.631L292.046 0H21.7Z"/></mask><path d="m0 23.186-.73-.684-.27.289v.395h1ZM21.7 0v-1h-.434l-.296.317.73.683ZM0 421.143h-1v.38l.253.284.747-.664ZM24.758 449l-.747.664.298.336h.45v-1Zm267.623 0v1h.465l.3-.356-.765-.644ZM316 420.969l.765.644.235-.279v-.365h-1Zm0-397.338h1v-.419l-.298-.293-.702.712ZM292.046 0l.702-.712-.292-.288h-.41v1ZM.73 23.869 22.43.683 20.97-.683-.73 22.502.73 23.87ZM1 421.143V23.186h-2v397.957h2Zm24.506 27.193L.747 420.479l-1.494 1.328 24.758 27.857 1.495-1.328ZM292.38 448H24.758v2h267.623v-2Zm22.854-27.676-23.618 28.032 1.529 1.288 23.619-28.031-1.53-1.289ZM315 23.631v397.338h2V23.631h-2ZM291.343.71l23.955 23.632 1.404-1.424-23.954-23.63-1.405 1.423ZM21.7 1h270.346v-2H21.7v2Z" fill="url(#a)" mask="url(#b)"/><defs><linearGradient id="a" x1="0" y1="58.135" x2="290.578" y2="257.657" gradientUnits="userSpaceOnUse"><stop stop-color="#C7FF51"/><stop offset="1" stop-color="#BA77FD"/></linearGradient></defs></svg>