<svg width="759" height="487" fill="none" xmlns="http://www.w3.org/2000/svg"><mask id="b" fill="#fff"><path fill-rule="evenodd" clip-rule="evenodd" d="M0 434.362V59.654L90.72 0h570.733L759 61.03v362.713L662.802 487H84.132L0 434.362Z"/></mask><path d="m0 59.654-.55-.835-.45.296v.54h1Zm0 374.708h-1v.554l.47.293.53-.847ZM90.72 0v-1h-.3l-.25.164.55.836Zm570.733 0 .531-.848L661.74-1h-.287v1ZM759 61.03h1v-.553l-.47-.294-.53.848Zm0 362.713.549.835.451-.296v-.539h-1ZM662.802 487v1h.299l.25-.164-.549-.836Zm-578.67 0-.53.848.244.152h.287v-1ZM-1 59.654v374.708h2V59.654h-2ZM90.17-.836-.55 58.82l1.1 1.67L91.268.837 90.17-.836ZM661.453-1H90.72v2h570.733v-2Zm98.077 61.183L661.984-.847 660.923.847l97.547 61.03 1.06-1.695Zm.47 363.56V61.031h-2v362.712h2Zm-96.649 64.093 96.198-63.258-1.098-1.671-96.199 63.257 1.099 1.672ZM84.133 488h578.669v-2H84.132v2ZM-.53 435.209l84.132 52.639 1.061-1.696L.53 433.514l-1.06 1.695Z" fill="url(#a)" mask="url(#b)"/><defs><linearGradient id="a" x1="36.949" y1="0" x2="383.663" y2="663.175" gradientUnits="userSpaceOnUse"><stop stop-color="#C7FF51"/><stop offset="1" stop-color="#BA77FD"/></linearGradient></defs></svg>