<svg width="871" height="237" fill="none" xmlns="http://www.w3.org/2000/svg"><mask id="b" fill="#fff"><path fill-rule="evenodd" clip-rule="evenodd" d="M45.608 0h787.077L871 42.497v155.782L836.09 237H41.582L.225 198.208l-.225.211V42.357l.226.212L45.607 0Zm825.328 0 .064.07V0h-.064ZM0 0h.377L0 .354V0Z"/></mask><path d="m832.685 0 .743-.67-.298-.33h-.445v1ZM45.608 0v-1h-.396l-.289.27.685.73ZM871 42.497h1v-.384l-.257-.286-.743.67Zm0 155.782.743.67.257-.285v-.385h-1ZM836.09 237v1h.445l.298-.33-.743-.67Zm-794.508 0-.684.729.288.271h.396v-1ZM.225 198.208l.685-.73-.684-.641-.685.641.685.73Zm-.225.211h-1v2.309l1.684-1.579-.684-.73ZM0 42.357l.684-.73L-1 40.048v2.31h1Zm.226.212-.685.729.684.642.685-.642-.684-.73ZM871 .07l-.743.669L872 2.674V.07h-1Zm-.064-.07v-1h-2.247l1.505 1.67.742-.67ZM871 0h1v-1h-1v1ZM.377 0l.684.73L2.905-1H.377v1ZM0 0v-1h-1v1h1Zm0 .354h-1v2.309l1.684-1.58L0 .353ZM832.685-1H45.608v2h787.077v-2Zm39.058 42.827L833.428-.67 831.943.67l38.314 42.497 1.486-1.34ZM872 198.28V42.497h-2v155.782h2Zm-35.167 39.391 34.91-38.721-1.486-1.339-34.91 38.72 1.486 1.34ZM41.582 238H836.09v-2H41.582v2Zm.684-1.729L.91 197.478l-1.369 1.459 41.356 38.792 1.369-1.458ZM-.46 197.478l-.225.212 1.368 1.459.226-.212-1.369-1.459ZM-1 42.357v156.062h2V42.357h-2Zm1.91-.518-.226-.211-1.368 1.458.225.212L.91 41.839ZM44.924-.729-.46 41.839l1.37 1.459L46.292.729 44.923-.729Zm826.819.13-.064-.07-1.485 1.338.063.071 1.486-1.339ZM870 0v.07h2V0h-2Zm.936 1H871v-2h-.064v2ZM.377-1H0v2h.377v-2Zm.307 2.083.377-.354L-.307-.729l-.377.353L.684 1.083ZM-1 0v.354h2V0h-2Z" fill="url(#a)" mask="url(#b)"/><defs><linearGradient id="a" x1="0" y1="41.5" x2="146.785" y2="430.661" gradientUnits="userSpaceOnUse"><stop stop-color="#C7FF51"/><stop offset="1" stop-color="#BA77FD"/></linearGradient></defs></svg>