<svg width="32" height="32" fill="none" xmlns="http://www.w3.org/2000/svg"><path d="M20.1 5.46H6.3c-1.27 0-2.3 1-2.3 2.232v20.077c0 1.232 1.03 2.23 2.3 2.23h13.8c1.27 0 2.3-.998 2.3-2.23V7.692c0-1.232-1.03-2.231-2.3-2.231Z" stroke="url(#a)" stroke-width="1.5" stroke-linecap="round" stroke-linejoin="round"/><path d="M8.602 11.04h9.2" stroke="url(#b)" stroke-width="1.5" stroke-linecap="square" stroke-linejoin="round"/><path d="M8.602 16.615h9.2" stroke="url(#c)" stroke-width="1.5" stroke-linecap="square" stroke-linejoin="round"/><path d="M8.602 22.191h4.6" stroke="url(#d)" stroke-width="1.5" stroke-linecap="square" stroke-linejoin="round"/><path d="M9.75 1H24.7c.61 0 1.195.235 1.626.653.432.419.674.986.674 1.578v21.192" stroke="url(#e)" stroke-width="1.5" stroke-linecap="square" stroke-linejoin="round"/><defs><linearGradient id="a" x1="4.896" y1="5.461" x2="26.097" y2="24.972" gradientUnits="userSpaceOnUse"><stop stop-color="#C7FF51"/><stop offset="1" stop-color="#BA77FD"/></linearGradient><linearGradient id="b" x1="9.049" y1="11.039" x2="9.202" y2="12.759" gradientUnits="userSpaceOnUse"><stop stop-color="#C7FF51"/><stop offset="1" stop-color="#BA77FD"/></linearGradient><linearGradient id="c" x1="9.049" y1="16.615" x2="9.202" y2="18.336" gradientUnits="userSpaceOnUse"><stop stop-color="#C7FF51"/><stop offset="1" stop-color="#BA77FD"/></linearGradient><linearGradient id="d" x1="8.825" y1="22.191" x2="9.123" y2="23.873" gradientUnits="userSpaceOnUse"><stop stop-color="#C7FF51"/><stop offset="1" stop-color="#BA77FD"/></linearGradient><linearGradient id="e" x1="10.59" y1="1" x2="30.794" y2="19.261" gradientUnits="userSpaceOnUse"><stop stop-color="#C7FF51"/><stop offset="1" stop-color="#BA77FD"/></linearGradient></defs></svg>