<svg width="32" height="32" fill="none" xmlns="http://www.w3.org/2000/svg"><path d="M19.31 16.086c5.352 0 9.692-1.927 9.692-4.305 0-2.377-4.34-4.304-9.692-4.304-5.353 0-9.693 1.927-9.693 4.304 0 2.378 4.34 4.305 9.692 4.305Z" stroke="url(#a)" stroke-width="1.5" stroke-linecap="round" stroke-linejoin="round"/><path d="M9.617 11.781v12.915c0 2.367 4.308 4.304 9.692 4.304 5.385 0 9.693-1.937 9.693-4.304V11.78" stroke="url(#b)" stroke-width="1.5" stroke-linecap="round" stroke-linejoin="round"/><path d="M29.002 18.238c0 2.368-4.308 4.305-9.692 4.305-5.385 0-9.693-1.937-9.693-4.305" stroke="url(#c)" stroke-width="1.5" stroke-linecap="round" stroke-linejoin="round"/><path d="M21.092 4.171a14.59 14.59 0 0 0-8.4-2.152C7.33 2.019 3 3.956 3 6.324c0 1.27 1.25 2.41 3.23 3.228" stroke="url(#d)" stroke-width="1.5" stroke-linecap="square" stroke-linejoin="round"/><path d="M6.23 22.467C4.25 21.65 3 20.51 3 19.24V6.324" stroke="url(#e)" stroke-width="1.5" stroke-linecap="square" stroke-linejoin="round"/><path d="M6.23 16.01C4.25 15.192 3 14.05 3 12.78" stroke="url(#f)" stroke-width="1.5" stroke-linecap="square" stroke-linejoin="round"/><defs><linearGradient id="a" x1="10.561" y1="7.477" x2="15.338" y2="20.677" gradientUnits="userSpaceOnUse"><stop stop-color="#C7FF51"/><stop offset="1" stop-color="#BA77FD"/></linearGradient><linearGradient id="b" x1="10.561" y1="11.781" x2="24.742" y2="31.375" gradientUnits="userSpaceOnUse"><stop stop-color="#C7FF51"/><stop offset="1" stop-color="#BA77FD"/></linearGradient><linearGradient id="c" x1="10.561" y1="18.238" x2="11.869" y2="25.466" gradientUnits="userSpaceOnUse"><stop stop-color="#C7FF51"/><stop offset="1" stop-color="#BA77FD"/></linearGradient><linearGradient id="d" x1="3.881" y1="2" x2="7.873" y2="13.738" gradientUnits="userSpaceOnUse"><stop stop-color="#C7FF51"/><stop offset="1" stop-color="#BA77FD"/></linearGradient><linearGradient id="e" x1="3.157" y1="6.324" x2="9.641" y2="7.917" gradientUnits="userSpaceOnUse"><stop stop-color="#C7FF51"/><stop offset="1" stop-color="#BA77FD"/></linearGradient><linearGradient id="f" x1="3.157" y1="12.781" x2="5.898" y2="16.148" gradientUnits="userSpaceOnUse"><stop stop-color="#C7FF51"/><stop offset="1" stop-color="#BA77FD"/></linearGradient></defs></svg>