<svg width="32" height="32" fill="none" xmlns="http://www.w3.org/2000/svg"><path d="M26.923 8.23H4.077C2.93 8.23 2 9.16 2 10.307v16.616C2 28.07 2.93 29 4.077 29h22.846C28.07 29 29 28.07 29 26.923V10.307c0-1.147-.93-2.077-2.077-2.077Z" stroke="url(#a)" stroke-width="1.5" stroke-linecap="round" stroke-linejoin="round"/><path d="M11.342 2h8.308a2.077 2.077 0 0 1 2.077 2.077V8.23H9.266V4.077A2.077 2.077 0 0 1 11.342 2Z" stroke="url(#b)" stroke-width="1.5" stroke-linecap="round" stroke-linejoin="round"/><path d="M8.234 15.5h14.539" stroke="url(#c)" stroke-width="1.5" stroke-linecap="square" stroke-linejoin="round"/><path d="M8.234 21.73h14.539" stroke="url(#d)" stroke-width="1.5" stroke-linecap="square" stroke-linejoin="round"/><defs><linearGradient id="a" x1="3.314" y1="8.23" x2="19.52" y2="34.086" gradientUnits="userSpaceOnUse"><stop stop-color="#C7FF51"/><stop offset="1" stop-color="#BA77FD"/></linearGradient><linearGradient id="b" x1="9.872" y1="2" x2="13.647" y2="11.266" gradientUnits="userSpaceOnUse"><stop stop-color="#C7FF51"/><stop offset="1" stop-color="#BA77FD"/></linearGradient><linearGradient id="c" x1="8.942" y1="15.5" x2="9.039" y2="17.229" gradientUnits="userSpaceOnUse"><stop stop-color="#C7FF51"/><stop offset="1" stop-color="#BA77FD"/></linearGradient><linearGradient id="d" x1="8.942" y1="21.73" x2="9.039" y2="23.459" gradientUnits="userSpaceOnUse"><stop stop-color="#C7FF51"/><stop offset="1" stop-color="#BA77FD"/></linearGradient></defs></svg>