<svg width="736" height="842" fill="none" xmlns="http://www.w3.org/2000/svg"><g clip-path="url(#a)" stroke="#BA77FD" stroke-width=".65" stroke-linecap="round" stroke-linejoin="round"><path d="m730.962 654.899-273.81 44.2 1.534 25M730.96 596.3l-128.581 28.1m128.581-34.3-85.866 20.6m-153.44 38.499-29.681 7.7m264.169 32-210.724 28.1m-13.796 1.101-49.614 7m-10.517 1.4-13.143 1.9m160.45 43.7-12.157-63.3m-4.817 1.099 12.595 63.3M-.438 755.3l93.753-4M0 774.6l157.057-6.8M0 792.799l177.648-9.9m392.969-9.7-11.5-62m-16.316 2.101 6.9 48.2m-23.111-46 6.352 48m182.246-106.101 7.557 32M684.633 662.3l7.119 32.4m-28.365-28.9 6.9 30.6M643.562 669l6.353 30.1m-24.204-25.901 5.257 27.9m-23.113-26.4 5.586 29.6M590.445 677l4.819 29.4m-21.909-26.1 4.82 28.7m-19.495-26.301 4.052 28.5M542.801 685.3l3.395 28m-18.841-25.5 4.053 27.1m-45.013-20.3 2.081 25.4m-17.96-23.101 2.19 25.2m83.893-89.4-15.443 2.4M522.65 593.6l-6.572 7.6m8.761-7.6-4.819 6.6M260.888 445.5l-3.943 109.3 102.953 15.9-5.586-107.3-93.424-17.9Zm165.597 28.9 11.171 105.7-74.586-9.4-5.695-109.1 69.11 12.8Z"/><path d="m435.138 556.5 16.647-2.2.986 13.7-16.1 2.7-74.148-10m145.012-67.2 19.276 100.1 118.286 17.1-20.7-89.8-116.862-27.4Zm-2.738 8 17.852 92.1h2.191l-18.729-95.7-1.314 3.6Zm97.586 135.8-97.586-9.8-.219-3.3 104.486 10.9-6.681 2.2Z"/><path d="m609.061 635.1-104.486-10.9-.438-3 104.924 12.6v1.3Zm-117.737-22.5 2.629-8.6 1.095 8.3m.88 7.1 6.462 49.9-8.543 1.3-5.148-49.6"/><path d="m502.931 612.3 7.448 57h-7.995l-6.462-49.9m-.874-7.1-1.095-8.3 7.229 2.2m14.897 158.5-8.215 1-12.376-95.1 8.324-1.3 12.267 95.4Z"/><path d="M521.989 764.7h-5.914l-11.938-95.4h4.709l13.143 95.4ZM256.943 554.8l-107.881 51.4 9.31-97.3 102.514-63.4-3.943 109.3Zm-38.334 25.1-45.562 20.9v-3.9l45.562-21.6v4.6Zm236.903-25.6.876 13.7 14.786 1.9-1.205-13.2-14.457-2.4Zm16.535 2.7 1.205 12.9 3.943.8-1.205-13.2-3.943-.5Zm13.254-1.5 1.533 13.4 22.453-6.8-1.096-7.1-2.19-1.3-.657-4.6-20.043 6.4Zm24.53 9.4 2.629 16.5-23 6.8-2.081-16.5 22.452-6.8Zm-24.642 7.1 2.191 16.9-3.943 1-2.3-16.7 4.052-1.2Zm-47.314 1 14.895-2.3 1.424 17.5-14.348 1.5-1.971-16.7Zm18.512-2.3 1.204 17.5 15.224 1.2-1.971-16.7-14.457-2Zm16.754 2.4 1.862 16.3 4.6.5-2.081-16.2-4.381-.6Z"/><path d="M215.212 574.7v1.7l3.724-1.7v19.4l-4.819 2.2v2.4l11.5-5v-2.9l-4.6 2.4-.109-19.3 5.257-2.4v-2l-10.953 5.2Zm-47.422 23.2v1.2l2.629-1.5v16.1l-3.505 1.8v1.9l8.433-4V611l-3.395 2-.109-16.2 3.833-1.9v-1.3l-7.886 4.3Zm191.992-27.1-28.695 34-3.833-.2L355.84 570l3.942.8Zm-32.528 33.799v-3.3l26.286-31.6 2.3.3m78.419 10.101-29.243 31h-2.957l29.79-31.7 2.41.7ZM409.4 515.8l-28.367-4.9-1.314-24.5 27.819 6.3 1.862 23.1Z"/><path d="m408.196 514.199-25.081-4.7-1.424-21.3 24.753 5.2 1.752 20.8Zm150.373 30.9-23.876-4.5-3.724-21.3 23.438 5.2 4.162 20.6Z"/><path d="m556.708 543.4-20.7-3.9-3.176-18.4 20.262 4.5 3.614 17.8Zm61.334 13.599-20.919-4-4.053-19.8 20.481 3.9 4.491 19.9Z"/><path d="m616.401 555.499-18.181-3.5-3.505-17.3 17.743 3.4 3.943 17.4ZM477.086 492c1.754 0 3.177-1.701 3.177-3.8 0-2.098-1.423-3.8-3.177-3.8s-3.176 1.702-3.176 3.8c0 2.099 1.422 3.8 3.176 3.8Zm-73.711-268.8c3.085 0 5.586-1.746 5.586-3.9s-2.501-3.9-5.586-3.9c-3.085 0-5.586 1.746-5.586 3.9s2.501 3.9 5.586 3.9Zm-13.8-74.5 3.395-2.9h2.3l16.867 8.5-.548-8.1-16.976-8.8h-2.519l-3.176 2.4.657 8.9Zm3.722 34.599-.438-4.7 2.41-1.4 5.914.3 2.191 1.2v4l-2.41-1.7-4.052.5-3.615 1.8Zm29.682-3.9-6.024-3.5-1.205-21.1 5.476 1.9 1.753 22.7Zm-66.453-116.51c3.599-5.692 4.521-11.358 2.059-12.656-2.462-1.298-7.376 2.264-10.975 7.956-3.599 5.691-4.52 11.357-2.058 12.655 2.462 1.298 7.375-2.264 10.974-7.955Zm-22.788 21.455c2.783-4.4 3.51-8.773 1.624-9.767-1.886-.995-5.67 1.767-8.453 6.167-2.782 4.4-3.509 8.773-1.623 9.767 1.885.994 5.67-1.767 8.452-6.167Zm9.727 70.657-2.3 2.5-3.833-82.4 1.862-2.5 4.271 82.4Z"/><path d="M363.07 145.799v2.7l-3.505-1.8-2.628 1.8h-4.491l-15.114 15.6v-2.5l14.457-15.8h4.929l2.738-2 3.614 2ZM388.257 467.3l-25.409-4.7-2.957-78.6 23.219 6.7 5.147 76.6Z"/><path d="m371.282 464.2-3.176-.4-3.286-78.4 3.615 1.1 2.847 77.7Zm11.828 2.199-3.285-.6-3.286-77 2.957.8 3.614 76.8Zm-38.22-6.999-20.371-3.9-5.367-256.9 17.524-12 8.214 272.8ZM226.164 789.9l79.296-83.4v-11.9l-93.972 96.7 14.676-1.4Zm149.504-174.101v1.4m.326 4.301 2.519 43.8 10.076-3.1-4.49-70.1-9.638 3.1.767 13.4"/><path d="m397.46 663.3-8.872-1.1-4.49-70.1 9.528 1.5 3.834 69.7Z"/><path d="m394.502 774.999-8.543.6-4.49-111.2 7.119-2.2 5.914 112.8Z"/><path d="m401.619 774.399-7.119.6-5.914-112.8 6.9.9 6.133 111.3Zm324.522-9.7-471.938 49.2m471.935-46.1-446.747 46.1m446.75-55.299L165.27 813.9m272.386-622.8 39.429 293.3m-42.167 69.899 19.495-2.8 23.11 4 30.009-9.7.657 6.3 2.191.6 5.257 33.7 1.533 1.2v2.7l-2.409.5-1.534-3.2-23 6 .22 3.5-1.753.7-.438-3.5-5.148 2-5.804-1.1.328 7.6h-1.643l-.766-8.3-14.676-.9.657 7.7h-2.41l-.657-8.3-20.481 2.2-.986-15.1m-43.811-385.4 1.534-4.9-1.096-6.5"/><path d="m478.73 557.8 1.205 12.9 5.257-1.3-1.533-13.6-4.929 2ZM415.202 707c1.149 0 2.081-1.029 2.081-2.3 0-1.27-.932-2.3-2.081-2.3s-2.081 1.03-2.081 2.3c0 1.271.932 2.3 2.081 2.3Zm15.554.9c.907 0 1.643-1.075 1.643-2.4 0-1.326-.736-2.4-1.643-2.4s-1.643 1.074-1.643 2.4c0 1.325.736 2.4 1.643 2.4Z"/><path d="M414.767 709c2.117 0 3.833-2.105 3.833-4.7 0-2.596-1.716-4.7-3.833-4.7s-3.833 2.104-3.833 4.7c0 2.595 1.716 4.7 3.833 4.7Zm15.772 0c1.451 0 2.628-1.701 2.628-3.8 0-2.098-1.177-3.8-2.628-3.8-1.452 0-2.629 1.702-2.629 3.8 0 2.099 1.177 3.8 2.629 3.8Zm-28.476-97.9-.876-19.9-2.191 1.5.767 18.4h2.3Z"/><path d="m401.845 608 1.862-2-.767-14.8h-1.752l.657 16.8Z"/><path d="m402.063 611.1-.219-3.1 26.833-29 3.176.4-29.79 31.7ZM233.18 462.7l.876-17.2 2.957-1.7v3.1l11.61-8v-4l2.3-1.7v18.2"/><path d="m237.231 458.1-.219-8.1 11.609-7.9v8.5l-11.39 7.5Zm137.996 150.5 10.076 1.2.109 2.6-159.795-18.7v-2.9l149.61 17.8Zm-161.11-9.9 161.548 17.1 9.747-3.4m-159.244-40.9 97.148 12.6v-1.7l-97.148-12.9m8.543 1.2 28.476-14.9m-.984 18.5 25.738-14.7m-23 15.1 25.848-14.7m1.203 18.2 25.41-14.1m-22.343 14.5 24.752-14.1m3.505 17.9 30.229-12.7m-30.229 14.4 28.477-12.3m-110.07-9.7 96.709 13.9m-100.436-12.2 97.367 13.6m59.145 33.6 37.347 4.1v2.2l-37.128-4m-42.934-27.8 30.886-12.4m-34.72 11.7 37.457 6-1.314 1.3-37.567-5.6 1.424-1.7Zm17.962-23.7.986.2-5.038-98.8-1.314-.3 5.366 98.9Zm65.06 8.8.876.1-8.652-96.2-1.314-.2 9.09 96.3Zm-21.035-98.6-1.204-.3-5.367-60.9 1.095-.4 5.476 61.6Zm2.368-66.892c1.882-1.718 1.327-5.011-1.239-7.354s-6.172-2.849-8.054-1.131c-1.882 1.718-1.327 5.011 1.239 7.354s6.172 2.849 8.054 1.131ZM362.743 104.8l-1.205-.8-2.19-46.9.547-2.8 2.848 50.5ZM213.133 481l-5.586 44.9-17.524 9.7 5.148-43.6 17.962-11Z"/><path d="m192.656 531 .11-.4 3.833-37.5 14.238-8.6-5.038 39.2m-56.737 82.199 6.243.5 15.115 1.3m-.001-8.599-15.114 7.3m15.116-6.4-13.691 6.5m448.719 13.4V618l35.486-7.9-.876-3.9.876-3.4-32.857-4.7.985 7.4m-47.86 22.6 29.243-25.3m-2.853-.401-28.476 25.5m-2.297-2.099 27.6-23.8m-27.816 25.5-1.533-16.2-3.395 1.6 1.533 14.2"/><path d="m558.681 624.2-1.315-12.3-2.3-.6m-52.129 1-7.885 8.1h-3.614l26.833-26.8 2.519.5-17.853 18.2Zm-14.351 7.599.11 1.1 2.738-.6"/><path d="m518.266 593.6-5.805 1.3-21.028 21-1.643-15.3-3.505.9 2.3 18.4"/><path d="m483.875 599.199 36.91-9.3.438 3.1-37.019 9-.329-2.8Zm23.219 44.7 40.085 3.9v.9l-39.976-3.7m.223 2.001 33.405 3.1 6.352-1.4"/><path d="m543.347 647.5-2.519-14h3.943v-2m-39.318 0 23.658 2.3v-1.9l-23.877-2.6m10.844 18.5.548 6.3 6.133-.5v-5.1m-3.395 5-.438-5.5m7.009 130.3-1.424-11.6 27.381-2.8 5.038-.6v-1.8l-34.938 3.2m31.104 10.899-1.643-11.7m-399.761-83.3 119.6-37.2v45.7l-122.776 27.9 3.176-36.4Zm155.196-34.2-35.595-3v45.7l37.457 1.6-1.862-44.3ZM606.981 605.2l-.658-7.1-36.8-5 1.096 6.9m-1.861-.3-1.424-6.4-41.729-6.2m-350.258 26.299 136.905 13.6-9.309 2.5-136.029-12.1"/><path d="m175.348 611 136.904 14v2m-128.361-29.9 144.681 15.3v-1.6m-137.674-17 23.22 2.5m-10.731-8.1 15.224 1.3M339.199 72.6l26.286 12.6 1.314 24.1-21.686-11.9 1.753 53.9m1.311 365.2-38.333-7.6v-46.7l38.333 5.7v48.6Zm.986 43.1-39.319-7.2.547-35.9 37.786 7.2.986 35.9Zm27.383 71.799-25.081 36.3 8.433.7 17.305-25-.657-12ZM319.593 781.5l-14.128 1.2V709h14.128v72.5Z"/><path d="m360.333 654.9-53.229-4.2-4.928 2.4v-2l1.095-.4 3.833-1.5 54.434 3.9m-58.597-23.6.329 21.2m5.48-22.801v21.3m72.721-28.499-36.033-3.4v-2.6l36.033 3v3Zm-33.292-97-8.433 4.4 1.205 30m-13.693 43.199v-18.9m-3.942 20.001v-19.1m6.789 14.5V581m107.77 14.2 1.752 25.8 13.691-.6-2.738-26.6m2.74-.2 2.191 26.3h8.543l-2.081-26.1m2.629 0 2.3 26.1 8.323 1.1-2.409-26.6m3.176 8.4 1.205 18.2h11.5m2.299 22.3-31.434-2.5v-1.3l31.324 2.6m-30.995 1.2 31.104 2.3"/><path d="m459.564 640.2 2.41 21-35.267-1.8m35.264 1.8-2.957 2.1-33.076-1.1 1.642 32.2 29.572.7v4l-29.024-.8m15.771-69-31.543 42.5-3.504.6 31.542-41.6 3.505-1.5Z"/><path d="m424.627 662.3 4.49 48.3h-11.171l-3.176 3.8 3.723 58.5 13.253-1.2-4.929-61.1 1.533 1.6 51.367 55.7m-67.362-96.1h4.929l25.081-34.5 1.533-2.2v-5.8m6.683 60.1-7.776-52.7 3.066-4 7.448 56.7h-2.738Z"/><path d="m456.276 689.4-6.353-56.7h-4.052l7.448 56.7h2.957Zm51.587 76.3 1.753 14.2m-31.764 3.2 19.385-8.9-1.752-5.6m-38.333 16.5 1.315-13.3"/><path d="m455.512 785.3.876-13.3 39.1-3.4 10.295-.8-3.067 12.8m5.147-14.9-54.543 4.2m29.793-2.301-51.367-55.8 3.395-5.4 54.762 60.7m-58.16-55.299-3.833-.1m7.229-5.301h-1.862m-4.164-44.099 1.643 26.6 19.824.5m3.397 19.6-.657-9.9h1.753v10.4l-1.096-.5Zm-20.7-5.9 20.043-4M398.34 715h6.681v-5.5l7.338-20.8h-7.009l-7.338 20.3m-2.52-45.9 18.619 2.3m-19.17-48.2 12.596 1.2-5.148 2.8 55.748 5.2 4.819-2.9 26.285 2.9m-12.155-134.401v4.5h1.533l-.766-4.6M403.267 310.2l4.49-.5v-3.6l-1.314.9-4.052-.2.876 3.4Zm.768-7.6 9.419-44.6 3.724-1.3 2.738 2.2-8.871 44.3-2.629-.9-4.381.3Zm26.283-114.3-15.443 69.2"/><path d="m419.148 258.4 13.581-69.4 3.067-2.4m-26.837 32v-14.3c-.876-1-2.081-1.7-3.395-2-2.957-.8-5.586-.6-8.652 1.7l-.986 1.3 1.971 14.1m13.693-73.2 3.286-1.7.876 8.2-3.615 1.6m-77.321-80 10.624-11.6m-3.835 11.1 3.177-3.9m14.784-18.6 13.143 7.2-1.314 2-11.5-6.2m-32.856 36.3 2.519 74.999h3.176l-2.847-76.7m-4.602 1.601 1.753 76 2.519-.9m-8.212 539.099 8.762 9.8h8.543v-31.4l-6.791-.7-1.862-6.5h-9.528m62.975 36.601-44.796.1m43.591-29.1-43.591-.4"/><path d="m330.104 714.5-6.571-.7-3.943-4.8h1.752l-1.752-55.9m-184.766 98.3 56.295 41.4 20.372-1.5-75.9-53.7-.767 13.8ZM391.438 309l5.257 86m-.875-74.7-2.957 1.3m3.286 4.299-3.286 1.4m4.052 5.301-3.505 1.2m3.833 4.599-3.833 1.3m4.271 5.501-3.943 1.1m4.603 5.2-3.833 1.6m3.833 4.7-3.833 1.3m4.485 5.1-3.614 1.1m3.943 4.2-4.162 1.1m4.494 4.299-4.052 1.2m4.38 4.001-3.834.9m4.162 3.7-4.162.8m-41.839 77.9 3.066-1.8m5.477 100.9 71.081 9.5.328 8.1 2.629 40.6-5.696.5"/><path d="M431.852 579.4v-4.3l-69-9.1M34.72 711.201l-3.943 26.4 5.805-1.2v2.8h.657l4.929-31.1h-.986l-6.462 3.1ZM47.864 706l30.12-11-4.491 32-29.243 7.7 3.614-28.7Zm120.255-71.9c-.767-.4-1.096-1.2-.877-1.7.329-.6 1.315-.7 1.972-.6.986.2 1.095.9 2.19 1.3.876.3 1.424.1 2.41 0 .986-.1 2.519 0 4.381.7m78.642-211.6c.219-.2 2.519-3 6.243-2.8 3.724.2 5.586 3.3 6.024 4.1 1.533 2.4 2.081 6.3-.438 9.2-.219.3-3.286 3.5-7.448 2.6-3.724-.8-5.148-4.1-5.257-4.3m-17.199.9c.109-.3.766-3.3 3.833-4.6 2.41-1.1 5.367-.7 7.229.8 1.314 1 2.847 3 2.19 4.9-.219.6-.657 1.1-1.095 1.4m30.231 12.901c-.766-1.7-.657-3.6.548-5 1.971-2.3 5.367-1.7 5.695-1.6 2.738.5 4.6 2.8 4.929 5.2.328 3-1.862 5-2.191 5.3M402.941 309l-4.928 1.3-5.586 1.4c.767 2 2.738 6 6.9 7.3 7.01 2.2 14.457-5.3 17.414-10.3.548-.9 4.162-7.1 1.534-9.4-1.753-1.6-5.586-.4-6.462-.1l3.066 3.3-4.49 2.3-18.948 2.6"/><path d="m402.389 303.201-1.423-23.9c2.957-2.8 3.176-6.9.985-9.4-2.409-2.7-6.571-2.2-6.79-2.2l-2.957 1.4-3.286 1.6m-3.941-164.4c1.314.3 6.133 1.7 9.419 6.1 2.738 3.6 2.847 7.3 2.847 8.7"/><path d="M384.648 104.801c2.081.4 4.819 1.4 7.339 3.3 3.833 3 5.147 6.7 5.914 8.9.986 2.9 1.205 5.5 1.095 7.2"/><path d="M398.34 118.301c.109.1 1.533 1.6 1.643 1.8 2.847 4.3 5.476 7.3 7.447 9.4 7.01 7.7 7.557 7.4 9.529 10.4 1.971 3 2.957 5.7 3.505 7.4"/><path d="M398.887 120.9c1.424 2.7 3.833 5.4 5.038 6.8 1.095 1.3 1.752 1.8 5.366 5.4 3.177 3.1 4.82 4.7 5.258 5.2 1.533 1.8 3.614 4.7 5.038 9m-55.423-2.8c.11-.1 1.972-2.3 4.6-2 2.081.3 3.395 1.1 3.505 1.3l.547-.7-.547-1.4"/><path d="M364.059 142.401c.328-.3 1.861-1.7 3.723-1.8 2.629-.2 4.272 1.1 4.491 1.3l-.548-2.8"/><path d="M363.949 138.501c.219-.4 1.315-1.8 2.629-2.2 1.752-.5 4.49-.4 5.805 1.4l-.548 1.4c-.11-.1-2.3-1.1-4.71-.6-1.204.3-2.3 1.3-2.628 1.6"/><path d="M364.059 115.101c1.752 3.8 2.409 6.9 2.847 9.4.329 1.9.767 5.2.219 9.4-.109.8-.438 2-.547 2.5M330.326 80.3c-2.3 2.1-3.724 5.8-2.957 6.3.657.5 2.848-1.1 4.052-2.3 2.191-2.1 3.505-5.6 2.848-6.1-.548-.5-2.629.9-3.943 2.1Zm21.684-24.1c-1.971 1.6-2.847 3.4-3.176 5-.219 1.3-.219 2.3.438 2.6.986.5 3.505-2 4.71-4.5.438-.9 1.314-2.6.438-3.4-.548-.6-1.753-.3-2.41.3Zm-7.227 38.5L343.469 77l16.209 8 .767 18-15.662-8.3Zm-14.131 13.201 7.777-8.6m-7.991 4.099 7.338-19m-.005 3.4-6.9 18.101 7.448-8.7m-7.116 27.7 7.448-21.3m-7.342 23.3 7.995-8.6m-.437-10-5.695 16.6m-1.754 4.9 7.886-8.7m.441 5.799-7.667 20.4m.106 2.101 8.214-8.3m-8.101 10.699 8.214-7.9m-.656-13.099-5.585 16.5m-1.868 7.5 8.215-7.5M332.516 158l5.695 2.7m2.19-2.399-2.191-1.2-5.257-2.8m7.667-3.2-2.409 6m-.879 7v8.4l4.49-4.7 5.258-.7-2.848 3.4.329 20-2.41.6-.329-23.3"/><path d="m337.332 166.201 4.819-4.6h4.491v1.7h-4.491l-4.819 4.3m4.492.2v-8.5m18.289-8.001 3.943-3.8.329 3.8-4.272 3.5v-3.5Zm-8.324-5.5-.767-18.9-4.928 1.6m11.829 16.5-.547-16.1-6.353-2m-5.582-26.5 13.253 16.8 6.243-5.6 1.862-2.3"/><path d="m345.441 103 13.143 16.7 7.119-6c1.096 3.1 1.862 5.8 2.3 7.7.876 3.4 1.205 5.1 1.205 7.3 0 3.2-.876 5.7-1.533 7.3m-23.003-42.8 15.114-5.1M345.441 95l14.457-5.4m-16.429-14.9 3.176-3.6m10.071 9.9 3.177-4.3-7.229-3.8"/><path d="m347.41 71 5.257 1.9-3.833 4.1m14.678-20.8 1.971 29m-.987-28.4 2.848 38.4-1.205.8m.658-38 1.533 36.7c1.314-1 3.286-1.7 5.367-1.4 1.643.2 2.738 1.3 3.395 1.9 3.943 3.7 9.529 6 15.114 8.3 0 0 3.615 1.5 7.667 4.2.548.3 1.314.9 2.081 2 .438.7.986 1.8.986 4.3 0 1.5-.876 4.7-1.862 7.4M370.301 60l1.643 33.3m-.549-32.8 1.752 32.7"/><path d="m381.362 101.801 1.095 15.9-1.424.6-1.424-17.5"/><path d="m384.757 104 .219 14.8-2.519-1.1-5.367 18.4m-30.449 25.501 5.147 2v5.5l-4.709-2-.438-5.5Zm-2.079 28.9h3.286l2.41-3.3-.657-16.3 2.19-1.8m-1.092 36.799 18.948 7.1m-24.206-8.899 4.71 122.7M359.896 384l-9.748 14.7 1.534 39 .985 25.4m-2.409-59.999 10.405 2.7m.764 20.3-9.747 11.6"/><path d="m361.976 440.5-8.433-1.8 7.995-9.3m.659 15.601-7.228-1.4 7.557 12m-8.108 10.1.548-16.1 7.885 12.6m-9.31.9-.657-17.6-.986-1.2m-7.336 5.799 2.301-2.9.547 14.7m-2.848-15.799 2.191-2.8m.112 3.899-2.3-60.5-1.862 1.2m57.719 81.701-5.477-73.7 7.119-3.6v2.8l-5.038 2.8 5.696 72.1M386.178 436.5l8.762-4-2.081-32.3-8.433 4.2m-.543-2.299 8.105-4.6v-2.1l-4.49-2.1-4.053 2.7m4.049 59.3 9.966 10.4-2.519-30.4-8.543 4m1.864 25.799 6.681 1.3-7.228-8m5.913 3.2-2.3-24.6m.003-2.799-2.3-32.1m23.218 2.299-7.776 5.3m-7.774-92 5.367 74.6 5.586 1 2.738 3.2m-14.57-79.6 5.038 76m-5.911 3-7.009-115.1m-1.321 9.301 6.243 110.1M385.417 295.7l4.381 96.6-1.533-.9-5.038-87.5m1.972 117.5 8.215-12.7m-8.437 9.5 8.104-14.7"/><path d="m397.68 407.1 4.381-3.6 6.79 3.2m-7.996-11 1.205 7.8m5.917 58.9-5.696 2.3m5.039-10.399-5.695 2.2m5.695-1.4-5.695 2.2m6.352 5.8-5.696 2.3m4.383-18.201-5.586 2.1m5.476-3.199-5.476 2.2m4.6-7.801-4.6 1.6m4.6-2.799-4.6 1.7m4.269-7.9-5.038 1.9m4.819-3.101-5.257 2.1m4.929-7.899-4.929 1.9m4.929-3.2-5.476 2.2m4.82-8.2-5.367 2.1m5.038-3.1-5.038 2.1m4.601-9.8-5.038 1.7M363.071 570.7l-3.176 1.1v-1.1m-29.79 14.801 17.524-8.7m24.426 74.099 1.314 43.7h3.067l-1.205-48.2m-5.258 7.6 1.423 41.2 1.096-.4.876-.2"/><path d="m372.492 694.801.876 22.1h3.067l-.767-22.3m80.28 77.2-456.385 39.8M0 809.2l453.319-39.3m2.959-74.8-.548-5.7m-2.408 5.3-.877-5.3m-22.785-18.099 18.4.9m-18.287.6 18.51.7m-18.072 6.599 18.4-4.2m0-1.2-18.4 3.9m.985-57.4-.329-4m-.002-2.199-1.424-24.2h-5.257m-1.532 1.599 1.534 21.8m-7.337-.8-.767-14m-6.465 13.3-.219-6.3m-6.457-15.2 25.191-12.2m-24.976 15.301 21.029-10.5m-20.915 12.1 18.619-9.6m-28.26 7.299 5.367-.9m33.953-11.2 1.972 39.5m-1.973.101-1.971-37.5m172.721 49.6-2.19-14.1 3.943.8m-47.974-7.001 44.028 6.2m-92.544-12.9 43.919 6.1m-42.501-7.6 95.067 13.3m-94.407-14 31.105-8.1m-3.394-.5-25.738 6.6m60.784-1.6-36.581 8.1m-2.082-.3 36.69-8.2m-48.3 6.601 34.391-8.5m-36.687 8.1 34.281-8.4m27.816 17.1 32.967-8.3M581.68 614.2l31.762-8M30.777 741v3.6s33.843-.4 34.39-.4c.548 0 0-2.8 0-2.8l-34.39-.4Zm-2.191 1.801v-4.6l2.19-.6v5.2M301.078 629.5l-9.31 37.5-13.58 5.4 7.228-23.8 6.243-20.1m-2.077 22.4h6.133m-10.297-2.299 4.162 2.3M310.281 524.4l30.338-2.2M328.57 465l19.605 10.7M345.22 516l-.329-30-35.047 17.1m0-3.9 38.333-19.9-28.476-15.6m.985-6.699-4.49-256.7-.11-7.1 2.629-2.1 3.504 1.3v4.1"/><path d="m316.196 200.701-4.381-2-1.753-2.1v-3.6l5.258-5.6 3.833-.3 4.271 4-1.204 1.3m5.366.499-.109-16 12.923 8 1.643-1.6m-.217-.3-7.119-4.1 7.119-6.7"/><path d="m327.473 176.9-3.285-4.7 4.709-2.2 4.052 2.5-4.052 3.3 3.176 1.8 5.257-5.1"/><path d="m334.264 175.501-4.381-1.3-5.695-2 1.095-3.1 1.752-2.6 2.519-.9h3.176l4.6 3.9-1.423 4.4-2.958-1.4m-.871 7.199v10.1m4.598-3.199v-4m1.644-1.8 3.615-3.2m.216 13.5-1.534 1.8v13.7l2.629-4v-11.8m-1.308 15.099 4.49 122.2m-20.704-117.299-4.052-14 6.462 1.1c.219 0 .328.1.547.1.986.3 4.491 1.5 4.71 1.5.329 0 2.628 2.4 2.628 2.4l-1.204.5v7.9"/><path d="M328.025 209.101v-10.4c-1.534-.3-3.067.9-2.848 2.3l1.314 9.2m5.257-1.101.329-7.2c-.876-.5-1.972 0-1.972 1v5.6m15.665-91.6 13.033 5.7m13.908-64.1 2.3 35.2m-17.089 46.401 9.419-9.3m-9.966-1.9 9.857-1.6-9.309 8.2m-11.934-8.9 21.028-1.3-7.667.2-13.58-5.9m19.821-.401-6.243 3.4"/><path d="m345.77 112.801 12.814 6.9.766 5.8m-8.327-17.9 10.077.8-4.819 5.8m-7.336-9.301 12.157 1.3m-1.207 9.901 5.038-7.8M343.797 81.3l13.143 6.1 2.738-2.4m-2.408 4-.329-1.6m.981 14.2-.328-11.1m8.543 8.2 3.066-1.9v-2.4l-1.314-35.8m4.163 78.801L368 99.701l2.3-1.4s5.805 1 7.338 1.6c3.724 1.5 5.367 3 7.886 4.7 7.009 4.6 10.186 3.7 12.486 7 2.081 2.9.547 4.6.219 6.5M373.914 99l3.943 45.5m7.118-25.699-7.666 18.9m-2.957-33.7 5.257-.4m-4.597 2.699 5.038-.8"/><path d="m375.887 122.101 5.147-3.8-4.162 15.2m-1.204-14.3 4.929-7-.219-1.9-4.929 6.9M405.895 257.5l26.833-82 .767 11.6-4.71 2.7-22.89 71v-3.3Zm-3.504 3.3c.438-1.1.985-2.9.985-2.9l2.41-.4v3.3h-3.395Z"/><path d="M417.725 200.7h-7.447l-2.52-3.4-6.133-.9-3.833 1.1-4.929 4v-6.8l3.943-3.6 4.053-.6 6.571 1.6-.329-2.3h4.491l7.776 3.5V189l5.257 5.4v3.7l-4.162 3.4-21.904 57.8-1.753 4h-1.752l.438 5.6c3.286 0 6.024 2 6.681 4.5.766 2.8-1.424 5.1-1.534 5.4m-5.475-4.699 1.533 30.7-4.272 1-2.628-31.7h5.367Zm15.443 302.7-29.572 13.3m4.379.699 30.557-13.4m-36.143 12.5 29.024-13.4"/><path d="M400.855 269.1c2.52-1.3 4.162-3.7 4.162-6.4v-1.5m-2.623 45.6-10.953 2.2v-2.9l.986-.3m4.272-1 8.324-2.3m-7.011 7.7.328 5.5 3.395 1.2 3.615-2.5v-4.2m-4.495-.7.877 7.4m-6.348-48.1-6.681 3.9m.434-27.8 2.3 24.6M434.59 178l1.752 13.1 2.081-.6-2.081-15.1m-23.985 513.301v-16.9l-3.505.6-3.504 16.3m-108.864-40.9 6.462.7m-124.751-14.7-2.519 39.3m-4.711 1.5 2.19-39.6-5.038-.9m41.731-12.701v8.1l5.038.7 3.724-1.7v-6.4"/><path d="m218.61 628.5-4.49-.6-4.272 1.6-.438 67.5m4.707-75.199v6.1m23.547-4.201-11.5 22.7v46.9l2.3-.5-.767-46.4 11.938-22.7m21.25 2.101-26.833 58.3-.876 2-2.848 6.1 17.853-4.1 28.804-60.9m-48.63 60.099 29.024-61.9m-29.129 54.8 26.067-55m-26.067 52.3 24.862-53.3m-24.862 47.401 21.686-46.8m5.912 61.299 27.052-58.4m-30.447 59.4L280.82 627"/><path d="m150.594 711.1 2.41-29.1 116.423-35.6v36.7l-118.833 28Zm0 0-2.081.5-8.652-.9L29.68 806.6m207.332-362.8 1.752-11.9m-4.709 13.6 2.957-12.9 2.957-3.2m-1.207 3.8 5.366-1.3 4.491 3m-.002-8.199 5.367-4.1 6.9 2v4.8l-4.929 1.1-3.833 1.4M268.661 447l-13.91-13.6-3.833-.2"/><path d="M250.918 435.301h3.833l10.296 10.8M252.125 451v-15.5m-12.156 20.8v-5.8l8.652-6m-11.609 1.6 1.752-1.6 1.205-11.6m26.613 12.201 9.419 1 3.505-4 2.19.2m9.419 7.8-9.967-2.8M192.762 530.6l13.033-6.9m-14.455 11.2v3.2l19.495-10.3 2.3-46.4m-40.088 119.401h2.628l43.262-19.7m1.973-7.201 102.405 12.2M134.824 796.7l2.629-43.3M64.84 803.301l62.976-52-4.271 47.2M46.547 805.2l96.709-90.3h5.258"/><path d="m51.7 804.301 94.19-87.3h2.628l-.109 5.3 4.381-.7 1.533-2.7v-3.3"/><path d="m148.515 720.601-91.562 83.7 70.862-60.4v7.4l7.229-3.8M0 809.2l143.476-129h6.134l2.08.4"/><path d="m3.832 808.901 140.957-126.8h4.819l-2.3 29.4m-7.226-28.301h-7.12L.001 802.8l-.439 2.4 133.4-119.5 4.491-.1m-10.84 3.3-40.304 11.5-3.724-5.4-2.19.2-5.696 40.3"/><path d="m80.063 697.4 1.861-.3 3.943 5.2 38.224-11.1m-42.166 5.901-5.148 36.7M63.85 755l-5.256 47.8m8.654-50.999-4.271 47m43.701-82.401-4.381 46.5m7.228-49.099-4.162 46.2m43.152-65.4h-6.79l-122.338 112.9"/><path d="m22.453 807.001 120.257-109.9h5.696m-137.125 111.1 120.586-109.7h5.586l.657-10.4"/><path d="M13.688 807.5 132.41 700.2h3.067m3.179 11.6.657-11.6m-3.176 13.601.985-11.5m2.96-6.201.657-10.4M32.855 723.601l7.229-2.3m6.139-2.201 29.68-8.6m-18.95-7.899-2.957 29.6M67.247 698.9l-3.395 30.7m106.785-17.699v7l1.533-.8v-6.5m23.656 1.9v-6.7l-1.642.5v6.5l1.642-.3Zm33.625-14.9v13l-1.642 1v-13.5m80.938-8.401v3.9L271.29 693l-13.91 4.1-4.271-3.3v8.1l-2.3.6v-8.7M133.07 734.701l172.391-40.1M126.172 741.1l174.362-41.4m-149.393 41.5 133.071-30.7m-73.267 80.3 3.286-6.7 78.529-82.6m-77.876 57.101c2.238 0 4.053-4.433 4.053-9.9 0-5.468-1.815-9.9-4.053-9.9s-4.052 4.432-4.052 9.9c0 5.467 1.814 9.9 4.052 9.9Zm24.317-3.301c2.299 0 4.162-4.387 4.162-9.8 0-5.412-1.863-9.8-4.162-9.8s-4.162 4.388-4.162 9.8c0 5.413 1.863 9.8 4.162 9.8Zm-47.422 6.4c2.238 0 4.052-4.432 4.052-9.9 0-5.467-1.814-9.9-4.052-9.9-2.238 0-4.052 4.433-4.052 9.9 0 5.468 1.814 9.9 4.052 9.9Zm-23.439-8.799c0-4.7 1.314-7.3 3.286-7.3 1.971 0 3.504 3.8 3.504 8.4 0 1.2-.109 2.3-.328 3.3m123.542-9.201c3.084 0 5.585-4.835 5.585-10.8 0-5.965-2.501-10.8-5.585-10.8-3.085 0-5.586 4.835-5.586 10.8 0 5.965 2.501 10.8 5.586 10.8Z"/><path d="M214.883 771.8c6.472 0 11.719-9.536 11.719-21.3 0-11.763-5.247-21.3-11.719-21.3-6.472 0-11.719 9.537-11.719 21.3 0 11.764 5.247 21.3 11.719 21.3Z"/><path d="M182.686 763.001c-.986-2.9-1.643-6.2-1.643-9.8 0-10.4 4.929-18.9 11.062-18.9 6.133 0 11.062 8.5 11.062 18.9 0 8.5-3.286 15.7-7.776 18.1M164.066 750c.986-7.3 4.381-12.6 8.324-12.6 4.819 0 8.653 7.7 8.653 17.2 0 2.6-.11 4.3-.658 6.5m71.517-17.299v.6M231.533 765.9c-2.628-4.5-4.271-11.1-4.271-18.4 0-13.4 5.585-24.3 12.376-24.3 6.243 0 11.281 9 12.267 20.7"/><path d="M251.902 744.4v-.6c0-15.4 6.9-26.9 15.224-26.9 2.738 0 5.257 1.3 7.557 3.7m7.343 28.8c-1.315 13-7.558 23.5-14.896 23.5-5.257 0-9.966-5.1-12.595-12.7"/><path d="M281.149 732.101c-.219 2-.329 4-.329 6.1 0 17.2 8.215 31.1 18.4 31.1 1.424 0 4.053.1 6.353-.3m.105-60c-.547-.4-1.095-.7-1.752-.9M319.59 767.4c2.3-.5 6.024-1.7 9.309-4.6 2.629-2.2 4.162-4.9 5.805-9.4 1.862-5.1 3.614-12.4 3.943-30.6v-8.3m25.742-2c2.628 5.9 5.257 14.1 5.257 23.7 0 0 0 11.3-5.367 21.8-1.095 2.2-2.628 4.6-5.366 6.1-1.315.7-3.067 1.4-9.529 1.7-8.214.4-9.857.7-11.609 0-2.3-.9-5.696-3.8-6.572-4.8m-2.851-73.799c1.936 0 3.505-1.926 3.505-4.3 0-2.375-1.569-4.3-3.505-4.3-1.935 0-3.504 1.925-3.504 4.3 0 2.374 1.569 4.3 3.504 4.3Z"/><path d="M328.682 685.201c.786 0 1.423-1.03 1.423-2.3 0-1.271-.637-2.3-1.423-2.3-.787 0-1.424 1.029-1.424 2.3 0 1.27.637 2.3 1.424 2.3Zm0 22.599c2.419 0 4.381-2.641 4.381-5.9 0-3.258-1.962-5.9-4.381-5.9-2.42 0-4.381 2.642-4.381 5.9 0 3.259 1.961 5.9 4.381 5.9Z"/><path d="M329.452 704.701c.967 0 1.752-1.254 1.752-2.8 0-1.547-.785-2.8-1.752-2.8-.968 0-1.753 1.253-1.753 2.8 0 1.546.785 2.8 1.753 2.8Zm15.44-27.601c2.299 0 4.162-1.701 4.162-3.8 0-2.099-1.863-3.8-4.162-3.8-2.298 0-4.162 1.701-4.162 3.8 0 2.099 1.864 3.8 4.162 3.8Z"/><path d="M343.904 680.6c3.993 0 7.229-3.223 7.229-7.2 0-3.976-3.236-7.2-7.229-7.2-3.992 0-7.228 3.224-7.228 7.2 0 3.977 3.236 7.2 7.228 7.2Z"/><path d="M341.389 682.301c5.625 0 10.186-3.806 10.186-8.5 0-4.695-4.561-8.5-10.186-8.5-5.626 0-10.186 3.805-10.186 8.5 0 4.694 4.56 8.5 10.186 8.5Zm-55.091-234c2.239 0 4.053-1.388 4.053-3.1 0-1.712-1.814-3.1-4.053-3.1-2.238 0-4.052 1.388-4.052 3.1 0 1.712 1.814 3.1 4.052 3.1Zm14.125 297.7c1.935 0 3.505-3.896 3.505-8.7 0-4.805-1.57-8.7-3.505-8.7-1.936 0-3.505 3.895-3.505 8.7 0 4.804 1.569 8.7 3.505 8.7Zm-59.798 6.4c1.512 0 2.738-3.045 2.738-6.8 0-3.756-1.226-6.8-2.738-6.8s-2.738 3.044-2.738 6.8c0 3.755 1.226 6.8 2.738 6.8Zm30.997-10.001c0 6.8-2.738 12.2-6.024 12.2-1.423 0-2.409-.5-3.395-2.1m-1.316-17.799c1.095-2.8 2.847-4.6 4.709-4.6"/><path d="M271.619 742.5c0 4.7-1.753 8.5-3.943 8.5-.986 0-2.191-.4-2.848-1.8m-48.739 7.3c1.21 0 2.19-3.268 2.19-7.3 0-4.031-.98-7.3-2.19-7.3s-2.191 3.269-2.191 7.3c0 4.032.981 7.3 2.191 7.3Zm-23.109 1.7c1.573 0 2.848-2.865 2.848-6.4 0-3.534-1.275-6.4-2.848-6.4-1.572 0-2.847 2.866-2.847 6.4 0 3.535 1.275 6.4 2.847 6.4Zm-23.109-4.1c0-3.3 1.205-5.9 2.629-5.9 1.423 0 2.628 2.6 2.628 5.9 0 1.2-.109 2.3-.438 3.2m-21.905-35.699 27.819 1.9M154.32 718.9l35.048 2.7m-18.731-2.7 23.547 1.7m-39.864-2.5 16.319-3.1m23.547-5-22.014 4.9 37.019 2.4m18.618-14.999-31.981 7.3M250.81 697l-21.357 4.5m0 2.2 34.172.7m-32.531-3.299 19.714.4m6.571-4.4 30.667 1.5m-24.202-3.401 31.543 1.7"/><path d="M201.086 708.401v7.8l1.533-.7v-7.4"/><path d="m204.37 707.801 7.776 8.4-9.529-.7m-1.531.699 9.309.8m-16.211-3.199 6.9 1.2m-5.256-1.501 5.257.9m4.817-7.099 21.905 1.1m1.646.9 11.938.6m10.293-8.1 19.166.9m-75.35 68.6 21.248 14.5M182.031 762.2l13.472 9.1m-20.374-13.8 6.9 4.7m-12.045-8.2 5.148 3.5m-6.792-4.6 1.643 1.1m-5.917-4 4.272 2.9m-40.522-8.999 7.777-6.3 11.609.9 16.867 11.5m-36.253-4.5 7.667-5.9m-7.667 7.899 7.448-4.6m-106.678-.099 1.752-.5m6.135-31.901 39.428 1.4m12.485-10.199-2.738 24.2m13.69-27.401-1.861 16.5m-18.18 1.3 23.876-6.2m7.773-15-.548 8.5m-58.152-24.899-6.79 55.8-1.972-.1 6.243-47.4.11-.7 1.095-7.6-3.505 5.3.657 1.8v.4l.877.9"/><path d="M55.088 677.601v1.5l-4.162-.5v-1h4.162Zm172.83-19.7 16.648-33.1M255.41 637.9l15.881.6m-16.975 1.9 15.991 1m-11.94-10 16.1 1.1m-14.455-4 15.881 1m-28.479 26.101 15.771.8M246.32 658.2l15.553 1m-5.807-8.7 9.091.2m-13.907-4 8.214.4M243.363 664l15.881.8m-16.756 2.2 14.896.8m-18.294 5.6 15.224.8m-16.537 2 15.772.5m-18.182 5.2 15.443.7m-1.864 2.6-15.114-.5m40.852-1.6 17.085-16.1 16.648 16.8-33.733-.7Zm0 0v-36.7l10.733.6m-7.229 25.4-3.504 3.5m-5.252 3.6-4.709 4.7m38.219-5.899-.766-25.2m-42.934 133.1-.219-30.9m-4.601 4.8v27.1m-1.86-25.1v25.1m-9.527-15.1 9.529 10.9m-14.677-5.501 8.981 10.3m-13.692-4.8 4.709 5.6m21.248-14.9 11.281 12.1m-11.168-8.3 8.652 8.3m-2.191-12.9 12.267 12.2m-8.548-12.2 29.462 10.4m-31.427-8.699 26.286 9.2m-5.372-13.401 17.086 6.7M405.02 715h7.995l6.133-7.9c.438-.5.657-1.2.548-1.8l-2.519-33.6m-34.501 22.9 6.79-16.6m-7.228 8.301 6.791-15.7M373.367 716.9v6.7l2.41 1.7 2.19-2.3-.766-4.1-.329-2m84.991 63.1c1.391 0 2.519-1.522 2.519-3.4s-1.128-3.4-2.519-3.4c-1.391 0-2.519 1.522-2.519 3.4s1.128 3.4 2.519 3.4Z"/><path d="M462.08 778.4c.665 0 1.205-.761 1.205-1.7s-.54-1.7-1.205-1.7c-.666 0-1.205.761-1.205 1.7s.539 1.7 1.205 1.7Zm-310.279-82.299 74.366-20.3M169.217 677l-1.424 29.6m20.262-35.4-.328 31.2m18.835-36.799v32.3m4.822-68.201-.657 67.3m-20.266-201.2L160.78 514l-7.885 84.7 99.557-49 3.176-96-38.224 23.7-1.205 54.1-27.6 15.7 1.862-51.4Zm76.118-43.8-3.395 96 38.333 6.3 1.095-94.9-36.033-7.4Zm68.128-241.799c.219 2.7.548 6.6.876 11.5 1.096 15.9.876 24.5 1.096 42 .328 20.2.985 29.1 1.533 34.6 2.081 23.3 4.819 29.3 8.214 29.8.438.1 1.424.1 3.614-1.3 7.667-4.8 11.062-14.7 11.61-17.7 5.914-34.7 6.243-39.4 6.571-43.3 1.424-19.9 3.943-27.8 1.534-51.3-.767-7.4-1.315-8.7-1.862-16.5-1.095-15.8.219-22-1.095-36.3-.329-4-1.096-10-2.629-17.3l-.548-.8.438-1.4.329-2.3-.438-1.6"/><path d="M321.672 196.9c2.628 27.8 2.409 49.9 1.752 65.2-.876 18.4 1.862 36.9 2.191 55.3.219 11.2.219 20.7 6.9 24.3 7.447 4.1 19.166-1.4 25.19-5.4 8.653-5.9 13.253-14.2 17.853-29.3 8.542-27.6 8.542-47.3 8.542-47.3 0-57-9.638-115.1-11.171-114.9-.11 0-.109.6.986 18 1.424 24.7 2.081 37.1 2.409 44.9.329 8.8.876 27.1 0 49.9-.438 10.2-1.205 24.7-4.49 42.7-2.629 14.7-6.681 29.8-16.757 34.6-1.424.7-5.586 2.6-9.858 1.4-3.504-1-6.023-3.6-7.666-7-4.819-10.1-6.243-19.9-6.353-22-1.423-14.8-1.533-20.3-1.752-27.5-.329-12.9.219-34-3.724-69"/><path d="M377.855 144.5c1.862 10.7 4.491 26.2 6.791 45.2 4.49 36.1 4.819 57.4 4.49 72.9-.328 13.6-1.423 29.2-7.776 47-1.971 5.4-5.805 15-14.676 24.3-8.214 8.7-15.224 11.4-18.838 12.4-3.943 1.2-9.967 3-15.443.3-4.819-2.3-6.571-6.6-8.433-10.9-1.534-3.7-3.834-10.8-2.3-20.4m101.314-135.9c.329-1.1 2.081-6 6.572-7.6.876-.3 2.409-.8 4.052-.2 1.314.5 2.848 1.9 2.629 3.7-.219 1.6-1.534 2.9-3.395 3.2m-23.877 30.6c.986-.1 3.395-.5 5.586-2.4 2.738-2.3 3.176-5.3 3.285-6m-4.6.301c-.109.4-.438 1.2-1.095 1.8-1.205 1.2-2.738 1.4-3.176 1.4l1.424-3.6M398.994 124.2c-.11 1.9-.11 6.3-3.505 10.2-6.243 7-15.881 7.8-17.634 8.2"/><path d="M397.242 121.101c0 .8.219 7.5-5.696 12.1-4.709 3.6-12.595 3.5-13.909 3.4"/><path d="M384.867 111.4c1.424.7 4.381 2.5 6.352 6 .767 1.3 3.176 5.7 1.095 9.4-1.423 2.5-4.271 3.5-7.228 4.6-2.3.8-4.381 1.2-5.695 1.3"/><path d="M384.868 114.801c3.396 1.7 5.367 4.5 5.039 7.1-.329 2.1-2.081 3.6-2.958 4.3-2.3 1.8-4.819 2.2-5.914 2.3M352.012 193.5c1.095-.7 4.709-3.1 5.914-7.5.329-1 1.205-4.1-.219-7.3-.876-2-1.971-2.5-1.862-3.9.11-1.8 1.752-2.1 3.724-4.8 1.533-2.1 2.081-4.1 2.628-6 .658-2.4 1.205-4.4.329-6.8-.438-1.4-1.862-1.7-2.41-2.3m116.967 341.601c-.109.8-.219 2 0 3.4.22.9.658 3.1 1.315 3.1.547 0 1.205-2 1.095-3.7 0-1.6-.657-2.9-1.095-3.7m40.965 6.899 13.472 83.2m-7.995-81.899 13.909 82.8m-7.776-81.401 2.847 14.8m3.395-13.399 2.628 14.5m-2.628 20 7.557 46.3m-.877-45.001 7.776 46m-1.202-44.799 7.447 44.8m-1.314-43.701 7.557 45m-8.983-79 14.347 80.3m-8.32-78.899 14.348 79.8m-8.438-78.501 14.567 79.3m-8.325-78 15.224 78.7m-9.087-77.599 15.115 78.8m-8.763-77.201 15.224 78.1m-1.861-42.1 8.324 42.9m-15.008-77.1 2.848 14.4m9.422 21.201 7.995 42.4m-14.46-76.701 2.629 14.2m9.313 21.2 8.214 41.9m-15.007-76.1 2.847 14m9.528 20.901 8.323 42.1M609.172 523l2.738 13.8m2.957-12.499 15.881 75.4m-11.498-74.4 17.524 74.7M546.086 522.7l-2.738-14.7m5.914 1.4 2.409 14.5M383.112 390.7l-4.71-73.8M359.893 384l-2.081-42.5m23.11 15.3-22.781-8.8m20.92-21.4-4.6-2.9m-21.904 71.301-4.819-48.7m8.324-25.4-5.367-115 16.757-28.3M505.668 499.2l1.862-5.7m19.059 91.3 114.343 16.5-17.743-75.1L512.461 501l14.128 83.8ZM364.823 385.4l-1.971-35.5m13.796 5.401 1.862 34.2m-26.721-158.7 19.057 5.5M353.32 259.2l15.115 4m-13.908 24.901 10.296 1.9m-2.628-79.801 5.257 63.3"/><path d="m359.565 146.7-.219 7.2-3.395 20.8-3.943 18.8-8.762 9.1 10.514-1.9 15.005 5.9m-22.124-45 3.614-5.3 2.19-7.8 2.519 7.8-3.176 7.3m5.478 31.1 10.623 3.4m-6.901-9.7 6.243 2.7m44.249-1.3-1.862 11.4-2.191-9.1-4.052-3.6 19.605-9.1 1.643 14.9m-7.67-18.4-5.367 2.7-8.214 4.1v5.8l-8.981 1.3m20.484-45.3 4.71 2.8 1.642 9.4"/><path d="m420.459 153.9-4.71-1.2v2.1l-5.366 4.5 1.205 19.3m-22.014-29.899 2.848 12 3.395-1.4-2.848-13.5"/><path d="m395.27 145.801.547 13.5 11.938 1.4 4.381-6.4-1.752 5m-90.794 493.8 39.757 3.3M371.285 464.2l4.6 98.3m3.943-96.699 5.476 98m30.227-91.401 7.886 96.5m-17.745-98.299 7.995 96.6M401.621 514.4l3.614 52m-13.032-53.599 2.519 52.2m-5.036-76.8-1.424-20.9m10.513 23.2-1.314-21.4m-225.293 249 25.3 1.9m-62.646 31.4-7.01-.1M250.809 702.5l16.976.9m-14.68-9.6 18.181-4.1 37.458 1.5m64.183-546.4-.657-.9m-12.157 10.901 1.534.4 4.6 1.7m-1.864-5.6 1.095.3m-1.423-4.3.766.2m-24.204 59.1 4.819-2.5 5.257 1.8m12.377-60.1 1.534.9m-4.713 425.1 16.538 2.1 2.738-1.2M348.832 585l27.6-11.1m-27.381 9.6 24.424-10m.985 21.701-31.214-4.4m2.19 26.499-1.534 1.1v-2.6l1.534-1.1m36.033 6-1.643.8-35.924-3.1m34.61 46.901 2.957.3M392.857 178.6l-3.943-11.5 3.505-6.4m10.956 18 3.943-8.2v-5.1l-1.424-4.7"/><path d="m388.914 167.101.657-.3c4.6-4.5 10.953-3.7 16.867-1.6l.767 1.2m12.159 26.9-8.981 7.4m4.054-9.9-2.3-6m-32.75-31.601 12.485 10.4m-11.497-4.299 9.529 6.1m-8.545.2 8.215 2.2m-7.117 1.899 8.652 1.7m-8.105 5.8 8.105-3.8m10.731-32.3v-9.7h4.052l4.491 4.1.547 10.3m-15.113 59.4-2.958-3.7M211.926 771.101c1.095.7 3.176 1.9 6.133 2.4 2.848.5 5.148.1 6.462-.3m-13.47-42.8c2.738-1.9 5.257-2.7 6.79-3.1 5.915-1.4 10.953.2 12.595.8.877.3.439.1.877.3m6.46-5c2.41-1 4.491-1.6 6.134-1.8 1.533-.3 5.476-.9 10.514-.1 1.643.3 2.519.7 3.395 1m6.352-5.001c1.971-.9 4.929-2.1 8.762-2.6 2.847-.4 5.367-.3 7.228-.1m-91.342 20.4c1.424-.8 3.396-1.9 6.134-2.5 1.424-.3 5.695-1.3 10.624.1.985.3 1.752.6 2.3.8m-38.112 4.6c1.533-.7 3.724-1.5 6.571-1.8 4.381-.6 7.995.3 9.967.8m82.802 35.4c3.723.4 6.681.1 8.761-.2 3.177-.5 6.9-.8 10.515-2 2.519-.9 3.943-1.7 4.709-2.8m-82.144 3.2c-.657.6-2.957 2.4-7.228 2.4-1.424 0-3.395 0-5.805-.3"/></g><defs><clipPath id="a"><path fill="#fff" d="M0 0h736v842H0z"/></clipPath></defs></svg>