<svg width="756" height="565" fill="none" xmlns="http://www.w3.org/2000/svg"><mask id="b" fill="#fff"><path fill-rule="evenodd" clip-rule="evenodd" d="M61.147 565 0 515.779v-70.776l756-256.356v326.03L686.438 565H61.148ZM756 170.443 0 426.799V55.509L76.413 0h605.112L756 61.505v108.938Z"/></mask><path d="M0 515.779h-1v.478l.373.301.627-.779ZM61.147 565l-.627.779.275.221h.352v-1ZM0 445.003l-.321-.947-.68.23v.717h1Zm756-256.356h1v-1.395l-1.321.448.321.947Zm0 326.03.586.81.414-.3v-.51h-1ZM686.438 565v1h.323l.263-.19-.586-.81ZM0 426.799h-1v1.395l1.321-.448-.321-.947Zm756-256.356.321.947.679-.23v-.717h-1ZM0 55.509l-.588-.809L-1 55v.51h1ZM76.413 0v-1h-.325l-.263.19.588.81Zm605.112 0 .637-.771-.277-.229h-.36v1ZM756 61.505h1v-.47l-.363-.3-.637.77ZM-.627 516.558l61.147 49.221 1.254-1.558L.627 515l-1.254 1.558ZM-1 445.003v70.776h2v-70.776h-2ZM755.679 187.7l-756 256.356.642 1.894 756-256.356-.642-1.894ZM757 514.677v-326.03h-2v326.03h2Zm-69.976 51.133 69.562-50.323-1.172-1.621-69.563 50.324 1.173 1.62ZM61.147 566h625.291v-2H61.148v2ZM.321 427.746l756-256.356-.642-1.894-756 256.356.642 1.894ZM-1 55.509V426.8h2V55.509h-2ZM75.825-.809-.588 54.7l1.176 1.617L77 .81 75.825-.809Zm605.7-.19L76.413-1v2h605.112v-2Zm75.112 61.733L682.162-.77 680.888.771l74.475 61.506 1.274-1.543Zm.363 109.71V61.505h-2v108.938h2Z" fill="url(#a)" mask="url(#b)"/><defs><linearGradient id="a" x1="719.197" y1="565" x2="283.996" y2="-149.673" gradientUnits="userSpaceOnUse"><stop stop-color="#C7FF51"/><stop offset="1" stop-color="#BA77FD"/></linearGradient></defs></svg>