<svg width="44" height="32" fill="none" xmlns="http://www.w3.org/2000/svg"><path fill-rule="evenodd" clip-rule="evenodd" d="M1.355 6.23 4.23 3.355A4.585 4.585 0 0 1 7 2.03V2h11a3 3 0 0 1 3 3v4.5a1 1 0 0 1-2 0V5a1 1 0 0 0-1-1H8v3a3 3 0 0 1-3 3H2v17a1 1 0 0 0 1 1h15a1 1 0 0 0 1-1v-1.5H7a3 3 0 0 1-3-3v-7a3 3 0 0 1 3-3h34a3 3 0 0 1 3 3v7a3 3 0 0 1-3 3H21V27a3 3 0 0 1-3 3H3a3 3 0 0 1-3-3V9.5a4.62 4.62 0 0 1 1.355-3.27ZM5 8a1 1 0 0 0 1-1V4.5a2.64 2.64 0 0 0-.355.29l-2.88 2.88A2.64 2.64 0 0 0 2.5 8H5Z" fill="url(#a)"/><path d="M6.044 24v-8.52H8.66c1.264 0 2.324.408 3.18 1.224.856.816 1.284 1.828 1.284 3.036s-.428 2.22-1.284 3.036C10.984 23.592 9.924 24 8.66 24H6.044Zm1.404-1.308H8.66c.896 0 1.624-.28 2.184-.84.568-.56.852-1.264.852-2.112 0-.848-.284-1.552-.852-2.112-.56-.56-1.288-.84-2.184-.84H7.448v5.904Zm11.685.096c.832 0 1.536-.296 2.112-.888.576-.592.864-1.312.864-2.16 0-.848-.288-1.568-.864-2.16a2.834 2.834 0 0 0-2.112-.888c-.84 0-1.548.296-2.124.888-.576.592-.864 1.312-.864 2.16 0 .848.288 1.568.864 2.16.576.592 1.284.888 2.124.888Zm3.12.072c-.856.856-1.896 1.284-3.12 1.284-1.224 0-2.264-.424-3.12-1.272-.856-.856-1.284-1.9-1.284-3.132 0-1.232.428-2.272 1.284-3.12.856-.856 1.896-1.284 3.12-1.284 1.224 0 2.264.428 3.12 1.284.856.856 1.284 1.896 1.284 3.12 0 1.224-.428 2.264-1.284 3.12Zm7.325 1.284c-1.272 0-2.332-.42-3.18-1.26-.84-.848-1.26-1.896-1.26-3.144 0-1.248.42-2.292 1.26-3.132.848-.848 1.908-1.272 3.18-1.272 1.008 0 1.888.288 2.64.864.76.568 1.248 1.28 1.464 2.136H32.17c-.184-.488-.512-.884-.984-1.188a2.905 2.905 0 0 0-1.608-.456c-.88 0-1.604.292-2.172.876-.568.584-.852 1.308-.852 2.172 0 .864.284 1.588.852 2.172.568.584 1.292.876 2.172.876.6 0 1.136-.152 1.608-.456.472-.304.8-.7.984-1.188h1.512c-.216.856-.704 1.572-1.464 2.148-.752.568-1.632.852-2.64.852ZM36.03 24h-1.692l3.252-4.32-3.096-4.2h1.656l2.292 3.108 2.304-3.108h1.656l-3.096 4.212L42.559 24h-1.68l-2.424-3.192L36.03 24Z" fill="#272727"/><defs><linearGradient id="a" x1="2.142" y1="2" x2="21.982" y2="40.264" gradientUnits="userSpaceOnUse"><stop stop-color="#C7FF51"/><stop offset="1" stop-color="#BA77FD"/></linearGradient></defs></svg>