<svg width="72" height="72" fill="none" xmlns="http://www.w3.org/2000/svg"><path d="M41.625 56.25h-4.5a1.125 1.125 0 1 1 0-2.25h4.5a1.125 1.125 0 1 1 0 2.25Z" fill="url(#a)"/><path d="M64.125 4.5H7.875a3.375 3.375 0 0 0 0 6.75H9v27a1.125 1.125 0 0 0 2.25 0v-27h49.5v18a1.125 1.125 0 1 0 2.25 0v-18h1.125a3.375 3.375 0 0 0 0-6.75Zm0 4.5H7.875a1.125 1.125 0 0 1 0-2.25h56.25a1.125 1.125 0 0 1 0 2.25Z" fill="url(#b)"/><path d="M56.25 45a6.75 6.75 0 1 1 0-13.5 6.75 6.75 0 0 1 0 13.5Zm0-11.25a4.5 4.5 0 1 0 0 9 4.5 4.5 0 0 0 0-9Z" fill="url(#c)"/><path d="M64.125 67.5h-15.75A3.375 3.375 0 0 1 45 64.125v-13.5a3.375 3.375 0 0 1 3.375-3.375h15.75a3.375 3.375 0 0 1 3.375 3.375v13.5a3.375 3.375 0 0 1-3.375 3.375Zm-15.75-18a1.125 1.125 0 0 0-1.125 1.125v13.5a1.125 1.125 0 0 0 1.125 1.125h15.75a1.125 1.125 0 0 0 1.125-1.125v-13.5a1.125 1.125 0 0 0-1.125-1.125h-15.75Z" fill="url(#d)"/><path d="M30.375 45H27v-1.125a3.375 3.375 0 0 0-3.375-3.375h-9a3.375 3.375 0 0 0-3.375 3.375V45H7.875A3.375 3.375 0 0 0 4.5 48.375v15.75A3.375 3.375 0 0 0 7.875 67.5h22.5a3.375 3.375 0 0 0 3.375-3.375v-15.75A3.375 3.375 0 0 0 30.375 45ZM13.5 43.875a1.125 1.125 0 0 1 1.125-1.125h9a1.125 1.125 0 0 1 1.125 1.125V45H13.5v-1.125Zm-6.75 4.5a1.125 1.125 0 0 1 1.125-1.125h22.5a1.125 1.125 0 0 1 1.125 1.125v4.5h-6.953a3.375 3.375 0 0 0-3.172-2.25h-4.5a3.374 3.374 0 0 0-3.172 2.25H6.75v-4.5ZM22.5 54a1.125 1.125 0 0 1-1.125 1.125h-4.5a1.125 1.125 0 1 1 0-2.25h4.5A1.125 1.125 0 0 1 22.5 54Zm7.875 11.25h-22.5a1.125 1.125 0 0 1-1.125-1.125v-9h6.953a3.375 3.375 0 0 0 3.172 2.25h4.5a3.374 3.374 0 0 0 3.172-2.25H31.5v9a1.125 1.125 0 0 1-1.125 1.125Z" fill="url(#e)"/><path d="M51.748 16.875a.933.933 0 0 0-.078-.427 1.125 1.125 0 0 0-1.047-.698H45A1.125 1.125 0 1 0 45 18h2.913L35.92 29.992l-4.849-3.87a1.125 1.125 0 0 0-1.541.136l-9 10.125a1.125 1.125 0 0 0 1.687 1.484l8.292-9.326 4.792 3.836a1.125 1.125 0 0 0 1.496-.078L49.5 19.586V22.5a1.125 1.125 0 1 0 2.25 0v-5.625Z" fill="url(#f)"/><defs><linearGradient id="a" x1="36.329" y1="54" x2="37.315" y2="57.633" gradientUnits="userSpaceOnUse"><stop stop-color="#C7FF51"/><stop offset="1" stop-color="#BA77FD"/></linearGradient><linearGradient id="b" x1="7.567" y1="4.5" x2="30.232" y2="54.749" gradientUnits="userSpaceOnUse"><stop stop-color="#C7FF51"/><stop offset="1" stop-color="#BA77FD"/></linearGradient><linearGradient id="c" x1="50.157" y1="31.5" x2="61.62" y2="45.568" gradientUnits="userSpaceOnUse"><stop stop-color="#C7FF51"/><stop offset="1" stop-color="#BA77FD"/></linearGradient><linearGradient id="d" x1="46.095" y1="47.25" x2="62.84" y2="70.084" gradientUnits="userSpaceOnUse"><stop stop-color="#C7FF51"/><stop offset="1" stop-color="#BA77FD"/></linearGradient><linearGradient id="e" x1="5.924" y1="40.5" x2="28.414" y2="70.402" gradientUnits="userSpaceOnUse"><stop stop-color="#C7FF51"/><stop offset="1" stop-color="#BA77FD"/></linearGradient><linearGradient id="f" x1="21.784" y1="15.75" x2="38.743" y2="44.892" gradientUnits="userSpaceOnUse"><stop stop-color="#C7FF51"/><stop offset="1" stop-color="#BA77FD"/></linearGradient></defs></svg>