<svg width="72" height="72" fill="none" xmlns="http://www.w3.org/2000/svg"><path d="M64.125 9H60.75a1.125 1.125 0 1 0 0 2.25h3.375a1.125 1.125 0 0 1 1.125 1.125V47.25H6.75V12.375a1.125 1.125 0 0 1 1.125-1.125H42.75a1.125 1.125 0 1 0 0-2.25H7.875A3.375 3.375 0 0 0 4.5 12.375v40.5a3.375 3.375 0 0 0 3.375 3.375h19.946l-1.496 4.5h-7.2a3.375 3.375 0 0 0 0 6.75h33.75a3.375 3.375 0 0 0 0-6.75h-6.93l-1.496-4.5h19.676a3.375 3.375 0 0 0 3.375-3.375v-40.5A3.375 3.375 0 0 0 64.125 9Zm-11.25 54a1.125 1.125 0 1 1 0 2.25h-33.75a1.125 1.125 0 1 1 0-2.25h33.75Zm-9.337-2.25h-14.84l1.497-4.5h11.88l1.462 4.5Zm21.712-7.875A1.125 1.125 0 0 1 64.125 54H7.875a1.125 1.125 0 0 1-1.125-1.125V49.5h58.5v3.375Z" fill="url(#a)"/><path d="M22.5 39.375a1.125 1.125 0 0 0 1.125-1.125v-9a3.375 3.375 0 0 0-3.375-3.375h-4.5a3.375 3.375 0 0 0-3.375 3.375v9a1.125 1.125 0 1 0 2.25 0v-9a1.125 1.125 0 0 1 1.125-1.125h4.5a1.125 1.125 0 0 1 1.125 1.125v9a1.125 1.125 0 0 0 1.125 1.125Z" fill="url(#b)"/><path d="M39.375 39.375A1.125 1.125 0 0 0 40.5 38.25V23.625a3.375 3.375 0 0 0-3.375-3.375h-4.5a3.375 3.375 0 0 0-3.375 3.375V38.25a1.125 1.125 0 1 0 2.25 0V23.625a1.125 1.125 0 0 1 1.125-1.125h4.5a1.125 1.125 0 0 1 1.125 1.125V38.25a1.125 1.125 0 0 0 1.125 1.125Z" fill="url(#c)"/><path d="M41.014 19.642a1.125 1.125 0 0 0 1 .608h4.118v18a1.125 1.125 0 1 0 2.25 0V19.125A1.125 1.125 0 0 0 47.257 18H44.21l7.548-10.452L59.307 18h-3.05a1.125 1.125 0 0 0-1.125 1.125V38.25a1.125 1.125 0 1 0 2.25 0v-18H61.5a1.125 1.125 0 0 0 .911-1.778l-9.742-13.5a1.125 1.125 0 0 0-1.823 0l-9.742 13.5a1.126 1.126 0 0 0-.09 1.17Z" fill="url(#d)"/><path d="M10.125 42.75a1.125 1.125 0 0 0 1.125 1.125h49.5a1.125 1.125 0 1 0 0-2.25h-49.5a1.125 1.125 0 0 0-1.125 1.125Z" fill="url(#e)"/><defs><linearGradient id="a" x1="7.567" y1="9" x2="56.375" y2="73.508" gradientUnits="userSpaceOnUse"><stop stop-color="#C7FF51"/><stop offset="1" stop-color="#BA77FD"/></linearGradient><linearGradient id="b" x1="12.923" y1="25.875" x2="24.624" y2="37.842" gradientUnits="userSpaceOnUse"><stop stop-color="#C7FF51"/><stop offset="1" stop-color="#BA77FD"/></linearGradient><linearGradient id="c" x1="29.798" y1="20.25" x2="45.536" y2="31.612" gradientUnits="userSpaceOnUse"><stop stop-color="#C7FF51"/><stop offset="1" stop-color="#BA77FD"/></linearGradient><linearGradient id="d" x1="41.948" y1="4.507" x2="71.123" y2="26.82" gradientUnits="userSpaceOnUse"><stop stop-color="#C7FF51"/><stop offset="1" stop-color="#BA77FD"/></linearGradient><linearGradient id="e" x1="12.644" y1="41.625" x2="12.782" y2="45.522" gradientUnits="userSpaceOnUse"><stop stop-color="#C7FF51"/><stop offset="1" stop-color="#BA77FD"/></linearGradient></defs></svg>