<svg width="72" height="72" fill="none" xmlns="http://www.w3.org/2000/svg"><path d="M5.625 63A1.125 1.125 0 0 1 4.5 61.875V15.75a3.375 3.375 0 0 1 3.375-3.375 1.125 1.125 0 1 1 0 2.25A1.125 1.125 0 0 0 6.75 15.75v46.125A1.125 1.125 0 0 1 5.625 63Z" fill="url(#a)"/><path d="M64.125 12.375h-29.25a1.125 1.125 0 1 0 0 2.25h29.25a1.125 1.125 0 0 1 1.125 1.125V54H34.875a1.125 1.125 0 1 0 0 2.25H65.25v3.375a1.125 1.125 0 0 1-1.125 1.125h-29.25a1.125 1.125 0 1 0 0 2.25h29.25a3.375 3.375 0 0 0 3.375-3.375V15.75a3.375 3.375 0 0 0-3.375-3.375Z" fill="url(#b)"/><path d="M61.873 19.125a.933.933 0 0 0-.078-.427A1.125 1.125 0 0 0 60.748 18h-5.624a1.125 1.125 0 1 0 0 2.25h2.913L47.17 31.117l-4.849-3.87a1.125 1.125 0 0 0-1.541.136l-9 10.125a1.125 1.125 0 0 0 1.687 1.484l8.291-9.326 4.793 3.836a1.125 1.125 0 0 0 1.496-.078l11.577-11.588v2.914a1.125 1.125 0 1 0 2.25 0v-5.625Z" fill="url(#c)"/><path d="M20.25 40.5a6.75 6.75 0 1 1 0-13.5 6.75 6.75 0 0 1 0 13.5Zm0-11.25a4.5 4.5 0 1 0 0 9 4.5 4.5 0 0 0 0-9Z" fill="url(#d)"/><path d="M28.125 63h-15.75A3.375 3.375 0 0 1 9 59.625v-13.5a3.375 3.375 0 0 1 3.375-3.375h15.75a3.375 3.375 0 0 1 3.375 3.375v13.5A3.375 3.375 0 0 1 28.125 63Zm-15.75-18a1.125 1.125 0 0 0-1.125 1.125v13.5a1.125 1.125 0 0 0 1.125 1.125h15.75a1.125 1.125 0 0 0 1.125-1.125v-13.5A1.125 1.125 0 0 0 28.125 45h-15.75Z" fill="url(#e)"/><path d="M28.125 18h-13.5a3.375 3.375 0 0 1-3.375-3.375v-2.25A3.375 3.375 0 0 1 14.625 9h13.5a3.375 3.375 0 0 1 3.375 3.375v2.25A3.375 3.375 0 0 1 28.125 18Zm-13.5-6.75a1.125 1.125 0 0 0-1.125 1.125v2.25a1.125 1.125 0 0 0 1.125 1.125h13.5a1.125 1.125 0 0 0 1.125-1.125v-2.25a1.125 1.125 0 0 0-1.125-1.125h-13.5Z" fill="url(#f)"/><defs><linearGradient id="a" x1="4.719" y1="12.375" x2="14.183" y2="13.407" gradientUnits="userSpaceOnUse"><stop stop-color="#C7FF51"/><stop offset="1" stop-color="#BA77FD"/></linearGradient><linearGradient id="b" x1="35.393" y1="12.375" x2="78.415" y2="47.575" gradientUnits="userSpaceOnUse"><stop stop-color="#C7FF51"/><stop offset="1" stop-color="#BA77FD"/></linearGradient><linearGradient id="c" x1="32.979" y1="18" x2="48.971" y2="45.892" gradientUnits="userSpaceOnUse"><stop stop-color="#C7FF51"/><stop offset="1" stop-color="#BA77FD"/></linearGradient><linearGradient id="d" x1="14.157" y1="27" x2="25.62" y2="41.068" gradientUnits="userSpaceOnUse"><stop stop-color="#C7FF51"/><stop offset="1" stop-color="#BA77FD"/></linearGradient><linearGradient id="e" x1="10.095" y1="42.75" x2="26.84" y2="65.584" gradientUnits="userSpaceOnUse"><stop stop-color="#C7FF51"/><stop offset="1" stop-color="#BA77FD"/></linearGradient><linearGradient id="f" x1="12.236" y1="9" x2="17.232" y2="22.796" gradientUnits="userSpaceOnUse"><stop stop-color="#C7FF51"/><stop offset="1" stop-color="#BA77FD"/></linearGradient></defs></svg>