<svg width="72" height="72" fill="none" xmlns="http://www.w3.org/2000/svg"><path d="M10.125 54A1.125 1.125 0 0 1 9 52.875V31.5a1.125 1.125 0 1 1 2.25 0v21.375A1.125 1.125 0 0 1 10.125 54Z" fill="url(#a)"/><path d="M61.875 41.625A1.125 1.125 0 0 1 60.75 40.5V19.125a1.125 1.125 0 1 1 2.25 0V40.5a1.125 1.125 0 0 1-1.125 1.125Z" fill="url(#b)"/><path d="M48.21 37.125H36.002V24.92a1.125 1.125 0 0 0-1.125-1.125A14.456 14.456 0 1 0 49.334 38.25a1.125 1.125 0 0 0-1.125-1.125ZM33.752 26.1v11.025H22.728A12.24 12.24 0 0 1 33.753 26.1ZM22.728 39.375h11.025V50.4a12.24 12.24 0 0 1-11.025-11.025ZM36.003 50.4V39.375h11.025A12.24 12.24 0 0 1 36.003 50.4Z" fill="url(#c)"/><path d="M39.375 19.294a1.125 1.125 0 0 0-1.125 1.125V33.75a1.125 1.125 0 0 0 1.125 1.125h13.331a1.125 1.125 0 0 0 1.125-1.125 14.478 14.478 0 0 0-14.456-14.456ZM40.5 32.625V21.6a12.24 12.24 0 0 1 11.025 11.025H40.5Z" fill="url(#d)"/><path d="M64.125 15.75H7.875a3.375 3.375 0 0 1 0-6.75h56.25a3.375 3.375 0 0 1 0 6.75Zm-56.25-4.5a1.125 1.125 0 1 0 0 2.25h56.25a1.125 1.125 0 1 0 0-2.25H7.875Z" fill="url(#e)"/><path d="M64.125 63H7.875a3.375 3.375 0 0 1 0-6.75h56.25a3.375 3.375 0 0 1 0 6.75Zm-56.25-4.5a1.125 1.125 0 1 0 0 2.25h56.25a1.125 1.125 0 1 0 0-2.25H7.875Z" fill="url(#f)"/><path d="M64.125 54h-11.25a3.375 3.375 0 0 1-3.375-3.375V47.25a3.375 3.375 0 0 1 3.375-3.375h11.25A3.375 3.375 0 0 1 67.5 47.25v3.375A3.375 3.375 0 0 1 64.125 54Zm-11.25-7.875a1.125 1.125 0 0 0-1.125 1.125v3.375a1.125 1.125 0 0 0 1.125 1.125h11.25a1.125 1.125 0 0 0 1.125-1.125V47.25a1.125 1.125 0 0 0-1.125-1.125h-11.25Z" fill="url(#g)"/><path d="M19.125 28.125H7.875A3.375 3.375 0 0 1 4.5 24.75v-3.375A3.375 3.375 0 0 1 7.875 18h11.25a3.375 3.375 0 0 1 3.375 3.375v3.375a3.375 3.375 0 0 1-3.375 3.375ZM7.875 20.25a1.125 1.125 0 0 0-1.125 1.125v3.375a1.125 1.125 0 0 0 1.125 1.125h11.25a1.125 1.125 0 0 0 1.125-1.125v-3.375a1.125 1.125 0 0 0-1.125-1.125H7.875Z" fill="url(#h)"/><defs><linearGradient id="a" x1="9.11" y1="30.375" x2="13.833" y2="30.927" gradientUnits="userSpaceOnUse"><stop stop-color="#C7FF51"/><stop offset="1" stop-color="#BA77FD"/></linearGradient><linearGradient id="b" x1="60.859" y1="18" x2="65.583" y2="18.552" gradientUnits="userSpaceOnUse"><stop stop-color="#C7FF51"/><stop offset="1" stop-color="#BA77FD"/></linearGradient><linearGradient id="c" x1="21.829" y1="23.794" x2="46.379" y2="53.924" gradientUnits="userSpaceOnUse"><stop stop-color="#C7FF51"/><stop offset="1" stop-color="#BA77FD"/></linearGradient><linearGradient id="d" x1="39.008" y1="19.294" x2="52.239" y2="35.531" gradientUnits="userSpaceOnUse"><stop stop-color="#C7FF51"/><stop offset="1" stop-color="#BA77FD"/></linearGradient><linearGradient id="e" x1="7.567" y1="9" x2="8.581" y2="20.616" gradientUnits="userSpaceOnUse"><stop stop-color="#C7FF51"/><stop offset="1" stop-color="#BA77FD"/></linearGradient><linearGradient id="f" x1="7.567" y1="56.25" x2="8.581" y2="67.866" gradientUnits="userSpaceOnUse"><stop stop-color="#C7FF51"/><stop offset="1" stop-color="#BA77FD"/></linearGradient><linearGradient id="g" x1="50.376" y1="43.875" x2="57.026" y2="58.384" gradientUnits="userSpaceOnUse"><stop stop-color="#C7FF51"/><stop offset="1" stop-color="#BA77FD"/></linearGradient><linearGradient id="h" x1="5.376" y1="18" x2="12.026" y2="32.509" gradientUnits="userSpaceOnUse"><stop stop-color="#C7FF51"/><stop offset="1" stop-color="#BA77FD"/></linearGradient></defs></svg>