<svg width="24" height="24" fill="none" xmlns="http://www.w3.org/2000/svg"><path d="m3.135 7.75 6.788 5.389h4.154l6.788-5.39m-17.73 0a.692.692 0 0 1 .354-.248l7.9-2.41a2.095 2.095 0 0 1 1.222 0l7.9 2.41c.142.043.266.13.354.248m-17.73 0A.682.682 0 0 0 3 8.157v10.47c0 .365.146.714.406.971s.611.402.979.402h15.23c.368 0 .72-.145.98-.402s.405-.606.405-.97V8.157a.682.682 0 0 0-.135-.408" stroke="url(#a)" stroke-width=".8" stroke-linecap="round" stroke-linejoin="round"/><defs><linearGradient id="a" x1="3.876" y1="5" x2="15.964" y2="22.802" gradientUnits="userSpaceOnUse"><stop stop-color="#C7FF51"/><stop offset="1" stop-color="#BA77FD"/></linearGradient></defs></svg>