<svg width="40" height="40" fill="none" xmlns="http://www.w3.org/2000/svg"><g clip-path="url(#a)" fill="#C7FF51"><path d="M18.281 0h3.516l2.187.313L25.86.78l.625.235V.859l.782-.468.312-.079H38.36l.703.313.547.469.391.781v5.781l-.39.782-.704.624-.86.235-1.015.078.782 1.328.703 1.485.703 1.953.468 1.875.235 1.484.078.703v3.594l-.313 2.187-.468 1.875-.547 1.563-.703 1.562-.782 1.407 1.172.078.703.312.547.469.391.781v5.782l-.39.78-.626.548-.547.234H27.422l-.86-.39-1.875.546-1.64.313-1.25.156h-3.594l-1.797-.234-2.031-.47-2.031-.702-2.11-1.016-1.484-.937-1.25-.938-1.016-.86-1.64-1.64-.86-1.094-.78-1.093L2.577 30l-.937-1.797-.625-1.64L.546 25l-.39-1.875L0 21.797v-3.594l.313-2.187.468-1.875.547-1.563.703-1.562.313-.47.312-.155h.547l.469.39.078.625-.86 1.953-.39 1.172 1.016 2.735.546.547.625.546.704.625.156.313.156 2.969v2.265l-1.719 4.297.157.39.625 1.016.625.86.625.781.859.938.938.937 1.093.86 1.094.78 1.172.704.937.468-.312-1.328-.86-3.047.079-.624 1.328-3.36H10.39l-2.11.703h-.703l-.39-.312-.079-.157v-.625l.938-2.109.078-4.765.313-.782.468-.547.781-.39 2.344-.078.39-1.72v-.39L10.392 15l-.079-.156v-.625l2.735-5.469-.078-.313-.703-.859-.86-1.016-.703-.859-.781-.937-.39.156-1.016.781-1.016.781h-.547l-.39-.234-.157-.234v-.704l.39-.468 1.095-.86 1.093-.78 1.172-.704 1.328-.703 1.954-.781 1.874-.547 1.641-.313L18.281 0Zm.078 1.64-2.109.313-1.797.469-1.875.703-1.25.625.469.625.86 1.016.702.859.86 1.016.625.78.078.626-.86 1.797-1.874 3.75.078.312 1.796 1.797.079.156v.782l-.391 1.953 6.953.078.781.39.47.547.233.547.079.39.312-.155.235-.157h3.593l3.282.078 1.015.079.39.312 1.016 1.328 1.016 1.25.781 1.016.938 1.172.234.468.625 2.657.156.156 1.016-1.953.703-1.875.469-1.797.312-2.11v-3.28l-.703-.47-2.5-1.328-1.562-.859h-1.485l-5.312.313-.781.078-1.094.937-1.094.86-.39.312-.157.078h-.625l-1.953-1.172-1.094-.703-.156-.234-.078-1.016V12.5l.313-.39 2.187-.782-.234-2.734v-.547l.234-.39 1.328-.938 1.406-1.016 1.25-.937V2.578l-.547-.234-1.953-.469-1.718-.234h-3.282Zm9.453.313-.312.313-.078 4.921-.235.625.47-.078 10.234-.078.39-.234.078-.078V2.266l-.312-.313H27.813Zm-2.109 4.922-1.25.938-1.094.78-.078.079v.703l.157 1.719v1.094l-.391.39-2.11.781V15l.157.469 1.797 1.094.625-.47 1.093-.937.703-.547.235-.078 7.812-.469.703.079 2.5 1.328 1.25.703h.157l-.078-.625-.625-2.031-.625-1.407-.86-1.64L35 9.297h-6.953L25.859 10h-.468l-.313-.156-.156-.235v-.703l.86-1.875-.079-.156ZM1.72 17.656l-.078.703v3.282l.312 2.109.469 1.797.469 1.328.156-.156 1.015-2.578v-1.72l-.078-1.796-.078-.703-.703-.703-.625-.547-.234-.235h-.156l-.157-.39-.156-.39H1.72Zm8.594 3.125-.47.235-.077.156-.079 4.922-.234.625.703-.157 10.156-.078.313-.234.078-.313v-4.609l-.234-.39-.39-.157h-9.767Zm13.124 1.64-.859.704-.234.234-.078 2.735-.157.703-.468.703-.547.39-.469.157-.547.078v1.328l2.813 1.328.625.313.312.468 1.563 3.829.39.937h.078v-3.437l-.937-2.11v-.625l.312-.39h.782l2.109.703h6.172l-.078-.703-.625-2.657-1.016-1.25-1.016-1.328-1.015-1.25-.547-.703-.39-.078-3.204-.078h-2.968Zm-9.218 5.704-.313.625-.937 2.422-.313.781.156.781 1.25 4.453.157.313 1.64.469 1.797.312.703.078h3.282l2.109-.312.86-.234-.235-.704-1.563-3.828-.39-.937-1.25-.625-2.5-1.172-.235-.39v-2.032H14.22Zm12.969 3.75.234.625.078 4.922.313.312h10.312l.234-.234v-5.078l-.312-.313-10.156-.078-.703-.156Z" stroke="#2F2A33" stroke-width=".3"/><path d="M18.047 22.813h.703l.39.312.079.156v.625l-.39.469-.626.078-.39-.234-.235-.39v-.47l.235-.39.234-.157Zm-3.125 0h.703l.39.312.079.234v.547l-.39.469-.626.078-.39-.234-.235-.39v-.47l.313-.468.156-.078Zm-3.125 0h.703l.39.39.079.156v.547l-.39.469-.626.078-.39-.234-.235-.313v-.547l.313-.468.156-.078ZM29.531 3.906h.547l.469.39.078.626-.234.39-.313.235h-.547l-.468-.313-.079-.156v-.703l.391-.39.156-.079Zm6.407 30.391.468.078.39.313.079.703-.313.468-.156.078h-.703l-.39-.312-.079-.156v-.625l.391-.469.313-.078ZM4.61 7.422l.546.078.39.313.079.703-.234.39-.235.156h-.703l-.39-.312-.079-.156v-.625l.391-.469.234-.078Zm31.171-3.516h.547l.469.39.078.157V5l-.39.469-.157.078h-.547l-.39-.234L35.234 5v-.547l.235-.39.312-.157Zm-2.968 30.391.468.078.39.39.079.157v.469l-.313.468-.156.078h-.703l-.39-.312-.079-.156v-.625l.391-.469.313-.078Zm-3.125 0 .468.078.39.39.079.157v.469l-.313.468-.156.078h-.703l-.39-.312-.079-.156v-.625l.391-.469.313-.078Zm2.968-30.391h.547l.469.39.078.626-.234.39-.313.235h-.547l-.39-.234L32.109 5v-.547l.235-.39.312-.157Z"/></g><defs><clipPath id="a"><path fill="#fff" d="M0 0h40v40H0z"/></clipPath></defs></svg>