<svg width="24" height="24" fill="none" xmlns="http://www.w3.org/2000/svg"><g clip-path="url(#a)" fill="#fff"><path d="M8.288 10.092c.62-.622.62-1.629 0-2.25l-3.37-3.376a1.6 1.6 0 0 0-2.256 0L.353 6.779a1.2 1.2 0 0 0-.352.831C-.016 9 .309 13.92 5.194 18.806 9.974 23.586 14.785 24 16.297 24h.096a1.2 1.2 0 0 0 .827-.352l2.314-2.31a1.6 1.6 0 0 0 0-2.254l-3.374-3.372a1.594 1.594 0 0 0-2.25 0l-1.798 1.796a.391.391 0 0 1-.509.043 21.317 21.317 0 0 1-2.75-2.404 21.347 21.347 0 0 1-2.405-2.752.392.392 0 0 1 .045-.506l1.795-1.797ZM3.792 4.8c.21 0 .411.083.56.231l3.37 3.375c.31.31.31.81 0 1.12l-.56.56-4.494-4.494.56-.56a.8.8 0 0 1 .564-.232Zm11.801 11.48 3.375 3.37a.8.8 0 0 1 0 1.125l-.56.56-4.495-4.495.56-.56a.79.79 0 0 1 1.12 0Zm-9.8-3.42a22.148 22.148 0 0 0 2.494 2.855c.878.91 1.833 1.744 2.854 2.492a1.19 1.19 0 0 0 1.536-.13l.67-.672 4.493 4.492-1.187 1.185a.4.4 0 0 1-.274.117h-.089c-1.423 0-5.967-.395-10.532-4.96C1.096 13.575.785 8.932.8 7.623a.4.4 0 0 1 .118-.28L2.103 6.16l4.494 4.492-.671.671a1.19 1.19 0 0 0-.132 1.534v.003Z"/><path d="M22.4 0H11.2a1.6 1.6 0 0 0-1.6 1.6v8a1.6 1.6 0 0 0 1.6 1.6h11.2A1.6 1.6 0 0 0 24 9.6v-8A1.6 1.6 0 0 0 22.4 0Zm.8 1.6v8c0 .06-.008.12-.022.18L19.189 5.6l3.989-4.179a.775.775 0 0 1 .022.18Zm-.8-.8a.793.793 0 0 1 .23.038l-4.955 5.19a1.245 1.245 0 0 1-1.75 0L10.971.837a.792.792 0 0 1 .23-.038H22.4ZM10.422 9.78a.784.784 0 0 1-.022-.18v-8c0-.06.008-.12.022-.179l3.989 4.18-3.989 4.178Zm.778.62a.793.793 0 0 1-.229-.038l3.993-4.182.383.4a2.016 2.016 0 0 0 2.907 0l.382-.4 3.993 4.182a.793.793 0 0 1-.229.038H11.2Z"/></g><defs><clipPath id="a"><path fill="#fff" d="M0 0h24v24H0z"/></clipPath></defs></svg>