<svg width="1611" height="422" fill="none" xmlns="http://www.w3.org/2000/svg"><mask id="b" fill="#fff"><path fill-rule="evenodd" clip-rule="evenodd" d="M51.262 0H1562.11l40.05 36.279L0 341.716V46.614L51.262 0ZM0 361.643v21.241L42.748 422H1574.66l36.34-31.29V54.521L0 361.643Z"/></mask><path d="m1562.11 0 .67-.741-.29-.259h-.38v1ZM51.262 0v-1h-.386l-.287.26.673.74ZM1602.16 36.279l.19.982 1.97-.376-1.48-1.348-.68.742ZM0 341.716h-1v1.208l1.187-.226-.187-.982ZM0 46.614l-.673-.74-.327.297v.443h1Zm0 315.029-.187-.983-.813.155v.828h1Zm0 21.241h-1v.44l.325.298.675-.738ZM42.748 422l-.675.738.286.262h.389v-1Zm1531.912 0v1h.37l.28-.242-.65-.758Zm36.34-31.29.65.758.35-.299v-.459h-1Zm0-336.189h1v-1.208l-1.19.226.19.982ZM1562.11-1H51.262v2H1562.11v-2Zm40.73 36.537L1562.78-.74l-1.34 1.48 40.05 36.279 1.35-1.483ZM.187 342.698 1602.35 37.261l-.37-1.965L-.187 340.733l.374 1.965ZM-1 46.614v295.102h2V46.614h-2ZM50.59-.74-.674 45.874l1.346 1.48L51.935.74 50.589-.74ZM-1 361.643v21.241h2v-21.241h-2Zm.325 21.979 42.748 39.116 1.35-1.476L.675 382.146l-1.35 1.476ZM42.748 423H1574.66v-2H42.748v2Zm1532.562-.242 36.34-31.29-1.3-1.516-36.35 31.29 1.31 1.516ZM1612 390.71V54.521h-2V390.71h2Zm-1.19-337.171L-.187 360.66l.374 1.965L1611.19 55.504l-.38-1.965Z" fill="url(#a)" mask="url(#b)"/><defs><linearGradient id="a" x1="78.426" y1="0" x2="227.801" y2="699.85" gradientUnits="userSpaceOnUse"><stop stop-color="#C7FF51"/><stop offset="1" stop-color="#BA77FD"/></linearGradient></defs></svg>