<svg width="759" height="557" fill="none" xmlns="http://www.w3.org/2000/svg"><mask id="b" fill="#fff"><path fill-rule="evenodd" clip-rule="evenodd" d="M59.682 557 26.07 527.75l732.5-409.139v393.582L696.055 557H59.682ZM758.57 89.374 5.605 509.942 0 505.066V61.76l.412.219L83.017-.001 695.485 0l63.085 56.93v32.444Z"/></mask><path d="m26.069 527.75-.488-.873-1.242.694 1.073.933.657-.754ZM59.682 557l-.656.754.282.246h.374v-1ZM758.57 118.611h1v-1.703l-1.487.83.487.873Zm0 393.582.583.813.417-.299v-.514h-1ZM696.055 557v1h.322l.261-.187-.583-.813ZM5.605 509.942l-.657.755.53.461.614-.343-.487-.873ZM758.57 89.374l.488.873.512-.286v-.587h-1ZM0 505.066h-1v.455l.344.299.657-.754ZM0 61.76l.47-.883-1.47-.779v1.662h1Zm.413.219-.468.883.56.297.508-.38-.6-.8ZM83.017-.001v-1h-.334l-.267.201.6.8ZM695.485 0l.67-.742L695.87-1h-.385v1Zm63.085 56.93h1v-.444l-.33-.298-.67.742ZM25.412 528.504l33.614 29.25 1.313-1.508-33.614-29.25-1.313 1.508Zm732.671-410.766L25.581 526.877l.975 1.746 732.502-409.138-.975-1.747Zm1.487 394.455V118.611h-2v393.582h2Zm-62.932 45.62 62.515-44.807-1.165-1.626-62.515 44.807 1.165 1.626ZM59.682 558h636.373v-2H59.682v2Zm-53.59-47.185L759.058 90.247l-.975-1.746L5.117 509.069l.975 1.746Zm-6.748-4.995 5.604 4.877 1.313-1.509-5.604-4.876-1.313 1.508ZM-.999 61.76v443.306h2V61.76h-2Zm1.88-.665-.412-.218-.937 1.767.413.218.936-1.767ZM82.416-.8-.187 61.18l1.2 1.6L83.617.799 82.417-.8ZM695.485-1H83.017v2h612.468v-2Zm63.755 57.188L696.155-.742l-1.34 1.484 63.085 56.93 1.34-1.484Zm.33 33.186V56.93h-2v32.444h2Z" fill="url(#a)" mask="url(#b)"/><defs><linearGradient id="a" x1="721.642" y1="557" x2="296.117" y2="-154.228" gradientUnits="userSpaceOnUse"><stop stop-color="#C7FF51"/><stop offset="1" stop-color="#BA77FD"/></linearGradient></defs></svg>