<svg width="72" height="72" fill="none" xmlns="http://www.w3.org/2000/svg"><path d="M59 20H24c-.65 0-2-.358-2-1v-5c0-.642 1.35-2 2-2h35c.65 0 1 1.358 1 2v5c0 .628-.364 1-1 1Zm-35-1h35v-5H24v5Zm35 34H37c-.382 0 0 .377 0 0s-.382-1 0-1h22c.382 0 1 .623 1 1s-.618 0-1 0Zm0 7H23c-.382 0-1-.623-1-1s.618-1 1-1h36c.382 0 1 .623 1 1s-.618 1-1 1Zm0-13H37c-.382 0 0 .377 0 0s-.382-1 0-1h22c.382 0 1 .623 1 1s-.618 0-1 0Zm0-5H23c-.382 0-1-.623-1-1s.618 0 1 0h36c.382 0 1-.377 1 0s-.618 1-1 1Zm-15-5H23c-.382 0-1-.623-1-1s.618-1 1-1h21c.382 0 0 .623 0 1-.014.377.382 1 0 1Zm0-6H23c-.382 0-1 .377-1 0s.618-1 1-1h21c.382 0 0 .623 0 1 .382 0 0 .377 0 0Zm0-5H23c-.382 0-1-.623-1-1s.618 0 1 0h21c0-.377.382 0 0 0 0 .377.382 1 0 1Zm15 11H49c-.75 0-1-1.246-1-2v-9c0-.74.236-1 1-1h10c.75 0 1 .247 1 1v9c0 .74-.25 2-1 2Zm-9-2h9v-9h-9v9ZM32 53h-8c-.735 0-2-.274-2-1v-5c0-.726 1.265-1 2-1h8c.736 0 2 .274 2 1v5c0 .726-1.25 1-2 1Zm-8-1h8v-5h-8v5Zm39 14H14c-3.04 0-6-2-6-5V20c0-.963 1.024-1 2-1h8V8c0-.963.024-2 1-2h44c.976 0 2 1.037 2 2v56c0 .963-1.024 2-2 2Zm-46-1h46c.212 0 1-.79 1-1V8c0-.21-.788-1-1-1H19c-.212 0 0 .79 0 1v53c-.014 1.619-.854 3.01-2 4Zm-7-45c-.212 0-1-.21-1 0v41c0 2.246 2.723 4 5 4s4-1.754 4-4V20h-8Z" fill="url(#a)"/><defs><linearGradient id="a" x1="10.775" y1="6" x2="62.187" y2="65.942" gradientUnits="userSpaceOnUse"><stop stop-color="#C7FF51"/><stop offset="1" stop-color="#BA77FD"/></linearGradient></defs></svg>