<svg width="759" height="564" fill="none" xmlns="http://www.w3.org/2000/svg"><mask id="b" fill="#fff"><path fill-rule="evenodd" clip-rule="evenodd" d="M759 56v66.534L51.658 557.059 0 511.568V61.144L83.948 0h607.423L759 56Zm-52.62 508H72.236L759 142.117v386.111L706.38 564Z"/></mask><path d="m759 122.534.523.852.477-.293v-.559h-1Zm0-66.535h1v-.47l-.362-.3-.638.77ZM51.658 557.06l-.661.75.554.488.63-.386-.523-.852ZM0 511.568h-1v.451l.34.299.66-.75ZM0 61.144l-.589-.808-.411.3v.508h1ZM83.948 0v-1h-.325l-.263.192.588.808Zm607.423 0 .638-.77-.278-.23h-.36v1ZM72.236 564l-.523-.852L68.698 565h3.538v-1Zm634.144 0v1h.307l.255-.173-.562-.827ZM759 142.117h1v-1.788l-1.523.936.523.852Zm0 386.111.562.827.438-.298v-.529h-1Zm1-405.694V55.999h-2v66.535h2ZM52.181 557.911l707.342-434.525-1.046-1.704L51.134 556.206l1.047 1.705ZM-.66 512.318l51.658 45.491 1.322-1.501L.66 510.817l-1.322 1.501ZM-1 61.144v450.424h2V61.144h-2ZM83.36-.808-.59 60.336l1.18 1.616L84.537.808 83.36-.808ZM691.37-1H83.948v2h607.423v-2Zm68.267 56.229-67.629-56L690.733.77l67.629 56 1.276-1.541ZM72.236 565H706.38v-2H72.236v2Zm686.241-423.735L71.713 563.148l1.047 1.704 686.763-421.883-1.046-1.704ZM760 528.228V142.117h-2v386.111h2Zm-53.058 36.599 52.62-35.772-1.124-1.654-52.621 35.772 1.125 1.654Z" fill="url(#a)" mask="url(#b)"/><path d="m618.743 332.616-.2-1.032" stroke="#BA77FD" stroke-linecap="round" stroke-linejoin="round"/><defs><linearGradient id="a" x1="722.051" y1="564" x2="288.767" y2="-151.614" gradientUnits="userSpaceOnUse"><stop stop-color="#C7FF51"/><stop offset="1" stop-color="#BA77FD"/></linearGradient></defs></svg>