<svg width="44" height="32" fill="none" xmlns="http://www.w3.org/2000/svg"><path fill-rule="evenodd" clip-rule="evenodd" d="M1.355 6.23 4.23 3.355A4.585 4.585 0 0 1 7 2.03V2h11a3 3 0 0 1 3 3v4.5a1 1 0 0 1-2 0V5a1 1 0 0 0-1-1H8v3a3 3 0 0 1-3 3H2v17a1 1 0 0 0 1 1h15a1 1 0 0 0 1-1v-1.5H7a3 3 0 0 1-3-3v-7a3 3 0 0 1 3-3h34a3 3 0 0 1 3 3v7a3 3 0 0 1-3 3H21V27a3 3 0 0 1-3 3H3a3 3 0 0 1-3-3V9.5a4.62 4.62 0 0 1 1.355-3.27ZM5 8a1 1 0 0 0 1-1V4.5a2.64 2.64 0 0 0-.355.29l-2.88 2.88A2.64 2.64 0 0 0 2.5 8H5Z" fill="url(#a)"/><path d="M17.88 16.284c.552.528.828 1.188.828 1.98s-.276 1.456-.828 1.992c-.552.528-1.26.792-2.124.792h-1.308V24h-1.404v-8.52h2.712c.864 0 1.572.268 2.124.804Zm-.984 3.036c.288-.28.432-.632.432-1.056 0-.424-.144-.772-.432-1.044-.28-.28-.664-.42-1.152-.42h-1.296v2.928h1.296c.488 0 .872-.136 1.152-.408ZM20.699 24v-8.52h2.616c1.264 0 2.324.408 3.18 1.224.856.816 1.284 1.828 1.284 3.036s-.428 2.22-1.284 3.036c-.856.816-1.916 1.224-3.18 1.224h-2.616Zm1.404-1.308h1.212c.896 0 1.624-.28 2.184-.84.568-.56.852-1.264.852-2.112 0-.848-.284-1.552-.852-2.112-.56-.56-1.288-.84-2.184-.84h-1.212v5.904ZM29.923 24v-8.52h5.065v1.344h-3.66v2.196h2.88v1.332h-2.88V24h-1.404Z" fill="#272727"/><defs><linearGradient id="a" x1="2.142" y1="2" x2="21.982" y2="40.264" gradientUnits="userSpaceOnUse"><stop stop-color="#C7FF51"/><stop offset="1" stop-color="#BA77FD"/></linearGradient></defs></svg>