<svg width="625" height="791" fill="none" xmlns="http://www.w3.org/2000/svg"><mask id="b" fill="#fff"><path fill-rule="evenodd" clip-rule="evenodd" d="M68.604 791h488.434L625 733.262V297.549L0 733.763v.008L68.604 791ZM625 66.496V270.63L0 706.844V64.484L80.642 0h470.405L625 66.496ZM0 790.232l.92.768H0v-.768Z"/></mask><path d="M557.038 791v1h.367l.28-.238-.647-.762Zm-488.434 0-.64.768.277.232h.363v-1ZM625 733.262l.647.762.353-.3v-.462h-1Zm0-435.713h1v-1.918l-1.572 1.098.572.82ZM0 733.763l-.572-.821-.428.299v.522h1Zm0 .008h-1v.468l.36.3.64-.768ZM625 270.63l.572.82.428-.298v-.522h-1Zm0-204.134h1v-.445l-.331-.299-.669.744ZM0 706.844h-1v1.918l1.572-1.098-.572-.82Zm0-642.36-.624-.782-.376.3v.481h1ZM80.642 0v-1h-.35l-.274.219.624.781Zm470.405 0 .669-.744L551.43-1h-.383v1ZM.921 791v1h2.76l-2.12-1.768-.64.768Zm-.92-.768.64-.768-1.64-1.369v2.137h1ZM0 791h-1v1h1v-1Zm557.037-1H68.604v2h488.434v-2Zm67.315-57.501-67.963 57.739 1.295 1.524 67.962-57.738-1.294-1.525ZM624 297.549v435.713h2V297.549h-2ZM.572 734.583l625-436.214-1.144-1.64-625 436.213 1.144 1.641Zm.428-.812v-.008h-2v.008h2Zm68.244 56.461L.641 733.003l-1.282 1.536 68.604 57.229 1.281-1.536ZM626 270.63V66.496h-2V270.63h2ZM.572 707.664l625-436.214-1.144-1.64-625 436.214 1.144 1.64ZM-1 64.484v642.36h2V64.484h-2ZM80.018-.782-.624 63.702l1.249 1.562L81.267.781l-1.25-1.562ZM551.047-1H80.642v2h470.405v-2Zm74.622 66.752L551.716-.743 550.378.744l73.953 66.496 1.338-1.487ZM1.561 790.233l-.92-.768L-.641 791l.921.768 1.281-1.536ZM.001 792h.92v-2H0v2Zm-1-1.768V791h2v-.768h-2Z" fill="url(#a)" mask="url(#b)"/><defs><linearGradient id="a" x1="594.574" y1="791" x2="-90.884" y2="126.295" gradientUnits="userSpaceOnUse"><stop stop-color="#C7FF51"/><stop offset="1" stop-color="#BA77FD"/></linearGradient></defs></svg>