<svg width="44" height="32" fill="none" xmlns="http://www.w3.org/2000/svg"><path fill-rule="evenodd" clip-rule="evenodd" d="M1.355 6.23 4.23 3.355A4.585 4.585 0 0 1 7 2.03V2h11a3 3 0 0 1 3 3v4.5a1 1 0 0 1-2 0V5a1 1 0 0 0-1-1H8v3a3 3 0 0 1-3 3H2v17a1 1 0 0 0 1 1h15a1 1 0 0 0 1-1v-1.5H7a3 3 0 0 1-3-3v-7a3 3 0 0 1 3-3h34a3 3 0 0 1 3 3v7a3 3 0 0 1-3 3H21V27a3 3 0 0 1-3 3H3a3 3 0 0 1-3-3V9.5a4.62 4.62 0 0 1 1.355-3.27ZM5 8a1 1 0 0 0 1-1V4.5a2.64 2.64 0 0 0-.355.29l-2.88 2.88A2.64 2.64 0 0 0 2.5 8H5Z" fill="url(#a)"/><path d="M13.88 16.284c.552.528.828 1.188.828 1.98s-.276 1.456-.828 1.992c-.552.528-1.26.792-2.124.792h-1.308V24H9.044v-8.52h2.712c.864 0 1.572.268 2.124.804Zm-.984 3.036c.288-.28.432-.632.432-1.056 0-.424-.144-.772-.432-1.044-.28-.28-.664-.42-1.152-.42h-1.296v2.928h1.296c.488 0 .872-.136 1.152-.408Zm8.639-3.036c.552.528.828 1.188.828 1.98s-.276 1.456-.828 1.992c-.552.528-1.26.792-2.124.792h-1.308V24h-1.404v-8.52h2.712c.864 0 1.572.268 2.124.804Zm-.984 3.036c.288-.28.432-.632.432-1.056 0-.424-.144-.772-.432-1.044-.28-.28-.664-.42-1.152-.42h-1.296v2.928h1.296c.488 0 .872-.136 1.152-.408ZM26.009 24v-7.176h-2.472V15.48h6.36v1.344h-2.484V24H26.01Zm6.389 0h-1.692l3.252-4.32-3.096-4.2h1.656l2.292 3.108 2.304-3.108h1.656l-3.096 4.212L38.926 24h-1.68l-2.424-3.192L32.398 24Z" fill="#272727"/><defs><linearGradient id="a" x1="2.142" y1="2" x2="21.982" y2="40.264" gradientUnits="userSpaceOnUse"><stop stop-color="#C7FF51"/><stop offset="1" stop-color="#BA77FD"/></linearGradient></defs></svg>