<svg width="40" height="40" fill="none" xmlns="http://www.w3.org/2000/svg"><path d="M18.36 1.875h3.28l2.11.313 1.797.468 1.64.625 1.641.781 1.25.782 1.094.781 1.172 1.016 1.328 1.328.86 1.093.624.86.938 1.562.703 1.485.625 1.719.469 1.953.234 1.718v3.282l-.313 2.109-.468 1.797-.703 1.875-1.016 1.953-.625.938-.703.937-.703.86-1.719 1.718-1.328 1.016-1.328.86-1.797.937-1.875.703-1.797.468-1.328.235-.781.078h-3.282l-2.109-.313-1.797-.468-1.875-.703-1.953-1.016L9.687 35l-1.25-.938-.937-.859-.39-.312-.548-.625-.78-.86L4.765 30l-.938-1.64-.625-1.329-.625-1.718-.469-1.954-.234-1.64V18.28l.313-2.031.468-1.797.703-1.875 1.016-1.953.781-1.172.782-1.015.859-.938.469-.547.625-.547 1.015-.86 1.328-.937 1.407-.78 1.484-.704 2.11-.703 1.874-.39 1.25-.157Zm1.328 1.25-1.954.156-1.953.39-1.328.392-1.875.78-1.406.782-1.25.86-.86.702-.937.86-.703.703-.703.86-.782 1.093-.703 1.172-.625 1.25-.625 1.563-.468 1.718-.313 2.032v3.203l.313 1.953.468 1.718.625 1.563.625 1.25.704 1.172.78 1.094 1.016 1.172 1.016 1.015.86.703 1.093.782 1.172.703 1.25.625 1.563.625 1.718.468 2.032.313 1.64.078 2.188-.156 1.953-.39 1.25-.392 1.406-.546 1.953-1.016 1.328-.938.86-.703 1.015-.937.938-1.016.937-1.25.625-1.015.938-1.797.703-1.953.39-1.563.235-1.64v-3.125l-.313-2.032-.547-1.953-.624-1.484-.626-1.25-.78-1.25-.704-.938-.937-1.094-1.016-1.015-.86-.703-1.093-.782-1.172-.703-1.25-.625-1.563-.625-1.718-.468-1.953-.313-1.953-.078Z" fill="url(#a)"/><path d="M19.219 7.89h1.562l1.328.313 1.094.547.86.703.546.625.625 1.016.47 1.406.077.547v1.484l-.312 1.25-.625 1.25-.86.938-.78.625-.157.078.781.312 3.516 1.172.937.469.782.625.625.703.625 1.25.234 1.016V27.5l-.313.703-.39.39-.469.313-.313.078H10.938l-.624-.234-.391-.313-.313-.468-.156-.469v-3.281l.313-1.25.546-1.016.86-.937 1.094-.703 3.671-1.25.938-.313.078-.078-.86-.625-.702-.703-.547-.86-.39-.937-.235-1.016v-1.484l.234-1.094.469-1.172.547-.781.703-.781.781-.547.938-.469 1.328-.312Zm.156 1.329-.938.234-.937.469-.938.86-.546.78-.391 1.016-.078.39v1.485l.312 1.016.547.937.469.547.86.625.859.39.547.157 1.015.078 1.25-.234.782-.313.859-.625.625-.703.547-1.094.234-1.015v-1.016l-.312-1.25-.391-.781-.625-.781-1.016-.704-1.093-.39-.47-.078h-1.171Zm-.313 10.312-1.484.39-4.453 1.485-.86.469-.78.781-.547 1.016-.157.703v2.89l.39.391h17.657l.39-.39v-2.891l-.234-.86-.468-.859-.782-.781-1.093-.547-4.688-1.562-1.015-.235h-1.875Z" fill="url(#b)"/><defs><linearGradient id="a" x1="3.64" y1="1.875" x2="34.42" y2="39.651" gradientUnits="userSpaceOnUse"><stop stop-color="#C7FF51"/><stop offset="1" stop-color="#BA77FD"/></linearGradient><linearGradient id="b" x1="10.48" y1="7.891" x2="28.391" y2="29.872" gradientUnits="userSpaceOnUse"><stop stop-color="#C7FF51"/><stop offset="1" stop-color="#BA77FD"/></linearGradient></defs></svg>