<svg width="32" height="32" fill="none" xmlns="http://www.w3.org/2000/svg"><path d="m16.328 4.944.009.017 3.181 6.44a1.774 1.774 0 0 0 1.402 1.027l7.025 1.044.015.002a.33.33 0 0 1 .17.074l.48-.576-.48.576a.336.336 0 0 1 .014.504.77.77 0 0 0-.016.016l-5.065 5.038a1.815 1.815 0 0 0-.538 1.632v.002l1.223 7.092v.001a.357.357 0 0 1-.323.416.35.35 0 0 1-.189-.04l-.002-.001L16.9 24.85a1.931 1.931 0 0 0-1.725-.01l-.006.003-.013.007-6.335 3.357h-.002a.35.35 0 0 1-.37-.025l-.442.607.441-.607a.355.355 0 0 1-.14-.35v-.002l1.222-7.171v-.003a1.818 1.818 0 0 0-.542-1.636L3.86 14.06h0l-.005-.005a.336.336 0 0 1 .203-.578.756.756 0 0 0 .052-.006l7.025-1.044a1.77 1.77 0 0 0 1.402-1.027l3.181-6.44.009-.017a.334.334 0 0 1 .301-.194.33.33 0 0 1 .301.194Z" stroke="url(#a)" stroke-width="1.5" stroke-linecap="round" stroke-linejoin="round"/><defs><linearGradient id="a" x1="4.266" y1="4" x2="25.311" y2="30.861" gradientUnits="userSpaceOnUse"><stop stop-color="#C7FF51"/><stop offset="1" stop-color="#BA77FD"/></linearGradient></defs></svg>