<svg width="32" height="32" fill="none" xmlns="http://www.w3.org/2000/svg"><path d="M17 18.268a6.294 6.294 0 0 0-1.757-4.378A5.907 5.907 0 0 0 11 12.076a5.907 5.907 0 0 0-4.243 1.814A6.294 6.294 0 0 0 5 18.268v2.654h2.571L8.43 28h5.142l.858-7.077H17v-2.654Z" fill="url(#a)" stroke="url(#b)" stroke-width="1.5" stroke-linecap="round" stroke-linejoin="round"/><path d="M10.999 12.077c1.893 0 3.428-1.584 3.428-3.539C14.428 6.584 12.893 5 11 5 9.105 5 7.57 6.584 7.57 8.538c0 1.955 1.535 3.539 3.429 3.539Z" fill="url(#c)" stroke="url(#d)" stroke-width="1.5" stroke-linecap="round" stroke-linejoin="round"/><path d="M22.313 18.268a6.294 6.294 0 0 0-1.758-4.378 5.907 5.907 0 0 0-4.242-1.814 5.907 5.907 0 0 0-4.243 1.814 6.294 6.294 0 0 0-1.758 4.378v2.654h2.572L13.74 28h5.143l.857-7.077h2.572v-2.654Z" fill="url(#e)" stroke="url(#f)" stroke-width="1.5" stroke-linecap="round" stroke-linejoin="round"/><path d="M16.311 12.077c1.894 0 3.429-1.584 3.429-3.539C19.74 6.584 18.205 5 16.311 5c-1.893 0-3.428 1.584-3.428 3.538 0 1.955 1.535 3.539 3.428 3.539Z" fill="url(#g)" stroke="url(#h)" stroke-width="1.5" stroke-linecap="round" stroke-linejoin="round"/><path d="M27.629 18.268a6.294 6.294 0 0 0-1.758-4.378 5.907 5.907 0 0 0-4.242-1.814 5.907 5.907 0 0 0-4.243 1.814 6.294 6.294 0 0 0-1.757 4.378v2.654H18.2L19.058 28H24.2l.858-7.077h2.57v-2.654Z" fill="url(#i)" stroke="url(#j)" stroke-width="1.5" stroke-linecap="round" stroke-linejoin="round"/><path d="M21.632 12.077c1.893 0 3.428-1.584 3.428-3.539C25.06 6.584 23.525 5 21.632 5c-1.894 0-3.429 1.584-3.429 3.538 0 1.955 1.535 3.539 3.429 3.539Z" fill="url(#k)" stroke="url(#l)" stroke-width="1.5" stroke-linecap="round" stroke-linejoin="round"/><defs><linearGradient id="a" x1="3.941" y1="10.039" x2="16.884" y2="26.549" gradientUnits="userSpaceOnUse"><stop stop-color="#272727"/><stop offset=".2" stop-color="#3F2E50"/><stop offset=".5" stop-color="#272727"/><stop offset=".708" stop-color="#272727"/></linearGradient><linearGradient id="b" x1="5.584" y1="12.076" x2="19.347" y2="24.806" gradientUnits="userSpaceOnUse"><stop stop-color="#C7FF51"/><stop offset="1" stop-color="#BA77FD"/></linearGradient><linearGradient id="c" x1="6.965" y1="4.094" x2="12.231" y2="12.731" gradientUnits="userSpaceOnUse"><stop stop-color="#272727"/><stop offset=".2" stop-color="#3F2E50"/><stop offset=".5" stop-color="#272727"/><stop offset=".708" stop-color="#272727"/></linearGradient><linearGradient id="d" x1="7.904" y1="5" x2="13.949" y2="12.188" gradientUnits="userSpaceOnUse"><stop stop-color="#C7FF51"/><stop offset="1" stop-color="#BA77FD"/></linearGradient><linearGradient id="e" x1="9.253" y1="10.039" x2="22.197" y2="26.549" gradientUnits="userSpaceOnUse"><stop stop-color="#272727"/><stop offset=".2" stop-color="#3F2E50"/><stop offset=".5" stop-color="#272727"/><stop offset=".708" stop-color="#272727"/></linearGradient><linearGradient id="f" x1="10.897" y1="12.076" x2="24.66" y2="24.806" gradientUnits="userSpaceOnUse"><stop stop-color="#C7FF51"/><stop offset="1" stop-color="#BA77FD"/></linearGradient><linearGradient id="g" x1="12.277" y1="4.094" x2="17.544" y2="12.731" gradientUnits="userSpaceOnUse"><stop stop-color="#272727"/><stop offset=".2" stop-color="#3F2E50"/><stop offset=".5" stop-color="#272727"/><stop offset=".708" stop-color="#272727"/></linearGradient><linearGradient id="h" x1="13.217" y1="5" x2="19.261" y2="12.188" gradientUnits="userSpaceOnUse"><stop stop-color="#C7FF51"/><stop offset="1" stop-color="#BA77FD"/></linearGradient><linearGradient id="i" x1="14.569" y1="10.039" x2="27.513" y2="26.549" gradientUnits="userSpaceOnUse"><stop stop-color="#272727"/><stop offset=".2" stop-color="#3F2E50"/><stop offset=".5" stop-color="#272727"/><stop offset=".708" stop-color="#272727"/></linearGradient><linearGradient id="j" x1="16.213" y1="12.076" x2="29.976" y2="24.806" gradientUnits="userSpaceOnUse"><stop stop-color="#C7FF51"/><stop offset="1" stop-color="#BA77FD"/></linearGradient><linearGradient id="k" x1="17.598" y1="4.094" x2="22.864" y2="12.731" gradientUnits="userSpaceOnUse"><stop stop-color="#272727"/><stop offset=".2" stop-color="#3F2E50"/><stop offset=".5" stop-color="#272727"/><stop offset=".708" stop-color="#272727"/></linearGradient><linearGradient id="l" x1="18.537" y1="5" x2="24.582" y2="12.188" gradientUnits="userSpaceOnUse"><stop stop-color="#C7FF51"/><stop offset="1" stop-color="#BA77FD"/></linearGradient></defs></svg>