<svg width="32" height="32" fill="none" xmlns="http://www.w3.org/2000/svg"><path d="M5.805 6h.761l1.758.776.469.298.293.358.117.298v.776l-.351.835.351.12 1.055.476.293.06h.469l1.875-.358.527-.06h.82l.82.18.704.357.293-.119.644-.298.82-.239h1.407l1.113.299 1.348.537.703.119.527-.18.762-.417V9.58l-.235-.657v-.596l.293-.597.41-.358 1.993-.775h.761l.47.238.35.418 1.114 2.923 1.113 2.923 1.114 2.924.234.596v.835l-.234.478-.41.358-1.934.775-.645.06-.527-.179-.352-.298-.293-.597v-.179l-1.289.537H25.2v.716l-.176.537-.527.597-.469.238h-.175l.058.12v.954l-.234.537-.41.477-.586.299-.176.06h-.586l-.059.596-.351.716-.41.358-.528.238-.586.06-.293-.06v.418l-.175.537-.528.596-.586.299-.703.06-.527-.12-.527-.298-.235.06-.469.417-.468.179h-.88l-.585-.239-.469-.417-.293-.478-.469.12-.703-.06-.527-.238-.469-.418-.176-.298-.468.119h-.82l-.587-.239-.468-.417-.293-.478-.118-.417v-.597l-.585-.06-.47-.238-.41-.358-.292-.537-.118-.418v-.537l.176-.596.469-.955-.293-1.253-.176-.298-1.054-.477-.118.358-.234.358-.41.358-.352.12h-.586l-.996-.42-1.172-.537-.41-.477L1 16.68v-.835l1.172-2.685 1.113-2.565 1.113-2.566.586-1.372.352-.417.469-.24Zm.234 1.014-.234.298L4.69 9.878l-1.113 2.565-1.113 2.566-.469 1.073v.358l.176.18 1.7.775.35-.06.176-.298.82-1.85 1.055-2.445 1.172-2.685.762-1.79-.059-.418-.703-.358-1.113-.477h-.293Zm19.98.597-1.757.716-.117.179.058.417 1.055 2.745 1.113 2.923 1.113 2.923.235.477.293.12 1.816-.716.176-.18-.059-.536-1.054-2.744-1.114-2.924-1.113-2.923-.176-.358-.117-.12h-.351Zm-7.91 2.804-.703.12-.703.297-.703.418-.645.537-.644.656-.469.418-.937.775-1.23.836-.177.119.118.239.586.417.761.239h.469l.879-.18 1.406-.536 1.113-.418.82-.179h.762l.762.239 1.582.895 1.407.835 1.582.895.468.358.235.12 1.347-.597-.175-.537-.938-2.506-.938-2.446-.234-.597-.117-.06-.879.478-.352.12H21.45l-1.055-.359-1.054-.417-.938-.18h-.293Zm-9.726-.12L7.21 12.98l-1.113 2.566-.293.715 1.172.537.293.239.293.597.117.417.82-.417h.938l.585.238.352.299.293.536.176.478h.469l.527.119.586.358.351.477.176.358h.938l.586.239.468.417.293.597h.938l.644.239.645.537 1.465.835.82.477.41.06.41-.18.293-.357.059-.358-.176-.477-.351-.299-1.582-.895-1.231-.716-.586-.357-.117-.18v-.357l.176-.239h.527l1.465.835 1.465.835 1.347.776h.47l.41-.239.175-.298v-.537l-.176-.298-.351-.298-1.7-.955-1.23-.716-.293-.298v-.358l.176-.239.351-.06.82.418 1.231.716 1.348.776.351.06.47-.18.292-.417v-.537l-.293-.418-1.64-.954-1.641-.955-1.524-.895-.41-.12h-.586l-.879.24-1.992.775-.879.239-1.054.06-.82-.18-.704-.358-.586-.537-.41-.477-.058-.537.175-.298 1.23-.776.997-.775.762-.656.703-.716.293-.299-.41-.179-.293-.06h-.704l-1.347.24-1.113.178h-.528l-.644-.119-1.29-.596h-.175Zm.351 8.293-.293.179-.293.358-.703 1.372-.175.418.058.477.352.418.293.119.527-.06.293-.298.879-1.551.176-.358v-.418l-.176-.358-.293-.238-.117-.06h-.528Zm2.344 1.551-.469.18-.879 1.61-.527.955-.058.119.058.537.235.358.292.179h.528l.293-.18.293-.357 1.172-2.327-.059-.537-.352-.417-.527-.12Zm2.168 1.313-.293.179-.293.477-.82 1.61-.117.24.058.536.293.299.41.179.528-.12.351-.417.996-1.97-.058-.536-.293-.358-.235-.12h-.527Zm2.402 1.252-.351.18-.293.477-.82 1.61v.478l.41.477.176.06h.527l.351-.239.293-.477.704-1.313.058-.537-.176-.358-.351-.298-.528-.06Zm2.051 1.134-.293.716-.351.656v.18l.703.357.41-.06.352-.238.175-.298v-.478l-.234-.417-.586-.358-.176-.06Z" fill="url(#a)" stroke="url(#b)" stroke-width=".2"/><defs><linearGradient id="a" x1="2.46" y1="6" x2="18.131" y2="33.475" gradientUnits="userSpaceOnUse"><stop stop-color="#C7FF51"/><stop offset="1" stop-color="#BA77FD"/></linearGradient><linearGradient id="b" x1="2.46" y1="6" x2="18.131" y2="33.475" gradientUnits="userSpaceOnUse"><stop stop-color="#C7FF51"/><stop offset="1" stop-color="#BA77FD"/></linearGradient></defs></svg>