<svg width="24" height="24" fill="none" xmlns="http://www.w3.org/2000/svg"><path d="M5.9 5.644a1.317 1.317 0 0 0-1.237 1.287l-.75-.011a20.43 20.43 0 0 1-.018.606l2.006-1.882Zm0 0c2.405-.134 4.315-.93 5.937-2.51l.004-.002a.498.498 0 0 1 .674 0l.003.003c1.623 1.58 3.532 2.375 5.937 2.509a1.317 1.317 0 0 1 1.238 1.287 21.04 21.04 0 0 0 .018.628v.003c.044 2.311.086 5.016-.812 7.45a9.083 9.083 0 0 1-2.176 3.394l.524.537-.524-.537c-1.09 1.065-2.54 1.931-4.329 2.557a.686.686 0 0 1-.216.037.65.65 0 0 1-.217-.037c-1.791-.625-3.241-1.49-4.333-2.555a9.07 9.07 0 0 1-2.176-3.392c-.895-2.428-.852-5.13-.808-7.438l.001-.026 1.256-1.908Z" stroke="url(#a)" stroke-width="1.5"/><path d="m9.953 12.563 1.203 1.242 3.157-3.242" stroke="url(#b)" stroke-width="1.5" stroke-linecap="round" stroke-linejoin="round"/><defs><linearGradient id="a" x1="4.683" y1="2.25" x2="21.573" y2="19.901" gradientUnits="userSpaceOnUse"><stop stop-color="#C7FF51"/><stop offset="1" stop-color="#BA77FD"/></linearGradient><linearGradient id="b" x1="10.745" y1="9.79" x2="13.083" y2="14.388" gradientUnits="userSpaceOnUse"><stop stop-color="#C7FF51"/><stop offset="1" stop-color="#BA77FD"/></linearGradient></defs></svg>