<svg width="548" height="586" fill="none" xmlns="http://www.w3.org/2000/svg"><path d="m442.805 95.514-1.587 6.347-7.537-7.537-3.173 3.174m12.297-1.984c4.126 5.654 11.062 16.058 19.669 24.756m-19.669-24.756-63.465-66.64c-3.173-4.759-.478-9.98 7.14-3.966 7.537 5.95 19.724 17.826 24.99 23.402m31.335 47.204 12.694-12.695m6.347-1.587-2.38-2.38-3.967 3.967m6.347-1.587 29.356-29.356m-29.356 29.356 2.975 2.975m25.584 39.072 4.76 4.76-5.157 5.157m.397-9.917c-5.077-2.539-12.693-11.107-15.866-15.073l7.14-7.141m8.726 22.214 31.736-31.736m-31.736 31.736-11.195 11.195m10.798-1.278 2.38 2.38-5.554 5.553-5.157-5.156m8.331-2.777c-5.025-2.909-16.264-10.868-21.023-19.437l-6.511 6.511m19.203 15.703-3.173 3.173 3.966 3.967-3.173 3.174m2.38-10.314a48.466 48.466 0 0 1-2.467-1.499m.087 11.813 5.553 5.553-7.537 7.537m1.984-13.09c-2.258-1.164-5.42-3.117-9.195-5.878m7.211 18.968c-28.878-16.818-49.847-44.822-56.722-56.722m56.722 56.722 7.139 7.14m-7.139-7.14-13.092 13.091m-23.01 54.743 37.286 33.319 24.992-24.992-36.096-36.096m-26.182 27.769-28.166 30.546 9.123 13.883 12.297 7.536 2.38 7.141 7.933 7.933-4.364 4.363m.797-71.402-20.229-20.229m20.229 20.229 26.182-27.769m-49.987 106.313 9.52 6.346 13.488-13.488m-23.008 7.142-6.347 6.347m6.347-6.347-2.097-1.869m-4.25 8.216 2.777 2.777-22.612 22.612-19.834-7.933m39.669-17.456a447.96 447.96 0 0 1-2.386-1.581m-37.283 19.037-5.157 5.157m5.157-5.157c-24.693-16.212-79.452-59.29-111.154-107.801m105.997 112.958 2.38 2.38-62.282 62.282m59.902-64.662c-11.053-6.56-21.571-13.911-31.464-21.688m-37.165 95.077-31.338 9.126m31.338-9.126 8.727-8.727m-8.727 8.727c-13.89-4.932-26.69-11.674-38.369-19.542m7.031 28.668c-19.702-9.387-67.195-42.441-99.561-99.561m99.561 99.561c26.02 26.02 47.335 25.649 54.74 22.211M166.705 317.669l8.728-31.735m-8.728 31.735c-11.607-18.222-18.586-43.029-20.625-53.154m29.353 21.419 8.728-8.728m-8.728 8.728c1.436 3.543 3.263 7.576 5.478 11.975m67.515-81.001-1.984-1.984-62.281 62.282m64.265-60.298 6.347-3.967m-6.347 3.967c3.551 6.004 8.853 14 15.703 23.169m-9.356-27.136-6.743-18.644 22.612-22.612 1.983 1.983m-17.852 39.273a211.92 211.92 0 0 0 5.463 8.816m12.389-48.089 6.348-6.347m-6.348 6.347c3.027 5.133 7.392 11.772 13.028 19.498m-6.68-25.845-7.14-9.52 13.884-13.884 5.95 10.71m-12.694 12.694 15.187 17.339m-2.493-30.033 38.48-38.48m-38.48 38.48 9.744 11.675m28.736-50.155-7.933-11.9 23.802-23.802-3.57-3.57 1.587-1.587m-13.886 40.859 27.785-26.166m72.576 7.517-1.19-1.19m1.19 1.19-21.025 21.025 7.536 7.536 19.367-19.366.124-.125M306.331 399.377c7.14 6.611 20.071 23.879 14.675 40.064m0 0-10.711 10.711-14.677-3.57-16.264 9.125m0 0L150.03 585.031c-20.555-3.251-38.484-9.012-54.078-16.528m183.402-112.796c-11.492-5.275-27.237-14.125-44.368-26.238M131.401 302.993l7.14-7.14-4.759-19.041 12.298-12.297m-14.679 38.478L.887 430.334c.412 6.259 1.446 13.495 3.238 21.355m127.276-148.696a197.63 197.63 0 0 0 6.202 15.218m8.477-53.696c5.686-2.777 21.262-4.127 38.081 12.691m151.535-69.823c5.42 8.33 19.991 26.973 34.906 34.906m-34.906-34.906 5.156-.397 1.587-1.587m-6.743 1.984-6.135-7.351m41.041 42.257 12.694-11.901c-3.425-1.944-7.136-4.858-10.826-8.214m-1.868 20.115 12.07 10.936m57.742 45.388-10.71-2.776-20.3-18.392m-51.995-71.149c-2.879-3.411-5.317-6.515-7.036-8.831l-7.934 7.934m14.97.897c4.338 5.14 9.677 10.98 15.061 15.878m-15.061-15.878 31.556-31.556m-16.495 47.434 31.852-31.852m-102.911-24.02 2.705-2.624m-2.705 2.624 8.301 9.946m31.852-48.908 27.267-26.46m-27.267 26.46 14.875 14.874m-14.875-14.874-34.743 33.713m82.144 13.687 25.673-25.673m-25.673 25.673-16.263-16.263m41.936-9.41-45.807-48.187m45.807 48.187 3.57-3.57m-49.377-44.617 2.416-2.344m0 0 10.47-10.16c-2.539-5.711-8.198-9.52-10.71-10.71l-5.72 5.388m5.96 15.482 46.961 46.961m0 0 10.314-10.315c3.306 4.364 11.027 13.566 15.47 15.47l-39.67 39.67m-47.883-48.108-12.476 13.138m12.476-13.138 16.263 16.263m-46.128 15.189-1.983-4.364-9.521 1.587-4.76-4.759-3.489-5.077m19.753 12.613 7.536 7.536m-7.536-7.536 17.389-18.314m-37.142 5.701-2.705 2.625m116.475-61.023-2.381 2.38-2.38-2.38 2.381-2.38-1.587-1.587-6.744 6.744-2.777-2.776-5.553 5.554-1.587-1.587 12.298-12.298-25.783-25.782m34.113 34.112 7.537-7.537 1.19 1.19m0 0a186.503 186.503 0 0 0 7.192 10.26m45.169-5.503-5.553-5.553m5.553 5.553 34.513-34.513c4.628-4.628 9.601-17.534-7.535-32.13m-46.183 85.848c2.807 2.838 5.708 5.578 8.608 8.052m31.624-87.95c4.628 2.777 12.376 11.106 6.346 22.214l-32.926 32.926m26.58-55.14 4.364-4.364m-4.364 4.364-6.347 6.347m-20.233 48.793-8.33-8.33m40.861-52.76 2.777-2.777 2.975 2.975m-5.752-.198-1.587 1.586M386.478 68.543l-17.85-17.85-6.744 6.744-27.766-27.766-7.537 7.537 24.99 24.99-2.777 2.776.396 5.157-5.157 5.157m42.445-6.745-6.347 6.347-5.553-5.553m0 0-8.727-8.727-11.901 11.901 8.727 8.727.793-.794m11.108-11.108-4.364 4.364m-4.927 9.354-2.214-2.213.397-.397m1.817 2.61-7.355 6.927m0 0-13.899-14.693m19.437 5.156 2.777-2.777m3.967-3.967-5.553-5.553-3.967 3.967 5.553 5.553m3.967-3.967-3.967 3.967m174.142-4.373 6.347-6.347-7.14-7.14m.793 13.487 4.363 4.364-7.14 7.14-4.363-4.363m7.14-7.14-7.14 7.14m0 0-6.744 6.744m0 0 3.57 3.57-4.364 4.364-3.57-3.57m4.364-4.364-4.364 4.364M507.07 36.008 480.097 9.036l-2.777 2.777m19.039 34.906-26.973-26.972 1.984-1.984m24.989 28.956-5.157 5.157M477.32 11.813l-10.313-9.52c-1.322-1.058-3.73-1.824-6.347.793-2.38 2.38-.529 4.76.397 5.157-9.918 10.976-24.992 25.786-33.719 28.166-4.364 2.248-16.344 2.699-29.354-13.485-3.305-4.1-10.313-11.107-11.9-6.346-1.587 4.76 15.469 19.171 24.196 25.782 6.479 1.983 21.103 4.283 27.768-2.381l27.769-27.77 5.553 5.554m5.95-5.95-5.95 5.95m15.468 38.477c-4.759-7.404-19.436-21.975-33.717-14.675-3.173 1.587-7.933 3.967-14.281 11.9-2.299 2.875-11.583 6.824-18.247 3.969m0 0-9.123-9.123m9.123 9.123 7.933 6.346 2.38-2.38 17.85 17.85 1.587-1.587 5.156 5.156M411.47 48.31c7.801 2.248 20.162 2.795 25.784-1.984 15.868-13.488 16.793-11.77 24.595-13.489 7.933 0 9.635.877 15.47 5.156 5.95 4.363 11.635 11.107 13.883 13.883M334.11 181.202l17.852-17.851-7.999-7.999m-9.853 25.85 1.587 1.587-2.777 2.777 3.173 3.173-5.157 5.95-1.983-1.983-3.001 3.001m0 0-9.744-11.675m9.744 11.675 3.609 4.325m-13.353-16 3.622-3.623-15.714-16.731m12.092 20.354-6.496-7.784m62.99-17.771-19.551 19.551-3.174 10.313-8.727.001-6.744 6.744m0 0 7.933 10.313m-7.933-10.313-4.945 4.946m74.761-9.71 16.66 16.66m0 0-19.439 19.438-9.52 3.967 1.19 5.95-8.728 8.728 1.983 4.363-3.796 3.797m0 0 2.913 2.639m0 0 4.057-4.056-2.777-2.777 5.157-5.157 5.95 5.95 15.471-15.471-2.38-3.173 5.554-5.554 10.313 10.313-19.438 19.438 3.173 2.38-4.363 5.157 1.586 1.587 4.761-4.761 1.983 2.777-5.157 5.95 3.966 3.967-4.037 5.011m-23.819-21.581 23.819 21.581m-99.692-101.197-12.218 12.218m0 0 2.223 2.537m-2.223-2.537-3.334-3.806m5.557 6.343-8.534 9.551m8.534-9.551 14.447 16.492m-22.981-6.941a380.94 380.94 0 0 1-5.53-7.388m5.53 7.388a448.46 448.46 0 0 0 13.359 16.563M294.16 184.66l-8.507 8.506m-25.417 28.591-7.051 3.877m0 0 10.944 14.443m-10.944-14.443-72.274 72.275m83.218-57.832-73.237 75.597m73.237-75.597c15.981 21.39 40.388 49.166 70.64 72.95m-143.877 2.647c-3.912-6.327-7.242-12.326-9.981-17.765m9.981 17.765c14.717 23.797 37.669 52.224 68.343 72.888m75.534-75.535-75.534 75.535m237.117-210.145 32.129 32.129-22.611 22.612-32.13-32.129m22.612-22.612-22.612 22.612m22.612-22.612-11.9-11.9m-10.712 34.512-40.062-40.063-2.38 2.38 36.095 36.096m2.709-59.033-18.97 18.97 13.089 13.089m5.881-32.059c-9.007-6.589-21.511-17.782-33.592-33.841m33.592 33.841.98-12.087m-.98 12.087 9.108-5.935m-14.989 37.994 3.967 10.314 16.264-16.265M190.105 376.772l-13.486-13.486 8.728-8.727 13.486 13.486m-8.728 8.727-7.36 7.361m7.36-7.361 8.728-8.727m-16.088 16.088.616 11.284 11.197.703m-11.813-11.987a315.25 315.25 0 0 0 11.813 11.987m-11.813-11.987c-13.085-14.013-25.314-29.764-35.395-47.11m47.208 59.097c13.433 12.929 27.335 24.092 40.428 33.349m-40.428-33.349 7.447-7.448m0 0 13.09 13.09 8.727-8.727-13.089-13.09m-8.728 8.727 8.728-8.727m-11.9-11.9 11.9 11.9m-73.13-61.734L4.125 451.689m133.478-133.478a215.358 215.358 0 0 0 9.747 18.812M4.125 451.689c1.578 6.92 3.743 14.324 6.587 21.972M147.35 337.023 10.712 473.661m0 0c12.55 33.742 38.324 72.23 85.24 94.842m139.034-139.034L95.952 568.503m218.212-361.008 9.631 10.995c4.892 8.859 18.801 28.322 35.302 35.303l13.843 12.336m-58.776-58.634-9.622 9.622m0 0c15.228 18.013 34.909 38.609 58.571 58.84m9.827-9.828-9.827 9.828m9.827-9.828 22.233 19.813m-32.06-9.985a495.383 495.383 0 0 0 23.302 18.743m8.758-8.758-8.758 8.758m8.758-8.758 14.682 13.084m-23.44-4.326a470.075 470.075 0 0 0 16.116 11.65m7.324-7.324-7.324 7.324m7.324-7.324 5.454 4.86m-12.778 2.464a458.09 458.09 0 0 0 6.142 4.171m6.636-6.635-6.636 6.635M517.384 37.595l-49.588 49.587m49.588-49.587-2.975-2.975m2.975 2.975 22.212 22.212m-71.8 27.375-2.975-2.975m49.588-49.587-49.588 49.587m74.775-24.4-68.514 68.515m0 0c2.737 2.335 5.472 4.433 8.128 6.152" stroke="#BA77FD"/></svg>