<svg width="765" height="634" fill="none" xmlns="http://www.w3.org/2000/svg"><mask id="b" fill="#fff"><path fill-rule="evenodd" clip-rule="evenodd" d="M63.97 633.486 0 571.564V436.545l765-228.117v371.504l-67.169 53.554H63.971ZM765 184.441 0 412.558V55.959L81.102 0h617.451L765 64.47v119.97Z"/></mask><path d="M0 571.564h-1v.424l.304.294.696-.718Zm63.97 61.922-.695.719.29.281h.405v-1ZM0 436.545l-.286-.958-.714.213v.745h1Zm765-228.117h1v-1.342l-1.286.383.286.959Zm0 371.504.623.782.377-.3v-.482h-1Zm-67.169 53.554v1h.349l.274-.218-.623-.782ZM0 412.558h-1v1.342l1.286-.383-.286-.959Zm765-228.117.286.958.714-.213v-.745h-1ZM0 55.959l-.568-.823-.432.298v.525h1ZM81.102 0v-1h-.312l-.256.177L81.1 0Zm617.451 0 .696-.717-.291-.283h-.405v1ZM765 64.47h1v-.424l-.304-.295-.696.718ZM-.696 572.281l63.97 61.923 1.392-1.437-63.97-61.923-1.392 1.437ZM-1 436.545v135.019h2V436.545h-2Zm765.714-229.076-765 228.118.572 1.916 765-228.117-.572-1.917ZM766 579.932V208.428h-2v371.504h2Zm-67.546 54.336 67.169-53.554-1.246-1.563-67.17 53.553 1.247 1.564Zm-634.484.218h633.861v-2H63.971v2ZM.286 413.517l765-228.118-.572-1.916-765 228.117.572 1.917ZM-1 55.959v356.599h2V55.959h-2ZM80.534-.823-.568 55.137l1.136 1.645L81.669.823 80.534-.823ZM698.553-1H81.101v2h617.452v-2Zm67.143 64.751L699.249-.717 697.856.718l66.448 64.469 1.392-1.436Zm.304 120.69V64.469h-2v119.972h2Z" fill="url(#a)" mask="url(#b)"/><defs><linearGradient id="a" x1="727.759" y1="633.486" x2="218.467" y2="-121.319" gradientUnits="userSpaceOnUse"><stop stop-color="#C7FF51"/><stop offset="1" stop-color="#BA77FD"/></linearGradient></defs></svg>