<svg width="44" height="32" fill="none" xmlns="http://www.w3.org/2000/svg"><path fill-rule="evenodd" clip-rule="evenodd" d="M1.355 6.23 4.23 3.355A4.585 4.585 0 0 1 7 2.03V2h11a3 3 0 0 1 3 3v4.5a1 1 0 0 1-2 0V5a1 1 0 0 0-1-1H8v3a3 3 0 0 1-3 3H2v17a1 1 0 0 0 1 1h15a1 1 0 0 0 1-1v-1.5H7a3 3 0 0 1-3-3v-7a3 3 0 0 1 3-3h34a3 3 0 0 1 3 3v7a3 3 0 0 1-3 3H21V27a3 3 0 0 1-3 3H3a3 3 0 0 1-3-3V9.5a4.62 4.62 0 0 1 1.355-3.27ZM5 8a1 1 0 0 0 1-1V4.5a2.64 2.64 0 0 0-.355.29l-2.88 2.88A2.64 2.64 0 0 0 2.5 8H5Z" fill="url(#a)"/><path d="M14.68 24h-1.692l3.252-4.32-3.096-4.2H14.8l2.292 3.108 2.304-3.108h1.656l-3.096 4.212L21.208 24h-1.68l-2.424-3.192L14.68 24Zm8.155 0v-8.52h1.404v7.176h3.9V24h-5.304Zm9.59.144c-.913 0-1.653-.252-2.22-.756-.56-.512-.857-1.124-.889-1.836h1.404c.048.408.236.724.564.948.336.224.712.336 1.128.336.416 0 .756-.096 1.02-.288a.937.937 0 0 0 .408-.792c0-.576-.392-.992-1.176-1.248l-1.044-.348c-1.392-.44-2.088-1.26-2.088-2.46 0-.728.248-1.304.744-1.728.504-.424 1.16-.636 1.968-.636.84 0 1.508.244 2.004.732.496.48.772 1.048.828 1.704h-1.404c-.088-.376-.268-.656-.54-.84a1.545 1.545 0 0 0-.912-.288c-.368 0-.672.092-.912.276a.865.865 0 0 0-.372.708c0 .304.092.552.276.744.184.184.476.34.876.468l1.056.336c1.408.456 2.112 1.3 2.112 2.532 0 .72-.264 1.308-.792 1.764-.52.448-1.2.672-2.04.672Z" fill="#272727"/><defs><linearGradient id="a" x1="2.142" y1="2" x2="21.982" y2="40.264" gradientUnits="userSpaceOnUse"><stop stop-color="#C7FF51"/><stop offset="1" stop-color="#BA77FD"/></linearGradient></defs></svg>